<svg width="163" height="87" viewBox="0 0 163 87" fill="none" xmlns="http://www.w3.org/2000/svg">
<g opacity="0.1">
<g clip-path="url(#clip0)">
<path d="M85.2573 54.6755C87.0405 58.6176 91.1527 61.8223 95.1132 63.5597C102.59 66.8504 111.532 67.6583 119.516 65.8972" fill="#D1EBE1"/>
<path d="M85.2573 54.6755C87.0405 58.6176 91.1527 61.8223 95.1132 63.5597C102.59 66.8504 111.532 67.6583 119.516 65.8972" stroke="#575756" stroke-width="0.5" stroke-miterlimit="10" stroke-linecap="round"/>
<path d="M5.84096 77.6919C28.6316 60.5974 58.1158 56.1869 85.0628 46.9793C100.718 41.6375 115.769 34.5312 129.867 25.8677" stroke="#575756" stroke-width="0.5" stroke-miterlimit="10" stroke-linecap="round"/>
<path d="M106.857 46.0372C106.904 46.0679 106.962 46.0864 107.01 46.1171C113.953 45.1706 121.221 46.5318 127.583 49.4712C133.945 52.4106 139.689 56.5206 145.385 60.6C131.622 61.6767 116.624 56.0536 107.01 46.1171" fill="#D1EBE1"/>
<path d="M106.857 46.0372C106.904 46.0679 106.962 46.0864 107.01 46.1171C113.953 45.1706 121.221 46.5318 127.583 49.4712C133.945 52.4106 139.689 56.5206 145.385 60.6C131.622 61.6767 116.624 56.0536 107.01 46.1171" stroke="#575756" stroke-width="0.5" stroke-miterlimit="10" stroke-linecap="round"/>
<path d="M97.5564 42.6284C100.758 43.4427 103.881 44.5811 106.845 46.0381L97.5564 42.6284Z" fill="#D1EBE1"/>
<path d="M97.5564 42.6284C100.758 43.4427 103.881 44.5811 106.845 46.0381" stroke="#575756" stroke-width="0.5" stroke-miterlimit="10" stroke-linecap="round"/>
<path d="M107.103 46.1445C113.12 49.0293 120.516 51.9847 126.797 54.2704C132.949 56.5085 139.405 57.9286 145.386 60.6113" fill="#D1EBE1"/>
<path d="M107.103 46.1445C113.12 49.0293 120.516 51.9847 126.797 54.2704C132.949 56.5085 139.405 57.9286 145.386 60.6113" stroke="#575756" stroke-width="0.5" stroke-miterlimit="10" stroke-linecap="round"/>
<path d="M109.434 47.1584C110.302 46.6065 111.355 45.9616 112.377 45.808L109.434 47.1584Z" fill="#D1EBE1"/>
<path d="M109.434 47.1584C110.302 46.6065 111.355 45.9616 112.377 45.808" stroke="#575756" stroke-width="0.5" stroke-miterlimit="10" stroke-linecap="round"/>
<path d="M111.738 48.2651C113.212 47.3168 114.871 46.5711 116.582 46.2311L111.738 48.2651Z" fill="#D1EBE1"/>
<path d="M111.738 48.2651C113.212 47.3168 114.871 46.5711 116.582 46.2311" stroke="#575756" stroke-width="0.5" stroke-miterlimit="10" stroke-linecap="round"/>
<path d="M114.028 49.1909C115.704 48.2052 117.451 47.4191 119.246 46.6749L114.028 49.1909Z" fill="#D1EBE1"/>
<path d="M114.028 49.1909C115.704 48.2052 117.451 47.4191 119.246 46.6749" stroke="#575756" stroke-width="0.5" stroke-miterlimit="10" stroke-linecap="round"/>
<path d="M116.098 50.0417C117.716 49.0375 119.48 48.0227 121.201 47.1929L116.098 50.0417Z" fill="#D1EBE1"/>
<path d="M116.098 50.0417C117.716 49.0375 119.48 48.0227 121.201 47.1929" stroke="#575756" stroke-width="0.5" stroke-miterlimit="10" stroke-linecap="round"/>
<path d="M118.378 50.9797C119.247 50.2799 120.193 49.8702 121.147 49.2665C121.875 48.8158 122.683 48.2228 123.464 47.8932" fill="#D1EBE1"/>
<path d="M118.378 50.9797C119.247 50.2799 120.193 49.8702 121.147 49.2665C121.875 48.8158 122.683 48.2228 123.464 47.8932" stroke="#575756" stroke-width="0.5" stroke-miterlimit="10" stroke-linecap="round"/>
<path d="M120.429 51.7181C122.217 50.5651 123.875 49.6489 125.834 48.8133L120.429 51.7181Z" fill="#D1EBE1"/>
<path d="M120.429 51.7181C122.217 50.5651 123.875 49.6489 125.834 48.8133" stroke="#575756" stroke-width="0.5" stroke-miterlimit="10" stroke-linecap="round"/>
<path d="M122.194 52.4431C124.348 51.9459 126.131 50.4066 128.257 49.8432L122.194 52.4431Z" fill="#D1EBE1"/>
<path d="M122.194 52.4431C124.348 51.9459 126.131 50.4066 128.257 49.8432" stroke="#575756" stroke-width="0.5" stroke-miterlimit="10" stroke-linecap="round"/>
<path d="M124.333 53.3005C126.058 52.6865 127.772 52.0733 129.487 51.4714C129.918 51.3151 130.273 51.1984 130.704 51.0421" fill="#D1EBE1"/>
<path d="M124.333 53.3005C126.058 52.6865 127.772 52.0733 129.487 51.4714C129.918 51.3151 130.273 51.1984 130.704 51.0421" stroke="#575756" stroke-width="0.5" stroke-miterlimit="10" stroke-linecap="round"/>
<path d="M127.038 54.3099C127.381 54.1941 127.724 54.0782 128.056 53.9632C129.75 53.3856 131.179 52.9068 132.874 52.3405" fill="#D1EBE1"/>
<path d="M127.038 54.3099C127.381 54.1941 127.724 54.0782 128.056 53.9632C129.75 53.3856 131.179 52.9068 132.874 52.3405" stroke="#575756" stroke-width="0.5" stroke-miterlimit="10" stroke-linecap="round"/>
<path d="M129.751 55.2733C131.44 54.7871 133.467 54.1057 135.171 53.6639L129.751 55.2733Z" fill="#D1EBE1"/>
<path d="M129.751 55.2733C131.44 54.7871 133.467 54.1057 135.171 53.6639" stroke="#575756" stroke-width="0.5" stroke-miterlimit="10" stroke-linecap="round"/>
<path d="M133.371 56.3756C134.634 55.9543 136.219 55.2823 137.549 55.1632L133.371 56.3756Z" fill="#D1EBE1"/>
<path d="M133.371 56.3756C134.634 55.9543 136.219 55.2823 137.549 55.1632" stroke="#575756" stroke-width="0.5" stroke-miterlimit="10" stroke-linecap="round"/>
<path d="M136.138 57.3011C136.968 57.0135 138.253 56.4314 139.098 56.1996L136.138 57.3011Z" fill="#D1EBE1"/>
<path d="M136.138 57.3011C136.968 57.0135 138.253 56.4314 139.098 56.1996" stroke="#575756" stroke-width="0.5" stroke-miterlimit="10" stroke-linecap="round"/>
<path d="M140.781 57.34C140.134 57.4892 139.368 57.7267 138.75 57.9648C138.892 58.2046 139.018 58.5254 139.16 58.7652C139.56 59.4413 139.838 59.9785 140.237 60.6432" fill="#D1EBE1"/>
<path d="M140.781 57.34C140.134 57.4892 139.368 57.7267 138.75 57.9648C138.892 58.2046 139.018 58.5254 139.16 58.7652C139.56 59.4413 139.838 59.9785 140.237 60.6432" stroke="#575756" stroke-width="0.5" stroke-miterlimit="10" stroke-linecap="round"/>
<path d="M141.462 59.076C141.722 59.6827 142.006 60.1625 142.352 60.7061L141.462 59.076Z" fill="#D1EBE1"/>
<path d="M141.462 59.076C141.722 59.6827 142.006 60.1625 142.352 60.7061" stroke="#575756" stroke-width="0.5" stroke-miterlimit="10" stroke-linecap="round"/>
<path d="M136.138 57.301C136.476 58.0612 136.793 58.8343 137.077 59.6211C137.177 59.8982 137.288 60.1858 137.476 60.4224" fill="#D1EBE1"/>
<path d="M136.138 57.301C136.476 58.0612 136.793 58.8343 137.077 59.6211C137.177 59.8982 137.288 60.1858 137.476 60.4224" stroke="#575756" stroke-width="0.5" stroke-miterlimit="10" stroke-linecap="round"/>
<path d="M133.332 56.4695C133.673 57.7298 134.026 58.8415 134.5 60.0581L133.332 56.4695Z" fill="#D1EBE1"/>
<path d="M133.332 56.4695C133.673 57.7298 134.026 58.8415 134.5 60.0581" stroke="#575756" stroke-width="0.5" stroke-miterlimit="10" stroke-linecap="round"/>
<path d="M129.774 55.4308C129.912 55.9325 129.941 55.8622 130.044 56.1845C130.316 57.1201 130.622 57.7461 130.942 58.3939C131.128 58.7785 131.337 59.15 131.534 59.5224" fill="#D1EBE1"/>
<path d="M129.774 55.4308C129.912 55.9325 129.941 55.8622 130.044 56.1845C130.316 57.1201 130.622 57.7461 130.942 58.3939C131.128 58.7785 131.337 59.15 131.534 59.5224" stroke="#575756" stroke-width="0.5" stroke-miterlimit="10" stroke-linecap="round"/>
<path d="M127.099 54.3737C127.495 55.9257 128.08 57.4186 128.829 58.8313L127.099 54.3737Z" fill="#D1EBE1"/>
<path d="M127.099 54.3737C127.495 55.9257 128.08 57.4186 128.829 58.8313" stroke="#575756" stroke-width="0.5" stroke-miterlimit="10" stroke-linecap="round"/>
<path d="M124.35 53.39C124.528 54.7418 125.033 55.6037 125.48 56.7653C125.633 57.1523 125.752 57.553 125.927 57.927" fill="#D1EBE1"/>
<path d="M124.35 53.39C124.528 54.7418 125.033 55.6037 125.48 56.7653C125.633 57.1523 125.752 57.553 125.927 57.927" stroke="#575756" stroke-width="0.5" stroke-miterlimit="10" stroke-linecap="round"/>
<path d="M122.074 52.5087C122.472 54.0833 123.026 55.6239 123.711 57.0981L122.074 52.5087Z" fill="#D1EBE1"/>
<path d="M122.074 52.5087C122.472 54.0833 123.026 55.6239 123.711 57.0981" stroke="#575756" stroke-width="0.5" stroke-miterlimit="10" stroke-linecap="round"/>
<path d="M120.31 51.7951C120.348 52.7931 120.69 53.7577 121.019 54.7004C121.205 55.2328 121.397 55.6852 121.583 56.2176" fill="#D1EBE1"/>
<path d="M120.31 51.7951C120.348 52.7931 120.69 53.7577 121.019 54.7004C121.205 55.2328 121.397 55.6852 121.583 56.2176" stroke="#575756" stroke-width="0.5" stroke-miterlimit="10" stroke-linecap="round"/>
<path d="M118.378 50.9796C118.287 51.1227 118.312 51.3142 118.336 51.4944C118.579 52.8074 118.861 53.8787 119.371 55.1268" fill="#D1EBE1"/>
<path d="M118.378 50.9796C118.287 51.1227 118.312 51.3142 118.336 51.4944C118.579 52.8074 118.861 53.8787 119.371 55.1268" stroke="#575756" stroke-width="0.5" stroke-miterlimit="10" stroke-linecap="round"/>
<path d="M116.068 50.1007C116.037 50.2963 116.032 50.3876 116.091 50.5767C116.293 51.324 116.506 52.0705 116.708 52.8179C116.815 53.1968 116.982 53.6282 117.14 53.9351" fill="#D1EBE1"/>
<path d="M116.068 50.1007C116.037 50.2963 116.032 50.3876 116.091 50.5767C116.293 51.324 116.506 52.0705 116.708 52.8179C116.815 53.1968 116.982 53.6282 117.14 53.9351" stroke="#575756" stroke-width="0.5" stroke-miterlimit="10" stroke-linecap="round"/>
<path d="M114.001 49.2839C114.078 49.7219 114.156 50.0119 114.232 50.4385C114.382 51.2578 114.642 52.0237 114.944 52.5931" fill="#D1EBE1"/>
<path d="M114.001 49.2839C114.078 49.7219 114.156 50.0119 114.232 50.4385C114.382 51.2578 114.642 52.0237 114.944 52.5931" stroke="#575756" stroke-width="0.5" stroke-miterlimit="10" stroke-linecap="round"/>
<path d="M111.738 48.2651C111.758 48.3888 111.805 48.4081 111.825 48.5317C111.94 49.183 112.125 50.159 112.399 50.8101" fill="#D1EBE1"/>
<path d="M111.738 48.2651C111.758 48.3888 111.805 48.4081 111.825 48.5317C111.94 49.183 112.125 50.159 112.399 50.8101" stroke="#575756" stroke-width="0.5" stroke-miterlimit="10" stroke-linecap="round"/>
<path d="M109.368 47.1859C109.565 47.8654 109.91 48.4089 110.28 49.1327L109.368 47.1859Z" fill="#D1EBE1"/>
<path d="M109.368 47.1859C109.565 47.8654 109.91 48.4089 110.28 49.1327" stroke="#575756" stroke-width="0.5" stroke-miterlimit="10" stroke-linecap="round"/>
<path d="M83.9529 54.0537C84.0561 54.069 84.1593 54.0842 84.2625 54.0995C86.2428 54.3427 88.2532 54.0606 90.2403 53.928C101.285 53.2302 112.55 57.759 120.072 65.9025C107.708 65.3084 95.4372 59.4196 84.2617 54.0882" fill="#D1EBE1"/>
<path d="M83.9529 54.0537C84.0561 54.069 84.1593 54.0842 84.2625 54.0995C86.2428 54.3427 88.2532 54.0606 90.2403 53.928C101.285 53.2302 112.55 57.759 120.072 65.9025C107.708 65.3084 95.4372 59.4196 84.2617 54.0882" stroke="#575756" stroke-width="0.5" stroke-miterlimit="10" stroke-linecap="round"/>
<path d="M75.2371 50.1021C77.9592 51.8154 80.7871 53.5779 83.9528 54.0536L75.2371 50.1021Z" fill="#D1EBE1"/>
<path d="M75.2371 50.1021C77.9592 51.8154 80.7871 53.5779 83.9528 54.0536" stroke="#575756" stroke-width="0.5" stroke-miterlimit="10" stroke-linecap="round"/>
<path d="M108.387 33.0191C108.418 32.9827 108.438 32.9471 108.47 32.9107C109.944 30.8706 111.964 29.3028 113.826 27.6099C121.129 20.9853 126.325 12.057 128.498 2.42658C124.781 3.2758 121.875 4.96477 119.238 7.72586C113.207 14.0536 110.185 24.3255 108.47 32.9107" fill="#D1EBE1"/>
<path d="M108.387 33.0191C108.418 32.9827 108.438 32.9471 108.47 32.9107C109.944 30.8706 111.964 29.3028 113.826 27.6099C121.129 20.9853 126.325 12.057 128.498 2.42658C124.781 3.2758 121.875 4.96477 119.238 7.72586C113.207 14.0536 110.185 24.3255 108.47 32.9107" stroke="#575756" stroke-width="0.5" stroke-miterlimit="10" stroke-linecap="round"/>
<path d="M105.573 38.6474C106.335 36.8067 107.246 34.6483 108.398 33.0182L105.573 38.6474Z" fill="#D1EBE1"/>
<path d="M105.573 38.6474C106.335 36.8067 107.246 34.6483 108.398 33.0182" stroke="#575756" stroke-width="0.5" stroke-miterlimit="10" stroke-linecap="round"/>
<path d="M128.498 2.42653C120.788 9.38759 111.516 22.9668 108.47 32.9107L128.498 2.42653Z" fill="#D1EBE1"/>
<path d="M128.498 2.42653C120.788 9.38759 111.516 22.9668 108.47 32.9107" stroke="#575756" stroke-width="0.5" stroke-miterlimit="10" stroke-linecap="round"/>
<path d="M109.714 29.5795C110.716 29.4728 111.539 29.2313 112.437 28.7909L109.714 29.5795Z" fill="#D1EBE1"/>
<path d="M109.714 29.5795C110.716 29.4728 111.539 29.2313 112.437 28.7909" stroke="#575756" stroke-width="0.5" stroke-miterlimit="10" stroke-linecap="round"/>
<path d="M110.524 27.5989C111.184 27.4715 111.844 27.344 112.505 27.2166C113.22 27.0738 114.283 26.8604 114.941 26.5511" fill="#D1EBE1"/>
<path d="M110.524 27.5989C111.184 27.4715 111.844 27.344 112.505 27.2166C113.22 27.0738 114.283 26.8604 114.941 26.5511" stroke="#575756" stroke-width="0.5" stroke-miterlimit="10" stroke-linecap="round"/>
<path d="M111.631 25.1873C113.351 24.9717 115.54 24.4947 117.239 24.1329L111.631 25.1873Z" fill="#D1EBE1"/>
<path d="M111.631 25.1873C113.351 24.9717 115.54 24.4947 117.239 24.1329" stroke="#575756" stroke-width="0.5" stroke-miterlimit="10" stroke-linecap="round"/>
<path d="M112.832 22.9738C113.934 22.8371 114.941 22.6391 116.042 22.4911C117.065 22.3601 118.283 22.1013 119.231 21.7256" fill="#D1EBE1"/>
<path d="M112.832 22.9738C113.934 22.8371 114.941 22.6391 116.042 22.4911C117.065 22.3601 118.283 22.1013 119.231 21.7256" stroke="#575756" stroke-width="0.5" stroke-miterlimit="10" stroke-linecap="round"/>
<path d="M114.273 20.4698C116.463 20.1633 118.665 19.856 120.854 19.5382L114.273 20.4698Z" fill="#D1EBE1"/>
<path d="M114.273 20.4698C116.463 20.1633 118.665 19.856 120.854 19.5382" stroke="#575756" stroke-width="0.5" stroke-miterlimit="10" stroke-linecap="round"/>
<path d="M115.58 18.3054C116.477 18.32 117.374 18.1754 118.26 18.0316C119.617 17.8083 120.973 17.5849 122.33 17.3615" fill="#D1EBE1"/>
<path d="M115.58 18.3054C116.477 18.32 117.374 18.1754 118.26 18.0316C119.617 17.8083 120.973 17.5849 122.33 17.3615" stroke="#575756" stroke-width="0.5" stroke-miterlimit="10" stroke-linecap="round"/>
<path d="M116.96 16.204C119.183 15.7246 121.435 15.334 123.693 15.0339L116.96 16.204Z" fill="#D1EBE1"/>
<path d="M116.96 16.204C119.183 15.7246 121.435 15.334 123.693 15.0339" stroke="#575756" stroke-width="0.5" stroke-miterlimit="10" stroke-linecap="round"/>
<path d="M118.654 13.75C120.781 13.3684 122.786 13.0071 124.914 12.6255L118.654 13.75Z" fill="#D1EBE1"/>
<path d="M118.654 13.75C120.781 13.3684 122.786 13.0071 124.914 12.6255" stroke="#575756" stroke-width="0.5" stroke-miterlimit="10" stroke-linecap="round"/>
<path d="M120.337 11.4673C122.191 11.2079 123.953 10.9551 125.801 10.6166L120.337 11.4673Z" fill="#D1EBE1"/>
<path d="M120.337 11.4673C122.191 11.2079 123.953 10.9551 125.801 10.6166" stroke="#575756" stroke-width="0.5" stroke-miterlimit="10" stroke-linecap="round"/>
<path d="M121.982 9.42626C122.655 9.32064 123.189 9.16826 123.858 9.00608C124.816 8.76607 125.785 8.51393 126.743 8.27393" fill="#D1EBE1"/>
<path d="M121.982 9.42626C122.655 9.32064 123.189 9.16826 123.858 9.00608C124.816 8.76607 125.785 8.51393 126.743 8.27393" stroke="#575756" stroke-width="0.5" stroke-miterlimit="10" stroke-linecap="round"/>
<path d="M124.172 6.92486C125.419 6.59571 126.326 6.27979 127.525 6.06786L124.172 6.92486Z" fill="#D1EBE1"/>
<path d="M124.172 6.92486C125.419 6.59571 126.326 6.27979 127.525 6.06786" stroke="#575756" stroke-width="0.5" stroke-miterlimit="10" stroke-linecap="round"/>
<path d="M128.031 4.13212C127.401 4.20053 126.744 4.37321 126.174 4.6533C126.126 4.14504 126.263 3.53238 126.386 3.03448" fill="#D1EBE1"/>
<path d="M128.031 4.13212C127.401 4.20053 126.744 4.37321 126.174 4.6533C126.126 4.14504 126.263 3.53238 126.386 3.03448" stroke="#575756" stroke-width="0.5" stroke-miterlimit="10" stroke-linecap="round"/>
<path d="M124.041 6.84342C123.776 5.99837 123.785 5.03105 123.778 4.14457L124.041 6.84342Z" fill="#D1EBE1"/>
<path d="M124.041 6.84342C123.776 5.99837 123.785 5.03105 123.778 4.14457" stroke="#575756" stroke-width="0.5" stroke-miterlimit="10" stroke-linecap="round"/>
<path d="M121.859 9.44657C121.84 9.34557 121.83 9.05062 121.823 8.9488C121.648 7.79012 121.482 6.59669 121.81 5.48122" fill="#D1EBE1"/>
<path d="M121.859 9.44657C121.84 9.34557 121.83 9.05062 121.823 8.9488C121.648 7.79012 121.482 6.59669 121.81 5.48122" stroke="#575756" stroke-width="0.5" stroke-miterlimit="10" stroke-linecap="round"/>
<path d="M120.254 11.5643C119.782 10.2225 119.618 8.58538 119.846 7.19282L120.254 11.5643Z" fill="#D1EBE1"/>
<path d="M120.254 11.5643C119.782 10.2225 119.618 8.58538 119.846 7.19282" stroke="#575756" stroke-width="0.5" stroke-miterlimit="10" stroke-linecap="round"/>
<path d="M118.529 13.759C118.065 12.6782 117.856 11.5106 117.771 10.3341C117.753 10.0852 117.749 9.88076 117.769 9.5268" fill="#D1EBE1"/>
<path d="M118.529 13.759C118.065 12.6782 117.856 11.5106 117.771 10.3341C117.753 10.0852 117.749 9.88076 117.769 9.5268" stroke="#575756" stroke-width="0.5" stroke-miterlimit="10" stroke-linecap="round"/>
<path d="M116.834 16.3496C116.527 14.7797 116.276 13.1944 116.182 11.5864L116.834 16.3496Z" fill="#D1EBE1"/>
<path d="M116.834 16.3496C116.527 14.7797 116.276 13.1944 116.182 11.5864" stroke="#575756" stroke-width="0.5" stroke-miterlimit="10" stroke-linecap="round"/>
<path d="M115.58 18.3054C115.25 18.136 115.066 17.6263 114.939 17.2829C114.618 16.4646 114.494 15.5297 114.476 14.6554" fill="#D1EBE1"/>
<path d="M115.58 18.3054C115.25 18.136 115.066 17.6263 114.939 17.2829C114.618 16.4646 114.494 15.5297 114.476 14.6554" stroke="#575756" stroke-width="0.5" stroke-miterlimit="10" stroke-linecap="round"/>
<path d="M114.273 20.4699C113.702 19.6356 113.266 18.1547 113.238 17.1332L114.273 20.4699Z" fill="#D1EBE1"/>
<path d="M114.273 20.4699C113.702 19.6356 113.266 18.1547 113.238 17.1332" stroke="#575756" stroke-width="0.5" stroke-miterlimit="10" stroke-linecap="round"/>
<path d="M112.737 22.9124C112.329 22.1346 111.906 21.301 111.854 20.4291L112.737 22.9124Z" fill="#D1EBE1"/>
<path d="M112.737 22.9124C112.329 22.1346 111.906 21.301 111.854 20.4291" stroke="#575756" stroke-width="0.5" stroke-miterlimit="10" stroke-linecap="round"/>
<path d="M111.519 25.0476C111.388 24.9548 111.268 24.5541 111.234 24.3973C111.077 23.7946 111.071 23.4084 111.083 22.7934" fill="#D1EBE1"/>
<path d="M111.519 25.0476C111.388 24.9548 111.268 24.5541 111.234 24.3973C111.077 23.7946 111.071 23.4084 111.083 22.7934" stroke="#575756" stroke-width="0.5" stroke-miterlimit="10" stroke-linecap="round"/>
<path d="M110.524 27.599C110.246 27.1984 109.963 26.7412 110.007 26.249L110.524 27.599Z" fill="#D1EBE1"/>
<path d="M110.524 27.599C110.246 27.1984 109.963 26.7412 110.007 26.249" stroke="#575756" stroke-width="0.5" stroke-miterlimit="10" stroke-linecap="round"/>
<path d="M66.8654 48.5479C68.4241 46.7292 69.6618 44.8654 70.5946 42.8646C74.7779 33.8959 74.1682 23.4436 72.541 13.6677C69.2213 17.9567 67.6147 22.8721 66.5826 28.2008C65.9703 31.3384 65.4976 34.5228 65.4796 37.7197C65.4739 41.0862 66.1363 44.9048 66.9069 48.181" fill="#D1EBE1"/>
<path d="M66.8654 48.5479C68.4241 46.7292 69.6618 44.8654 70.5946 42.8646C74.7779 33.8959 74.1682 23.4436 72.541 13.6677C69.2213 17.9567 67.6147 22.8721 66.5826 28.2008C65.9703 31.3384 65.4976 34.5228 65.4796 37.7197C65.4739 41.0862 66.1363 44.9048 66.9069 48.181" stroke="#575756" stroke-width="0.5" stroke-miterlimit="10" stroke-linecap="round"/>
<path d="M60.7611 54.335C63.183 52.3741 65.202 50.4879 66.8548 48.56L60.7611 54.335Z" fill="#D1EBE1"/>
<path d="M60.7611 54.335C63.183 52.3741 65.202 50.4879 66.8548 48.56" stroke="#575756" stroke-width="0.5" stroke-miterlimit="10" stroke-linecap="round"/>
<path d="M72.5304 13.6797C72.0593 15.4765 71.1026 23.2562 70.6323 25.0643C68.422 33.5489 65.5939 39.7696 66.9368 48.4403" fill="#D1EBE1"/>
<path d="M72.5304 13.6797C72.0593 15.4765 71.1026 23.2562 70.6323 25.0643C68.422 33.5489 65.5939 39.7696 66.9368 48.4403" stroke="#575756" stroke-width="0.5" stroke-miterlimit="10" stroke-linecap="round"/>
<path d="M66.8196 47.2889C68.6002 44.9309 69.5187 43.8295 71.0586 41.7506L66.8196 47.2889Z" fill="#D1EBE1"/>
<path d="M66.8196 47.2889C68.6002 44.9309 69.5187 43.8295 71.0586 41.7506" stroke="#575756" stroke-width="0.5" stroke-miterlimit="10" stroke-linecap="round"/>
<path d="M66.689 45.331C68.3801 42.9909 70.4104 40.4784 72.283 38.2957L66.689 45.331Z" fill="#D1EBE1"/>
<path d="M66.689 45.331C68.3801 42.9909 70.4104 40.4784 72.283 38.2957" stroke="#575756" stroke-width="0.5" stroke-miterlimit="10" stroke-linecap="round"/>
<path d="M66.6661 42.8193C68.7793 40.1985 70.8925 37.5776 73.0057 34.9568L66.6661 42.8193Z" fill="#D1EBE1"/>
<path d="M66.6661 42.8193C68.7793 40.1985 70.8925 37.5776 73.0057 34.9568" stroke="#575756" stroke-width="0.5" stroke-miterlimit="10" stroke-linecap="round"/>
<path d="M66.834 40.4418C68.1083 38.1432 70.3057 36.5284 71.9141 34.4559C72.4333 33.7928 73.0291 33.09 73.4765 32.3753" fill="#D1EBE1"/>
<path d="M66.834 40.4418C68.1083 38.1432 70.3057 36.5284 71.9141 34.4559C72.4333 33.7928 73.0291 33.09 73.4765 32.3753" stroke="#575756" stroke-width="0.5" stroke-miterlimit="10" stroke-linecap="round"/>
<path d="M67.4315 37.1006C69.6347 34.9395 71.5157 33.0291 73.6084 30.7509L67.4315 37.1006Z" fill="#D1EBE1"/>
<path d="M67.4315 37.1006C69.6347 34.9395 71.5157 33.0291 73.6084 30.7509" stroke="#575756" stroke-width="0.5" stroke-miterlimit="10" stroke-linecap="round"/>
<path d="M67.8634 34.9199C69.7968 32.9489 71.7995 30.9957 73.6674 28.9043L67.8634 34.9199Z" fill="#D1EBE1"/>
<path d="M67.8634 34.9199C69.7968 32.9489 71.7995 30.9957 73.6674 28.9043" stroke="#575756" stroke-width="0.5" stroke-miterlimit="10" stroke-linecap="round"/>
<path d="M68.5549 32.5612C68.9407 32.249 72.0866 28.2227 73.6682 26.7208L68.5549 32.5612Z" fill="#D1EBE1"/>
<path d="M68.5549 32.5612C68.9407 32.249 72.0866 28.2227 73.6682 26.7208" stroke="#575756" stroke-width="0.5" stroke-miterlimit="10" stroke-linecap="round"/>
<path d="M69.5675 29.156C71.0007 27.642 72.2343 26.3472 73.6789 24.8324L69.5675 29.156Z" fill="#D1EBE1"/>
<path d="M69.5675 29.156C71.0007 27.642 72.2343 26.3472 73.6789 24.8324" stroke="#575756" stroke-width="0.5" stroke-miterlimit="10" stroke-linecap="round"/>
<path d="M70.4634 26.0205C71.6576 24.8081 72.5466 23.9249 73.5721 22.577L70.4634 26.0205Z" fill="#D1EBE1"/>
<path d="M70.4634 26.0205C71.6576 24.8081 72.5466 23.9249 73.5721 22.577" stroke="#575756" stroke-width="0.5" stroke-miterlimit="10" stroke-linecap="round"/>
<path d="M70.8894 23.6014C71.7382 22.7894 72.6989 21.7986 73.4863 20.9228L70.8894 23.6014Z" fill="#D1EBE1"/>
<path d="M70.8894 23.6014C71.7382 22.7894 72.6989 21.7986 73.4863 20.9228" stroke="#575756" stroke-width="0.5" stroke-miterlimit="10" stroke-linecap="round"/>
<path d="M71.3368 21.3174C71.9258 20.365 72.63 19.2791 73.219 18.3266L71.3368 21.3174Z" fill="#D1EBE1"/>
<path d="M71.3368 21.3174C71.9258 20.365 72.63 19.2791 73.219 18.3266" stroke="#575756" stroke-width="0.5" stroke-miterlimit="10" stroke-linecap="round"/>
<path d="M70.3954 16.939C70.5216 17.271 70.6451 17.4099 70.8575 17.6788C71.0448 17.9155 71.4974 18.2125 71.795 18.2478C72.2007 17.7407 72.6064 17.2337 73.0009 16.7275" fill="#D1EBE1"/>
<path d="M70.3954 16.939C70.5216 17.271 70.6451 17.4099 70.8575 17.6788C71.0448 17.9155 71.4974 18.2125 71.795 18.2478C72.2007 17.7407 72.6064 17.2337 73.0009 16.7275" stroke="#575756" stroke-width="0.5" stroke-miterlimit="10" stroke-linecap="round"/>
<path d="M69.2664 19.2042C69.6802 20.0613 70.434 20.7572 71.3309 21.0789L69.2664 19.2042Z" fill="#D1EBE1"/>
<path d="M69.2664 19.2042C69.6802 20.0613 70.434 20.7572 71.3309 21.0789" stroke="#575756" stroke-width="0.5" stroke-miterlimit="10" stroke-linecap="round"/>
<path d="M68.366 21.4985C68.8083 21.9669 69.2062 22.2906 69.6799 22.7225C70.0923 23.0907 70.5441 23.3764 70.8781 23.6023" fill="#D1EBE1"/>
<path d="M68.366 21.4985C68.8083 21.9669 69.2062 22.2906 69.6799 22.7225C70.0923 23.0907 70.5441 23.3764 70.8781 23.6023" stroke="#575756" stroke-width="0.5" stroke-miterlimit="10" stroke-linecap="round"/>
<path d="M67.646 24.0867C68.1626 24.6406 68.7429 25.1331 69.3633 25.5544C69.674 25.7707 69.9943 25.9635 70.3636 26.0505" fill="#D1EBE1"/>
<path d="M67.646 24.0867C68.1626 24.6406 68.7429 25.1331 69.3633 25.5544C69.674 25.7707 69.9943 25.9635 70.3636 26.0505" stroke="#575756" stroke-width="0.5" stroke-miterlimit="10" stroke-linecap="round"/>
<path d="M66.9011 26.8016C67.364 27.5528 67.9731 27.9749 68.6172 28.5651C68.8601 28.7863 69.1031 29.0075 69.346 29.2288" fill="#D1EBE1"/>
<path d="M66.9011 26.8016C67.364 27.5528 67.9731 27.9749 68.6172 28.5651C68.8601 28.7863 69.1031 29.0075 69.346 29.2288" stroke="#575756" stroke-width="0.5" stroke-miterlimit="10" stroke-linecap="round"/>
<path d="M66.272 30.02C66.9517 30.7896 67.7024 31.5995 68.5726 32.4917L66.272 30.02Z" fill="#D1EBE1"/>
<path d="M66.272 30.02C66.9517 30.7896 67.7024 31.5995 68.5726 32.4917" stroke="#575756" stroke-width="0.5" stroke-miterlimit="10" stroke-linecap="round"/>
<path d="M65.8572 32.5975C66.0074 32.7914 66.4667 33.3381 66.6483 33.4955C67.1221 33.9274 67.39 34.1809 67.9467 34.5045" fill="#D1EBE1"/>
<path d="M65.8572 32.5975C66.0074 32.7914 66.4667 33.3381 66.6483 33.4955C67.1221 33.9274 67.39 34.1809 67.9467 34.5045" stroke="#575756" stroke-width="0.5" stroke-miterlimit="10" stroke-linecap="round"/>
<path d="M65.5637 35.7461C65.9225 36.4707 66.4301 36.9001 67.1577 37.2341L65.5637 35.7461Z" fill="#D1EBE1"/>
<path d="M65.5637 35.7461C65.9225 36.4707 66.4301 36.9001 67.1577 37.2341" stroke="#575756" stroke-width="0.5" stroke-miterlimit="10" stroke-linecap="round"/>
<path d="M65.5569 38.9423C65.9106 39.4398 66.3497 39.8628 66.8716 40.1776L65.5569 38.9423Z" fill="#D1EBE1"/>
<path d="M65.5569 38.9423C65.9106 39.4398 66.3497 39.8628 66.8716 40.1776" stroke="#575756" stroke-width="0.5" stroke-miterlimit="10" stroke-linecap="round"/>
<path d="M65.6831 41.4691C66.0352 41.944 66.2506 42.099 66.6244 42.5609L65.6831 41.4691Z" fill="#D1EBE1"/>
<path d="M65.6831 41.4691C66.0352 41.944 66.2506 42.099 66.6244 42.5609" stroke="#575756" stroke-width="0.5" stroke-miterlimit="10" stroke-linecap="round"/>
<path d="M37.8572 61.4075C41.1985 58.982 44.3831 55.6467 47.0512 51.9166L37.8572 61.4075Z" fill="#D1EBE1"/>
<path d="M37.8572 61.4075C41.1985 58.982 44.3831 55.6467 47.0512 51.9166" stroke="#575756" stroke-width="0.5" stroke-miterlimit="10" stroke-linecap="round"/>
<path d="M50.4058 57.3483C66.4634 57.7202 84.338 64.6928 95.512 76.2677C89.2267 76.8936 82.6808 74.5475 77.2303 71.3488C71.7798 68.15 65.4374 63.4465 61.4087 58.5754" fill="#D1EBE1"/>
<path d="M50.4058 57.3483C66.4634 57.7202 84.338 64.6928 95.5119 76.2677C89.2267 76.8936 82.6808 74.5475 77.2303 71.3488C71.7798 68.15 65.4374 63.4465 61.4087 58.5754" stroke="#575756" stroke-width="0.5" stroke-miterlimit="10" stroke-linecap="round"/>
<path d="M61.6458 58.7174C72.0964 63.2825 81.5252 70.3439 95.5118 76.2676L61.6458 58.7174Z" fill="#D1EBE1"/>
<path d="M61.6458 58.7174C72.0964 63.2825 81.5252 70.3439 95.5118 76.2676" stroke="#575756" stroke-width="0.5" stroke-miterlimit="10" stroke-linecap="round"/>
<path d="M65.3162 60.3621C66.1876 60.333 67.101 60.2555 67.9716 60.2152L65.3162 60.3621Z" fill="#D1EBE1"/>
<path d="M65.3162 60.3621C66.1876 60.333 67.101 60.2555 67.9716 60.2152" stroke="#575756" stroke-width="0.5" stroke-miterlimit="10" stroke-linecap="round"/>
<path d="M67.825 61.6359C67.9708 61.614 68.1176 61.6034 68.2635 61.5814C69.2195 61.4667 70.1755 61.3519 71.1428 61.2363" fill="#D1EBE1"/>
<path d="M67.825 61.6359C67.9708 61.614 68.1176 61.6034 68.2635 61.5814C69.2195 61.4667 70.1755 61.3519 71.1428 61.2363" stroke="#575756" stroke-width="0.5" stroke-miterlimit="10" stroke-linecap="round"/>
<path d="M70.1361 62.8445C71.4266 62.6487 72.7188 62.4754 74.0238 62.324L70.1361 62.8445Z" fill="#D1EBE1"/>
<path d="M70.1361 62.8445C71.4266 62.6487 72.7188 62.4754 74.0238 62.324" stroke="#575756" stroke-width="0.5" stroke-miterlimit="10" stroke-linecap="round"/>
<path d="M71.998 63.9606C73.3975 63.8592 74.8532 63.5945 76.1983 63.2128L71.998 63.9606Z" fill="#D1EBE1"/>
<path d="M71.998 63.9606C73.3975 63.8592 74.8532 63.5945 76.1983 63.2128" stroke="#575756" stroke-width="0.5" stroke-miterlimit="10" stroke-linecap="round"/>
<path d="M74.0707 65.1637C74.9606 65.0765 75.8448 64.9101 76.7348 64.8229C77.5006 64.7447 78.4107 64.6219 79.1886 64.5541" fill="#D1EBE1"/>
<path d="M74.0707 65.1637C74.9606 65.0765 75.8448 64.9101 76.7348 64.8229C77.5006 64.7447 78.4107 64.6219 79.1886 64.5541" stroke="#575756" stroke-width="0.5" stroke-miterlimit="10" stroke-linecap="round"/>
<path d="M76.3835 66.395C77.9819 66.0632 79.5996 65.8436 81.2361 65.725L76.3835 66.395Z" fill="#D1EBE1"/>
<path d="M76.3835 66.395C77.9819 66.0632 79.5996 65.8436 81.2361 65.725" stroke="#575756" stroke-width="0.5" stroke-miterlimit="10" stroke-linecap="round"/>
<path d="M78.7635 67.6099C79.9378 67.377 81.1292 67.2225 82.328 67.1697C82.69 67.1549 83.2422 67.1035 83.654 66.9941" fill="#D1EBE1"/>
<path d="M78.7635 67.6099C79.9378 67.377 81.1292 67.2225 82.328 67.1697C82.69 67.1549 83.2422 67.1035 83.654 66.9941" stroke="#575756" stroke-width="0.5" stroke-miterlimit="10" stroke-linecap="round"/>
<path d="M80.3455 68.6212C82.1245 68.4355 83.9093 68.3289 85.6886 68.3024L80.3455 68.6212Z" fill="#D1EBE1"/>
<path d="M80.3455 68.6212C82.1245 68.4355 83.9093 68.3289 85.6886 68.3024" stroke="#575756" stroke-width="0.5" stroke-miterlimit="10" stroke-linecap="round"/>
<path d="M82.1139 69.6986C83.1522 69.6234 84.3233 69.3452 85.3625 69.2813C85.9155 69.2412 86.5781 69.1477 87.1272 69.2103" fill="#D1EBE1"/>
<path d="M82.1139 69.6986C83.1522 69.6234 84.3233 69.3452 85.3625 69.2813C85.9155 69.2412 86.5781 69.1477 87.1272 69.2103" stroke="#575756" stroke-width="0.5" stroke-miterlimit="10" stroke-linecap="round"/>
<path d="M84.1742 70.732C84.4193 70.6687 84.6797 70.6612 84.9288 70.6546C86.3444 70.6202 87.4642 70.5732 88.8798 70.5389" fill="#D1EBE1"/>
<path d="M84.1742 70.732C84.4193 70.6687 84.6797 70.6612 84.9288 70.6546C86.3444 70.6202 87.4642 70.5732 88.8798 70.5389" stroke="#575756" stroke-width="0.5" stroke-miterlimit="10" stroke-linecap="round"/>
<path d="M86.4548 71.9883C87.8003 71.9249 89.1226 72.0111 90.4583 71.812L86.4548 71.9883Z" fill="#D1EBE1"/>
<path d="M86.4548 71.9883C87.8003 71.9249 89.1226 72.0111 90.4583 71.812" stroke="#575756" stroke-width="0.5" stroke-miterlimit="10" stroke-linecap="round"/>
<path d="M88.5344 72.9747C89.6357 72.9859 90.7651 72.9155 91.8689 72.9606L88.5344 72.9747Z" fill="#D1EBE1"/>
<path d="M88.5344 72.9747C89.6357 72.9859 90.7651 72.9155 91.8689 72.9606" stroke="#575756" stroke-width="0.5" stroke-miterlimit="10" stroke-linecap="round"/>
<path d="M93.0517 73.9439C92.2367 73.9688 91.5493 74.1892 90.7381 74.1115C90.8275 74.7191 91.0569 75.0664 91.3462 75.6141C91.465 75.8443 91.5392 75.9299 91.7042 76.3273" fill="#D1EBE1"/>
<path d="M93.0517 73.9439C92.2367 73.9688 91.5493 74.1892 90.7381 74.1115C90.8275 74.7191 91.0569 75.0664 91.3462 75.6141C91.465 75.8443 91.5392 75.9299 91.7042 76.3273" stroke="#575756" stroke-width="0.5" stroke-miterlimit="10" stroke-linecap="round"/>
<path d="M88.4854 73.0808C88.6164 74.1062 88.9649 75.0021 89.4287 75.9238L88.4854 73.0808Z" fill="#D1EBE1"/>
<path d="M88.4854 73.0808C88.6164 74.1062 88.9649 75.0021 89.4287 75.9238" stroke="#575756" stroke-width="0.5" stroke-miterlimit="10" stroke-linecap="round"/>
<path d="M86.4548 71.9883C86.709 72.8342 86.9293 73.6825 87.1053 74.5454C87.1758 74.8928 87.2472 75.2516 87.4064 75.5698" fill="#D1EBE1"/>
<path d="M86.4548 71.9883C86.709 72.8342 86.9293 73.6825 87.1053 74.5454C87.1758 74.8928 87.2472 75.2516 87.4064 75.5698" stroke="#575756" stroke-width="0.5" stroke-miterlimit="10" stroke-linecap="round"/>
<path d="M84.1815 70.8338C84.1387 72.122 84.3893 73.3889 84.6617 74.6429L84.1815 70.8338Z" fill="#D1EBE1"/>
<path d="M84.1815 70.8338C84.1387 72.122 84.3893 73.3889 84.6617 74.6429" stroke="#575756" stroke-width="0.5" stroke-miterlimit="10" stroke-linecap="round"/>
<path d="M82.085 69.7689C82.3795 71.3283 82.676 72.6033 82.9705 74.1627L82.085 69.7689Z" fill="#D1EBE1"/>
<path d="M82.085 69.7689C82.3795 71.3283 82.676 72.6033 82.9705 74.1627" stroke="#575756" stroke-width="0.5" stroke-miterlimit="10" stroke-linecap="round"/>
<path d="M80.2906 68.648C80.2561 70.2084 80.6159 71.729 80.9861 73.2374L80.2906 68.648Z" fill="#D1EBE1"/>
<path d="M80.2906 68.648C80.2561 70.2084 80.6159 71.729 80.9861 73.2374" stroke="#575756" stroke-width="0.5" stroke-miterlimit="10" stroke-linecap="round"/>
<path d="M78.6294 67.6424C78.6229 68.3366 78.627 69.0186 78.6995 69.7071C78.7932 70.5304 79.0079 71.4588 79.0226 72.2879" fill="#D1EBE1"/>
<path d="M78.6294 67.6424C78.6229 68.3366 78.627 69.0186 78.6995 69.7071C78.7932 70.5304 79.0079 71.4588 79.0226 72.2879" stroke="#575756" stroke-width="0.5" stroke-miterlimit="10" stroke-linecap="round"/>
<path d="M76.3393 66.5687C76.2409 67.2468 76.3126 67.9239 76.3844 68.6011C76.4822 69.481 76.5853 70.1218 76.6839 71.013" fill="#D1EBE1"/>
<path d="M76.3393 66.5687C76.2409 67.2468 76.3126 67.9239 76.3844 68.6011C76.4822 69.481 76.5853 70.1218 76.6839 71.013" stroke="#575756" stroke-width="0.5" stroke-miterlimit="10" stroke-linecap="round"/>
<path d="M74.033 65.2687C73.8557 66.7372 73.9024 68.0075 74.2226 69.4513L74.033 65.2687Z" fill="#D1EBE1"/>
<path d="M74.033 65.2687C73.8557 66.7372 73.9024 68.0075 74.2226 69.4513" stroke="#575756" stroke-width="0.5" stroke-miterlimit="10" stroke-linecap="round"/>
<path d="M71.9981 63.9606C71.9961 65.0298 72.028 66.0964 72.0825 67.1615C72.0991 67.5469 72.1403 67.6463 72.1924 68.0519" fill="#D1EBE1"/>
<path d="M71.9981 63.9606C71.9961 65.0298 72.028 66.0964 72.0825 67.1615C72.0991 67.5469 72.1403 67.6463 72.1924 68.0519" stroke="#575756" stroke-width="0.5" stroke-miterlimit="10" stroke-linecap="round"/>
<path d="M70.0127 62.8649C69.9658 64.0965 70.0133 65.3781 70.1139 66.6104L70.0127 62.8649Z" fill="#D1EBE1"/>
<path d="M70.0127 62.8649C69.9658 64.0965 70.0133 65.3781 70.1139 66.6104" stroke="#575756" stroke-width="0.5" stroke-miterlimit="10" stroke-linecap="round"/>
<path d="M67.7805 61.6505C67.8348 62.5563 67.788 62.537 67.8423 63.4428C67.8644 63.7482 67.9107 64.7002 68.044 64.9748" fill="#D1EBE1"/>
<path d="M67.7805 61.6505C67.8348 62.5563 67.788 62.537 67.8423 63.4428C67.8644 63.7482 67.9107 64.7002 68.044 64.9748" stroke="#575756" stroke-width="0.5" stroke-miterlimit="10" stroke-linecap="round"/>
<path d="M65.316 60.3621C65.2775 61.2405 65.2733 61.8094 65.4719 62.6707L65.316 60.3621Z" fill="#D1EBE1"/>
<path d="M65.316 60.3621C65.2775 61.2405 65.2733 61.8094 65.4719 62.6707" stroke="#575756" stroke-width="0.5" stroke-miterlimit="10" stroke-linecap="round"/>
<path d="M38.2317 67.8282C39.0494 69.4066 40.3344 70.7009 41.6983 71.8303C45.3168 74.7979 49.6581 76.7805 54.1463 78.1271C59.4804 79.7194 69.8137 81.2566 75.3699 81.0588" fill="#D1EBE1"/>
<path d="M38.2317 67.8282C39.0494 69.4066 40.3344 70.7009 41.6983 71.8303C45.3168 74.7979 49.6581 76.7805 54.1463 78.1271C59.4804 79.7194 69.8137 81.2566 75.3699 81.0588" stroke="#575756" stroke-width="0.5" stroke-miterlimit="10" stroke-linecap="round"/>
<path d="M30.5288 64.2355C45.0205 71.1803 59.9264 76.6394 75.3802 81.0467C73.4699 78.6378 70.4931 76.3857 67.7391 75.0158C59.3343 70.8143 47.6108 68.4111 38.2428 67.8275" fill="#D1EBE1"/>
<path d="M30.5288 64.2355C45.0205 71.1803 59.9264 76.6394 75.3802 81.0467C73.4699 78.6378 70.4931 76.3857 67.7391 75.0158C59.3343 70.8143 47.6108 68.4111 38.2428 67.8275" stroke="#575756" stroke-width="0.5" stroke-miterlimit="10" stroke-linecap="round"/>
<path d="M42.6605 69.6114C43.5708 69.0223 44.0177 68.6146 44.9069 68.5161L42.6605 69.6114Z" fill="#D1EBE1"/>
<path d="M42.6605 69.6114C43.5708 69.0223 44.0177 68.6146 44.9069 68.5161" stroke="#575756" stroke-width="0.5" stroke-miterlimit="10" stroke-linecap="round"/>
<path d="M44.948 70.4918C46.0477 69.8549 47.25 69.3812 48.488 69.0868L44.948 70.4918Z" fill="#D1EBE1"/>
<path d="M44.948 70.4918C46.0477 69.8549 47.25 69.3812 48.488 69.0868" stroke="#575756" stroke-width="0.5" stroke-miterlimit="10" stroke-linecap="round"/>
<path d="M47.3702 71.5105C48.5249 71.006 48.7736 70.681 49.9825 70.2977C50.437 70.1511 51.2993 69.8384 51.9547 69.8023" fill="#D1EBE1"/>
<path d="M47.3702 71.5105C48.5249 71.006 48.7736 70.681 49.9825 70.2977C50.437 70.1511 51.2993 69.8384 51.9547 69.8023" stroke="#575756" stroke-width="0.5" stroke-miterlimit="10" stroke-linecap="round"/>
<path d="M50.5345 72.7482C51.2121 72.392 51.8792 72.048 52.5843 71.7581C53.7519 71.2755 54.906 70.919 56.1684 70.8048" fill="#D1EBE1"/>
<path d="M50.5345 72.7482C51.2121 72.392 51.8792 72.048 52.5843 71.7581C53.7519 71.2755 54.906 70.919 56.1684 70.8048" stroke="#575756" stroke-width="0.5" stroke-miterlimit="10" stroke-linecap="round"/>
<path d="M53.2171 73.7592C55.0129 72.708 57.0155 72.0057 59.0677 71.675L53.2171 73.7592Z" fill="#D1EBE1"/>
<path d="M53.2171 73.7592C55.0129 72.708 57.0155 72.0057 59.0677 71.675" stroke="#575756" stroke-width="0.5" stroke-miterlimit="10" stroke-linecap="round"/>
<path d="M55.989 74.7526C57.7324 73.762 59.8235 72.8713 61.7813 72.4907L55.989 74.7526Z" fill="#D1EBE1"/>
<path d="M55.989 74.7526C57.7324 73.762 59.8235 72.8713 61.7813 72.4907" stroke="#575756" stroke-width="0.5" stroke-miterlimit="10" stroke-linecap="round"/>
<path d="M58.1006 75.5548C58.7388 75.2811 59.3875 74.9953 60.0257 74.7216C61.3125 74.1621 62.6107 73.6018 64.0028 73.3986" fill="#D1EBE1"/>
<path d="M58.1006 75.5548C58.7388 75.2811 59.3875 74.9953 60.0257 74.7216C61.3125 74.1621 62.6107 73.6018 64.0028 73.3986" stroke="#575756" stroke-width="0.5" stroke-miterlimit="10" stroke-linecap="round"/>
<path d="M60.5944 76.3068C62.3032 75.3073 63.935 74.6546 65.8475 74.1181L60.5944 76.3068Z" fill="#D1EBE1"/>
<path d="M60.5944 76.3068C62.3032 75.3073 63.935 74.6546 65.8475 74.1181" stroke="#575756" stroke-width="0.5" stroke-miterlimit="10" stroke-linecap="round"/>
<path d="M62.6746 77.1454C64.6433 76.4455 66.1711 75.7662 68.203 75.312L62.6746 77.1454Z" fill="#D1EBE1"/>
<path d="M62.6746 77.1454C64.6433 76.4455 66.1711 75.7662 68.203 75.312" stroke="#575756" stroke-width="0.5" stroke-miterlimit="10" stroke-linecap="round"/>
<path d="M65.6548 78.0326C66.4879 77.6311 67.1567 77.3097 68.0157 76.9518C68.8972 76.5922 68.9853 76.711 69.8966 76.2924" fill="#D1EBE1"/>
<path d="M65.6548 78.0326C66.4879 77.6311 67.1567 77.3097 68.0157 76.9518C68.8972 76.5922 68.9853 76.711 69.8966 76.2924" stroke="#575756" stroke-width="0.5" stroke-miterlimit="10" stroke-linecap="round"/>
<path d="M67.6209 78.709C68.8673 78.0614 70.2463 77.6772 71.6465 77.5872L67.6209 78.709Z" fill="#D1EBE1"/>
<path d="M67.6209 78.709C68.8673 78.0614 70.2463 77.6772 71.6465 77.5872" stroke="#575756" stroke-width="0.5" stroke-miterlimit="10" stroke-linecap="round"/>
<path d="M70.0395 79.364C70.9276 79.095 72.3624 78.8545 73.2839 78.8901L70.0395 79.364Z" fill="#D1EBE1"/>
<path d="M70.0395 79.364C70.9276 79.095 72.3624 78.8545 73.2839 78.8901" stroke="#575756" stroke-width="0.5" stroke-miterlimit="10" stroke-linecap="round"/>
<path d="M42.6557 69.7027C42.6471 69.8966 42.6801 69.8829 42.694 70.0752C42.7162 70.3806 42.773 70.6949 42.829 70.9979C42.8866 71.3236 42.9442 71.6492 43.0131 71.974C43.0699 72.2883 43.1462 72.7149 43.2578 73.0025" fill="#D1EBE1"/>
<path d="M42.6557 69.7027C42.6471 69.8966 42.6801 69.8829 42.694 70.0752C42.7162 70.3806 42.773 70.6949 42.829 70.9979C42.8866 71.3236 42.9442 71.6492 43.0131 71.974C43.0699 72.2883 43.1462 72.7149 43.2578 73.0025" stroke="#575756" stroke-width="0.5" stroke-miterlimit="10" stroke-linecap="round"/>
<path d="M44.844 70.6244C44.8979 71.2118 44.9887 71.6829 45.0435 72.2816C45.0802 72.6315 45.1895 73.0444 45.2818 73.3789C45.4057 73.8361 45.5448 74.19 45.7782 74.5938" fill="#D1EBE1"/>
<path d="M44.844 70.6244C44.8979 71.2118 44.9887 71.6829 45.0435 72.2816C45.0802 72.6315 45.1895 73.0444 45.2818 73.3789C45.4057 73.8361 45.5448 74.19 45.7782 74.5938" stroke="#575756" stroke-width="0.5" stroke-miterlimit="10" stroke-linecap="round"/>
<path d="M47.395 71.5427C47.592 73.166 48.1042 74.7551 48.9113 76.1864L47.395 71.5427Z" fill="#D1EBE1"/>
<path d="M47.395 71.5427C47.592 73.166 48.1042 74.7551 48.9113 76.1864" stroke="#575756" stroke-width="0.5" stroke-miterlimit="10" stroke-linecap="round"/>
<path d="M50.4771 72.741C50.941 74.4473 51.4317 76.2086 52.5402 77.5725L50.4771 72.741Z" fill="#D1EBE1"/>
<path d="M50.4771 72.741C50.941 74.4473 51.4317 76.2086 52.5402 77.5725" stroke="#575756" stroke-width="0.5" stroke-miterlimit="10" stroke-linecap="round"/>
<path d="M53.2363 73.8716C53.6067 75.5392 54.3122 76.9779 55.2548 78.3993L53.2363 73.8716Z" fill="#D1EBE1"/>
<path d="M53.2363 73.8716C53.6067 75.5392 54.3122 76.9779 55.2548 78.3993" stroke="#575756" stroke-width="0.5" stroke-miterlimit="10" stroke-linecap="round"/>
<path d="M56.0579 74.9182C56.6273 76.5146 57.3786 77.8021 58.3856 79.1734L56.0579 74.9182Z" fill="#D1EBE1"/>
<path d="M56.0579 74.9182C56.6273 76.5146 57.3786 77.8021 58.3856 79.1734" stroke="#575756" stroke-width="0.5" stroke-miterlimit="10" stroke-linecap="round"/>
<path d="M58.1726 75.6064C58.6081 77.076 59.5328 78.4078 60.5346 79.552L58.1726 75.6064Z" fill="#D1EBE1"/>
<path d="M58.1726 75.6064C58.6081 77.076 59.5328 78.4078 60.5346 79.552" stroke="#575756" stroke-width="0.5" stroke-miterlimit="10" stroke-linecap="round"/>
<path d="M60.6326 76.52C61.3186 77.8464 62.0574 78.805 62.9932 79.9767L60.6326 76.52Z" fill="#D1EBE1"/>
<path d="M60.6326 76.52C61.3186 77.8464 62.0574 78.805 62.9932 79.9767" stroke="#575756" stroke-width="0.5" stroke-miterlimit="10" stroke-linecap="round"/>
<path d="M62.8948 77.209C63.1309 77.806 63.4216 78.2171 63.7882 78.7364C64.1799 79.288 64.7109 79.7271 65.0591 80.3046" fill="#D1EBE1"/>
<path d="M62.8948 77.209C63.1309 77.806 63.4216 78.2171 63.7882 78.7364C64.1799 79.288 64.7109 79.7271 65.0591 80.3046" stroke="#575756" stroke-width="0.5" stroke-miterlimit="10" stroke-linecap="round"/>
<path d="M65.6548 78.0327C65.9073 78.856 66.3379 79.6322 66.8958 80.2855C66.983 80.3929 67.0693 80.489 67.167 80.5843" fill="#D1EBE1"/>
<path d="M65.6548 78.0327C65.9073 78.856 66.3379 79.6322 66.8958 80.2855C66.983 80.3929 67.0693 80.489 67.167 80.5843" stroke="#575756" stroke-width="0.5" stroke-miterlimit="10" stroke-linecap="round"/>
<path d="M67.7095 78.6797C67.8065 78.9228 67.9035 79.166 68.0014 79.4205C68.1817 79.8737 68.375 80.3487 68.7607 80.6619" fill="#D1EBE1"/>
<path d="M67.7095 78.6797C67.8065 78.9228 67.9035 79.166 68.0014 79.4205C68.1817 79.8737 68.375 80.3487 68.7607 80.6619" stroke="#575756" stroke-width="0.5" stroke-miterlimit="10" stroke-linecap="round"/>
<path d="M70.0393 79.3638C70.1585 79.9124 70.4211 80.4051 70.7167 80.8841L70.0393 79.3638Z" fill="#D1EBE1"/>
<path d="M70.0393 79.3638C70.1585 79.9124 70.4211 80.4051 70.7167 80.8841" stroke="#575756" stroke-width="0.5" stroke-miterlimit="10" stroke-linecap="round"/>
<path d="M100.543 9.78524C106.453 20.8885 99.219 34.7294 89.3328 40.4607L100.543 9.78524Z" fill="#D1EBE1"/>
<path d="M100.543 9.78524C106.453 20.8885 99.219 34.7294 89.3328 40.4607" stroke="#575756" stroke-width="0.5" stroke-miterlimit="10" stroke-linecap="round"/>
<path d="M88.3094 42.1498C94.3098 32.424 98.4151 20.9704 100.347 9.89047C96.8804 12.3137 93.3026 17.2696 91.2314 22.6622C89.1602 28.0548 88.9927 35.7659 88.3906 42.0188" fill="#D1EBE1"/>
<path d="M88.3094 42.1497C94.3098 32.424 98.4151 20.9704 100.347 9.89047C96.8804 12.3137 93.3026 17.2696 91.2314 22.6622C89.1602 28.0548 88.9927 35.7659 88.3906 42.0188" stroke="#575756" stroke-width="0.5" stroke-miterlimit="10" stroke-linecap="round"/>
<path d="M85.0628 46.9793C86.1985 45.43 87.2834 43.8048 88.3093 42.1498L85.0628 46.9793Z" fill="#D1EBE1"/>
<path d="M85.0628 46.9793C86.1985 45.43 87.2834 43.8048 88.3093 42.1498" stroke="#575756" stroke-width="0.5" stroke-miterlimit="10" stroke-linecap="round"/>
<path d="M90.5927 38.277C91.8868 37.6602 93.1695 37.0441 94.4644 36.4386L90.5927 38.277Z" fill="#D1EBE1"/>
<path d="M90.5927 38.277C91.8868 37.6602 93.1695 37.0441 94.4644 36.4386" stroke="#575756" stroke-width="0.5" stroke-miterlimit="10" stroke-linecap="round"/>
<path d="M92.0022 35.6503C93.2045 35.1765 94.3955 34.7036 95.5987 34.2411C96.0177 34.0743 96.4262 33.9196 96.8623 33.8312" fill="#D1EBE1"/>
<path d="M92.0022 35.6503C93.2045 35.1765 94.3955 34.7036 95.5987 34.2411C96.0177 34.0743 96.4262 33.9196 96.8623 33.8312" stroke="#575756" stroke-width="0.5" stroke-miterlimit="10" stroke-linecap="round"/>
<path d="M92.8465 33.8377C94.8515 33.1694 96.7337 32.2142 98.615 31.2478L92.8465 33.8377Z" fill="#D1EBE1"/>
<path d="M92.8465 33.8377C94.8515 33.1694 96.7337 32.2142 98.615 31.2478" stroke="#575756" stroke-width="0.5" stroke-miterlimit="10" stroke-linecap="round"/>
<path d="M93.8969 31.7375C95.9728 30.9503 98.0057 30.0411 99.9733 29.0115L93.8969 31.7375Z" fill="#D1EBE1"/>
<path d="M93.8969 31.7375C95.9728 30.9503 98.0057 30.0411 99.9733 29.0115" stroke="#575756" stroke-width="0.5" stroke-miterlimit="10" stroke-linecap="round"/>
<path d="M94.5719 29.9373C96.5896 29.1315 98.6091 28.3483 100.641 27.5757L94.5719 29.9373Z" fill="#D1EBE1"/>
<path d="M94.5719 29.9373C96.5896 29.1315 98.6091 28.3483 100.641 27.5757" stroke="#575756" stroke-width="0.5" stroke-miterlimit="10" stroke-linecap="round"/>
<path d="M95.3758 27.8775C97.4429 27.125 99.4695 26.2845 101.467 25.3551L95.3758 27.8775Z" fill="#D1EBE1"/>
<path d="M95.3758 27.8775C97.4429 27.125 99.4695 26.2845 101.467 25.3551" stroke="#575756" stroke-width="0.5" stroke-miterlimit="10" stroke-linecap="round"/>
<path d="M96.1204 25.6287C97.2856 25.1121 98.4507 24.5956 99.6046 24.0799C100.495 23.6856 101.228 23.314 102.078 22.8317" fill="#D1EBE1"/>
<path d="M96.1204 25.6287C97.2856 25.1121 98.4507 24.5956 99.6046 24.0799C100.495 23.6856 101.228 23.314 102.078 22.8317" stroke="#575756" stroke-width="0.5" stroke-miterlimit="10" stroke-linecap="round"/>
<path d="M96.921 23.5237C97.8556 22.9556 98.8014 22.3867 99.7359 21.8187C100.714 21.2247 101.693 20.642 102.62 19.9721" fill="#D1EBE1"/>
<path d="M96.921 23.5237C97.8556 22.9556 98.8014 22.3867 99.7359 21.8187C100.714 21.2247 101.693 20.642 102.62 19.9721" stroke="#575756" stroke-width="0.5" stroke-miterlimit="10" stroke-linecap="round"/>
<path d="M97.8649 20.7374C98.9935 20.0302 100.122 19.3229 101.262 18.6149C101.729 18.3195 102.185 18.0363 102.625 17.6973" fill="#D1EBE1"/>
<path d="M97.8649 20.7374C98.9935 20.0302 100.122 19.3229 101.262 18.6149C101.729 18.3195 102.185 18.0363 102.625 17.6973" stroke="#575756" stroke-width="0.5" stroke-miterlimit="10" stroke-linecap="round"/>
<path d="M98.4023 18.2876C99.6809 17.615 100.905 16.8212 102.019 15.9103C102.18 15.7849 102.184 15.6823 102.345 15.5569" fill="#D1EBE1"/>
<path d="M98.4023 18.2876C99.6809 17.615 100.905 16.8212 102.019 15.9103C102.18 15.7849 102.184 15.6823 102.345 15.5569" stroke="#575756" stroke-width="0.5" stroke-miterlimit="10" stroke-linecap="round"/>
<path d="M99.0263 16.2522C99.9145 15.3577 100.999 14.5059 102.073 13.8366L99.0263 16.2522Z" fill="#D1EBE1"/>
<path d="M99.0263 16.2522C99.9145 15.3577 100.999 14.5059 102.073 13.8366" stroke="#575756" stroke-width="0.5" stroke-miterlimit="10" stroke-linecap="round"/>
<path d="M99.4987 14.1596C100.044 13.3809 100.745 12.5682 101.422 11.8936L99.4987 14.1596Z" fill="#D1EBE1"/>
<path d="M99.4987 14.1596C100.044 13.3809 100.745 12.5682 101.422 11.8936" stroke="#575756" stroke-width="0.5" stroke-miterlimit="10" stroke-linecap="round"/>
<path d="M99.4988 14.1597C99.1229 13.3567 98.6671 12.389 98.2913 11.5861L99.4988 14.1597Z" fill="#D1EBE1"/>
<path d="M99.4988 14.1597C99.1229 13.3567 98.6671 12.389 98.2913 11.5861" stroke="#575756" stroke-width="0.5" stroke-miterlimit="10" stroke-linecap="round"/>
<path d="M98.9119 16.2378C98.1989 15.3228 97.4632 14.2503 96.8042 13.2972L98.9119 16.2378Z" fill="#D1EBE1"/>
<path d="M98.9119 16.2378C98.1989 15.3228 97.4632 14.2503 96.8042 13.2972" stroke="#575756" stroke-width="0.5" stroke-miterlimit="10" stroke-linecap="round"/>
<path d="M98.3626 18.2108C97.3833 17.0649 96.4886 15.8333 95.7139 14.5361L98.3626 18.2108Z" fill="#D1EBE1"/>
<path d="M98.3626 18.2108C97.3833 17.0649 96.4886 15.8333 95.7139 14.5361" stroke="#575756" stroke-width="0.5" stroke-miterlimit="10" stroke-linecap="round"/>
<path d="M97.782 20.6865C97.0565 20.0681 96.3946 19.3882 95.7971 18.6582C95.2748 18.0251 94.8064 17.354 94.3372 16.6715" fill="#D1EBE1"/>
<path d="M97.782 20.6865C97.0565 20.0681 96.3946 19.3882 95.7971 18.6582C95.2748 18.0251 94.8064 17.354 94.3372 16.6715" stroke="#575756" stroke-width="0.5" stroke-miterlimit="10" stroke-linecap="round"/>
<path d="M96.8144 23.4632C96.4004 23.0724 95.9976 22.6809 95.5827 22.2788C95.1186 21.8234 94.6441 21.3801 94.2114 20.8884C93.7294 20.3433 93.3006 19.7489 92.9258 19.1165" fill="#D1EBE1"/>
<path d="M96.8144 23.4632C96.4004 23.0724 95.9976 22.6809 95.5827 22.2788C95.1186 21.8234 94.6441 21.3801 94.2114 20.8884C93.7294 20.3433 93.3006 19.7489 92.9258 19.1165" stroke="#575756" stroke-width="0.5" stroke-miterlimit="10" stroke-linecap="round"/>
<path d="M96.1746 25.5907C95.6096 24.9948 95.0566 24.4094 94.4916 23.8135C94.1477 23.4517 93.803 23.0787 93.4905 22.6805C93.103 22.1855 92.7815 21.6629 92.4592 21.129C92.3558 20.9546 92.2524 20.7801 92.1377 20.6064" fill="#D1EBE1"/>
<path d="M96.1746 25.5907C95.6095 24.9948 95.0566 24.4094 94.4916 23.8135C94.1477 23.4517 93.803 23.0787 93.4905 22.6805C93.103 22.1855 92.7815 21.6629 92.4592 21.129C92.3558 20.9546 92.2524 20.7801 92.1377 20.6064" stroke="#575756" stroke-width="0.5" stroke-miterlimit="10" stroke-linecap="round"/>
<path d="M90.9626 23.6483C91.3297 24.486 91.8307 24.825 92.4191 25.4306C93.2772 26.3123 94.1795 27.1795 95.2453 27.796" fill="#D1EBE1"/>
<path d="M90.9626 23.6483C91.3297 24.486 91.8307 24.825 92.4191 25.4306C93.2772 26.3123 94.1795 27.1795 95.2453 27.796" stroke="#575756" stroke-width="0.5" stroke-miterlimit="10" stroke-linecap="round"/>
<path d="M94.456 29.9002C93.5493 29.4428 92.7528 28.784 91.978 28.1123C91.2638 27.4931 90.5342 26.8182 90.2751 25.9044" fill="#D1EBE1"/>
<path d="M94.456 29.9002C93.5493 29.4428 92.7528 28.784 91.978 28.1123C91.2638 27.4931 90.5342 26.8182 90.2751 25.9044" stroke="#575756" stroke-width="0.5" stroke-miterlimit="10" stroke-linecap="round"/>
<path d="M93.8519 31.7408C92.3696 30.6996 90.8624 29.6261 89.8359 28.1425L93.8519 31.7408Z" fill="#D1EBE1"/>
<path d="M93.8519 31.7408C92.3696 30.6996 90.8624 29.6261 89.8359 28.1425" stroke="#575756" stroke-width="0.5" stroke-miterlimit="10" stroke-linecap="round"/>
<path d="M92.786 33.7853C92.4115 33.4713 92.0362 33.1459 91.6618 32.8319C90.791 32.0875 89.9161 31.2866 89.4658 30.2389" fill="#D1EBE1"/>
<path d="M92.786 33.7853C92.4115 33.4713 92.0362 33.1459 91.6618 32.8319C90.791 32.0875 89.9161 31.2866 89.4658 30.2389" stroke="#575756" stroke-width="0.5" stroke-miterlimit="10" stroke-linecap="round"/>
<path d="M91.9246 35.5195C90.8523 34.8125 89.9023 33.9146 89.1248 32.8906L91.9246 35.5195Z" fill="#D1EBE1"/>
<path d="M91.9246 35.5195C90.8523 34.8125 89.9023 33.9146 89.1248 32.8906" stroke="#575756" stroke-width="0.5" stroke-miterlimit="10" stroke-linecap="round"/>
<path d="M90.4749 38.0582C90.2908 37.8668 90.1068 37.6754 89.9332 37.4719C89.4997 36.9688 89.1837 36.3663 88.8799 35.7742" fill="#D1EBE1"/>
<path d="M90.4749 38.0582C90.2908 37.8668 90.1068 37.6754 89.9332 37.4719C89.4997 36.9688 89.1837 36.3663 88.8799 35.7742" stroke="#575756" stroke-width="0.5" stroke-miterlimit="10" stroke-linecap="round"/>
<path d="M122.445 33.9793C126.826 31.1828 132.338 31.4772 137.07 32.8971C140.898 34.0527 144.695 35.7336 148.161 37.8479C151.77 40.0542 155.941 43.5959 159.497 45.8628" fill="#D1EBE1"/>
<path d="M122.445 33.9793C126.826 31.1828 132.338 31.4772 137.07 32.8971C140.898 34.0527 144.695 35.7336 148.161 37.8479C151.77 40.0542 155.941 43.5959 159.497 45.8628" stroke="#575756" stroke-width="0.5" stroke-miterlimit="10" stroke-linecap="round"/>
<path d="M121.583 33.9849C127.006 33.9787 132.456 34.9826 137.676 36.5718C145.252 38.8774 152.404 42.385 159.509 45.8733C147.665 47.4478 130.116 42.6123 121.81 33.9911" fill="#D1EBE1"/>
<path d="M121.583 33.9849C127.006 33.9787 132.456 34.9826 137.676 36.5718C145.252 38.8774 152.404 42.385 159.509 45.8733C147.665 47.4478 130.116 42.6123 121.81 33.9911" stroke="#575756" stroke-width="0.5" stroke-miterlimit="10" stroke-linecap="round"/>
<path d="M114.223 34.6546C116.652 34.1944 119.11 33.9822 121.572 33.9858L114.223 34.6546Z" fill="#D1EBE1"/>
<path d="M114.223 34.6546C116.652 34.1944 119.11 33.9822 121.572 33.9858" stroke="#575756" stroke-width="0.5" stroke-miterlimit="10" stroke-linecap="round"/>
<path d="M126.192 34.1742C127.775 33.3316 129.53 32.4881 131.219 31.8539L126.192 34.1742Z" fill="#D1EBE1"/>
<path d="M126.192 34.1742C127.775 33.3316 129.53 32.4881 131.219 31.8539" stroke="#575756" stroke-width="0.5" stroke-miterlimit="10" stroke-linecap="round"/>
<path d="M129.04 34.5023C130.705 33.5174 132.668 32.8976 134.493 32.2536L129.04 34.5023Z" fill="#D1EBE1"/>
<path d="M129.04 34.5023C130.705 33.5174 132.668 32.8976 134.493 32.2536" stroke="#575756" stroke-width="0.5" stroke-miterlimit="10" stroke-linecap="round"/>
<path d="M132.075 35.0444C133.721 34.1177 135.485 33.4213 137.314 32.9817L132.075 35.0444Z" fill="#D1EBE1"/>
<path d="M132.075 35.0444C133.721 34.1177 135.485 33.4213 137.314 32.9817" stroke="#575756" stroke-width="0.5" stroke-miterlimit="10" stroke-linecap="round"/>
<path d="M134.558 35.6492C135.092 35.5081 135.686 35.249 136.232 35.1071C137.512 34.7642 138.746 34.2654 140.037 33.9217" fill="#D1EBE1"/>
<path d="M134.558 35.6492C135.092 35.5081 135.686 35.249 136.232 35.1071C137.512 34.7642 138.746 34.2654 140.037 33.9217" stroke="#575756" stroke-width="0.5" stroke-miterlimit="10" stroke-linecap="round"/>
<path d="M137.54 36.4112C139.323 35.9636 140.837 34.9441 142.669 35.0161L137.54 36.4112Z" fill="#D1EBE1"/>
<path d="M137.54 36.4112C139.323 35.9636 140.837 34.9441 142.669 35.0161" stroke="#575756" stroke-width="0.5" stroke-miterlimit="10" stroke-linecap="round"/>
<path d="M140.322 37.3809C142.011 36.8946 143.733 36.3946 145.504 36.4028L140.322 37.3809Z" fill="#D1EBE1"/>
<path d="M140.322 37.3809C142.011 36.8946 143.733 36.3946 145.504 36.4028" stroke="#575756" stroke-width="0.5" stroke-miterlimit="10" stroke-linecap="round"/>
<path d="M143.545 38.4895C144.999 37.8951 146.274 37.6435 147.845 37.7117L143.545 38.4895Z" fill="#D1EBE1"/>
<path d="M143.545 38.4895C144.999 37.8951 146.274 37.6435 147.845 37.7117" stroke="#575756" stroke-width="0.5" stroke-miterlimit="10" stroke-linecap="round"/>
<path d="M145.924 39.5452C147.266 39.4366 148.605 39.1235 149.936 39.0157L145.924 39.5452Z" fill="#D1EBE1"/>
<path d="M145.924 39.5452C147.266 39.4366 148.605 39.1235 149.936 39.0157" stroke="#575756" stroke-width="0.5" stroke-miterlimit="10" stroke-linecap="round"/>
<path d="M148.709 40.7195C149.655 40.6168 150.739 40.3905 151.685 40.2879L148.709 40.7195Z" fill="#D1EBE1"/>
<path d="M148.709 40.7195C149.655 40.6168 150.739 40.3905 151.685 40.2879" stroke="#575756" stroke-width="0.5" stroke-miterlimit="10" stroke-linecap="round"/>
<path d="M151.338 41.9278C152.094 41.8617 152.975 41.6614 153.72 41.7666L151.338 41.9278Z" fill="#D1EBE1"/>
<path d="M151.338 41.9278C152.094 41.8617 152.975 41.6614 153.72 41.7666" stroke="#575756" stroke-width="0.5" stroke-miterlimit="10" stroke-linecap="round"/>
<path d="M153.543 42.928C154.004 42.8605 154.554 42.7865 155.028 42.7522L153.543 42.928Z" fill="#D1EBE1"/>
<path d="M153.543 42.928C154.004 42.8605 154.554 42.7865 155.028 42.7522" stroke="#575756" stroke-width="0.5" stroke-miterlimit="10" stroke-linecap="round"/>
<path d="M126.152 34.2566C126.328 35.1195 126.627 35.9508 126.936 36.7813C127.257 37.6109 127.645 38.4244 128.312 39.0129" fill="#D1EBE1"/>
<path d="M126.152 34.2566C126.328 35.1195 126.627 35.9508 126.936 36.7813C127.257 37.6109 127.645 38.4244 128.312 39.0129" stroke="#575756" stroke-width="0.5" stroke-miterlimit="10" stroke-linecap="round"/>
<path d="M129.293 34.3929C129.491 35.2429 129.678 36.0937 129.875 36.9437C130.144 38.141 130.503 39.5024 131.168 40.5346" fill="#D1EBE1"/>
<path d="M129.293 34.3929C129.491 35.2429 129.678 36.0937 129.875 36.9437C130.144 38.141 130.503 39.5024 131.168 40.5346" stroke="#575756" stroke-width="0.5" stroke-miterlimit="10" stroke-linecap="round"/>
<path d="M132.064 35.2157C132.291 36.3024 132.535 37.1717 132.817 38.243C133.033 39.0348 133.261 39.8258 133.664 40.5357C133.964 41.0713 134.483 41.6591 134.881 42.142" fill="#D1EBE1"/>
<path d="M132.064 35.2157C132.291 36.3024 132.535 37.1717 132.817 38.243C133.033 39.0348 133.261 39.8258 133.664 40.5357C133.964 41.0713 134.483 41.6591 134.881 42.142" stroke="#575756" stroke-width="0.5" stroke-miterlimit="10" stroke-linecap="round"/>
<path d="M134.558 35.6492C135.167 37.7998 136.022 39.8873 137.116 41.8323C137.416 42.3678 137.809 43.1012 138.33 43.4046" fill="#D1EBE1"/>
<path d="M134.558 35.6492C135.167 37.7998 136.022 39.8873 137.116 41.8323C137.416 42.3678 137.809 43.1012 138.33 43.4046" stroke="#575756" stroke-width="0.5" stroke-miterlimit="10" stroke-linecap="round"/>
<path d="M137.531 36.4459C138.142 39.2447 139.345 41.9096 141.022 44.2218L137.531 36.4459Z" fill="#D1EBE1"/>
<path d="M137.531 36.4459C138.142 39.2447 139.345 41.9096 141.022 44.2218" stroke="#575756" stroke-width="0.5" stroke-miterlimit="10" stroke-linecap="round"/>
<path d="M140.322 37.381C140.727 38.2841 141.29 39.3237 141.695 40.2155C142.439 41.8674 143.196 43.5412 144.32 44.9609" fill="#D1EBE1"/>
<path d="M140.322 37.381C140.727 38.2841 141.29 39.3237 141.695 40.2155C142.439 41.8674 143.196 43.5412 144.32 44.9609" stroke="#575756" stroke-width="0.5" stroke-miterlimit="10" stroke-linecap="round"/>
<path d="M143.604 38.6898C144.082 40.5772 145.044 41.9631 146.039 43.631C146.4 44.2416 146.762 44.8522 147.136 45.462" fill="#D1EBE1"/>
<path d="M143.604 38.6898C144.082 40.5772 145.044 41.9631 146.039 43.631C146.4 44.2416 146.762 44.8522 147.136 45.462" stroke="#575756" stroke-width="0.5" stroke-miterlimit="10" stroke-linecap="round"/>
<path d="M145.924 39.5452C146.779 41.7918 148.082 43.8013 149.407 45.8091L145.924 39.5452Z" fill="#D1EBE1"/>
<path d="M145.924 39.5452C146.779 41.7918 148.082 43.8013 149.407 45.8091" stroke="#575756" stroke-width="0.5" stroke-miterlimit="10" stroke-linecap="round"/>
<path d="M148.709 40.7195C149.521 42.5257 150.454 44.289 151.506 45.9642L148.709 40.7195Z" fill="#D1EBE1"/>
<path d="M148.709 40.7195C149.521 42.5257 150.454 44.289 151.506 45.9642" stroke="#575756" stroke-width="0.5" stroke-miterlimit="10" stroke-linecap="round"/>
<path d="M151.412 42.0021C151.882 43.4805 152.495 44.7439 153.317 46.0604L151.412 42.0021Z" fill="#D1EBE1"/>
<path d="M151.412 42.0021C151.882 43.4805 152.495 44.7439 153.317 46.0604" stroke="#575756" stroke-width="0.5" stroke-miterlimit="10" stroke-linecap="round"/>
<path d="M153.562 43.0289C153.728 43.5969 154.028 44.1324 154.304 44.6583C154.581 45.1841 155.082 45.8415 155.582 46.1691" fill="#D1EBE1"/>
<path d="M153.562 43.0289C153.728 43.5969 154.028 44.1324 154.304 44.6583C154.581 45.1841 155.082 45.8415 155.582 46.1691" stroke="#575756" stroke-width="0.5" stroke-miterlimit="10" stroke-linecap="round"/>
<path d="M155.56 43.976C156.092 44.5856 156.721 45.5976 157.357 46.0747L155.56 43.976Z" fill="#D1EBE1"/>
<path d="M155.56 43.976C156.092 44.5856 156.721 45.5976 157.357 46.0747" stroke="#575756" stroke-width="0.5" stroke-miterlimit="10" stroke-linecap="round"/>
<path d="M47.052 51.9279C49.9367 47.8979 52.2413 43.5346 53.5135 38.7002C55.5698 30.9091 57.0981 21.1548 56.1518 13.1036C54.8142 14.3718 53.3951 15.6119 52.1188 16.9439C44.082 25.3388 43.2607 47.358 49.1347 48.7293" fill="#D1EBE1"/>
<path d="M47.052 51.9279C49.9367 47.8979 52.2413 43.5346 53.5135 38.7002C55.5698 30.9091 57.0981 21.1548 56.1518 13.1036C54.8142 14.3718 53.3951 15.6119 52.1188 16.9439C44.082 25.3388 43.2607 47.358 49.1347 48.7293" stroke="#575756" stroke-width="0.5" stroke-miterlimit="10" stroke-linecap="round"/>
<path d="M56.0981 13.3009C52.1894 21.9881 48.7059 39.2077 49.1348 48.7293L56.0981 13.3009Z" fill="#D1EBE1"/>
<path d="M56.0981 13.3009C52.1894 21.9881 48.7059 39.2077 49.1348 48.7293" stroke="#575756" stroke-width="0.5" stroke-miterlimit="10" stroke-linecap="round"/>
<path d="M49.2469 44.957C50.2837 44.2336 51.2712 43.457 52.2207 42.6263L49.2469 44.957Z" fill="#D1EBE1"/>
<path d="M49.2469 44.957C50.2837 44.2336 51.2712 43.457 52.2207 42.6263" stroke="#575756" stroke-width="0.5" stroke-miterlimit="10" stroke-linecap="round"/>
<path d="M49.4144 42.4088C50.7928 41.547 52.3408 40.2067 53.4204 38.9799L49.4144 42.4088Z" fill="#D1EBE1"/>
<path d="M49.4144 42.4088C50.7928 41.547 52.3408 40.2067 53.4205 38.9799" stroke="#575756" stroke-width="0.5" stroke-miterlimit="10" stroke-linecap="round"/>
<path d="M49.5585 39.5439C51.2449 38.7053 52.7858 37.5815 54.0951 36.2357L49.5585 39.5439Z" fill="#D1EBE1"/>
<path d="M49.5585 39.5439C51.2449 38.7053 52.7858 37.5815 54.0951 36.2357" stroke="#575756" stroke-width="0.5" stroke-miterlimit="10" stroke-linecap="round"/>
<path d="M49.902 37.7109C51.5033 36.4804 53.0804 35.229 54.6316 33.9339L49.902 37.7109Z" fill="#D1EBE1"/>
<path d="M49.902 37.7109C51.5033 36.4804 53.0804 35.229 54.6316 33.9339" stroke="#575756" stroke-width="0.5" stroke-miterlimit="10" stroke-linecap="round"/>
<path d="M50.2674 35.0801C50.8516 34.8445 51.3462 34.4675 51.8391 34.0679C52.9651 33.1675 54.0532 32.213 55.1041 31.2157" fill="#D1EBE1"/>
<path d="M50.2674 35.0801C50.8516 34.8445 51.3462 34.4675 51.8391 34.0679C52.9651 33.1675 54.0532 32.213 55.1041 31.2157" stroke="#575756" stroke-width="0.5" stroke-miterlimit="10" stroke-linecap="round"/>
<path d="M50.6965 32.5473C52.4268 31.3757 54.057 30.0748 55.5638 28.6351L50.6965 32.5473Z" fill="#D1EBE1"/>
<path d="M50.6965 32.5473C52.4268 31.3757 54.057 30.0748 55.5638 28.6351" stroke="#575756" stroke-width="0.5" stroke-miterlimit="10" stroke-linecap="round"/>
<path d="M51.1653 30.091C52.9236 28.6786 54.8098 27.78 55.9862 25.8525L51.1653 30.091Z" fill="#D1EBE1"/>
<path d="M51.1653 30.091C52.9236 28.6786 54.8098 27.78 55.9862 25.8525" stroke="#575756" stroke-width="0.5" stroke-miterlimit="10" stroke-linecap="round"/>
<path d="M51.6086 27.9095C53.2862 26.4802 54.7486 25.0551 56.1091 23.3189L51.6086 27.9095Z" fill="#D1EBE1"/>
<path d="M51.6086 27.9095C53.2862 26.4802 54.7486 25.0551 56.1091 23.3189" stroke="#575756" stroke-width="0.5" stroke-miterlimit="10" stroke-linecap="round"/>
<path d="M52.0989 25.2812C53.6835 24.2907 55.0897 23.0289 56.2545 21.5685L52.0989 25.2812Z" fill="#D1EBE1"/>
<path d="M52.0989 25.2812C53.6835 24.2907 55.0897 23.0289 56.2545 21.5685" stroke="#575756" stroke-width="0.5" stroke-miterlimit="10" stroke-linecap="round"/>
<path d="M52.767 23.0721C54.1425 21.858 55.1658 20.6352 56.346 19.2306L52.767 23.0721Z" fill="#D1EBE1"/>
<path d="M52.767 23.0721C54.1425 21.858 55.1658 20.6352 56.346 19.2306" stroke="#575756" stroke-width="0.5" stroke-miterlimit="10" stroke-linecap="round"/>
<path d="M53.4227 20.534C54.5713 19.632 55.4731 18.6114 56.4497 17.5285L53.4227 20.534Z" fill="#D1EBE1"/>
<path d="M53.4227 20.534C54.5713 19.632 55.4731 18.6114 56.4497 17.5285" stroke="#575756" stroke-width="0.5" stroke-miterlimit="10" stroke-linecap="round"/>
<path d="M54.2026 18.1462C55.1046 17.2848 55.5343 16.6396 56.2313 15.6111L54.2026 18.1462Z" fill="#D1EBE1"/>
<path d="M54.2026 18.1462C55.1046 17.2848 55.5343 16.6396 56.2313 15.6111" stroke="#575756" stroke-width="0.5" stroke-miterlimit="10" stroke-linecap="round"/>
<path d="M49.0938 44.8771C48.4875 44.8074 47.9156 44.5872 47.3647 44.3428C46.7549 44.0686 46.3112 43.896 45.7505 43.5159" fill="#D1EBE1"/>
<path d="M49.0938 44.8771C48.4875 44.8074 47.9156 44.5872 47.3647 44.3428C46.7549 44.0686 46.3112 43.896 45.7505 43.5159" stroke="#575756" stroke-width="0.5" stroke-miterlimit="10" stroke-linecap="round"/>
<path d="M49.2706 42.3055C49.2408 42.3645 49.1489 42.3484 49.09 42.3186C47.7672 41.7548 46.5819 40.8968 45.4199 40.0485" fill="#D1EBE1"/>
<path d="M49.2706 42.3055C49.2408 42.3645 49.1489 42.3484 49.09 42.3186C47.7672 41.7548 46.5819 40.8968 45.4199 40.0485" stroke="#575756" stroke-width="0.5" stroke-miterlimit="10" stroke-linecap="round"/>
<path d="M49.6138 39.3694C48.951 39.3037 48.358 38.9486 47.8094 38.579C47.297 38.2408 46.7944 37.8792 46.2917 37.5176C46.0286 37.3319 45.7648 37.135 45.5017 36.9493" fill="#D1EBE1"/>
<path d="M49.6138 39.3694C48.951 39.3037 48.358 38.9486 47.8094 38.579C47.297 38.2408 46.7944 37.8792 46.2917 37.5176C46.0286 37.3319 45.7648 37.135 45.5017 36.9493" stroke="#575756" stroke-width="0.5" stroke-miterlimit="10" stroke-linecap="round"/>
<path d="M49.8028 37.5929C49.6095 37.7434 49.336 37.5699 49.1657 37.4116C47.9252 36.2619 46.7475 35.0394 45.6455 33.766" fill="#D1EBE1"/>
<path d="M49.8028 37.5929C49.6095 37.7434 49.336 37.5699 49.1657 37.4116C47.9252 36.2619 46.7475 35.0394 45.6455 33.766" stroke="#575756" stroke-width="0.5" stroke-miterlimit="10" stroke-linecap="round"/>
<path d="M50.1707 34.9962C48.364 34.331 46.9941 32.8041 45.9143 31.2106L50.1707 34.9962Z" fill="#D1EBE1"/>
<path d="M50.1707 34.9962C48.364 34.331 46.9941 32.8041 45.9143 31.2106" stroke="#575756" stroke-width="0.5" stroke-miterlimit="10" stroke-linecap="round"/>
<path d="M50.5549 32.7849C50.2506 32.4999 49.7703 31.9774 49.466 31.6924C48.9422 31.1959 48.4071 30.7002 47.9356 30.143C47.4036 29.5333 46.9457 28.85 46.5764 28.1376" fill="#D1EBE1"/>
<path d="M50.5549 32.7849C50.2506 32.4999 49.7703 31.9774 49.466 31.6924C48.9422 31.1959 48.4071 30.7002 47.9356 30.143C47.4036 29.5333 46.9457 28.85 46.5764 28.1376" stroke="#575756" stroke-width="0.5" stroke-miterlimit="10" stroke-linecap="round"/>
<path d="M50.942 30.1413C49.4071 28.8424 48.3257 27.2263 47.228 25.5431L50.942 30.1413Z" fill="#D1EBE1"/>
<path d="M50.942 30.1413C49.4071 28.8424 48.3257 27.2263 47.228 25.5431" stroke="#575756" stroke-width="0.5" stroke-miterlimit="10" stroke-linecap="round"/>
<path d="M51.3992 27.993C50.1905 26.4998 49.144 25.0517 48.0859 23.4453L51.3992 27.993Z" fill="#D1EBE1"/>
<path d="M51.3992 27.993C50.1905 26.4998 49.144 25.0517 48.0859 23.4453" stroke="#575756" stroke-width="0.5" stroke-miterlimit="10" stroke-linecap="round"/>
<path d="M51.9963 25.118C51.0328 23.7208 50.1485 22.4771 49.1956 21.0677L51.9963 25.118Z" fill="#D1EBE1"/>
<path d="M51.9963 25.118C51.0328 23.7208 50.1485 22.4771 49.1956 21.0677" stroke="#575756" stroke-width="0.5" stroke-miterlimit="10" stroke-linecap="round"/>
<path d="M52.6257 22.8434C52.3706 22.6117 52.1679 22.3193 51.9765 22.0262C51.3376 21.0376 50.836 20.221 50.2737 19.1927" fill="#D1EBE1"/>
<path d="M52.6257 22.8434C52.3706 22.6117 52.1679 22.3193 51.9765 22.0262C51.3376 21.0376 50.836 20.221 50.2737 19.1927" stroke="#575756" stroke-width="0.5" stroke-miterlimit="10" stroke-linecap="round"/>
<path d="M53.2574 20.4436C53.0676 20.173 52.9109 19.8887 52.7542 19.6044C52.351 18.8944 51.9932 18.3404 51.5901 17.6304" fill="#D1EBE1"/>
<path d="M53.2574 20.4436C53.0676 20.173 52.9109 19.8887 52.7542 19.6044C52.351 18.8944 51.9932 18.3404 51.5901 17.6304" stroke="#575756" stroke-width="0.5" stroke-miterlimit="10" stroke-linecap="round"/>
<path d="M54.176 18.0913C53.8983 17.8612 53.6407 17.4364 53.4694 17.1076C53.2585 16.7021 53.1349 16.5632 52.8982 16.1141" fill="#D1EBE1"/>
<path d="M54.176 18.0913C53.8983 17.8612 53.6407 17.4364 53.4694 17.1076C53.2585 16.7021 53.1349 16.5632 52.8982 16.1141" stroke="#575756" stroke-width="0.5" stroke-miterlimit="10" stroke-linecap="round"/>
<path d="M36.8232 20.2013C26.9013 28.4144 18.5373 45.1347 22.0895 57.5232L36.8232 20.2013Z" fill="#D1EBE1"/>
<path d="M36.8232 20.2013C26.9013 28.4144 18.5373 45.1347 22.0895 57.5232" stroke="#575756" stroke-width="0.5" stroke-miterlimit="10" stroke-linecap="round"/>
<path d="M21.9951 58.0986C23.8373 44.5346 28.949 31.1545 36.8232 20.2013C36.2051 21.0649 36.691 26.3632 35.9765 31.6917C34.6004 41.9808 29.6907 50.9453 22.0817 57.7285" fill="#D1EBE1"/>
<path d="M21.9951 58.0986C23.8373 44.5346 28.949 31.1545 36.8232 20.2013C36.2051 21.0649 36.691 26.3632 35.9765 31.6917C34.6004 41.9808 29.6907 50.9453 22.0817 57.7285" stroke="#575756" stroke-width="0.5" stroke-miterlimit="10" stroke-linecap="round"/>
<path d="M21.2322 68.241C21.2718 64.872 21.5371 61.4866 21.9958 58.11L21.2322 68.241Z" fill="#D1EBE1"/>
<path d="M21.2322 68.241C21.2718 64.872 21.5371 61.4866 21.9958 58.11" stroke="#575756" stroke-width="0.5" stroke-miterlimit="10" stroke-linecap="round"/>
<path d="M22.7215 54.0316C24.6042 53.5541 26.3516 52.4609 27.9256 51.3233L22.7215 54.0316Z" fill="#D1EBE1"/>
<path d="M22.7215 54.0316C24.6042 53.5541 26.3516 52.4609 27.9256 51.3233" stroke="#575756" stroke-width="0.5" stroke-miterlimit="10" stroke-linecap="round"/>
<path d="M23.2381 51.1398C24.3914 50.772 25.5438 50.3928 26.6533 49.8917C27.7846 49.3776 28.7787 48.6914 29.7428 47.9051C30.0746 47.6309 30.4065 47.3567 30.7496 47.0816" fill="#D1EBE1"/>
<path d="M23.2381 51.1398C24.3914 50.772 25.5438 50.3928 26.6533 49.8917C27.7846 49.3776 28.7787 48.6914 29.7428 47.9051C30.0746 47.6309 30.4065 47.3567 30.7496 47.0816" stroke="#575756" stroke-width="0.5" stroke-miterlimit="10" stroke-linecap="round"/>
<path d="M23.933 48.3601C26.9886 47.0015 29.8358 45.4306 32.6029 43.5357L23.933 48.3601Z" fill="#D1EBE1"/>
<path d="M23.933 48.3601C26.9886 47.0015 29.8358 45.4306 32.6029 43.5357" stroke="#575756" stroke-width="0.5" stroke-miterlimit="10" stroke-linecap="round"/>
<path d="M24.8138 45.3282C28.2892 43.8142 31.709 42.3155 34.1782 39.4414L24.8138 45.3282Z" fill="#D1EBE1"/>
<path d="M24.8138 45.3282C28.2892 43.8142 31.709 42.3155 34.1782 39.4414" stroke="#575756" stroke-width="0.5" stroke-miterlimit="10" stroke-linecap="round"/>
<path d="M25.6375 42.4482C28.8541 40.9642 31.5976 39.5259 34.8402 36.8346L25.6375 42.4482Z" fill="#D1EBE1"/>
<path d="M25.6375 42.4482C28.8541 40.9642 31.5976 39.5259 34.8402 36.8346" stroke="#575756" stroke-width="0.5" stroke-miterlimit="10" stroke-linecap="round"/>
<path d="M26.827 39.2915C30.1567 37.9585 33.224 35.6666 35.7259 33.0858L26.827 39.2915Z" fill="#D1EBE1"/>
<path d="M26.827 39.2915C30.1567 37.9585 33.224 35.6666 35.7259 33.0858" stroke="#575756" stroke-width="0.5" stroke-miterlimit="10" stroke-linecap="round"/>
<path d="M27.9885 36.2165C31.2521 34.9111 34.1362 32.4391 36.2112 29.6049L27.9885 36.2165Z" fill="#D1EBE1"/>
<path d="M27.9885 36.2165C31.2521 34.9111 34.1362 32.4391 36.2112 29.6049" stroke="#575756" stroke-width="0.5" stroke-miterlimit="10" stroke-linecap="round"/>
<path d="M29.5989 32.6085C32.0893 31.2795 34.706 29.0316 36.3189 26.7085L29.5989 32.6085Z" fill="#D1EBE1"/>
<path d="M29.5989 32.6085C32.0893 31.2795 34.706 29.0316 36.3189 26.7085" stroke="#575756" stroke-width="0.5" stroke-miterlimit="10" stroke-linecap="round"/>
<path d="M31.3241 29.0151C33.2165 27.8886 34.9005 26.3905 36.3699 24.7489L31.3241 29.0151Z" fill="#D1EBE1"/>
<path d="M31.3241 29.0151C33.2165 27.8886 34.9005 26.3905 36.3699 24.7489" stroke="#575756" stroke-width="0.5" stroke-miterlimit="10" stroke-linecap="round"/>
<path d="M33.3427 25.5595C34.6084 24.8651 35.5425 23.9786 36.424 22.8344L33.3427 25.5595Z" fill="#D1EBE1"/>
<path d="M33.3427 25.5595C34.6084 24.8651 35.5425 23.9786 36.424 22.8344" stroke="#575756" stroke-width="0.5" stroke-miterlimit="10" stroke-linecap="round"/>
<path d="M22.5821 53.9849C22.0467 53.1707 21.6199 52.2919 21.3044 51.3822L22.5821 53.9849Z" fill="#D1EBE1"/>
<path d="M22.5821 53.9849C22.0467 53.1707 21.6199 52.2919 21.3044 51.3822" stroke="#575756" stroke-width="0.5" stroke-miterlimit="10" stroke-linecap="round"/>
<path d="M23.2386 50.9919C22.978 50.8402 22.8326 50.5551 22.6888 50.2926C22.2912 49.5026 21.8815 48.7021 21.4839 47.9121" fill="#D1EBE1"/>
<path d="M23.2386 50.9919C22.978 50.8402 22.8326 50.5551 22.6888 50.2926C22.2912 49.5026 21.8815 48.7021 21.4839 47.9121" stroke="#575756" stroke-width="0.5" stroke-miterlimit="10" stroke-linecap="round"/>
<path d="M23.8731 48.1598C23.2235 47.0241 22.574 45.8885 22.0115 44.701L23.8731 48.1598Z" fill="#D1EBE1"/>
<path d="M23.8731 48.1598C23.2235 47.0241 22.574 45.8885 22.0115 44.701" stroke="#575756" stroke-width="0.5" stroke-miterlimit="10" stroke-linecap="round"/>
<path d="M24.6589 45.2257C24.3362 44.9989 24.1076 44.6629 23.8799 44.3382C23.4236 43.6776 23.0004 43.0032 22.5989 42.3158" fill="#D1EBE1"/>
<path d="M24.6589 45.2257C24.3362 44.9989 24.1076 44.6629 23.8799 44.3382C23.4236 43.6776 23.0004 43.0032 22.5989 42.3158" stroke="#575756" stroke-width="0.5" stroke-miterlimit="10" stroke-linecap="round"/>
<path d="M25.5429 42.239C24.9072 41.1365 24.3245 39.9846 23.8201 38.8157L25.5429 42.239Z" fill="#D1EBE1"/>
<path d="M25.5429 42.239C24.9072 41.1365 24.3245 39.9846 23.8201 38.8157" stroke="#575756" stroke-width="0.5" stroke-miterlimit="10" stroke-linecap="round"/>
<path d="M26.7174 39.1857C26.0889 38.185 25.4936 37.1705 24.9304 36.131L26.7174 39.1857Z" fill="#D1EBE1"/>
<path d="M26.7174 39.1857C26.0889 38.185 25.4936 37.1705 24.9304 36.131" stroke="#575756" stroke-width="0.5" stroke-miterlimit="10" stroke-linecap="round"/>
<path d="M27.8834 36.1787C27.4235 35.1544 26.8581 34.2401 26.4094 33.215L27.8834 36.1787Z" fill="#D1EBE1"/>
<path d="M27.8834 36.1787C27.4235 35.1544 26.8581 34.2401 26.4094 33.215" stroke="#575756" stroke-width="0.5" stroke-miterlimit="10" stroke-linecap="round"/>
<path d="M29.5084 32.456C29.2484 32.1564 29.0416 31.8074 28.8566 31.4456C28.6215 31.0191 28.4194 30.5788 28.2278 30.1265" fill="#D1EBE1"/>
<path d="M29.5084 32.456C29.2484 32.1564 29.0416 31.8074 28.8566 31.4456C28.6215 31.0191 28.4194 30.5788 28.2278 30.1265" stroke="#575756" stroke-width="0.5" stroke-miterlimit="10" stroke-linecap="round"/>
<path d="M31.3239 29.015C31.0796 28.3049 30.7741 27.6902 30.4644 26.8597L31.3239 29.015Z" fill="#D1EBE1"/>
<path d="M31.3239 29.015C31.0796 28.3049 30.7741 27.6902 30.4644 26.8597" stroke="#575756" stroke-width="0.5" stroke-miterlimit="10" stroke-linecap="round"/>
<path d="M33.2725 25.5305C33.0357 25.0814 32.9176 24.7033 32.6816 24.2655L33.2725 25.5305Z" fill="#D1EBE1"/>
<path d="M33.2725 25.5305C33.0357 25.0814 32.9176 24.7033 32.6816 24.2655" stroke="#575756" stroke-width="0.5" stroke-miterlimit="10" stroke-linecap="round"/>
<path d="M87.0875 55.3504C87.4364 55.1546 87.9915 54.8301 88.3001 54.7054C88.952 54.4648 89.3524 54.197 90.0035 53.9451" fill="#D1EBE1"/>
<path d="M87.0875 55.3504C87.4364 55.1546 87.9915 54.8301 88.3001 54.7054C88.952 54.4648 89.3524 54.197 90.0035 53.9451" stroke="#575756" stroke-width="0.5" stroke-miterlimit="10" stroke-linecap="round"/>
<path d="M89.2823 56.3627C90.767 55.4022 92.3386 54.2308 94.0844 53.8996L89.2823 56.3627Z" fill="#D1EBE1"/>
<path d="M89.2823 56.3627C90.767 55.4022 92.3386 54.2308 94.0844 53.8996" stroke="#575756" stroke-width="0.5" stroke-miterlimit="10" stroke-linecap="round"/>
<path d="M91.4095 57.3801C92.2699 56.8856 93.1445 56.1172 93.9783 55.5678C94.8 55.0079 95.9391 54.2885 96.929 54.1713" fill="#D1EBE1"/>
<path d="M91.4095 57.3801C92.2699 56.8856 93.1445 56.1172 93.9783 55.5678C94.8 55.0079 95.9391 54.2885 96.929 54.1713" stroke="#575756" stroke-width="0.5" stroke-miterlimit="10" stroke-linecap="round"/>
<path d="M93.2614 58.2011C95.5608 56.8973 97.9393 55.747 100.387 54.7623L93.2614 58.2011Z" fill="#D1EBE1"/>
<path d="M93.2614 58.2011C95.5608 56.8973 97.9393 55.747 100.387 54.7623" stroke="#575756" stroke-width="0.5" stroke-miterlimit="10" stroke-linecap="round"/>
<path d="M95.6072 59.2594C98.0289 57.7648 100.689 56.5827 103.309 55.4831L95.6072 59.2594Z" fill="#D1EBE1"/>
<path d="M95.6072 59.2594C98.0289 57.7648 100.689 56.5827 103.309 55.4831" stroke="#575756" stroke-width="0.5" stroke-miterlimit="10" stroke-linecap="round"/>
<path d="M98.0778 60.3199C100.689 58.9366 103.313 57.5752 106.045 56.4448L98.0778 60.3199Z" fill="#D1EBE1"/>
<path d="M98.0778 60.3199C100.689 58.9366 103.313 57.5752 106.045 56.4448" stroke="#575756" stroke-width="0.5" stroke-miterlimit="10" stroke-linecap="round"/>
<path d="M100.772 61.3301C103.42 59.9897 106.146 58.7801 108.917 57.7151L100.772 61.3301Z" fill="#D1EBE1"/>
<path d="M100.772 61.3301C103.42 59.9897 106.146 58.7801 108.917 57.7151" stroke="#575756" stroke-width="0.5" stroke-miterlimit="10" stroke-linecap="round"/>
<path d="M103.103 62.1849C105.042 61.3961 106.967 60.563 108.918 59.7734C109.656 59.4698 110.406 59.1653 111.144 58.8616" fill="#D1EBE1"/>
<path d="M103.103 62.1849C105.042 61.3961 106.967 60.563 108.918 59.7734C109.656 59.4698 110.406 59.1653 111.144 58.8616" stroke="#575756" stroke-width="0.5" stroke-miterlimit="10" stroke-linecap="round"/>
<path d="M105.488 63.0014C108.103 61.9931 110.748 61.0737 113.422 60.2431L105.488 63.0014Z" fill="#D1EBE1"/>
<path d="M105.488 63.0014C108.103 61.9931 110.748 61.0737 113.422 60.2431" stroke="#575756" stroke-width="0.5" stroke-miterlimit="10" stroke-linecap="round"/>
<path d="M108.134 63.8219C110.278 62.7226 112.752 62.4183 114.921 61.3627L108.134 63.8219Z" fill="#D1EBE1"/>
<path d="M108.134 63.8219C110.278 62.7226 112.752 62.4183 114.921 61.3627" stroke="#575756" stroke-width="0.5" stroke-miterlimit="10" stroke-linecap="round"/>
<path d="M110.644 64.4929C112.158 63.9284 113.702 63.4754 115.258 63.0328C115.669 62.9121 116.08 62.7913 116.491 62.6706" fill="#D1EBE1"/>
<path d="M110.644 64.4929C112.158 63.9284 113.702 63.4754 115.258 63.0328C115.669 62.9121 116.08 62.7913 116.491 62.6706" stroke="#575756" stroke-width="0.5" stroke-miterlimit="10" stroke-linecap="round"/>
<path d="M113.925 65.1536C115.462 64.9171 116.887 64.3818 118.434 64.2811L113.925 65.1536Z" fill="#D1EBE1"/>
<path d="M113.925 65.1536C115.462 64.9171 116.887 64.3818 118.434 64.2811" stroke="#575756" stroke-width="0.5" stroke-miterlimit="10" stroke-linecap="round"/>
<path d="M87.0626 55.4773C86.9848 55.8128 87.1756 56.2538 87.2574 56.6004C87.4664 57.4496 87.7282 57.931 88.0806 58.7242" fill="#D1EBE1"/>
<path d="M87.0626 55.4773C86.9848 55.8128 87.1756 56.2538 87.2574 56.6004C87.4664 57.4496 87.7282 57.931 88.0806 58.7242" stroke="#575756" stroke-width="0.5" stroke-miterlimit="10" stroke-linecap="round"/>
<path d="M89.2846 56.3967C89.3448 58.1664 90.2456 59.7956 91.1939 61.2962L89.2846 56.3967Z" fill="#D1EBE1"/>
<path d="M89.2846 56.3967C89.3448 58.1664 90.2456 59.7956 91.1939 61.2962" stroke="#575756" stroke-width="0.5" stroke-miterlimit="10" stroke-linecap="round"/>
<path d="M91.4094 57.38C91.5785 59.2442 92.2514 61.015 93.24 62.6037L91.4094 57.38Z" fill="#D1EBE1"/>
<path d="M91.4094 57.38C91.5785 59.2442 92.2514 61.015 93.24 62.6037" stroke="#575756" stroke-width="0.5" stroke-miterlimit="10" stroke-linecap="round"/>
<path d="M93.197 58.2512C93.5488 59.1924 93.8998 60.1222 94.2404 61.0642C94.5922 62.0053 94.9448 62.9578 95.5689 63.7427" fill="#D1EBE1"/>
<path d="M93.197 58.2512C93.5488 59.1924 93.8998 60.1222 94.2404 61.0642C94.5922 62.0053 94.9448 62.9578 95.5689 63.7427" stroke="#575756" stroke-width="0.5" stroke-miterlimit="10" stroke-linecap="round"/>
<path d="M95.5283 59.265C95.9449 60.4744 96.3616 61.6838 96.7669 62.894C96.9263 63.3714 97.2607 63.9158 97.5387 64.4643" fill="#D1EBE1"/>
<path d="M95.5283 59.265C95.9449 60.4744 96.3616 61.6838 96.7669 62.894C96.9263 63.3714 97.2607 63.9158 97.5387 64.4643" stroke="#575756" stroke-width="0.5" stroke-miterlimit="10" stroke-linecap="round"/>
<path d="M98.073 60.4113C98.7612 62.2378 99.4967 63.7766 100.469 65.4575L98.073 60.4113Z" fill="#D1EBE1"/>
<path d="M98.073 60.4113C98.7612 62.2378 99.4967 63.7766 100.469 65.4575" stroke="#575756" stroke-width="0.5" stroke-miterlimit="10" stroke-linecap="round"/>
<path d="M100.696 61.3812C100.843 61.5298 101.244 62.8426 101.406 63.1948C101.852 64.186 102.196 65.014 102.708 65.9777" fill="#D1EBE1"/>
<path d="M100.696 61.3812C100.843 61.5298 101.244 62.8426 101.406 63.1948C101.852 64.186 102.196 65.014 102.708 65.9777" stroke="#575756" stroke-width="0.5" stroke-miterlimit="10" stroke-linecap="round"/>
<path d="M103.115 62.3545C103.417 63.8678 104.206 65.0389 104.994 66.3692L103.115 62.3545Z" fill="#D1EBE1"/>
<path d="M103.115 62.3545C103.417 63.8678 104.206 65.0389 104.994 66.3692" stroke="#575756" stroke-width="0.5" stroke-miterlimit="10" stroke-linecap="round"/>
<path d="M105.488 63.0015C105.896 64.4048 106.557 65.5509 107.5 66.6653L105.488 63.0015Z" fill="#D1EBE1"/>
<path d="M105.488 63.0015C105.896 64.4048 106.557 65.5509 107.5 66.6653" stroke="#575756" stroke-width="0.5" stroke-miterlimit="10" stroke-linecap="round"/>
<path d="M108.255 63.9268C108.75 64.9712 109.172 65.9414 110.002 66.7456L108.255 63.9268Z" fill="#D1EBE1"/>
<path d="M108.255 63.9268C108.75 64.9712 109.172 65.9414 110.002 66.7456" stroke="#575756" stroke-width="0.5" stroke-miterlimit="10" stroke-linecap="round"/>
<path d="M110.731 64.589C111.036 65.3629 111.43 65.9371 111.845 66.6576L110.731 64.589Z" fill="#D1EBE1"/>
<path d="M110.731 64.589C111.036 65.3629 111.43 65.9371 111.845 66.6576" stroke="#575756" stroke-width="0.5" stroke-miterlimit="10" stroke-linecap="round"/>
<path d="M113.926 65.1536C114.254 65.6188 114.582 66.0727 114.922 66.537L113.926 65.1536Z" fill="#D1EBE1"/>
<path d="M113.926 65.1536C114.254 65.6188 114.582 66.0727 114.922 66.537" stroke="#575756" stroke-width="0.5" stroke-miterlimit="10" stroke-linecap="round"/>
</g>
</g>
<defs>
<clipPath id="clip0">
<rect x="0.749512" y="11.3289" width="156.788" height="75.5067" transform="rotate(-4.14359 0.749512 11.3289)" fill="white"/>
</clipPath>
</defs>
</svg>
