<svg width="180" height="99" viewBox="0 0 180 99" fill="none" xmlns="http://www.w3.org/2000/svg">
<g opacity="0.1">
<g clip-path="url(#clip0)">
<path d="M85.7612 36.9236C83.7126 32.6468 79.1295 29.234 74.7479 27.4254C66.4761 23.9991 56.6585 23.3287 47.9519 25.4504" fill="#D1EBE1"/>
<path d="M85.7612 36.9236C83.7126 32.6468 79.1295 29.234 74.7479 27.4254C66.4761 23.9991 56.6585 23.3287 47.9519 25.4504" stroke="#575756" stroke-width="0.5" stroke-miterlimit="10" stroke-linecap="round"/>
<path d="M172.231 9.79445C147.668 29.0739 115.466 34.6153 86.1596 45.3523C69.1335 51.582 52.812 59.7305 37.5715 69.5626" stroke="#575756" stroke-width="0.5" stroke-miterlimit="10" stroke-linecap="round"/>
<path d="M62.3013 46.9083C62.2484 46.8759 62.1843 46.8569 62.1314 46.8245C54.5464 48.0285 46.5488 46.7116 39.5068 43.6435C32.4648 40.5755 26.0725 36.2098 19.7331 31.8766C34.7885 30.3661 51.3573 36.1673 62.1314 46.8245" fill="#D1EBE1"/>
<path d="M62.3013 46.9083C62.2484 46.8759 62.1843 46.8569 62.1314 46.8245C54.5464 48.0285 46.5488 46.7116 39.5068 43.6435C32.4648 40.5755 26.0725 36.2098 19.7331 31.8766C34.7885 30.3661 51.3573 36.1673 62.1314 46.8245" stroke="#575756" stroke-width="0.5" stroke-miterlimit="10" stroke-linecap="round"/>
<path d="M72.5742 50.4202C69.0464 49.6048 65.597 48.4324 62.3135 46.9072L72.5742 50.4202Z" fill="#D1EBE1"/>
<path d="M72.5742 50.4202C69.0464 49.6048 65.597 48.4324 62.3135 46.9072" stroke="#575756" stroke-width="0.5" stroke-miterlimit="10" stroke-linecap="round"/>
<path d="M62.0288 46.7966C55.3654 43.7802 47.1905 40.7194 40.2534 38.3657C33.4579 36.0611 26.3493 34.6601 19.7316 31.8642" fill="#D1EBE1"/>
<path d="M62.0288 46.7966C55.3654 43.7802 47.1905 40.7194 40.2534 38.3657C33.4579 36.0611 26.3493 34.6601 19.7316 31.8642" stroke="#575756" stroke-width="0.5" stroke-miterlimit="10" stroke-linecap="round"/>
<path d="M59.4504 45.7417C58.5129 46.3673 57.3737 47.0993 56.2583 47.2922L59.4504 45.7417Z" fill="#D1EBE1"/>
<path d="M59.4504 45.7417C58.5129 46.3673 57.3737 47.0993 56.2583 47.2922" stroke="#575756" stroke-width="0.5" stroke-miterlimit="10" stroke-linecap="round"/>
<path d="M56.8991 44.5844C55.3065 45.659 53.5064 46.5159 51.6395 46.9297L56.8991 44.5844Z" fill="#D1EBE1"/>
<path d="M56.8991 44.5844C55.3065 45.659 53.5064 46.5159 51.6395 46.9297" stroke="#575756" stroke-width="0.5" stroke-miterlimit="10" stroke-linecap="round"/>
<path d="M54.367 43.625C52.5544 44.7453 50.6591 45.6488 48.7096 46.5073L54.367 43.625Z" fill="#D1EBE1"/>
<path d="M54.367 43.625C52.5544 44.7453 50.6591 45.6488 48.7096 46.5073" stroke="#575756" stroke-width="0.5" stroke-miterlimit="10" stroke-linecap="round"/>
<path d="M52.0785 42.7423C50.33 43.8816 48.421 45.0361 46.555 45.9866L52.0785 42.7423Z" fill="#D1EBE1"/>
<path d="M52.0785 42.7423C50.33 43.8816 48.421 45.0361 46.555 45.9866" stroke="#575756" stroke-width="0.5" stroke-miterlimit="10" stroke-linecap="round"/>
<path d="M49.5568 41.7694C48.6222 42.557 47.5954 43.0287 46.5639 43.7131C45.7776 44.2245 44.9065 44.8937 44.0579 45.2736" fill="#D1EBE1"/>
<path d="M49.5568 41.7694C48.6222 42.557 47.5954 43.0287 46.5639 43.7131C45.7776 44.2245 44.9065 44.8937 44.0579 45.2736" stroke="#575756" stroke-width="0.5" stroke-miterlimit="10" stroke-linecap="round"/>
<path d="M47.2927 41.0095C45.3607 42.316 43.5658 43.3598 41.4394 44.3225L47.2927 41.0095Z" fill="#D1EBE1"/>
<path d="M47.2927 41.0095C45.3607 42.316 43.5658 43.3598 41.4394 44.3225" stroke="#575756" stroke-width="0.5" stroke-miterlimit="10" stroke-linecap="round"/>
<path d="M45.3407 40.2574C42.9928 40.854 41.0758 42.5836 38.7596 43.2521L45.3407 40.2574Z" fill="#D1EBE1"/>
<path d="M45.3407 40.2574C42.9928 40.854 41.0758 42.5836 38.7596 43.2521" stroke="#575756" stroke-width="0.5" stroke-miterlimit="10" stroke-linecap="round"/>
<path d="M42.9768 39.3695C41.1009 40.0837 39.2374 40.7968 37.3727 41.4975C36.904 41.6792 36.5183 41.8156 36.0496 41.9972" fill="#D1EBE1"/>
<path d="M42.9768 39.3695C41.1009 40.0837 39.2374 40.7968 37.3727 41.4975C36.904 41.6792 36.5183 41.8156 36.0496 41.9972" stroke="#575756" stroke-width="0.5" stroke-miterlimit="10" stroke-linecap="round"/>
<path d="M39.9884 38.3284C39.6149 38.4636 39.2415 38.5988 38.8805 38.7328C37.0382 39.4064 35.484 39.9654 33.6405 40.6267" fill="#D1EBE1"/>
<path d="M39.9884 38.3284C39.6149 38.4636 39.2415 38.5988 38.8805 38.7328C37.0382 39.4064 35.484 39.9654 33.6405 40.6267" stroke="#575756" stroke-width="0.5" stroke-miterlimit="10" stroke-linecap="round"/>
<path d="M36.992 37.3379C35.1527 37.9114 32.9481 38.7067 31.0918 39.2318L36.992 37.3379Z" fill="#D1EBE1"/>
<path d="M36.992 37.3379C35.1527 37.9114 32.9481 38.7067 31.0918 39.2318" stroke="#575756" stroke-width="0.5" stroke-miterlimit="10" stroke-linecap="round"/>
<path d="M32.9997 36.2169C31.626 36.7089 29.9053 37.4834 28.4507 37.6459L32.9997 36.2169Z" fill="#D1EBE1"/>
<path d="M32.9997 36.2169C31.626 36.7089 29.9053 37.4834 28.4507 37.6459" stroke="#575756" stroke-width="0.5" stroke-miterlimit="10" stroke-linecap="round"/>
<path d="M29.9449 35.2692C29.0422 35.6043 27.6479 36.2731 26.7271 36.5474L29.9449 35.2692Z" fill="#D1EBE1"/>
<path d="M29.9449 35.2692C29.0422 35.6043 27.6479 36.2731 26.7271 36.5474" stroke="#575756" stroke-width="0.5" stroke-miterlimit="10" stroke-linecap="round"/>
<path d="M24.8562 35.3382C25.5618 35.1591 26.395 34.8806 27.0666 34.6048C26.905 34.3454 26.76 33.9969 26.5984 33.7375C26.1431 33.0063 25.8265 32.4244 25.3724 31.7056" fill="#D1EBE1"/>
<path d="M24.8562 35.3382C25.5618 35.1591 26.395 34.8806 27.0666 34.6048C26.905 34.3454 26.76 33.9969 26.5984 33.7375C26.1431 33.0063 25.8265 32.4244 25.3724 31.7056" stroke="#575756" stroke-width="0.5" stroke-miterlimit="10" stroke-linecap="round"/>
<path d="M24.0679 33.4523C23.7689 32.7937 23.4458 32.2748 23.0539 31.6875L24.0679 33.4523Z" fill="#D1EBE1"/>
<path d="M24.0679 33.4523C23.7689 32.7937 23.4458 32.2748 23.0539 31.6875" stroke="#575756" stroke-width="0.5" stroke-miterlimit="10" stroke-linecap="round"/>
<path d="M29.9448 35.2693C29.5554 34.4445 29.1895 33.605 28.8595 32.7496C28.7438 32.4483 28.6146 32.1359 28.4037 31.8811" fill="#D1EBE1"/>
<path d="M29.9448 35.2693C29.5554 34.4445 29.1895 33.605 28.8595 32.7496C28.7438 32.4483 28.6146 32.1359 28.4037 31.8811" stroke="#575756" stroke-width="0.5" stroke-miterlimit="10" stroke-linecap="round"/>
<path d="M33.0396 36.1132C32.6357 34.7403 32.2224 33.5306 31.6739 32.2089L33.0396 36.1132Z" fill="#D1EBE1"/>
<path d="M33.0396 36.1132C32.6357 34.7403 32.2224 33.5306 31.6739 32.2089" stroke="#575756" stroke-width="0.5" stroke-miterlimit="10" stroke-linecap="round"/>
<path d="M36.9634 37.1658C36.7996 36.6193 36.7696 36.6971 36.6492 36.3463C36.3287 35.3277 35.978 34.6491 35.6127 33.9469C35.3989 33.53 35.1615 33.1279 34.9366 32.7246" fill="#D1EBE1"/>
<path d="M36.9634 37.1658C36.7996 36.6193 36.7696 36.6971 36.6492 36.3463C36.3287 35.3277 35.978 34.6491 35.6127 33.9469C35.3989 33.53 35.1615 33.1279 34.9366 32.7246" stroke="#575756" stroke-width="0.5" stroke-miterlimit="10" stroke-linecap="round"/>
<path d="M39.9194 38.2599C39.4481 36.5687 38.7716 34.9469 37.9169 33.4168L39.9194 38.2599Z" fill="#D1EBE1"/>
<path d="M39.9194 38.2599C39.4481 36.5687 38.7716 34.9469 37.9169 33.4168" stroke="#575756" stroke-width="0.5" stroke-miterlimit="10" stroke-linecap="round"/>
<path d="M42.9556 39.2717C42.7287 37.7947 42.1548 36.8625 41.6368 35.6003C41.46 35.1799 41.3192 34.7437 41.1189 34.3381" fill="#D1EBE1"/>
<path d="M42.9556 39.2717C42.7287 37.7947 42.1548 36.8625 41.6368 35.6003C41.46 35.1799 41.3192 34.7437 41.1189 34.3381" stroke="#575756" stroke-width="0.5" stroke-miterlimit="10" stroke-linecap="round"/>
<path d="M45.4707 40.1827C44.9971 38.4668 44.3529 36.792 43.5665 35.193L45.4707 40.1827Z" fill="#D1EBE1"/>
<path d="M45.4707 40.1827C44.9971 38.4668 44.3529 36.792 43.5665 35.193" stroke="#575756" stroke-width="0.5" stroke-miterlimit="10" stroke-linecap="round"/>
<path d="M47.4217 40.9223C47.3557 39.8297 46.9576 38.7809 46.5742 37.7557C46.3575 37.1768 46.1367 36.6857 45.9201 36.1068" fill="#D1EBE1"/>
<path d="M47.4217 40.9223C47.3557 39.8297 46.9576 38.7809 46.5742 37.7557C46.3575 37.1768 46.1367 36.6857 45.9201 36.1068" stroke="#575756" stroke-width="0.5" stroke-miterlimit="10" stroke-linecap="round"/>
<path d="M49.5571 41.7694C49.6542 41.6104 49.622 41.4011 49.5909 41.2043C49.2935 39.7714 48.959 38.6042 48.3699 37.2489" fill="#D1EBE1"/>
<path d="M49.5571 41.7694C49.6542 41.6104 49.622 41.4011 49.5909 41.2043C49.2935 39.7714 48.959 38.6042 48.3699 37.2489" stroke="#575756" stroke-width="0.5" stroke-miterlimit="10" stroke-linecap="round"/>
<path d="M52.1095 42.677C52.139 42.4619 52.142 42.3617 52.0727 42.156C51.8338 41.3419 51.5826 40.529 51.3437 39.715C51.2175 39.3023 51.0237 38.8337 50.8428 38.5011" fill="#D1EBE1"/>
<path d="M52.1095 42.677C52.139 42.4619 52.142 42.3617 52.0727 42.156C51.8338 41.3419 51.5826 40.529 51.3437 39.715C51.2175 39.3023 51.0237 38.8337 50.8428 38.5011" stroke="#575756" stroke-width="0.5" stroke-miterlimit="10" stroke-linecap="round"/>
<path d="M54.3945 43.5223C54.2995 43.0443 54.2074 42.7284 54.1135 42.2627C53.9293 41.3686 53.6264 40.5356 53.2815 39.9188" fill="#D1EBE1"/>
<path d="M54.3945 43.5223C54.2995 43.0443 54.2074 42.7284 54.1135 42.2627C53.9293 41.3686 53.6264 40.5356 53.2815 39.9188" stroke="#575756" stroke-width="0.5" stroke-miterlimit="10" stroke-linecap="round"/>
<path d="M56.8994 44.5844C56.8742 44.4494 56.8225 44.4293 56.7973 44.2943C56.6553 43.5835 56.4301 42.5184 56.1141 41.8115" fill="#D1EBE1"/>
<path d="M56.8994 44.5844C56.8742 44.4494 56.8225 44.4293 56.7973 44.2943C56.6553 43.5835 56.4301 42.5184 56.1141 41.8115" stroke="#575756" stroke-width="0.5" stroke-miterlimit="10" stroke-linecap="round"/>
<path d="M59.522 45.7101C59.2901 44.9703 58.8982 44.383 58.4753 43.5988L59.522 45.7101Z" fill="#D1EBE1"/>
<path d="M59.522 45.7101C59.2901 44.9703 58.8982 44.383 58.4753 43.5988" stroke="#575756" stroke-width="0.5" stroke-miterlimit="10" stroke-linecap="round"/>
<path d="M87.2056 37.5737C87.0921 37.5595 86.9786 37.5452 86.8652 37.531C84.6893 37.3121 82.4932 37.6695 80.3189 37.8626C68.2328 38.8926 55.7802 34.2007 47.3423 25.4581C60.9046 25.8119 74.4924 31.9699 86.8663 37.5434" fill="#D1EBE1"/>
<path d="M87.2056 37.5737C87.0921 37.5595 86.9786 37.5452 86.8652 37.531C84.6893 37.3121 82.4932 37.6695 80.3189 37.8626C68.2328 38.8926 55.7802 34.2007 47.3423 25.4581C60.9046 25.8119 74.4924 31.9699 86.8663 37.5434" stroke="#575756" stroke-width="0.5" stroke-miterlimit="10" stroke-linecap="round"/>
<path d="M96.8511 41.6945C93.827 39.8825 90.686 38.0191 87.2056 37.5738L96.8511 41.6945Z" fill="#D1EBE1"/>
<path d="M96.8511 41.6945C93.827 39.8825 90.686 38.0191 87.2056 37.5738" stroke="#575756" stroke-width="0.5" stroke-miterlimit="10" stroke-linecap="round"/>
<path d="M60.9368 61.2102C60.9033 61.2509 60.8821 61.2903 60.8485 61.331C59.2818 63.6019 57.1067 65.3684 55.1062 67.2682C47.2631 74.7028 41.7841 84.6111 39.6348 95.2161C43.6867 94.1962 46.8313 92.2756 49.6538 89.1867C56.1103 82.1081 59.1754 70.7796 60.8485 61.331" fill="#D1EBE1"/>
<path d="M60.9368 61.2102C60.9033 61.2509 60.8821 61.2903 60.8485 61.331C59.2818 63.6019 57.1067 65.3684 55.1062 67.2682C47.2631 74.7028 41.7841 84.6111 39.6348 95.2161C43.6867 94.1962 46.8313 92.2756 49.6538 89.1867C56.1103 82.1081 59.1754 70.7796 60.8485 61.331" stroke="#575756" stroke-width="0.5" stroke-miterlimit="10" stroke-linecap="round"/>
<path d="M63.8858 54.975C63.094 57.0103 62.1487 59.3974 60.9249 61.2113L63.8858 54.975Z" fill="#D1EBE1"/>
<path d="M63.8858 54.975C63.094 57.0103 62.1487 59.3974 60.9249 61.2113" stroke="#575756" stroke-width="0.5" stroke-miterlimit="10" stroke-linecap="round"/>
<path d="M39.6349 95.216C47.9156 87.403 57.7497 72.3004 60.8487 61.3309L39.6349 95.216Z" fill="#D1EBE1"/>
<path d="M39.6349 95.216C47.9156 87.403 57.7497 72.3004 60.8487 61.3309" stroke="#575756" stroke-width="0.5" stroke-miterlimit="10" stroke-linecap="round"/>
<path d="M59.5647 65.0111C58.4693 65.1521 57.5743 65.4365 56.6004 65.9406L59.5647 65.0111Z" fill="#D1EBE1"/>
<path d="M59.5647 65.0111C58.4693 65.1521 57.5743 65.4365 56.6004 65.9406" stroke="#575756" stroke-width="0.5" stroke-miterlimit="10" stroke-linecap="round"/>
<path d="M58.7254 67.2008C58.0051 67.3563 57.2848 67.5118 56.5645 67.6673C55.7837 67.841 54.6247 68.1004 53.9108 68.4551" fill="#D1EBE1"/>
<path d="M58.7254 67.2008C58.0051 67.3563 57.2848 67.5118 56.5645 67.6673C55.7837 67.841 54.6247 68.1004 53.9108 68.4551" stroke="#575756" stroke-width="0.5" stroke-miterlimit="10" stroke-linecap="round"/>
<path d="M57.57 69.87C55.6903 70.1476 53.303 70.7229 51.4508 71.1602L57.57 69.87Z" fill="#D1EBE1"/>
<path d="M57.57 69.87C55.6903 70.1476 53.303 70.7229 51.4508 71.1602" stroke="#575756" stroke-width="0.5" stroke-miterlimit="10" stroke-linecap="round"/>
<path d="M56.307 72.3244C55.1028 72.5006 54.0044 72.7418 52.8014 72.9304C51.6836 73.0985 50.3554 73.4114 49.3251 73.8459" fill="#D1EBE1"/>
<path d="M56.307 72.3244C55.1028 72.5006 54.0044 72.7418 52.8014 72.9304C51.6836 73.0985 50.3554 73.4114 49.3251 73.8459" stroke="#575756" stroke-width="0.5" stroke-miterlimit="10" stroke-linecap="round"/>
<path d="M54.7882 75.1027C52.3957 75.4912 49.9908 75.8808 47.5995 76.2817L54.7882 75.1027Z" fill="#D1EBE1"/>
<path d="M54.7882 75.1027C52.3957 75.4912 49.9908 75.8808 47.5995 76.2817" stroke="#575756" stroke-width="0.5" stroke-miterlimit="10" stroke-linecap="round"/>
<path d="M53.4083 77.5059C52.4247 77.5115 51.4451 77.6915 50.4778 77.8703C48.9967 78.1477 47.5155 78.4251 46.0344 78.7024" fill="#D1EBE1"/>
<path d="M53.4083 77.5059C52.4247 77.5115 51.4451 77.6915 50.4778 77.8703C48.9967 78.1477 47.5155 78.4251 46.0344 78.7024" stroke="#575756" stroke-width="0.5" stroke-miterlimit="10" stroke-linecap="round"/>
<path d="M51.9474 79.8418C49.5231 80.4206 47.0647 80.9027 44.5969 81.2858L51.9474 79.8418Z" fill="#D1EBE1"/>
<path d="M51.9474 79.8418C49.5231 80.4206 47.0647 80.9027 44.5969 81.2858" stroke="#575756" stroke-width="0.5" stroke-miterlimit="10" stroke-linecap="round"/>
<path d="M50.1497 82.5715C47.8272 83.0408 45.6393 83.4849 43.3167 83.9542L50.1497 82.5715Z" fill="#D1EBE1"/>
<path d="M50.1497 82.5715C47.8272 83.0408 45.6393 83.4849 43.3167 83.9542" stroke="#575756" stroke-width="0.5" stroke-miterlimit="10" stroke-linecap="round"/>
<path d="M48.3595 85.1133C46.335 85.4421 44.4094 85.7614 42.3932 86.1768L48.3595 85.1133Z" fill="#D1EBE1"/>
<path d="M48.3595 85.1133C46.335 85.4421 44.4094 85.7614 42.3932 86.1768" stroke="#575756" stroke-width="0.5" stroke-miterlimit="10" stroke-linecap="round"/>
<path d="M46.6064 87.3893C45.8714 87.5212 45.2904 87.701 44.5613 87.8948C43.517 88.1808 42.4615 88.4804 41.4172 88.7664" fill="#D1EBE1"/>
<path d="M46.6064 87.3893C45.8714 87.5212 45.2904 87.701 44.5613 87.8948C43.517 88.1808 42.4615 88.4804 41.4172 88.7664" stroke="#575756" stroke-width="0.5" stroke-miterlimit="10" stroke-linecap="round"/>
<path d="M44.2669 90.183C42.9086 90.5736 41.9218 90.9416 40.6136 91.2026L44.2669 90.183Z" fill="#D1EBE1"/>
<path d="M44.2669 90.183C42.9086 90.5736 41.9218 90.9416 40.6136 91.2026" stroke="#575756" stroke-width="0.5" stroke-miterlimit="10" stroke-linecap="round"/>
<path d="M40.1053 93.336C40.7944 93.2459 41.51 93.0409 42.1275 92.7203C42.1925 93.2761 42.0569 93.9507 41.9344 94.4992" fill="#D1EBE1"/>
<path d="M40.1053 93.336C40.7944 93.2459 41.51 93.0409 42.1275 92.7203C42.1925 93.2761 42.0569 93.9507 41.9344 94.4992" stroke="#575756" stroke-width="0.5" stroke-miterlimit="10" stroke-linecap="round"/>
<path d="M44.4123 90.2689C44.7234 91.1886 44.7364 92.2487 44.7659 93.2199L44.4123 90.2689Z" fill="#D1EBE1"/>
<path d="M44.4123 90.2689C44.7234 91.1886 44.7364 92.2487 44.7659 93.2199" stroke="#575756" stroke-width="0.5" stroke-miterlimit="10" stroke-linecap="round"/>
<path d="M46.7412 87.3641C46.764 87.4743 46.7821 87.7973 46.7926 87.9087C47.0119 89.1741 47.2224 90.4779 46.8902 91.7081" fill="#D1EBE1"/>
<path d="M46.7412 87.3641C46.764 87.4743 46.7821 87.7973 46.7926 87.9087C47.0119 89.1741 47.2224 90.4779 46.8902 91.7081" stroke="#575756" stroke-width="0.5" stroke-miterlimit="10" stroke-linecap="round"/>
<path d="M48.4488 85.005C48.9978 86.4641 49.2169 88.254 49.0004 89.7854L48.4488 85.005Z" fill="#D1EBE1"/>
<path d="M48.4488 85.005C48.9978 86.4641 49.2169 88.254 49.0004 89.7854" stroke="#575756" stroke-width="0.5" stroke-miterlimit="10" stroke-linecap="round"/>
<path d="M50.2855 82.5586C50.82 83.7319 51.0775 85.0062 51.1992 86.2934C51.2249 86.5657 51.2336 86.7896 51.2205 87.178" fill="#D1EBE1"/>
<path d="M50.2855 82.5586C50.82 83.7319 51.0775 85.0062 51.1992 86.2934C51.2249 86.5657 51.2336 86.7896 51.2205 87.178" stroke="#575756" stroke-width="0.5" stroke-miterlimit="10" stroke-linecap="round"/>
<path d="M52.0812 79.6793C52.4549 81.3921 52.768 83.1232 52.9094 84.8831L52.0812 79.6793Z" fill="#D1EBE1"/>
<path d="M52.0812 79.6793C52.4549 81.3921 52.768 83.1232 52.9094 84.8831" stroke="#575756" stroke-width="0.5" stroke-miterlimit="10" stroke-linecap="round"/>
<path d="M53.4084 77.5059C53.774 77.6837 53.9883 78.2378 54.1357 78.611C54.5063 79.5 54.6651 80.5214 54.7058 81.4791" fill="#D1EBE1"/>
<path d="M53.4084 77.5059C53.774 77.6837 53.9883 78.2378 54.1357 78.611C54.5063 79.5 54.6651 80.5214 54.7058 81.4791" stroke="#575756" stroke-width="0.5" stroke-miterlimit="10" stroke-linecap="round"/>
<path d="M54.788 75.1028C55.4337 76.0033 55.9474 77.6155 56.0033 78.7341L54.788 75.1028Z" fill="#D1EBE1"/>
<path d="M54.788 75.1028C55.4337 76.0033 55.9474 77.6155 56.0033 78.7341" stroke="#575756" stroke-width="0.5" stroke-miterlimit="10" stroke-linecap="round"/>
<path d="M56.4126 72.3894C56.8784 73.2319 57.3624 74.1352 57.4401 75.0894L56.4126 72.3894Z" fill="#D1EBE1"/>
<path d="M56.4126 72.3894C56.8784 73.2319 57.3624 74.1352 57.4401 75.0894" stroke="#575756" stroke-width="0.5" stroke-miterlimit="10" stroke-linecap="round"/>
<path d="M57.6963 70.0203C57.8427 70.1189 57.9835 70.5551 58.0246 70.7261C58.2113 71.3827 58.2264 71.8059 58.2278 72.48" fill="#D1EBE1"/>
<path d="M57.6963 70.0203C57.8427 70.1189 57.9835 70.5551 58.0246 70.7261C58.2113 71.3827 58.2264 71.8059 58.2278 72.48" stroke="#575756" stroke-width="0.5" stroke-miterlimit="10" stroke-linecap="round"/>
<path d="M58.7254 67.2008C59.0403 67.6331 59.3611 68.1272 59.325 68.6676L58.7254 67.2008Z" fill="#D1EBE1"/>
<path d="M58.7254 67.2008C59.0403 67.6331 59.3611 68.1272 59.325 68.6676" stroke="#575756" stroke-width="0.5" stroke-miterlimit="10" stroke-linecap="round"/>
<path d="M106.062 43.1963C104.398 45.2267 103.086 47.2987 102.112 49.5136C97.7439 59.4418 98.6632 70.8806 100.681 81.5537C104.216 76.7741 105.858 71.3493 106.861 65.4854C107.457 62.0326 107.898 58.5319 107.841 55.0284C107.766 51.3392 106.949 47.1708 106.026 43.5993" fill="#D1EBE1"/>
<path d="M106.062 43.1963C104.398 45.2267 103.086 47.2987 102.112 49.5136C97.7439 59.4418 98.6632 70.8806 100.681 81.5537C104.216 76.7741 105.858 71.3493 106.861 65.4854C107.457 62.0326 107.898 58.5319 107.841 55.0284C107.766 51.3392 106.949 47.1708 106.026 43.5993" stroke="#575756" stroke-width="0.5" stroke-miterlimit="10" stroke-linecap="round"/>
<path d="M112.612 36.7082C110.005 38.9151 107.838 41.0305 106.073 43.1827L112.612 36.7082Z" fill="#D1EBE1"/>
<path d="M112.612 36.7082C110.005 38.9151 107.838 41.0305 106.073 43.1827" stroke="#575756" stroke-width="0.5" stroke-miterlimit="10" stroke-linecap="round"/>
<path d="M100.692 81.5402C101.166 79.5599 102.027 71.0122 102.499 69.0195C104.717 59.6692 107.666 52.7847 105.986 43.3158" fill="#D1EBE1"/>
<path d="M100.692 81.5402C101.166 79.5599 102.027 71.0122 102.499 69.0196C104.717 59.6692 107.666 52.7847 105.986 43.3158" stroke="#575756" stroke-width="0.5" stroke-miterlimit="10" stroke-linecap="round"/>
<path d="M106.143 44.5748C104.249 47.2014 103.268 48.4304 101.631 50.7454L106.143 44.5748Z" fill="#D1EBE1"/>
<path d="M106.143 44.5748C104.249 47.2014 103.268 48.4304 101.631 50.7454" stroke="#575756" stroke-width="0.5" stroke-miterlimit="10" stroke-linecap="round"/>
<path d="M106.333 46.717C104.536 49.3219 102.372 52.1238 100.372 54.5605L106.333 46.717Z" fill="#D1EBE1"/>
<path d="M106.333 46.717C104.536 49.3219 102.372 52.1238 100.372 54.5605" stroke="#575756" stroke-width="0.5" stroke-miterlimit="10" stroke-linecap="round"/>
<path d="M106.419 49.4687C104.166 52.3913 101.913 55.314 99.6607 58.2367L106.419 49.4687Z" fill="#D1EBE1"/>
<path d="M106.419 49.4687C104.166 52.3913 101.913 55.314 99.6607 58.2367" stroke="#575756" stroke-width="0.5" stroke-miterlimit="10" stroke-linecap="round"/>
<path d="M106.291 52.078C104.95 54.6273 102.581 56.4496 100.869 58.7593C100.316 59.4984 99.6797 60.2828 99.2066 61.0767" fill="#D1EBE1"/>
<path d="M106.291 52.078C104.95 54.6273 102.581 56.4496 100.869 58.7593C100.316 59.4984 99.6797 60.2828 99.2066 61.0767" stroke="#575756" stroke-width="0.5" stroke-miterlimit="10" stroke-linecap="round"/>
<path d="M105.717 55.7536C103.355 58.1747 101.339 60.3132 99.1011 62.8599L105.717 55.7536Z" fill="#D1EBE1"/>
<path d="M105.717 55.7536C103.355 58.1747 101.339 60.3132 99.1011 62.8599" stroke="#575756" stroke-width="0.5" stroke-miterlimit="10" stroke-linecap="round"/>
<path d="M105.296 58.1536C103.225 60.3598 101.077 62.5483 99.0806 64.8848L105.296 58.1536Z" fill="#D1EBE1"/>
<path d="M105.296 58.1536C103.225 60.3598 101.077 62.5483 99.0806 64.8848" stroke="#575756" stroke-width="0.5" stroke-miterlimit="10" stroke-linecap="round"/>
<path d="M104.595 60.7547C104.18 61.1062 100.83 65.5936 99.1328 67.2774L104.595 60.7547Z" fill="#D1EBE1"/>
<path d="M104.595 60.7547C104.18 61.1062 100.83 65.5936 99.1328 67.2774" stroke="#575756" stroke-width="0.5" stroke-miterlimit="10" stroke-linecap="round"/>
<path d="M103.568 64.5105C102.034 66.204 100.713 67.6524 99.1665 69.347L103.568 64.5105Z" fill="#D1EBE1"/>
<path d="M103.568 64.5105C102.034 66.204 100.713 67.6524 99.1665 69.347" stroke="#575756" stroke-width="0.5" stroke-miterlimit="10" stroke-linecap="round"/>
<path d="M102.661 67.9679C101.382 69.325 100.429 70.3142 99.3374 71.8159L102.661 67.9679Z" fill="#D1EBE1"/>
<path d="M102.661 67.9679C101.382 69.325 100.429 70.3142 99.3374 71.8159" stroke="#575756" stroke-width="0.5" stroke-miterlimit="10" stroke-linecap="round"/>
<path d="M102.252 70.6288C101.342 71.539 100.313 72.6477 99.4709 73.6263L102.252 70.6288Z" fill="#D1EBE1"/>
<path d="M102.252 70.6288C101.342 71.539 100.313 72.6477 99.4709 73.6263" stroke="#575756" stroke-width="0.5" stroke-miterlimit="10" stroke-linecap="round"/>
<path d="M101.817 73.1424C101.195 74.2002 100.449 75.407 99.8266 76.4648L101.817 73.1424Z" fill="#D1EBE1"/>
<path d="M101.817 73.1424C101.195 74.2002 100.449 75.407 99.8266 76.4648" stroke="#575756" stroke-width="0.5" stroke-miterlimit="10" stroke-linecap="round"/>
<path d="M102.954 77.9175C102.807 77.5567 102.669 77.4075 102.43 77.1179C102.219 76.8631 101.716 76.5486 101.389 76.517C100.956 77.0824 100.524 77.6477 100.104 78.2119" fill="#D1EBE1"/>
<path d="M102.954 77.9175C102.807 77.5567 102.669 77.4075 102.43 77.1179C102.219 76.8631 101.716 76.5486 101.389 76.517C100.956 77.0824 100.524 77.6477 100.104 78.2119" stroke="#575756" stroke-width="0.5" stroke-miterlimit="10" stroke-linecap="round"/>
<path d="M104.137 75.4081C103.663 74.4789 102.82 73.7344 101.829 73.4035L104.137 75.4081Z" fill="#D1EBE1"/>
<path d="M104.137 75.4081C103.663 74.4789 102.82 73.7344 101.829 73.4035" stroke="#575756" stroke-width="0.5" stroke-miterlimit="10" stroke-linecap="round"/>
<path d="M105.068 72.8726C104.572 72.37 104.128 72.0248 103.599 71.5629C103.138 71.1694 102.636 70.8672 102.265 70.6276" fill="#D1EBE1"/>
<path d="M105.068 72.8726C104.572 72.37 104.128 72.0248 103.599 71.5629C103.138 71.1694 102.636 70.8672 102.265 70.6276" stroke="#575756" stroke-width="0.5" stroke-miterlimit="10" stroke-linecap="round"/>
<path d="M105.795 70.0192C105.215 69.4246 104.568 68.8989 103.878 68.4522C103.532 68.2226 103.177 68.019 102.77 67.9325" fill="#D1EBE1"/>
<path d="M105.795 70.0192C105.215 69.4246 104.568 68.8989 103.878 68.4522C103.532 68.2226 103.177 68.019 102.77 67.9325" stroke="#575756" stroke-width="0.5" stroke-miterlimit="10" stroke-linecap="round"/>
<path d="M106.546 67.0261C106.021 66.2142 105.343 65.7662 104.623 65.135C104.352 64.8984 104.08 64.6619 103.809 64.4253" fill="#D1EBE1"/>
<path d="M106.546 67.0261C106.021 66.2142 105.343 65.7662 104.623 65.135C104.352 64.8984 104.08 64.6619 103.809 64.4253" stroke="#575756" stroke-width="0.5" stroke-miterlimit="10" stroke-linecap="round"/>
<path d="M107.158 63.4844C106.394 62.6575 105.552 61.788 104.577 60.8313L107.158 63.4844Z" fill="#D1EBE1"/>
<path d="M107.158 63.4844C106.394 62.6575 105.552 61.788 104.577 60.8313" stroke="#575756" stroke-width="0.5" stroke-miterlimit="10" stroke-linecap="round"/>
<path d="M107.55 60.6501C107.381 60.4414 106.865 59.8533 106.662 59.6852C106.132 59.2233 105.833 58.9519 105.215 58.6107" fill="#D1EBE1"/>
<path d="M107.55 60.6501C107.381 60.4414 106.865 59.8533 106.662 59.6852C106.132 59.2233 105.833 58.9519 105.215 58.6107" stroke="#575756" stroke-width="0.5" stroke-miterlimit="10" stroke-linecap="round"/>
<path d="M107.796 57.1929C107.386 56.4075 106.819 55.9491 106.014 55.6007L107.796 57.1929Z" fill="#D1EBE1"/>
<path d="M107.796 57.1929C107.386 56.4075 106.819 55.9491 106.014 55.6007" stroke="#575756" stroke-width="0.5" stroke-miterlimit="10" stroke-linecap="round"/>
<path d="M107.727 53.6906C107.328 53.1539 106.836 52.7009 106.257 52.3685L107.727 53.6906Z" fill="#D1EBE1"/>
<path d="M107.727 53.6906C107.328 53.1539 106.836 52.7009 106.257 52.3685" stroke="#575756" stroke-width="0.5" stroke-miterlimit="10" stroke-linecap="round"/>
<path d="M107.528 50.9248C107.131 50.4129 106.891 50.2483 106.47 49.7511L107.528 50.9248Z" fill="#D1EBE1"/>
<path d="M107.528 50.9248C107.131 50.4129 106.891 50.2483 106.47 49.7511" stroke="#575756" stroke-width="0.5" stroke-miterlimit="10" stroke-linecap="round"/>
<path d="M137.54 28.4079C133.937 31.1461 130.527 34.8774 127.693 39.0288L137.54 28.4079Z" fill="#D1EBE1"/>
<path d="M137.54 28.4079C133.937 31.1461 130.527 34.8774 127.693 39.0288" stroke="#575756" stroke-width="0.5" stroke-miterlimit="10" stroke-linecap="round"/>
<path d="M123.887 33.1575C106.282 33.1358 86.528 25.9248 74.0057 13.5099C80.8779 12.673 88.1072 15.0865 94.1566 18.4606C100.206 21.8348 107.269 26.8364 111.8 32.0772" fill="#D1EBE1"/>
<path d="M123.887 33.1575C106.282 33.1358 86.528 25.9248 74.0057 13.5099C80.8779 12.673 88.1072 15.0865 94.1566 18.4606C100.206 21.8348 107.269 26.8364 111.8 32.0772" stroke="#575756" stroke-width="0.5" stroke-miterlimit="10" stroke-linecap="round"/>
<path d="M111.537 31.9272C99.9759 27.1761 89.4743 19.6649 74.0057 13.5099L111.537 31.9272Z" fill="#D1EBE1"/>
<path d="M111.537 31.9272C99.9759 27.1761 89.4743 19.6649 74.0057 13.5099" stroke="#575756" stroke-width="0.5" stroke-miterlimit="10" stroke-linecap="round"/>
<path d="M107.476 30.2134C106.522 30.2661 105.523 30.373 104.57 30.4381L107.476 30.2134Z" fill="#D1EBE1"/>
<path d="M107.476 30.2134C106.522 30.2661 105.523 30.373 104.57 30.4381" stroke="#575756" stroke-width="0.5" stroke-miterlimit="10" stroke-linecap="round"/>
<path d="M104.696 28.8777C104.537 28.9053 104.376 28.9205 104.217 28.948C103.172 29.0967 102.127 29.2454 101.07 29.3953" fill="#D1EBE1"/>
<path d="M104.696 28.8777C104.537 28.9053 104.376 28.9205 104.217 28.948C103.172 29.0967 102.127 29.2454 101.07 29.3953" stroke="#575756" stroke-width="0.5" stroke-miterlimit="10" stroke-linecap="round"/>
<path d="M102.135 27.6089C100.725 27.8545 99.3135 28.0753 97.887 28.2726L102.135 27.6089Z" fill="#D1EBE1"/>
<path d="M102.135 27.6089C100.725 27.8545 99.3135 28.0753 97.887 28.2726" stroke="#575756" stroke-width="0.5" stroke-miterlimit="10" stroke-linecap="round"/>
<path d="M100.067 26.4307C98.5361 26.5754 96.9473 26.9004 95.4826 27.351L100.067 26.4307Z" fill="#D1EBE1"/>
<path d="M100.067 26.4307C98.5361 26.5754 96.9473 26.9004 95.4826 27.351" stroke="#575756" stroke-width="0.5" stroke-miterlimit="10" stroke-linecap="round"/>
<path d="M97.7674 25.1621C96.7943 25.279 95.8294 25.4826 94.8563 25.5996C94.0191 25.7037 93.0248 25.8601 92.174 25.953" fill="#D1EBE1"/>
<path d="M97.7674 25.1621C96.7943 25.279 95.8294 25.4826 94.8563 25.5996C94.0191 25.7037 93.0248 25.8601 92.174 25.953" stroke="#575756" stroke-width="0.5" stroke-miterlimit="10" stroke-linecap="round"/>
<path d="M95.2036 23.8685C93.4602 24.2706 91.6927 24.5501 89.9023 24.7193L95.2036 23.8685Z" fill="#D1EBE1"/>
<path d="M95.2036 23.8685C93.4602 24.2706 91.6927 24.5501 89.9023 24.7193" stroke="#575756" stroke-width="0.5" stroke-miterlimit="10" stroke-linecap="round"/>
<path d="M92.5664 22.5944C91.2851 22.8778 89.9833 23.0758 88.671 23.1624C88.2747 23.1873 87.6709 23.2569 87.2222 23.3867" fill="#D1EBE1"/>
<path d="M92.5664 22.5944C91.2851 22.8778 89.9833 23.0758 88.671 23.1624C88.2747 23.1873 87.6709 23.2569 87.2222 23.3867" stroke="#575756" stroke-width="0.5" stroke-miterlimit="10" stroke-linecap="round"/>
<path d="M90.8084 21.5242C88.8634 21.7705 86.9102 21.9302 84.9611 22.002L90.8084 21.5242Z" fill="#D1EBE1"/>
<path d="M90.8084 21.5242C88.8634 21.7705 86.9102 21.9302 84.9611 22.002" stroke="#575756" stroke-width="0.5" stroke-miterlimit="10" stroke-linecap="round"/>
<path d="M88.845 20.3862C87.709 20.4936 86.4325 20.8266 85.2954 20.9216C84.6903 20.9787 83.9665 21.0971 83.3633 21.0417" fill="#D1EBE1"/>
<path d="M88.845 20.3862C87.709 20.4936 86.4325 20.8266 85.2954 20.9216C84.6903 20.9787 83.9665 21.0971 83.3633 21.0417" stroke="#575756" stroke-width="0.5" stroke-miterlimit="10" stroke-linecap="round"/>
<path d="M86.5625 19.3033C86.2956 19.3785 86.0104 19.3929 85.7376 19.4062C84.1872 19.4779 82.9613 19.5563 81.4109 19.6279" fill="#D1EBE1"/>
<path d="M86.5625 19.3033C86.2956 19.3785 86.0104 19.3929 85.7376 19.4062C84.1872 19.4779 82.9613 19.5563 81.4109 19.6279" stroke="#575756" stroke-width="0.5" stroke-miterlimit="10" stroke-linecap="round"/>
<path d="M84.0332 17.9816C82.5604 18.0833 81.1094 18.0207 79.6506 18.271L84.0332 17.9816Z" fill="#D1EBE1"/>
<path d="M84.0332 17.9816C82.5604 18.0833 81.1094 18.0207 79.6506 18.271" stroke="#575756" stroke-width="0.5" stroke-miterlimit="10" stroke-linecap="round"/>
<path d="M81.7305 16.9504C80.5234 16.9646 79.2875 17.069 78.077 17.046L81.7305 16.9504Z" fill="#D1EBE1"/>
<path d="M81.7305 16.9504C80.5234 16.9646 79.2875 17.069 78.077 17.046" stroke="#575756" stroke-width="0.5" stroke-miterlimit="10" stroke-linecap="round"/>
<path d="M76.7574 15.9971C77.6499 15.9501 78.3979 15.6921 79.2886 15.7578C79.176 15.0941 78.9163 14.7191 78.5862 14.1259C78.4505 13.8765 78.3671 13.7845 78.1768 13.3529" fill="#D1EBE1"/>
<path d="M76.7574 15.9971C77.6499 15.9501 78.3979 15.6921 79.2886 15.7578C79.176 15.0941 78.9163 14.7191 78.5862 14.1259C78.4505 13.8765 78.3671 13.7845 78.1768 13.3529" stroke="#575756" stroke-width="0.5" stroke-miterlimit="10" stroke-linecap="round"/>
<path d="M81.7817 16.8331C81.6135 15.7127 81.2101 14.7394 80.6797 13.7406L81.7817 16.8331Z" fill="#D1EBE1"/>
<path d="M81.7817 16.8331C81.6135 15.7127 81.2101 14.7394 80.6797 13.7406" stroke="#575756" stroke-width="0.5" stroke-miterlimit="10" stroke-linecap="round"/>
<path d="M84.0332 17.9816C83.7344 17.0608 83.4726 16.1365 83.2591 15.1952C83.1734 14.8161 83.0866 14.4248 82.9045 14.0798" fill="#D1EBE1"/>
<path d="M84.0332 17.9816C83.7344 17.0608 83.4726 16.1365 83.2591 15.1952C83.1734 14.8161 83.0866 14.4248 82.9045 14.0798" stroke="#575756" stroke-width="0.5" stroke-miterlimit="10" stroke-linecap="round"/>
<path d="M86.5517 19.1919C86.5677 17.7793 86.2627 16.3971 85.9341 15.0296L86.5517 19.1919Z" fill="#D1EBE1"/>
<path d="M86.5517 19.1919C86.5677 17.7793 86.2627 16.3971 85.9341 15.0296" stroke="#575756" stroke-width="0.5" stroke-miterlimit="10" stroke-linecap="round"/>
<path d="M88.875 20.3085C88.5148 18.6068 88.1592 17.2169 87.799 15.5152L88.875 20.3085Z" fill="#D1EBE1"/>
<path d="M88.875 20.3085C88.5148 18.6068 88.1592 17.2169 87.799 15.5152" stroke="#575756" stroke-width="0.5" stroke-miterlimit="10" stroke-linecap="round"/>
<path d="M90.8682 21.4937C90.8684 19.7829 90.4377 18.1253 89.9957 16.4813L90.8682 21.4937Z" fill="#D1EBE1"/>
<path d="M90.8682 21.4937C90.8684 19.7829 90.4377 18.1253 89.9957 16.4813" stroke="#575756" stroke-width="0.5" stroke-miterlimit="10" stroke-linecap="round"/>
<path d="M92.7123 22.5557C92.7026 21.7948 92.6818 21.0476 92.5858 20.2949C92.4633 19.3949 92.2057 18.3829 92.1697 17.4747" fill="#D1EBE1"/>
<path d="M92.7123 22.5557C92.7026 21.7948 92.6818 21.0476 92.5858 20.2949C92.4633 19.3949 92.2057 18.3829 92.1697 17.4747" stroke="#575756" stroke-width="0.5" stroke-miterlimit="10" stroke-linecap="round"/>
<path d="M95.2478 23.677C95.3393 22.9316 95.2444 22.1913 95.1495 21.4511C95.0212 20.4892 94.8928 19.7896 94.7633 18.8153" fill="#D1EBE1"/>
<path d="M95.2478 23.677C95.3393 22.9316 95.2444 22.1913 95.1495 21.4511C95.0212 20.4892 94.8928 19.7896 94.7633 18.8153" stroke="#575756" stroke-width="0.5" stroke-miterlimit="10" stroke-linecap="round"/>
<path d="M97.8061 25.0461C97.965 23.4327 97.8833 22.0419 97.4978 20.4674L97.8061 25.0461Z" fill="#D1EBE1"/>
<path d="M97.8061 25.0461C97.965 23.4327 97.8833 22.0419 97.4978 20.4674" stroke="#575756" stroke-width="0.5" stroke-miterlimit="10" stroke-linecap="round"/>
<path d="M100.067 26.4307C100.044 25.2591 99.9834 24.091 99.8981 22.9253C99.8707 22.5033 99.8231 22.3954 99.7563 21.9522" fill="#D1EBE1"/>
<path d="M100.067 26.4307C100.044 25.2591 99.9834 24.091 99.8981 22.9253C99.8707 22.5033 99.8231 22.3954 99.7563 21.9522" stroke="#575756" stroke-width="0.5" stroke-miterlimit="10" stroke-linecap="round"/>
<path d="M102.269 27.5836C102.291 26.2329 102.208 24.8297 102.068 23.4818L102.269 27.5836Z" fill="#D1EBE1"/>
<path d="M102.269 27.5836C102.291 26.2329 102.208 24.8297 102.068 23.4818" stroke="#575756" stroke-width="0.5" stroke-miterlimit="10" stroke-linecap="round"/>
<path d="M104.745 28.8606C104.663 27.8693 104.715 27.8894 104.634 26.8981C104.602 26.5639 104.529 25.5219 104.376 25.2242" fill="#D1EBE1"/>
<path d="M104.745 28.8606C104.663 27.8693 104.715 27.8894 104.634 26.8981C104.602 26.5639 104.529 25.5219 104.376 25.2242" stroke="#575756" stroke-width="0.5" stroke-miterlimit="10" stroke-linecap="round"/>
<path d="M107.476 30.2133C107.497 29.2498 107.488 28.6263 107.249 27.6873L107.476 30.2133Z" fill="#D1EBE1"/>
<path d="M107.476 30.2133C107.497 29.2498 107.488 28.6263 107.249 27.6873" stroke="#575756" stroke-width="0.5" stroke-miterlimit="10" stroke-linecap="round"/>
<path d="M136.975 21.3811C136.041 19.6712 134.602 18.2838 133.08 17.079C129.044 13.9142 124.239 11.846 119.289 10.4783C113.405 8.86162 102.045 7.4255 95.9619 7.77578" fill="#D1EBE1"/>
<path d="M136.975 21.3811C136.041 19.6712 134.602 18.2838 133.08 17.079C129.044 13.9142 124.239 11.846 119.289 10.4783C113.405 8.86162 102.045 7.4255 95.9619 7.77578" stroke="#575756" stroke-width="0.5" stroke-miterlimit="10" stroke-linecap="round"/>
<path d="M145.502 25.1329C129.455 17.8712 112.991 12.2474 95.9508 7.78929C98.102 10.3831 101.418 12.7794 104.469 14.2142C113.779 18.6162 126.684 20.9678 136.963 21.3823" fill="#D1EBE1"/>
<path d="M145.502 25.1329C129.455 17.8712 112.991 12.2474 95.9508 7.78929C98.102 10.3831 101.418 12.7794 104.469 14.2142C113.779 18.6162 126.684 20.9678 136.963 21.3823" stroke="#575756" stroke-width="0.5" stroke-miterlimit="10" stroke-linecap="round"/>
<path d="M132.079 19.5337C131.096 20.2011 130.616 20.6585 129.644 20.7878L132.079 19.5337Z" fill="#D1EBE1"/>
<path d="M132.079 19.5337C131.096 20.2011 130.616 20.6585 129.644 20.7878" stroke="#575756" stroke-width="0.5" stroke-miterlimit="10" stroke-linecap="round"/>
<path d="M129.551 18.6239C128.362 19.3482 127.055 19.8962 125.706 20.2485L129.551 18.6239Z" fill="#D1EBE1"/>
<path d="M129.551 18.6239C128.362 19.3482 127.055 19.8962 125.706 20.2485" stroke="#575756" stroke-width="0.5" stroke-miterlimit="10" stroke-linecap="round"/>
<path d="M126.873 17.5659C125.619 18.1463 125.355 18.5085 124.039 18.9575C123.545 19.1292 122.607 19.4925 121.89 19.5478" fill="#D1EBE1"/>
<path d="M126.873 17.5659C125.619 18.1463 125.355 18.5085 124.039 18.9575C123.545 19.1292 122.607 19.4925 121.89 19.5478" stroke="#575756" stroke-width="0.5" stroke-miterlimit="10" stroke-linecap="round"/>
<path d="M123.376 16.2857C122.642 16.6922 121.919 17.0852 121.153 17.4198C119.886 17.9767 118.629 18.3951 117.249 18.5506" fill="#D1EBE1"/>
<path d="M123.376 16.2857C122.642 16.6922 121.919 17.0852 121.153 17.4198C119.886 17.9767 118.629 18.3951 117.249 18.5506" stroke="#575756" stroke-width="0.5" stroke-miterlimit="10" stroke-linecap="round"/>
<path d="M120.412 15.2421C118.469 16.4372 116.292 17.2549 114.051 17.6665L120.412 15.2421Z" fill="#D1EBE1"/>
<path d="M120.412 15.2421C118.469 16.4372 116.292 17.2549 114.051 17.6665" stroke="#575756" stroke-width="0.5" stroke-miterlimit="10" stroke-linecap="round"/>
<path d="M117.351 14.2203C115.464 15.3477 113.194 16.3739 111.058 16.8381L117.351 14.2203Z" fill="#D1EBE1"/>
<path d="M117.351 14.2203C115.464 15.3477 113.194 16.3739 111.058 16.8381" stroke="#575756" stroke-width="0.5" stroke-miterlimit="10" stroke-linecap="round"/>
<path d="M115.017 13.3919C114.324 13.7072 113.62 14.0359 112.928 14.3512C111.531 14.9952 110.122 15.6403 108.601 15.8964" fill="#D1EBE1"/>
<path d="M115.017 13.3919C114.324 13.7072 113.62 14.0359 112.928 14.3512C111.531 14.9952 110.122 15.6403 108.601 15.8964" stroke="#575756" stroke-width="0.5" stroke-miterlimit="10" stroke-linecap="round"/>
<path d="M112.267 12.6281C110.418 13.7643 108.646 14.5187 106.563 15.1527L112.267 12.6281Z" fill="#D1EBE1"/>
<path d="M112.267 12.6281C110.418 13.7643 108.646 14.5187 106.563 15.1527" stroke="#575756" stroke-width="0.5" stroke-miterlimit="10" stroke-linecap="round"/>
<path d="M109.967 11.759C107.827 12.5732 106.169 13.3543 103.953 13.9009L109.967 11.759Z" fill="#D1EBE1"/>
<path d="M109.967 11.759C107.827 12.5732 106.169 13.3543 103.953 13.9009" stroke="#575756" stroke-width="0.5" stroke-miterlimit="10" stroke-linecap="round"/>
<path d="M106.68 10.8584C105.777 11.3184 105.052 11.6866 104.119 12.0994C103.162 12.5146 103.063 12.3866 102.074 12.8672" fill="#D1EBE1"/>
<path d="M106.68 10.8584C105.777 11.3184 105.052 11.6866 104.119 12.0994C103.162 12.5146 103.063 12.3866 102.074 12.8672" stroke="#575756" stroke-width="0.5" stroke-miterlimit="10" stroke-linecap="round"/>
<path d="M104.509 10.1646C103.159 10.9041 101.657 11.3583 100.125 11.4906L104.509 10.1646Z" fill="#D1EBE1"/>
<path d="M104.509 10.1646C103.159 10.9041 101.657 11.3583 100.125 11.4906" stroke="#575756" stroke-width="0.5" stroke-miterlimit="10" stroke-linecap="round"/>
<path d="M101.843 9.50494C100.877 9.82109 99.3103 10.119 98.2997 10.1022L101.843 9.50494Z" fill="#D1EBE1"/>
<path d="M101.843 9.50494C100.877 9.82109 99.3103 10.119 98.2997 10.1022" stroke="#575756" stroke-width="0.5" stroke-miterlimit="10" stroke-linecap="round"/>
<path d="M132.082 19.4335C132.087 19.2208 132.051 19.2367 132.031 19.0263C132 18.6921 131.93 18.3491 131.861 18.0184C131.79 17.663 131.719 17.3076 131.636 16.9533C131.566 16.6103 131.472 16.1446 131.343 15.8322" fill="#D1EBE1"/>
<path d="M132.082 19.4335C132.087 19.2208 132.051 19.2367 132.031 19.0263C132 18.6921 131.93 18.3491 131.861 18.0184C131.79 17.663 131.719 17.3076 131.636 16.9533C131.566 16.6103 131.472 16.1446 131.343 15.8322" stroke="#575756" stroke-width="0.5" stroke-miterlimit="10" stroke-linecap="round"/>
<path d="M129.662 18.4761C129.589 17.8337 129.478 17.3197 129.404 16.6649C129.355 16.2824 129.225 15.8326 129.116 15.4683C128.969 14.9702 128.809 14.5858 128.543 14.1489" fill="#D1EBE1"/>
<path d="M129.662 18.4761C129.589 17.8337 129.478 17.3197 129.404 16.6649C129.355 16.2824 129.225 15.8326 129.116 15.4683C128.969 14.9702 128.809 14.5858 128.543 14.1489" stroke="#575756" stroke-width="0.5" stroke-miterlimit="10" stroke-linecap="round"/>
<path d="M126.845 17.5311C126.59 15.7571 125.99 14.0281 125.072 12.4791L126.845 17.5311Z" fill="#D1EBE1"/>
<path d="M126.845 17.5311C126.59 15.7571 125.99 14.0281 125.072 12.4791" stroke="#575756" stroke-width="0.5" stroke-miterlimit="10" stroke-linecap="round"/>
<path d="M123.438 16.2921C122.889 14.4335 122.309 12.5153 121.062 11.0474L123.438 16.2921Z" fill="#D1EBE1"/>
<path d="M123.438 16.2921C122.889 14.4335 122.309 12.5153 121.062 11.0474" stroke="#575756" stroke-width="0.5" stroke-miterlimit="10" stroke-linecap="round"/>
<path d="M120.388 15.1195C119.942 13.3011 119.134 11.7416 118.067 10.2066L120.388 15.1195Z" fill="#D1EBE1"/>
<path d="M120.388 15.1195C119.942 13.3011 119.134 11.7416 118.067 10.2066" stroke="#575756" stroke-width="0.5" stroke-miterlimit="10" stroke-linecap="round"/>
<path d="M117.271 14.0405C116.609 12.305 115.754 10.9122 114.618 9.43374L117.271 14.0405Z" fill="#D1EBE1"/>
<path d="M117.271 14.0405C116.609 12.305 115.754 10.9122 114.618 9.43374" stroke="#575756" stroke-width="0.5" stroke-miterlimit="10" stroke-linecap="round"/>
<path d="M114.938 13.337C114.425 11.7372 113.38 10.3001 112.254 9.07029L114.938 13.337Z" fill="#D1EBE1"/>
<path d="M114.938 13.337C114.425 11.7372 113.38 10.3001 112.254 9.07029" stroke="#575756" stroke-width="0.5" stroke-miterlimit="10" stroke-linecap="round"/>
<path d="M112.22 12.3951C111.436 10.9583 110.604 9.92559 109.55 8.66407L112.22 12.3951Z" fill="#D1EBE1"/>
<path d="M112.22 12.3951C111.436 10.9583 110.604 9.92559 109.55 8.66407" stroke="#575756" stroke-width="0.5" stroke-miterlimit="10" stroke-linecap="round"/>
<path d="M109.724 11.6946C109.451 11.0461 109.123 10.6026 108.708 10.0424C108.266 9.44734 107.674 8.97888 107.278 8.35443" fill="#D1EBE1"/>
<path d="M109.724 11.6946C109.451 11.0461 109.123 10.6026 108.708 10.0424C108.266 9.44734 107.674 8.97888 107.278 8.35443" stroke="#575756" stroke-width="0.5" stroke-miterlimit="10" stroke-linecap="round"/>
<path d="M106.68 10.8584C106.384 9.96237 105.893 9.12214 105.266 8.41969C105.168 8.30409 105.071 8.20087 104.962 8.09882" fill="#D1EBE1"/>
<path d="M106.68 10.8584C106.384 9.96237 105.893 9.12214 105.266 8.41969C105.168 8.30409 105.071 8.20087 104.962 8.09882" stroke="#575756" stroke-width="0.5" stroke-miterlimit="10" stroke-linecap="round"/>
<path d="M104.413 10.1986C104.301 9.93449 104.189 9.67038 104.075 9.39388C103.867 8.90161 103.644 8.38576 103.214 8.05181" fill="#D1EBE1"/>
<path d="M104.413 10.1986C104.301 9.93449 104.189 9.67038 104.075 9.39388C103.867 8.90161 103.644 8.38576 103.214 8.05181" stroke="#575756" stroke-width="0.5" stroke-miterlimit="10" stroke-linecap="round"/>
<path d="M101.844 9.505C101.7 8.90672 101.4 8.37312 101.065 7.85539L101.844 9.505Z" fill="#D1EBE1"/>
<path d="M101.844 9.505C101.7 8.90672 101.4 8.37312 101.065 7.85539" stroke="#575756" stroke-width="0.5" stroke-miterlimit="10" stroke-linecap="round"/>
<path d="M70.0904 86.4808C63.3478 74.4561 70.942 59.1157 81.6373 52.5978L70.0904 86.4808Z" fill="#D1EBE1"/>
<path d="M70.0904 86.4808C63.3478 74.4561 70.942 59.1157 81.6373 52.5978" stroke="#575756" stroke-width="0.5" stroke-miterlimit="10" stroke-linecap="round"/>
<path d="M82.7183 50.7226C76.3769 61.524 72.1536 74.1732 70.3033 86.3608C74.0433 83.6222 77.8447 78.1057 79.9847 72.1468C82.1247 66.1879 82.1229 57.7342 82.6324 50.868" fill="#D1EBE1"/>
<path d="M82.7183 50.7226C76.3769 61.524 72.1536 74.1732 70.3033 86.3608C74.0433 83.6222 77.8447 78.1057 79.9847 72.1468C82.1247 66.1879 82.1229 57.7342 82.6324 50.868" stroke="#575756" stroke-width="0.5" stroke-miterlimit="10" stroke-linecap="round"/>
<path d="M86.1597 45.3524C84.9524 47.0773 83.8027 48.8843 82.7182 50.7225L86.1597 45.3524Z" fill="#D1EBE1"/>
<path d="M86.1597 45.3524C84.9524 47.0773 83.8027 48.8843 82.7182 50.7225" stroke="#575756" stroke-width="0.5" stroke-miterlimit="10" stroke-linecap="round"/>
<path d="M80.309 55.0211C78.9058 55.7281 77.515 56.434 76.1107 57.1287L80.309 55.0211Z" fill="#D1EBE1"/>
<path d="M80.309 55.0211C78.9058 55.7281 77.515 56.434 76.1107 57.1287" stroke="#575756" stroke-width="0.5" stroke-miterlimit="10" stroke-linecap="round"/>
<path d="M78.8281 57.9333C77.522 58.4813 76.2283 59.0282 74.921 59.5638C74.4659 59.7567 74.0219 59.936 73.5462 60.0434" fill="#D1EBE1"/>
<path d="M78.8281 57.9333C77.522 58.4813 76.2283 59.0282 74.921 59.5638C74.4659 59.7567 74.0219 59.936 73.5462 60.0434" stroke="#575756" stroke-width="0.5" stroke-miterlimit="10" stroke-linecap="round"/>
<path d="M77.946 59.9397C75.765 60.7202 73.7255 61.8121 71.6872 62.9163L77.946 59.9397Z" fill="#D1EBE1"/>
<path d="M77.946 59.9397C75.765 60.7202 73.7255 61.8121 71.6872 62.9163" stroke="#575756" stroke-width="0.5" stroke-miterlimit="10" stroke-linecap="round"/>
<path d="M76.8459 62.2663C74.5902 63.1788 72.3843 64.224 70.2531 65.3994L76.8459 62.2663Z" fill="#D1EBE1"/>
<path d="M76.8459 62.2663C74.5902 63.1788 72.3843 64.224 70.2531 65.3994" stroke="#575756" stroke-width="0.5" stroke-miterlimit="10" stroke-linecap="round"/>
<path d="M76.1495 64.2553C73.9578 65.1867 71.7638 66.0934 69.5562 66.9888L76.1495 64.2553Z" fill="#D1EBE1"/>
<path d="M76.1495 64.2553C73.9578 65.1867 71.7638 66.0934 69.5562 66.9888" stroke="#575756" stroke-width="0.5" stroke-miterlimit="10" stroke-linecap="round"/>
<path d="M75.3176 66.5316C73.0707 67.4058 70.8702 68.3755 68.7037 69.4419L75.3176 66.5316Z" fill="#D1EBE1"/>
<path d="M75.3176 66.5316C73.0707 67.4058 70.8702 68.3755 68.7037 69.4419" stroke="#575756" stroke-width="0.5" stroke-miterlimit="10" stroke-linecap="round"/>
<path d="M74.556 69.0137C73.2916 69.6077 72.0273 70.2017 70.7753 70.7946C69.8091 71.248 69.0146 71.6728 68.0948 72.2218" fill="#D1EBE1"/>
<path d="M74.556 69.0137C73.2916 69.6077 72.0273 70.2017 70.7753 70.7946C69.8091 71.248 69.0146 71.6728 68.0948 72.2218" stroke="#575756" stroke-width="0.5" stroke-miterlimit="10" stroke-linecap="round"/>
<path d="M73.7294 71.3394C72.719 71.9844 71.6962 72.6305 70.6858 73.2754C69.6284 73.9498 68.5698 74.6118 67.5699 75.3681" fill="#D1EBE1"/>
<path d="M73.7294 71.3394C72.719 71.9844 71.6962 72.6305 70.6858 73.2754C69.6284 73.9498 68.5698 74.6118 67.5699 75.3681" stroke="#575756" stroke-width="0.5" stroke-miterlimit="10" stroke-linecap="round"/>
<path d="M72.7618 74.4154C71.542 75.2175 70.3223 76.0196 69.0902 76.8228C68.5861 77.1577 68.0933 77.479 67.6187 77.861" fill="#D1EBE1"/>
<path d="M72.7618 74.4154C71.542 75.2175 70.3223 76.0196 69.0902 76.8228C68.5861 77.1577 68.0933 77.479 67.6187 77.861" stroke="#575756" stroke-width="0.5" stroke-miterlimit="10" stroke-linecap="round"/>
<path d="M72.2319 77.1127C70.8469 77.8805 69.5242 78.7797 68.3255 79.8046C68.152 79.9459 68.1502 80.0584 67.9767 80.1997" fill="#D1EBE1"/>
<path d="M72.2319 77.1127C70.8469 77.8805 69.5242 78.7797 68.3255 79.8046C68.152 79.9459 68.1502 80.0584 67.9767 80.1997" stroke="#575756" stroke-width="0.5" stroke-miterlimit="10" stroke-linecap="round"/>
<path d="M71.597 79.358C70.6452 80.3595 69.4777 81.319 68.3162 82.0782L71.597 79.358Z" fill="#D1EBE1"/>
<path d="M71.597 79.358C70.6452 80.3595 69.4777 81.319 68.3162 82.0782" stroke="#575756" stroke-width="0.5" stroke-miterlimit="10" stroke-linecap="round"/>
<path d="M71.1299 81.6624C70.5515 82.5287 69.8026 83.4361 69.0767 84.1916L71.1299 81.6624Z" fill="#D1EBE1"/>
<path d="M71.1299 81.6624C70.5515 82.5287 69.8026 83.4361 69.0767 84.1916" stroke="#575756" stroke-width="0.5" stroke-miterlimit="10" stroke-linecap="round"/>
<path d="M71.1297 81.6625C71.5608 82.5333 72.0835 83.5828 72.5146 84.4536L71.1297 81.6625Z" fill="#D1EBE1"/>
<path d="M71.1297 81.6625C71.5608 82.5333 72.0835 83.5828 72.5146 84.4536" stroke="#575756" stroke-width="0.5" stroke-miterlimit="10" stroke-linecap="round"/>
<path d="M71.7228 79.3712C72.5261 80.3567 73.358 81.5143 74.103 82.5427L71.7228 79.3712Z" fill="#D1EBE1"/>
<path d="M71.7228 79.3712C72.5261 80.3567 73.358 81.5143 74.103 82.5427" stroke="#575756" stroke-width="0.5" stroke-miterlimit="10" stroke-linecap="round"/>
<path d="M72.2774 77.1959C73.378 78.4279 74.388 79.756 75.2681 81.1588L72.2774 77.1959Z" fill="#D1EBE1"/>
<path d="M72.2774 77.1959C73.378 78.4279 74.388 79.756 75.2681 81.1588" stroke="#575756" stroke-width="0.5" stroke-miterlimit="10" stroke-linecap="round"/>
<path d="M72.8543 74.4691C73.6642 75.1293 74.4058 75.8584 75.078 76.644C75.6657 77.3252 76.195 78.0493 76.7256 78.7859" fill="#D1EBE1"/>
<path d="M72.8543 74.4691C73.6642 75.1293 74.4058 75.8584 75.078 76.644C75.6657 77.3252 76.195 78.0493 76.7256 78.7859" stroke="#575756" stroke-width="0.5" stroke-miterlimit="10" stroke-linecap="round"/>
<path d="M73.8474 71.4032C74.3105 71.8215 74.7612 72.2409 75.2255 72.6715C75.745 73.1594 76.2756 73.6337 76.7616 74.1622C77.3028 74.7478 77.787 75.3889 78.2129 76.0729" fill="#D1EBE1"/>
<path d="M73.8474 71.4032C74.3105 71.8215 74.7612 72.2409 75.2255 72.6715C75.745 73.1594 76.2756 73.6337 76.7616 74.1622C77.3028 74.7478 77.787 75.3889 78.2129 76.0729" stroke="#575756" stroke-width="0.5" stroke-miterlimit="10" stroke-linecap="round"/>
<path d="M74.4977 69.0566C75.1312 69.6961 75.7511 70.3242 76.3846 70.9637C76.7701 71.3518 77.1568 71.7523 77.5088 72.181C77.9453 72.7142 78.3102 73.2791 78.6762 73.8564C78.7937 74.0451 78.9112 74.2337 79.041 74.4213" fill="#D1EBE1"/>
<path d="M74.4977 69.0566C75.1312 69.6961 75.7511 70.3242 76.3846 70.9637C76.7701 71.3518 77.1568 71.7523 77.5088 72.181C77.9453 72.7142 78.3102 73.2791 78.6762 73.8564C78.7937 74.0451 78.9112 74.2337 79.041 74.4213" stroke="#575756" stroke-width="0.5" stroke-miterlimit="10" stroke-linecap="round"/>
<path d="M80.2554 71.0597C79.8331 70.1506 79.2759 69.7912 78.6165 69.1417C77.6551 68.1962 76.6455 67.2676 75.4629 66.6177" fill="#D1EBE1"/>
<path d="M80.2554 71.0597C79.8331 70.1506 79.2759 69.7912 78.6165 69.1417C77.6551 68.1962 76.6455 67.2676 75.4629 66.6177" stroke="#575756" stroke-width="0.5" stroke-miterlimit="10" stroke-linecap="round"/>
<path d="M76.2773 64.2931C77.2818 64.7726 78.1705 65.4753 79.0355 66.1927C79.8331 66.854 80.6488 67.5761 80.9546 68.5712" fill="#D1EBE1"/>
<path d="M76.2773 64.2931C77.2818 64.7726 78.1705 65.4753 79.0355 66.1927C79.8331 66.854 80.6488 67.5761 80.9546 68.5712" stroke="#575756" stroke-width="0.5" stroke-miterlimit="10" stroke-linecap="round"/>
<path d="M76.8953 62.2617C78.5445 63.367 80.2219 64.5071 81.3823 66.1082L76.8953 62.2617Z" fill="#D1EBE1"/>
<path d="M76.8953 62.2617C78.5445 63.367 80.2219 64.5071 81.3823 66.1082" stroke="#575756" stroke-width="0.5" stroke-miterlimit="10" stroke-linecap="round"/>
<path d="M78.014 59.9957C78.4318 60.3308 78.8509 60.6783 79.2687 61.0134C80.2408 61.8081 81.2187 62.6647 81.7373 63.802" fill="#D1EBE1"/>
<path d="M78.014 59.9957C78.4318 60.3308 78.8509 60.6783 79.2687 61.0134C80.2408 61.8081 81.2187 62.6647 81.7373 63.802" stroke="#575756" stroke-width="0.5" stroke-miterlimit="10" stroke-linecap="round"/>
<path d="M78.9162 58.0747C80.1082 58.8237 81.1707 59.7846 82.0474 60.8881L78.9162 58.0747Z" fill="#D1EBE1"/>
<path d="M78.9162 58.0747C80.1082 58.8237 81.1707 59.7846 82.0474 60.8881" stroke="#575756" stroke-width="0.5" stroke-miterlimit="10" stroke-linecap="round"/>
<path d="M80.4435 55.2581C80.6498 55.4634 80.856 55.6687 81.0511 55.8875C81.5383 56.4283 81.8989 57.081 82.2461 57.7225" fill="#D1EBE1"/>
<path d="M80.4435 55.2581C80.6498 55.4634 80.856 55.6687 81.0511 55.8875C81.5383 56.4283 81.8989 57.081 82.2461 57.7225" stroke="#575756" stroke-width="0.5" stroke-miterlimit="10" stroke-linecap="round"/>
<path d="M45.5095 60.4958C40.7762 63.6654 34.7288 63.4753 29.5098 62.0331C25.2878 60.8588 21.0861 59.1082 17.2374 56.8746C13.23 54.5437 8.57475 50.7631 4.62321 48.3644" fill="#D1EBE1"/>
<path d="M45.5095 60.4958C40.7762 63.6654 34.7288 63.4753 29.5098 62.0331C25.2878 60.8588 21.0861 59.1082 17.2374 56.8746C13.23 54.5437 8.57475 50.7631 4.62321 48.3644" stroke="#575756" stroke-width="0.5" stroke-miterlimit="10" stroke-linecap="round"/>
<path d="M46.4536 60.469C40.5119 60.6061 34.5154 59.637 28.7567 58.021C20.4003 55.6766 12.4791 52.0049 4.60957 48.3533C17.5498 46.3434 36.8965 51.2203 46.2043 60.4676" fill="#D1EBE1"/>
<path d="M46.4536 60.469C40.5119 60.6061 34.5154 59.637 28.7567 58.021C20.4003 55.6766 12.4791 52.0049 4.60957 48.3533C17.5498 46.3434 36.8965 51.2203 46.2043 60.4676" stroke="#575756" stroke-width="0.5" stroke-miterlimit="10" stroke-linecap="round"/>
<path d="M54.5022 59.5583C51.8521 60.121 49.1639 60.4125 46.4659 60.4678L54.5022 59.5583Z" fill="#D1EBE1"/>
<path d="M54.5022 59.5583C51.8521 60.121 49.1639 60.4125 46.4659 60.4678" stroke="#575756" stroke-width="0.5" stroke-miterlimit="10" stroke-linecap="round"/>
<path d="M41.3994 60.3723C39.6839 61.3337 37.7821 62.3001 35.9456 63.0356L41.3994 60.3723Z" fill="#D1EBE1"/>
<path d="M41.3994 60.3723C39.6839 61.3337 37.7821 62.3001 35.9456 63.0356" stroke="#575756" stroke-width="0.5" stroke-miterlimit="10" stroke-linecap="round"/>
<path d="M38.2698 60.0813C36.4695 61.2004 34.3332 61.9268 32.3486 62.6764L38.2698 60.0813Z" fill="#D1EBE1"/>
<path d="M38.2698 60.0813C36.4695 61.2004 34.3332 61.9268 32.3486 62.6764" stroke="#575756" stroke-width="0.5" stroke-miterlimit="10" stroke-linecap="round"/>
<path d="M34.9318 59.5601C33.1505 60.6151 31.2334 61.4207 29.2401 61.9462L34.9318 59.5601Z" fill="#D1EBE1"/>
<path d="M34.9318 59.5601C33.1505 60.6151 31.2334 61.4207 29.2401 61.9462" stroke="#575756" stroke-width="0.5" stroke-miterlimit="10" stroke-linecap="round"/>
<path d="M32.1961 58.9571C31.614 59.1245 30.9695 59.4227 30.375 59.5913C28.9808 59.9978 27.64 60.574 26.2335 60.9817" fill="#D1EBE1"/>
<path d="M32.1961 58.9571C31.614 59.1245 30.9695 59.4227 30.375 59.5913C28.9808 59.9978 27.64 60.574 26.2335 60.9817" stroke="#575756" stroke-width="0.5" stroke-miterlimit="10" stroke-linecap="round"/>
<path d="M28.9102 58.1938C26.9674 58.727 25.3324 59.8806 23.3234 59.8457L28.9102 58.1938Z" fill="#D1EBE1"/>
<path d="M28.9102 58.1938C26.9674 58.727 25.3324 59.8806 23.3234 59.8457" stroke="#575756" stroke-width="0.5" stroke-miterlimit="10" stroke-linecap="round"/>
<path d="M25.8389 57.198C23.9995 57.7714 22.1243 58.3607 20.1841 58.3943L25.8389 57.198Z" fill="#D1EBE1"/>
<path d="M25.8389 57.198C23.9995 57.7714 22.1243 58.3607 20.1841 58.3943" stroke="#575756" stroke-width="0.5" stroke-miterlimit="10" stroke-linecap="round"/>
<path d="M22.2805 56.0608C20.7009 56.7471 19.3097 57.0534 17.5871 57.0164L22.2805 56.0608Z" fill="#D1EBE1"/>
<path d="M22.2805 56.0608C20.7009 56.7471 19.3097 57.0534 17.5871 57.0164" stroke="#575756" stroke-width="0.5" stroke-miterlimit="10" stroke-linecap="round"/>
<path d="M19.6473 54.961C18.1792 55.1123 16.7197 55.4875 15.2639 55.6376L19.6473 54.961Z" fill="#D1EBE1"/>
<path d="M19.6473 54.961C18.1792 55.1123 16.7197 55.4875 15.2639 55.6376" stroke="#575756" stroke-width="0.5" stroke-miterlimit="10" stroke-linecap="round"/>
<path d="M16.5671 53.7413C15.5335 53.8765 14.351 54.1506 13.3174 54.2857L16.5671 53.7413Z" fill="#D1EBE1"/>
<path d="M16.5671 53.7413C15.5335 53.8765 14.351 54.1506 13.3174 54.2857" stroke="#575756" stroke-width="0.5" stroke-miterlimit="10" stroke-linecap="round"/>
<path d="M13.6578 52.4804C12.8317 52.5709 11.8703 52.8117 11.0514 52.7143L13.6578 52.4804Z" fill="#D1EBE1"/>
<path d="M13.6578 52.4804C12.8317 52.5709 11.8703 52.8117 11.0514 52.7143" stroke="#575756" stroke-width="0.5" stroke-miterlimit="10" stroke-linecap="round"/>
<path d="M11.2171 51.4373C10.7144 51.5223 10.1129 51.6166 9.59432 51.6657L11.2171 51.4373Z" fill="#D1EBE1"/>
<path d="M11.2171 51.4373C10.7144 51.5223 10.1129 51.6166 9.59432 51.6657" stroke="#575756" stroke-width="0.5" stroke-miterlimit="10" stroke-linecap="round"/>
<path d="M41.4404 60.281C41.2269 59.3397 40.8798 58.4359 40.5205 57.5334C40.1487 56.632 39.7041 55.7499 38.9595 55.121" fill="#D1EBE1"/>
<path d="M41.4404 60.281C41.2269 59.3397 40.8798 58.4359 40.5205 57.5334C40.1487 56.632 39.7041 55.7499 38.9595 55.121" stroke="#575756" stroke-width="0.5" stroke-miterlimit="10" stroke-linecap="round"/>
<path d="M37.9951 60.207C37.758 59.2804 37.5333 58.3526 37.2962 57.426C36.9735 56.1204 36.5468 54.6373 35.7936 53.5222" fill="#D1EBE1"/>
<path d="M37.9951 60.207C37.758 59.2804 37.5333 58.3526 37.2962 57.426C36.9735 56.1204 36.5468 54.6373 35.7936 53.5222" stroke="#575756" stroke-width="0.5" stroke-miterlimit="10" stroke-linecap="round"/>
<path d="M34.939 59.3722C34.665 58.1868 34.3762 57.2401 34.0416 56.073C33.7857 55.2106 33.5174 54.3493 33.0586 53.581C32.7173 53.0014 32.1344 52.3697 31.6866 51.8501" fill="#D1EBE1"/>
<path d="M34.939 59.3722C34.665 58.1868 34.3762 57.2401 34.0416 56.073C33.7857 55.2106 33.5174 54.3493 33.0586 53.581C32.7173 53.0014 32.1344 52.3697 31.6866 51.8501" stroke="#575756" stroke-width="0.5" stroke-miterlimit="10" stroke-linecap="round"/>
<path d="M32.1963 58.957C31.4766 56.615 30.49 54.3482 29.2446 52.2432C28.9032 51.6636 28.4544 50.8694 27.8761 50.5494" fill="#D1EBE1"/>
<path d="M32.1963 58.957C31.4766 56.615 30.49 54.3482 29.2446 52.2432C28.9032 51.6636 28.4544 50.8694 27.8761 50.5494" stroke="#575756" stroke-width="0.5" stroke-miterlimit="10" stroke-linecap="round"/>
<path d="M28.9189 58.1555C28.182 55.1034 26.8 52.2121 24.9075 49.7187L28.9189 58.1555Z" fill="#D1EBE1"/>
<path d="M28.9189 58.1555C28.182 55.1034 26.8 52.2121 24.9075 49.7187" stroke="#575756" stroke-width="0.5" stroke-miterlimit="10" stroke-linecap="round"/>
<path d="M25.8384 57.198C25.372 56.2181 24.73 55.0925 24.2648 54.125C23.4102 52.3327 22.5409 50.5168 21.2753 48.9882" fill="#D1EBE1"/>
<path d="M25.8384 57.198C25.372 56.2181 24.73 55.0925 24.2648 54.125C23.4102 52.3327 22.5409 50.5168 21.2753 48.9882" stroke="#575756" stroke-width="0.5" stroke-miterlimit="10" stroke-linecap="round"/>
<path d="M22.21 55.8427C21.6418 53.786 20.5537 52.2905 19.424 50.4867C19.0127 49.8263 18.6015 49.1659 18.1779 48.5067" fill="#D1EBE1"/>
<path d="M22.21 55.8427C21.6418 53.786 20.5537 52.2905 19.424 50.4867C19.0127 49.8263 18.6015 49.1659 18.1779 48.5067" stroke="#575756" stroke-width="0.5" stroke-miterlimit="10" stroke-linecap="round"/>
<path d="M19.6475 54.9611C18.6568 52.5198 17.1809 50.3492 15.6804 48.1809L19.6475 54.9611Z" fill="#D1EBE1"/>
<path d="M19.6475 54.9611C18.6568 52.5198 17.1809 50.3492 15.6804 48.1809" stroke="#575756" stroke-width="0.5" stroke-miterlimit="10" stroke-linecap="round"/>
<path d="M16.5674 53.7412C15.6347 51.7815 14.5697 49.8717 13.3771 48.0614L16.5674 53.7412Z" fill="#D1EBE1"/>
<path d="M16.5674 53.7412C15.6347 51.7815 14.5697 49.8717 13.3771 48.0614" stroke="#575756" stroke-width="0.5" stroke-miterlimit="10" stroke-linecap="round"/>
<path d="M13.5752 52.4006C13.0245 50.7919 12.322 49.4223 11.3902 47.9994L13.5752 52.4006Z" fill="#D1EBE1"/>
<path d="M13.5752 52.4006C13.0245 50.7919 12.322 49.4223 11.3902 47.9994" stroke="#575756" stroke-width="0.5" stroke-miterlimit="10" stroke-linecap="round"/>
<path d="M11.1943 51.3271C10.9989 50.7088 10.6575 50.1292 10.3421 49.5596C10.0266 48.99 9.4614 48.2817 8.90538 47.9347" fill="#D1EBE1"/>
<path d="M11.1943 51.3271C10.9989 50.7088 10.6575 50.1292 10.3421 49.5596C10.0266 48.99 9.4614 48.2817 8.90538 47.9347" stroke="#575756" stroke-width="0.5" stroke-miterlimit="10" stroke-linecap="round"/>
<path d="M8.98291 50.3374C8.3853 49.6821 7.67147 48.5883 6.96325 48.0808L8.98291 50.3374Z" fill="#D1EBE1"/>
<path d="M8.98291 50.3374C8.3853 49.6821 7.67147 48.5883 6.96325 48.0808" stroke="#575756" stroke-width="0.5" stroke-miterlimit="10" stroke-linecap="round"/>
<path d="M127.692 39.0164C124.628 43.5017 122.207 48.3383 120.93 53.6663C118.864 62.253 117.423 72.9783 118.654 81.7779C120.089 80.356 121.614 78.9631 122.981 77.4729C131.585 68.0808 131.956 43.9329 125.487 42.5714" fill="#D1EBE1"/>
<path d="M127.692 39.0164C124.628 43.5017 122.207 48.3383 120.93 53.6663C118.864 62.253 117.423 72.9783 118.654 81.7779C120.089 80.356 121.614 78.9631 122.981 77.4729C131.585 68.0808 131.956 43.9329 125.487 42.5714" stroke="#575756" stroke-width="0.5" stroke-miterlimit="10" stroke-linecap="round"/>
<path d="M118.708 81.5605C122.782 71.9473 126.186 52.9946 125.487 42.5714L118.708 81.5605Z" fill="#D1EBE1"/>
<path d="M118.708 81.5605C122.782 71.9473 126.186 52.9946 125.487 42.5714" stroke="#575756" stroke-width="0.5" stroke-miterlimit="10" stroke-linecap="round"/>
<path d="M125.454 46.7077C124.336 47.5252 123.272 48.4 122.252 49.3331L125.454 46.7077Z" fill="#D1EBE1"/>
<path d="M125.454 46.7077C124.336 47.5252 123.272 48.4 122.252 49.3331" stroke="#575756" stroke-width="0.5" stroke-miterlimit="10" stroke-linecap="round"/>
<path d="M125.332 49.504C123.843 50.4814 122.179 51.9873 121.025 53.3576L125.332 49.504Z" fill="#D1EBE1"/>
<path d="M125.332 49.504C123.843 50.4814 122.179 51.9873 121.025 53.3576" stroke="#575756" stroke-width="0.5" stroke-miterlimit="10" stroke-linecap="round"/>
<path d="M125.243 52.6466C123.416 53.6061 121.754 54.8745 120.352 56.3806L125.243 52.6466Z" fill="#D1EBE1"/>
<path d="M125.243 52.6466C123.416 53.6061 121.754 54.8745 120.352 56.3806" stroke="#575756" stroke-width="0.5" stroke-miterlimit="10" stroke-linecap="round"/>
<path d="M124.911 54.6636C123.186 56.0504 121.488 57.4597 119.819 58.9161L124.911 54.6636Z" fill="#D1EBE1"/>
<path d="M124.911 54.6636C123.186 56.0504 121.488 57.4597 119.819 58.9161" stroke="#575756" stroke-width="0.5" stroke-miterlimit="10" stroke-linecap="round"/>
<path d="M124.574 57.555C123.939 57.8273 123.406 58.2523 122.876 58.702C121.663 59.7157 120.494 60.7877 119.366 61.9058" fill="#D1EBE1"/>
<path d="M124.574 57.555C123.939 57.8273 123.406 58.2523 122.876 58.702C121.663 59.7157 120.494 60.7877 119.366 61.9058" stroke="#575756" stroke-width="0.5" stroke-miterlimit="10" stroke-linecap="round"/>
<path d="M124.164 60.341C122.296 61.6663 120.541 63.1309 118.925 64.7447L124.164 60.341Z" fill="#D1EBE1"/>
<path d="M124.164 60.341C122.296 61.6663 120.541 63.1309 118.925 64.7447" stroke="#575756" stroke-width="0.5" stroke-miterlimit="10" stroke-linecap="round"/>
<path d="M123.71 63.0437C121.817 64.6337 119.772 65.6636 118.529 67.804L123.71 63.0437Z" fill="#D1EBE1"/>
<path d="M123.71 63.0437C121.817 64.6337 119.772 65.6636 118.529 67.804" stroke="#575756" stroke-width="0.5" stroke-miterlimit="10" stroke-linecap="round"/>
<path d="M123.276 65.4447C121.472 67.0512 119.904 68.648 118.455 70.5831L123.276 65.4447Z" fill="#D1EBE1"/>
<path d="M123.276 65.4447C121.472 67.0512 119.904 68.648 118.455 70.5831" stroke="#575756" stroke-width="0.5" stroke-miterlimit="10" stroke-linecap="round"/>
<path d="M122.802 68.3366C121.09 69.46 119.579 70.8764 118.338 72.5047L122.802 68.3366Z" fill="#D1EBE1"/>
<path d="M122.802 68.3366C121.09 69.46 119.579 70.8764 118.338 72.5047" stroke="#575756" stroke-width="0.5" stroke-miterlimit="10" stroke-linecap="round"/>
<path d="M122.123 70.7734C120.645 72.1368 119.553 73.5012 118.294 75.0688L122.123 70.7734Z" fill="#D1EBE1"/>
<path d="M122.123 70.7734C120.645 72.1368 119.553 73.5012 118.294 75.0688" stroke="#575756" stroke-width="0.5" stroke-miterlimit="10" stroke-linecap="round"/>
<path d="M121.466 73.5703C120.229 74.5863 119.265 75.7263 118.221 76.9363L121.466 73.5703Z" fill="#D1EBE1"/>
<path d="M121.466 73.5703C120.229 74.5863 119.265 75.7263 118.221 76.9363" stroke="#575756" stroke-width="0.5" stroke-miterlimit="10" stroke-linecap="round"/>
<path d="M120.668 76.2055C119.701 77.171 119.245 77.8884 118.506 79.0322L120.668 76.2055Z" fill="#D1EBE1"/>
<path d="M120.668 76.2055C119.701 77.171 119.245 77.8884 118.506 79.0322" stroke="#575756" stroke-width="0.5" stroke-miterlimit="10" stroke-linecap="round"/>
<path d="M125.624 46.7916C126.29 46.8535 126.922 47.0809 127.532 47.3355C128.206 47.6214 128.697 47.7998 129.32 48.2029" fill="#D1EBE1"/>
<path d="M125.624 46.7916C126.29 46.8535 126.922 47.0809 127.532 47.3355C128.206 47.6214 128.697 47.7998 129.32 48.2029" stroke="#575756" stroke-width="0.5" stroke-miterlimit="10" stroke-linecap="round"/>
<path d="M125.492 49.6137C125.524 49.5483 125.625 49.5637 125.69 49.595C127.153 50.181 128.473 51.0927 129.766 51.9944" fill="#D1EBE1"/>
<path d="M125.492 49.6137C125.524 49.5483 125.625 49.5637 125.69 49.595C127.153 50.181 128.473 51.0927 129.766 51.9944" stroke="#575756" stroke-width="0.5" stroke-miterlimit="10" stroke-linecap="round"/>
<path d="M125.187 52.8393C125.915 52.8954 126.573 53.2702 127.183 53.6621C127.753 54.0203 128.312 54.4045 128.872 54.7886C129.164 54.9858 129.458 55.1952 129.751 55.3923" fill="#D1EBE1"/>
<path d="M125.187 52.8393C125.915 52.8954 126.573 53.2702 127.183 53.6621C127.753 54.0203 128.312 54.4045 128.872 54.7886C129.164 54.9858 129.458 55.1952 129.751 55.3923" stroke="#575756" stroke-width="0.5" stroke-miterlimit="10" stroke-linecap="round"/>
<path d="M125.023 54.7904C125.231 54.6208 125.535 54.8044 125.725 54.9737C127.112 56.2037 128.432 57.515 129.67 58.8839" fill="#D1EBE1"/>
<path d="M125.023 54.7904C125.231 54.6208 125.535 54.8044 125.725 54.9737C127.112 56.2037 128.432 57.515 129.67 58.8839" stroke="#575756" stroke-width="0.5" stroke-miterlimit="10" stroke-linecap="round"/>
<path d="M124.681 57.6446C126.677 58.3301 128.215 59.9704 129.437 61.6906L124.681 57.6446Z" fill="#D1EBE1"/>
<path d="M124.681 57.6446C126.677 58.3301 128.215 59.9704 129.437 61.6906" stroke="#575756" stroke-width="0.5" stroke-miterlimit="10" stroke-linecap="round"/>
<path d="M124.313 60.077C124.654 60.382 125.193 60.943 125.533 61.248C126.119 61.7795 126.717 62.3098 127.247 62.9091C127.845 63.5643 128.363 64.3021 128.785 65.0739" fill="#D1EBE1"/>
<path d="M124.313 60.077C124.654 60.382 125.193 60.943 125.533 61.248C126.119 61.7795 126.717 62.3098 127.247 62.9091C127.845 63.5643 128.363 64.3021 128.785 65.0739" stroke="#575756" stroke-width="0.5" stroke-miterlimit="10" stroke-linecap="round"/>
<path d="M123.953 62.9832C125.666 64.3697 126.89 66.1146 128.133 67.9326L123.953 62.9832Z" fill="#D1EBE1"/>
<path d="M123.953 62.9832C125.666 64.3697 126.89 66.1146 128.133 67.9326" stroke="#575756" stroke-width="0.5" stroke-miterlimit="10" stroke-linecap="round"/>
<path d="M123.504 65.3482C124.864 66.9554 126.046 68.517 127.244 70.2518L123.504 65.3482Z" fill="#D1EBE1"/>
<path d="M123.504 65.3482C124.864 66.9554 126.046 68.517 127.244 70.2518" stroke="#575756" stroke-width="0.5" stroke-miterlimit="10" stroke-linecap="round"/>
<path d="M122.919 68.5129C124.008 70.0207 125.007 71.3624 126.085 72.8838L122.919 68.5129Z" fill="#D1EBE1"/>
<path d="M122.919 68.5129C124.008 70.0207 125.007 71.3624 126.085 72.8838" stroke="#575756" stroke-width="0.5" stroke-miterlimit="10" stroke-linecap="round"/>
<path d="M122.283 71.0204C122.568 71.2682 122.797 71.5837 123.014 71.9004C123.738 72.9683 124.307 73.851 124.948 74.9642" fill="#D1EBE1"/>
<path d="M122.283 71.0204C122.568 71.2682 122.797 71.5837 123.014 71.9004C123.738 72.9683 124.307 73.851 124.948 74.9642" stroke="#575756" stroke-width="0.5" stroke-miterlimit="10" stroke-linecap="round"/>
<path d="M121.649 73.6653C121.863 73.9572 122.042 74.265 122.22 74.5728C122.679 75.3411 123.085 75.9396 123.543 76.7079" fill="#D1EBE1"/>
<path d="M121.649 73.6653C121.863 73.9572 122.042 74.265 122.22 74.5728C122.679 75.3411 123.085 75.9396 123.543 76.7079" stroke="#575756" stroke-width="0.5" stroke-miterlimit="10" stroke-linecap="round"/>
<path d="M120.699 76.265C121.009 76.5105 121.301 76.9698 121.497 77.326C121.738 77.7652 121.876 77.9144 122.146 78.4009" fill="#D1EBE1"/>
<path d="M120.699 76.265C121.009 76.5105 121.301 76.9698 121.497 77.326C121.738 77.7652 121.876 77.9144 122.146 78.4009" stroke="#575756" stroke-width="0.5" stroke-miterlimit="10" stroke-linecap="round"/>
<path d="M139.663 73.5359C150.338 64.2977 159.101 45.775 154.911 32.2853L139.663 73.5359Z" fill="#D1EBE1"/>
<path d="M139.663 73.5359C150.338 64.2977 159.101 45.775 154.911 32.2853" stroke="#575756" stroke-width="0.5" stroke-miterlimit="10" stroke-linecap="round"/>
<path d="M155 31.6525C153.308 46.5599 148.028 61.3444 139.663 73.5359C140.319 72.5748 139.66 66.7806 140.314 60.9247C141.575 49.6169 146.74 39.6759 154.914 32.0602" fill="#D1EBE1"/>
<path d="M155 31.6525C153.308 46.5599 148.028 61.3444 139.663 73.5359C140.319 72.5748 139.66 66.7806 140.314 60.9247C141.575 49.6169 146.74 39.6759 154.914 32.0602" stroke="#575756" stroke-width="0.5" stroke-miterlimit="10" stroke-linecap="round"/>
<path d="M155.592 20.5204C155.63 24.213 155.421 27.9291 154.999 31.6401L155.592 20.5204Z" fill="#D1EBE1"/>
<path d="M155.592 20.5204C155.63 24.213 155.421 27.9291 154.999 31.6401" stroke="#575756" stroke-width="0.5" stroke-miterlimit="10" stroke-linecap="round"/>
<path d="M154.302 36.1265C152.251 36.695 150.362 37.935 148.665 39.2192L154.302 36.1265Z" fill="#D1EBE1"/>
<path d="M154.302 36.1265C152.251 36.695 150.362 37.935 148.665 39.2192" stroke="#575756" stroke-width="0.5" stroke-miterlimit="10" stroke-linecap="round"/>
<path d="M153.805 39.3077C152.551 39.7385 151.297 40.1817 150.093 40.7575C148.866 41.348 147.793 42.1237 146.756 43.0085C146.399 43.317 146.041 43.6254 145.672 43.9351" fill="#D1EBE1"/>
<path d="M153.805 39.3077C152.551 39.7385 151.297 40.1817 150.093 40.7575C148.866 41.348 147.793 42.1237 146.756 43.0085C146.399 43.317 146.041 43.6254 145.672 43.9351" stroke="#575756" stroke-width="0.5" stroke-miterlimit="10" stroke-linecap="round"/>
<path d="M153.111 42.3703C149.795 43.9324 146.713 45.7222 143.726 47.8651L153.111 42.3703Z" fill="#D1EBE1"/>
<path d="M153.111 42.3703C149.795 43.9324 146.713 45.7222 143.726 47.8651" stroke="#575756" stroke-width="0.5" stroke-miterlimit="10" stroke-linecap="round"/>
<path d="M152.219 45.7138C148.447 47.4564 144.735 49.1808 142.099 52.3896L152.219 45.7138Z" fill="#D1EBE1"/>
<path d="M152.219 45.7138C148.447 47.4564 144.735 49.1808 142.099 52.3896" stroke="#575756" stroke-width="0.5" stroke-miterlimit="10" stroke-linecap="round"/>
<path d="M151.385 48.8895C147.896 50.5929 144.924 52.2349 141.436 55.2619L151.385 48.8895Z" fill="#D1EBE1"/>
<path d="M151.385 48.8895C147.896 50.5929 144.924 52.2349 141.436 55.2619" stroke="#575756" stroke-width="0.5" stroke-miterlimit="10" stroke-linecap="round"/>
<path d="M150.157 52.377C146.541 53.9177 143.235 56.5028 140.555 59.3909L150.157 52.377Z" fill="#D1EBE1"/>
<path d="M150.157 52.377C146.541 53.9177 143.235 56.5028 140.555 59.3909" stroke="#575756" stroke-width="0.5" stroke-miterlimit="10" stroke-linecap="round"/>
<path d="M148.959 55.7744C145.414 57.2833 142.314 60.0614 140.108 63.2168L148.959 55.7744Z" fill="#D1EBE1"/>
<path d="M148.959 55.7744C145.414 57.2833 142.314 60.0614 140.108 63.2168" stroke="#575756" stroke-width="0.5" stroke-miterlimit="10" stroke-linecap="round"/>
<path d="M147.281 59.7667C144.584 61.2828 141.771 63.8089 140.059 66.3932L147.281 59.7667Z" fill="#D1EBE1"/>
<path d="M147.281 59.7667C144.584 61.2828 141.771 63.8089 140.059 66.3932" stroke="#575756" stroke-width="0.5" stroke-miterlimit="10" stroke-linecap="round"/>
<path d="M145.477 63.7458C143.43 65.0256 141.621 66.7076 140.05 68.5418L145.477 63.7458Z" fill="#D1EBE1"/>
<path d="M145.477 63.7458C143.43 65.0256 141.621 66.7076 140.05 68.5418" stroke="#575756" stroke-width="0.5" stroke-miterlimit="10" stroke-linecap="round"/>
<path d="M143.348 67.5809C141.978 68.3722 140.976 69.366 140.037 70.641L143.348 67.5809Z" fill="#D1EBE1"/>
<path d="M143.348 67.5809C141.978 68.3722 140.976 69.366 140.037 70.641" stroke="#575756" stroke-width="0.5" stroke-miterlimit="10" stroke-linecap="round"/>
<path d="M154.456 36.1744C155.063 37.0536 155.551 38.0064 155.919 38.9956L154.456 36.1744Z" fill="#D1EBE1"/>
<path d="M154.456 36.1744C155.063 37.0536 155.551 38.0064 155.919 38.9956" stroke="#575756" stroke-width="0.5" stroke-miterlimit="10" stroke-linecap="round"/>
<path d="M153.808 39.4697C154.098 39.6297 154.264 39.9386 154.428 40.2228C154.882 41.0789 155.351 41.9463 155.805 42.8024" fill="#D1EBE1"/>
<path d="M153.808 39.4697C154.098 39.6297 154.264 39.9386 154.428 40.2228C154.882 41.0789 155.351 41.9463 155.805 42.8024" stroke="#575756" stroke-width="0.5" stroke-miterlimit="10" stroke-linecap="round"/>
<path d="M153.181 42.5885C153.92 43.8173 154.659 45.0461 155.304 46.3337L153.181 42.5885Z" fill="#D1EBE1"/>
<path d="M153.181 42.5885C153.92 43.8173 154.659 45.0461 155.304 46.3337" stroke="#575756" stroke-width="0.5" stroke-miterlimit="10" stroke-linecap="round"/>
<path d="M152.391 45.8224C152.75 46.0631 153.009 46.4258 153.266 46.7761C153.782 47.489 154.262 48.2179 154.718 48.9614" fill="#D1EBE1"/>
<path d="M152.391 45.8224C152.75 46.0631 153.009 46.4258 153.266 46.7761C153.782 47.489 154.262 48.2179 154.718 48.9614" stroke="#575756" stroke-width="0.5" stroke-miterlimit="10" stroke-linecap="round"/>
<path d="M151.494 49.1164C152.217 50.3092 152.883 51.5574 153.464 52.8262L151.494 49.1164Z" fill="#D1EBE1"/>
<path d="M151.494 49.1164C152.217 50.3092 152.883 51.5574 153.464 52.8262" stroke="#575756" stroke-width="0.5" stroke-miterlimit="10" stroke-linecap="round"/>
<path d="M150.281 52.4903C150.993 53.5717 151.67 54.6691 152.312 55.7947L150.281 52.4903Z" fill="#D1EBE1"/>
<path d="M150.281 52.4903C150.993 53.5717 151.67 54.6691 152.312 55.7947" stroke="#575756" stroke-width="0.5" stroke-miterlimit="10" stroke-linecap="round"/>
<path d="M149.075 55.8135C149.603 56.9248 150.245 57.9131 150.761 59.0256L149.075 55.8135Z" fill="#D1EBE1"/>
<path d="M149.075 55.8135C149.603 56.9248 150.245 57.9131 150.761 59.0256" stroke="#575756" stroke-width="0.5" stroke-miterlimit="10" stroke-linecap="round"/>
<path d="M147.384 59.9318C147.676 60.2538 147.911 60.6312 148.122 61.0233C148.39 61.485 148.622 61.9625 148.843 62.4536" fill="#D1EBE1"/>
<path d="M147.384 59.9318C147.676 60.2538 147.911 60.6312 148.122 61.0233C148.39 61.485 148.622 61.9625 148.843 62.4536" stroke="#575756" stroke-width="0.5" stroke-miterlimit="10" stroke-linecap="round"/>
<path d="M145.477 63.7458C145.762 64.5181 146.111 65.1843 146.471 66.0869L145.477 63.7458Z" fill="#D1EBE1"/>
<path d="M145.477 63.7458C145.762 64.5181 146.111 65.1843 146.471 66.0869" stroke="#575756" stroke-width="0.5" stroke-miterlimit="10" stroke-linecap="round"/>
<path d="M143.426 67.611C143.696 68.0974 143.834 68.5089 144.104 68.9829L143.426 67.611Z" fill="#D1EBE1"/>
<path d="M143.426 67.611C143.696 68.0974 143.834 68.5089 144.104 68.9829" stroke="#575756" stroke-width="0.5" stroke-miterlimit="10" stroke-linecap="round"/>
<path d="M83.74 36.2282C83.3624 36.4512 82.7619 36.8201 82.4267 36.9642C81.7181 37.2434 81.2859 37.5465 80.5785 37.8382" fill="#D1EBE1"/>
<path d="M83.74 36.2282C83.3624 36.4512 82.7619 36.8201 82.4267 36.9642C81.7181 37.2434 81.2859 37.5465 80.5785 37.8382" stroke="#575756" stroke-width="0.5" stroke-miterlimit="10" stroke-linecap="round"/>
<path d="M81.3102 35.1716C79.7064 36.2597 78.0125 37.5812 76.1074 37.986L81.3102 35.1716Z" fill="#D1EBE1"/>
<path d="M81.3102 35.1716C79.7064 36.2597 78.0125 37.5812 76.1074 37.986" stroke="#575756" stroke-width="0.5" stroke-miterlimit="10" stroke-linecap="round"/>
<path d="M78.9552 34.108C78.0242 34.6705 77.0843 35.5336 76.1838 36.1556C75.2969 36.7889 74.066 37.6046 72.9841 37.7568" fill="#D1EBE1"/>
<path d="M78.9552 34.108C78.0242 34.6705 77.0843 35.5336 76.1838 36.1556C75.2969 36.7889 74.066 37.6046 72.9841 37.7568" stroke="#575756" stroke-width="0.5" stroke-miterlimit="10" stroke-linecap="round"/>
<path d="M76.9059 33.2528C74.4176 34.7367 71.8389 36.0544 69.1808 37.1922L76.9059 33.2528Z" fill="#D1EBE1"/>
<path d="M76.9059 33.2528C74.4176 34.7367 71.8389 36.0544 69.1808 37.1922" stroke="#575756" stroke-width="0.5" stroke-miterlimit="10" stroke-linecap="round"/>
<path d="M74.31 32.1495C71.6923 33.8455 68.8061 35.2047 65.961 36.4726L74.31 32.1495Z" fill="#D1EBE1"/>
<path d="M74.31 32.1495C71.6923 33.8455 68.8061 35.2047 65.961 36.4726" stroke="#575756" stroke-width="0.5" stroke-miterlimit="10" stroke-linecap="round"/>
<path d="M71.5772 31.0468C68.7491 32.6253 65.9063 34.1802 62.9401 35.4845L71.5772 31.0468Z" fill="#D1EBE1"/>
<path d="M71.5772 31.0468C68.7491 32.6253 65.9063 34.1802 62.9401 35.4845" stroke="#575756" stroke-width="0.5" stroke-miterlimit="10" stroke-linecap="round"/>
<path d="M68.6009 30.0045C65.731 31.5369 62.7731 32.9279 59.7628 34.1615L68.6009 30.0045Z" fill="#D1EBE1"/>
<path d="M68.6009 30.0045C65.731 31.5369 62.7731 32.9279 59.7628 34.1615" stroke="#575756" stroke-width="0.5" stroke-miterlimit="10" stroke-linecap="round"/>
<path d="M66.0262 29.1239C63.9197 30.0348 61.8304 30.994 59.7116 31.9061C58.9101 32.2566 58.0962 32.6082 57.2947 32.9587" fill="#D1EBE1"/>
<path d="M66.0262 29.1239C63.9197 30.0348 61.8304 30.994 59.7116 31.9061C58.9101 32.2566 58.0962 32.6082 57.2947 32.9587" stroke="#575756" stroke-width="0.5" stroke-miterlimit="10" stroke-linecap="round"/>
<path d="M63.3935 28.2865C60.5515 29.4543 57.6754 30.5253 54.7652 31.4997L63.3935 28.2865Z" fill="#D1EBE1"/>
<path d="M63.3935 28.2865C60.5515 29.4543 57.6754 30.5253 54.7652 31.4997" stroke="#575756" stroke-width="0.5" stroke-miterlimit="10" stroke-linecap="round"/>
<path d="M60.4739 27.451C58.1509 28.707 55.4474 29.0999 53.0951 30.3088L60.4739 27.451Z" fill="#D1EBE1"/>
<path d="M60.4739 27.451C58.1509 28.707 55.4474 29.0999 53.0951 30.3088" stroke="#575756" stroke-width="0.5" stroke-miterlimit="10" stroke-linecap="round"/>
<path d="M57.7072 26.776C56.0624 27.431 54.3812 27.9645 52.6866 28.4868C52.2391 28.629 51.7916 28.7712 51.3441 28.9134" fill="#D1EBE1"/>
<path d="M57.7072 26.776C56.0624 27.431 54.3812 27.9645 52.6866 28.4868C52.2391 28.629 51.7916 28.7712 51.3441 28.9134" stroke="#575756" stroke-width="0.5" stroke-miterlimit="10" stroke-linecap="round"/>
<path d="M54.0957 26.1309C52.417 26.4269 50.8686 27.0478 49.1759 27.1953L54.0957 26.1309Z" fill="#D1EBE1"/>
<path d="M54.0957 26.1309C52.417 26.4269 50.8686 27.0478 49.1759 27.1953" stroke="#575756" stroke-width="0.5" stroke-miterlimit="10" stroke-linecap="round"/>
<path d="M83.7639 36.0885C83.8411 35.7191 83.6214 35.2404 83.5234 34.8625C83.274 33.9371 82.9756 33.4158 82.5703 32.5551" fill="#D1EBE1"/>
<path d="M83.7639 36.0885C83.8411 35.7191 83.6214 35.2404 83.5234 34.8625C83.274 33.9371 82.9756 33.4158 82.5703 32.5551" stroke="#575756" stroke-width="0.5" stroke-miterlimit="10" stroke-linecap="round"/>
<path d="M81.307 35.1345C81.1986 33.1967 80.1723 31.4331 79.0972 29.8115L81.307 35.1345Z" fill="#D1EBE1"/>
<path d="M81.307 35.1345C81.1986 33.1967 80.1723 31.4331 79.0972 29.8115" stroke="#575756" stroke-width="0.5" stroke-miterlimit="10" stroke-linecap="round"/>
<path d="M78.9551 34.108C78.725 32.0694 77.9451 30.1451 76.8236 28.428L78.9551 34.108Z" fill="#D1EBE1"/>
<path d="M78.9551 34.108C78.725 32.0694 77.9451 30.1451 76.8236 28.428" stroke="#575756" stroke-width="0.5" stroke-miterlimit="10" stroke-linecap="round"/>
<path d="M76.9756 33.1963C76.5675 32.1735 76.1605 31.163 75.7647 30.139C75.3566 29.1162 74.9473 28.0809 74.2445 27.2358" fill="#D1EBE1"/>
<path d="M76.9756 33.1963C76.5675 32.1735 76.1605 31.163 75.7647 30.139C75.3566 29.1162 74.9473 28.0809 74.2445 27.2358" stroke="#575756" stroke-width="0.5" stroke-miterlimit="10" stroke-linecap="round"/>
<path d="M74.3965 32.1414C73.9109 30.8262 73.4253 29.5109 72.9521 28.1946C72.7659 27.6752 72.3864 27.0867 72.0686 26.4924" fill="#D1EBE1"/>
<path d="M74.3965 32.1414C73.9109 30.8262 73.4253 29.5109 72.9521 28.1946C72.7659 27.6752 72.3864 27.0867 72.0686 26.4924" stroke="#575756" stroke-width="0.5" stroke-miterlimit="10" stroke-linecap="round"/>
<path d="M71.5806 30.9465C70.7825 28.9616 69.9396 27.293 68.8334 25.4746L71.5806 30.9465Z" fill="#D1EBE1"/>
<path d="M71.5806 30.9465C70.7825 28.9616 69.9396 27.293 68.8334 25.4746" stroke="#575756" stroke-width="0.5" stroke-miterlimit="10" stroke-linecap="round"/>
<path d="M68.6831 29.9468C68.5186 29.7875 68.0471 28.3586 67.8615 27.9765C67.3488 26.9012 66.9524 26.0021 66.3679 24.9585" fill="#D1EBE1"/>
<path d="M68.6831 29.9468C68.5186 29.7875 68.0471 28.3586 67.8615 27.9765C67.3488 26.9012 66.9524 26.0021 66.3679 24.9585" stroke="#575756" stroke-width="0.5" stroke-miterlimit="10" stroke-linecap="round"/>
<path d="M66.0088 28.9384C65.6409 27.2874 64.7491 26.023 63.8532 24.5843L66.0088 28.9384Z" fill="#D1EBE1"/>
<path d="M66.0088 28.9384C65.6409 27.2874 64.7491 26.023 63.8532 24.5843" stroke="#575756" stroke-width="0.5" stroke-miterlimit="10" stroke-linecap="round"/>
<path d="M63.3936 28.2865C62.9128 26.7586 62.1602 25.5185 61.1002 24.3201L63.3936 28.2865Z" fill="#D1EBE1"/>
<path d="M63.3936 28.2865C62.9128 26.7586 62.1602 25.5185 61.1002 24.3201" stroke="#575756" stroke-width="0.5" stroke-miterlimit="10" stroke-linecap="round"/>
<path d="M60.3389 27.339C59.7709 26.2064 59.2852 25.1534 58.3566 24.2922L60.3389 27.339Z" fill="#D1EBE1"/>
<path d="M60.3389 27.339C59.7709 26.2064 59.2852 25.1534 58.3566 24.2922" stroke="#575756" stroke-width="0.5" stroke-miterlimit="10" stroke-linecap="round"/>
<path d="M57.6104 26.6729C57.2568 25.8322 56.8121 25.2124 56.3397 24.4329L57.6104 26.6729Z" fill="#D1EBE1"/>
<path d="M57.6104 26.6729C57.2568 25.8322 56.8121 25.2124 56.3397 24.4329" stroke="#575756" stroke-width="0.5" stroke-miterlimit="10" stroke-linecap="round"/>
<path d="M54.0957 26.131C53.7244 25.6291 53.3542 25.1396 52.9705 24.639L54.0957 26.131Z" fill="#D1EBE1"/>
<path d="M54.0957 26.131C53.7244 25.6291 53.3542 25.1396 52.9705 24.639" stroke="#575756" stroke-width="0.5" stroke-miterlimit="10" stroke-linecap="round"/>
</g>
</g>
<defs>
<clipPath id="clip0">
<rect x="179.405" y="82.3914" width="171.846" height="82.7585" transform="rotate(174.6 179.405 82.3914)" fill="white"/>
</clipPath>
</defs>
</svg>
