<svg xmlns="http://www.w3.org/2000/svg">
	<defs>
		<style>
			.img { display: none }
			.img:target { display: inline }
		</style>
	</defs>

	<svg viewBox="0 0 145 110" fill="none" xmlns="http://www.w3.org/2000/svg">
		<g id="logo-dark" class="img">
			<g clip-path="url(#clip0)">
				<path d="M139.041 93.6819L140.361 95.9868L139.066 98.3073L139.069 98.8122L144.629 98.7776L144.627 98.4178L139.381 98.4505L140.76 95.9844L139.355 93.5354L144.601 93.5027L144.599 93.1429L139.039 93.1775L139.041 93.6819Z" fill="black" />
				<path d="M139.042 102.533C139.05 104.116 140.322 105.392 141.886 105.382C143.45 105.373 144.709 104.081 144.7 102.498C144.691 100.915 143.42 99.6389 141.856 99.6484C140.291 99.6579 139.033 100.95 139.042 102.533ZM144.367 102.5C144.375 103.895 143.261 105.038 141.884 105.047C140.506 105.056 139.381 103.926 139.373 102.531C139.366 101.136 140.48 99.9936 141.857 99.985C143.234 99.9765 144.362 101.105 144.367 102.5Z" fill="black" />
				<path d="M139.113 107.237L142.116 107.219L142.128 109.403L139.125 109.422L139.126 109.782L144.686 109.747L144.684 109.387L142.468 109.401L142.456 107.216L144.673 107.203L144.671 106.843L139.111 106.877L139.113 107.237Z" fill="black" />
				<path d="M139.355 88.7739L139.016 88.7758L139.031 91.6804L144.591 91.6453L144.575 88.7412L144.236 88.7431L144.249 91.2879L142.372 91.2992L142.364 89.6898L142.024 89.6922L142.032 91.3016L139.369 91.3182L139.355 88.7739Z" fill="black" />
				<path d="M135.503 109.771L137.455 109.765L137.392 88.6045L135.44 88.6103L135.503 109.771Z" fill="#EB5757" />
				<path d="M140.595 81.7511L136.31 86.7046L133.422 83.2506L133.436 83.2335L132.307 81.8834C131.516 80.9353 131.538 79.405 132.354 78.4593L132.379 78.4299C133.197 77.4817 134.502 77.4817 135.292 78.4299L136.422 79.78L137.505 78.5275C138.335 77.5685 139.658 77.569 140.459 78.5275L140.636 78.7394C141.333 79.5714 141.314 80.9196 140.595 81.7511Z" fill="#EB5757" />
				<path d="M76.1354 109.4C75.406 109.009 74.8192 108.397 74.459 107.652C74.0798 106.886 73.8901 105.963 73.8901 104.884V88.7719H77.0693V104.985C77.0693 105.592 77.2186 106.057 77.5173 106.38C77.816 106.703 78.2398 106.864 78.7888 106.864C79.3472 106.864 79.7783 106.702 80.0821 106.38C80.3858 106.057 80.5375 105.592 80.5372 104.985V88.7719H83.7168V104.884C83.7168 105.963 83.5216 106.886 83.1313 107.652C82.7638 108.394 82.1759 109.005 81.4479 109.4C80.7156 109.8 79.8292 110 78.7888 110C77.7566 109.999 76.8721 109.799 76.1354 109.4Z" fill="#424242" />
				<path d="M88.1078 109.393C87.339 109.009 86.7062 108.399 86.2945 107.644C85.8754 106.884 85.6658 105.964 85.6658 104.884V93.6709C85.6658 92.592 85.8754 91.6694 86.2945 90.9033C86.7036 90.1471 87.3371 89.5363 88.1078 89.155C88.8979 88.7555 89.8517 88.5556 90.9693 88.5553C92.0868 88.555 93.0405 88.7549 93.8303 89.155C94.6011 89.5363 95.2347 90.1471 95.6441 90.9033C96.0632 91.6694 96.2727 92.592 96.2727 93.6709V104.884C96.2727 105.963 96.0632 106.883 95.6441 107.644C95.2321 108.399 94.5992 109.009 93.8303 109.393C93.0402 109.798 92.0865 110 90.9693 110C89.852 110 88.8982 109.798 88.1078 109.393ZM92.1108 106.619C92.4227 106.451 92.6751 106.191 92.8333 105.874C92.9967 105.551 93.0786 105.163 93.0789 104.711V93.8297C93.0789 93.3768 92.997 92.9891 92.8333 92.6664C92.6762 92.3508 92.4233 92.0929 92.1108 91.9297C91.7926 91.7609 91.412 91.6765 90.9693 91.6765C90.5265 91.6765 90.146 91.7609 89.8277 91.9297C89.515 92.0928 89.2619 92.3507 89.1047 92.6664C88.941 92.9891 88.8592 93.3768 88.8592 93.8297V104.711C88.8592 105.164 88.941 105.552 89.1047 105.874C89.263 106.191 89.5156 106.451 89.8277 106.619C90.1437 106.792 90.5243 106.878 90.9693 106.878C91.4143 106.878 91.7948 106.792 92.1108 106.619Z" fill="#424242" />
				<path d="M98.7003 88.7719H101.879V109.783H98.7003V88.7719ZM101.213 100.275L105.996 88.7719H109.536L101.084 106.158L101.213 100.275ZM102.932 98.4395L105.086 96.2863L110.201 109.783H106.675L102.932 98.4395Z" fill="#424242" />
				<path d="M112.638 109.407C111.882 109.031 111.261 108.431 110.86 107.687C110.449 106.936 110.25 106.021 110.261 104.942V103.858L113.411 103.83V104.87C113.411 105.515 113.587 106.016 113.939 106.373C114.29 106.729 114.793 106.907 115.448 106.907C116.075 106.907 116.559 106.731 116.901 106.38C117.243 106.029 117.414 105.53 117.414 104.884V103.049C117.414 102.596 117.298 102.211 117.067 101.893C116.828 101.568 116.526 101.295 116.179 101.091C115.817 100.874 115.323 100.616 114.697 100.318C114.667 100.308 114.638 100.296 114.611 100.282C114.583 100.268 114.554 100.256 114.524 100.246L114.334 100.159C113.506 99.7546 112.812 99.3501 112.254 98.9453C111.695 98.5404 111.226 97.9913 110.846 97.2979C110.466 96.6042 110.277 95.7371 110.277 94.6967V93.5552C110.277 92.4955 110.477 91.5899 110.876 90.8383C111.265 90.0972 111.879 89.4993 112.631 89.1317C113.401 88.7468 114.331 88.5541 115.42 88.5538C116.489 88.5538 117.4 88.7488 118.151 89.1388C118.89 89.5162 119.489 90.1185 119.863 90.8587C120.253 91.6147 120.453 92.5274 120.463 93.5969V94.7384L117.298 94.7673V93.6836C117.298 93.02 117.135 92.5118 116.807 92.1591C116.48 91.8063 116.017 91.6306 115.42 91.6319C114.774 91.6319 114.283 91.798 113.946 92.1301C113.608 92.4623 113.44 92.9223 113.44 93.5101V94.8688C113.44 95.3312 113.553 95.7262 113.78 96.054C114.004 96.3806 114.297 96.6546 114.638 96.857C114.986 97.064 115.463 97.3121 116.069 97.6013C116.156 97.6399 116.24 97.6808 116.322 97.7241C116.404 97.7672 116.488 97.8132 116.575 97.8611C116.604 97.871 116.637 97.8829 116.676 97.8976C116.712 97.9106 116.746 97.9274 116.777 97.9478C117.596 98.3432 118.256 98.719 118.757 99.0752C119.258 99.4313 119.687 99.9346 120.043 100.585C120.399 101.235 120.577 102.071 120.578 103.092V104.926C120.578 106.005 120.378 106.925 119.978 107.686C119.593 108.432 118.981 109.037 118.229 109.413C117.464 109.803 116.537 109.998 115.447 109.998C114.35 109.998 113.414 109.801 112.638 109.407Z" fill="#424242" />
				<path d="M126.287 88.7719H128.799L133.743 109.783H130.492L127.544 94.538L124.596 109.783H121.344L126.287 88.7719ZM124.61 102.89H130.593V105.852H124.61V102.89Z" fill="#424242" />
				<path d="M44.8754 50.4497C43.9893 51.9591 42.8601 50.9948 41.6858 50.9711L42.1276 52.1975C40.8244 54.1862 39.9611 54.4683 37.9259 53.4604C37.1371 53.0703 36.5345 53.2201 35.8846 53.7572C34.7942 54.6579 34.7714 54.6309 33.8129 54.8143C33.4108 54.0824 33.7763 53.4599 34.1921 52.9323C35.2943 51.5376 36.4449 50.1828 37.5993 48.8279C38.5849 47.6736 39.9516 47.8897 41.1254 48.1832C42.4993 48.5273 43.7485 49.2963 44.8754 50.4497Z" fill="#424242" />
				<path d="M33.9783 47.1179C35.1416 45.8332 35.9125 44.8372 36.8308 44.0043C38.0307 42.9139 39.5041 42.4356 41.1254 42.7907C42.1641 43.0182 43.1696 43.3999 44.525 43.8147C43.9343 44.4461 43.6432 45.0264 43.2038 45.18C41.3847 45.8138 39.5235 46.2888 37.7296 47.0464C36.7744 47.4503 35.5081 47.1179 33.9783 47.1179Z" fill="#424242" />
				<path d="M133.487 23.0076C133.174 23.0033 132.859 22.9971 132.539 22.971C131.935 22.9236 131.354 22.8492 130.78 22.7639C130.296 22.8037 129.798 22.8663 129.351 22.7478C127.476 22.2491 125.682 21.5868 124.062 20.5884C123.978 20.5453 123.895 20.5078 123.811 20.4633C122.83 19.9428 121.956 19.2396 121.238 18.3916C120.972 18.2285 120.683 18.0892 120.416 17.9242C117.612 19.7863 114.99 21.7058 111.804 23.3166C112.841 19.7138 114.944 16.8519 115.666 13.5244C115.037 13.5213 114.41 13.4607 113.792 13.3433C113.56 13.3196 113.333 13.2755 113.104 13.2367C112.712 13.4542 112.361 13.8107 112.043 14.3099C110.842 16.1943 109.048 17.47 107.289 18.7566C106.009 19.6939 104.653 20.5401 102.89 20.9127C102.926 20.3263 102.874 19.8645 102.996 19.4559C103.383 18.1598 103.862 16.8917 104.255 15.597C104.686 14.1748 105.137 12.746 105.435 11.2911C105.663 10.1856 105.367 9.84853 104.226 9.66886C101.934 9.30952 101.295 9.74376 99.9324 11.6926C98.3893 13.8989 97.0339 16.2564 95.3248 18.3233C92.6852 21.5147 89.4786 23.995 85.3295 25.0266C84.1846 25.311 83.1923 25.2499 82.2285 24.3904C83.0876 21.5896 84.0997 18.787 83.8352 15.835C83.5778 12.965 84.195 9.93434 82.6282 7.00226C82.2627 7.40332 82.0408 7.57398 81.9138 7.79821C81.122 9.19527 80.2616 10.5629 79.5908 12.0174C77.6177 16.2963 74.7443 19.8029 70.8579 22.4586C69.6172 23.3072 68.3823 24.2159 66.6528 24.6227C66.8017 23.9239 66.8647 23.4228 67.0164 22.9497C67.6124 21.0881 67.5493 19.2046 67.2312 17.315C67.0122 16.0132 66.7187 14.7247 66.4883 13.4249C66.0067 10.7014 66.0972 8.06464 67.5313 5.57581C67.9229 4.89742 68.1225 4.08393 68.2799 3.306C68.3519 2.9514 68.1097 2.53233 67.9177 1.78331C65.4373 3.66012 63.2073 5.26482 61.082 6.99799C60.2993 7.63703 59.5123 8.48323 59.1639 9.40101C58.0688 12.2819 55.9459 14.4104 54.1212 16.7575C53.7647 17.2164 53.1834 17.4994 52.607 17.9394C52.589 17.6051 52.5477 17.4904 52.5837 17.4089C53.6632 14.9618 54.0505 12.3753 54.2539 9.72907C54.352 8.45289 53.3631 7.86647 52.2628 8.0433C51.4654 8.1713 51.4142 8.87576 51.1407 9.42188C50.2432 11.2124 49.4918 13.103 48.3849 14.7541C47.2779 16.4053 45.8334 17.8507 43.6218 18.0299C42.5874 16.9742 42.6135 15.2329 41.1462 14.5593C40.7077 14.7745 40.3095 15.0035 39.8871 15.1727C38.6469 15.6705 38.1733 15.3913 37.7125 14.1298C37.1038 12.462 37.2323 10.8801 38.0387 9.32706C38.6284 8.18931 38.5824 7.20611 37.6414 6.19825C36.2666 4.72866 35.0961 3.09599 34.8624 1.00158C34.311 0.776873 33.7592 0.543634 33.2472 0.290485C33.1766 0.255878 33.1078 0.218903 33.0396 0.179556C32.9447 0.12409 32.8499 0.0596181 32.7551 -0.00390625C32.4915 0.185719 32.3095 0.481059 32.1862 0.860308C31.056 4.36268 30.0946 7.89918 29.9638 11.6101C29.9031 13.331 29.6836 15.0533 29.7353 16.7689C29.8324 19.9759 30.0358 23.1811 30.27 26.3819C30.4364 28.6536 31.5448 30.6357 32.4858 32.6396C34.1176 36.1187 34.1778 35.2526 31.1584 37.6992C28.5543 39.8088 26.4329 42.1848 25.0903 45.2558C24.5797 46.4239 23.9724 47.6204 22.8147 48.2078C20.7217 49.2706 19.454 51.1043 18.0038 52.8062C16.3114 54.7949 14.9778 57.1618 12.4097 58.2797C11.5704 58.6534 10.7631 59.0952 9.99576 59.6004C7.6197 61.1387 5.35931 62.8828 3.91054 65.3323C2.57318 67.5931 1.59089 70.0649 0.457857 72.4461C-0.0854321 73.5876 -0.0897004 74.7733 0.142122 75.9935C0.574952 78.269 1.91421 79.9538 3.66544 81.3267C4.88192 82.2805 6.3103 81.8956 7.64766 81.6111C8.62378 81.4059 8.95184 81.8842 9.29318 82.6612C9.76725 83.7421 10.2484 84.8717 10.9785 85.7777C12.0589 87.1188 13.0123 87.1695 14.4611 86.2517C15.0878 85.8545 15.6614 85.3738 16.2659 84.9244C16.4906 85.0381 16.6987 85.1296 16.8945 85.2439C19.0392 86.4907 20.9857 86.192 22.9446 84.7077C24.2801 83.6946 25.1064 82.3374 25.9953 81.01C26.5343 80.2041 27.0439 79.411 28.0447 78.6828C28.7084 80.4843 29.3456 82.1075 29.8936 83.7586C30.361 85.1638 30.6995 86.6115 31.1452 88.0252C31.615 89.5166 32.72 89.8712 33.8891 88.8083C34.4973 88.2561 34.96 87.4677 35.281 86.6988C35.5465 86.0612 35.9527 85.7032 36.5316 85.7122C37.5371 85.7293 38.0742 85.1083 38.6905 84.4915C39.3324 83.8497 39.98 82.9229 40.7561 82.765C42.6552 82.3777 43.7366 81.1774 44.7435 79.731C45.0346 79.3134 45.337 78.771 46.0017 78.8009C46.0491 79.0024 46.1254 79.1327 46.0894 79.2129C45.8998 79.631 45.6523 80.0244 45.4783 80.4483C45.2621 80.9759 44.9938 81.513 44.9336 82.0658C44.8066 83.2339 45.7964 83.9369 46.8228 83.3694C47.4457 83.0248 47.9667 82.4498 48.4451 81.8998C49.177 81.0608 49.6355 79.9733 50.8865 79.2072C50.7633 79.7893 50.7391 80.1259 50.6211 80.425C49.782 82.555 48.9111 84.6717 48.0857 86.8069C47.9591 87.1344 48.0165 87.5331 47.9767 88.0579C48.7129 87.8953 49.2567 87.7531 49.8076 87.6578C51.3677 87.3876 53.7926 88.2504 54.3847 89.4668C55.4064 91.566 56.4877 93.6737 57.1699 95.8927C58.2944 99.5497 59.1108 103.301 60.0836 107.006C60.2415 107.606 60.4628 108.214 60.7824 108.742C61.7893 110.411 64.4256 110.325 65.2861 108.559C65.9607 107.175 66.5044 105.721 67.0245 104.27C67.6598 102.496 68.2007 100.689 68.798 98.9016C69.1616 97.8141 69.5641 96.7399 69.9358 95.6548C70.8934 92.8493 71.8098 90.0291 72.8077 87.2378C73.424 85.515 74.0147 83.7136 75.3289 82.3995C76.4666 81.2618 77.1247 79.9396 77.6333 78.4757C77.7665 78.0917 77.9178 77.7148 78.0738 77.3379C78.1766 76.4742 78.3411 75.6019 78.6564 74.788C78.2819 75.1291 77.8876 75.4477 77.4755 75.7422C77.4396 75.7683 77.4004 75.7894 77.3588 75.8048C76.194 76.9392 74.8325 77.822 73.4876 78.7544C71.6922 79.9988 70.1103 81.5282 69.5698 83.8269C69.2996 84.9923 68.9545 86.1391 68.5368 87.2601C66.6329 92.3136 64.9168 97.4197 63.8326 102.723C63.6903 103.416 63.3585 104.069 63.1129 104.742C62.5834 104.268 62.3601 103.818 62.2316 103.341C61.7101 101.407 61.2536 99.4539 60.7023 97.5283C60.1049 95.4424 59.455 93.366 58.7761 91.3033C58.402 90.1656 58.0432 88.9961 57.4629 87.9612C56.1583 85.6354 54.7868 85.0562 52.1888 85.4691C52.0518 85.4909 51.8916 85.3652 51.7622 85.3159C51.7465 85.1548 51.6963 85.0286 51.7299 84.931C53.4428 79.9533 55.1224 74.961 56.9007 70.0051C57.6985 67.7813 57.754 67.6822 55.7743 66.1041C53.9998 67.787 53.7789 70.5034 51.7418 72.3262C51.8399 71.8564 51.8508 71.6269 51.9352 71.4292C52.6504 69.7542 53.3739 68.0844 54.1055 66.4198C54.8237 64.7786 54.453 63.6053 52.8255 62.6273C51.1188 65.4385 49.5132 68.3227 47.6704 71.0467C45.8215 73.7811 44.406 76.8648 41.8251 78.99C41.1567 78.8421 40.61 78.7213 40.0236 78.5904L37.3285 82.0624C35.2345 81.6495 35.2426 81.6538 34.2546 83.259C33.9967 83.6785 33.68 84.0616 33.3344 84.5389C33.0708 84.2886 32.8348 84.1682 32.7722 83.9876C32.3028 82.6384 31.8809 81.2722 31.4187 79.9202C30.9565 78.5681 30.5834 77.1578 29.9533 75.8811C29.027 74.0062 27.3933 73.9806 26.2769 75.711C26.1214 75.9527 25.9924 76.213 25.826 76.4467C24.4621 78.3619 23.1712 80.334 21.7016 82.1658C20.4249 83.7548 19.0619 83.5638 17.9905 81.8235C17.7801 81.4817 17.68 81.065 17.4368 80.754C17.0879 80.3084 16.7115 79.8405 16.2441 79.5442C15.5619 79.1114 15.1105 79.3665 14.8692 80.1818C14.7076 80.7294 14.5473 81.2774 14.4046 81.8292C14.2041 82.6048 14.0121 83.3789 13.0379 83.8506C12.77 83.4766 12.424 83.1571 12.2846 82.7645C12.0177 82.0117 11.8318 81.2238 11.6768 80.4378C11.3824 78.9398 11.1553 78.7725 9.6914 78.5691C8.33792 78.3795 7.08399 78.598 5.97371 79.2057C3.8271 78.0154 2.49495 75.8266 2.98704 73.9555C3.69815 71.2349 4.80322 68.5758 6.52221 66.3928C8.58349 63.775 11.263 61.7432 14.3776 60.3651C15.3068 59.9541 16.3024 59.4402 16.9499 58.6964C18.2682 57.1818 19.4609 55.5624 20.5164 53.8543C21.4281 52.379 22.5075 51.1616 24.1194 50.5558C25.5274 50.0282 26.3508 49.0388 26.8889 47.7114C27.0838 47.2326 27.3293 46.7742 27.5484 46.3044C28.9232 43.3605 31.0044 41.0603 33.7217 39.2802C35.0145 38.4335 36.2135 37.4375 37.4157 36.4605C38.28 35.7579 38.3212 35.3483 37.548 34.6401C35.2554 32.54 34.0873 29.8402 33.1732 26.9489C32.5361 24.9389 32.4621 22.9061 32.4086 20.8397C32.2924 16.1768 32.456 11.5333 33.1586 6.91598C33.2301 6.44761 33.2567 5.98445 33.9986 5.92567C34.1408 6.16696 34.257 6.49454 34.4779 6.71735C35.3938 7.64461 35.3132 8.66101 35.1416 9.88409C34.8941 11.6286 34.8984 13.4424 35.062 15.2016C35.2042 16.7096 36.3154 17.5848 37.7831 17.936C38.1743 18.0308 38.5753 18.1133 38.975 18.1309C40.0554 18.1783 40.7011 18.6296 41.1036 19.7185C41.7976 21.6001 43.1919 22.1049 44.9601 21.1018C46.1927 20.4026 47.2722 19.4336 48.4209 18.5893C48.7442 18.3523 49.0742 18.1233 49.4008 17.8905C49.4553 18.4722 49.3321 18.8386 49.1751 19.1937C48.9921 19.6081 48.7233 19.9925 48.5911 20.4206C48.3142 21.3175 48.6186 21.8636 49.5236 22.5866C50.202 23.1284 50.7562 23.0076 51.3682 22.5088C52.569 21.5356 53.8808 20.6828 54.9901 19.6171C57.6506 17.0571 59.8878 14.1677 61.4428 10.7763C61.8576 9.87223 62.5568 9.12464 63.5761 8.7378C64.008 12.0491 64.3536 15.1808 64.8518 18.2878C65.0566 19.5678 65.1415 20.8036 64.7328 22.0139C64.237 23.4835 63.5889 24.901 63.0797 26.3663C62.8801 26.9423 62.755 27.5988 62.8114 28.1962C62.9095 29.2391 64.1033 29.7772 64.9921 29.2192C67.4668 27.6704 69.9187 26.0852 72.3877 24.526C75.9717 22.2619 78.4459 18.9719 80.7489 15.5188C80.9021 15.2893 81.1377 15.1144 81.6307 14.6152C81.3491 17.7161 81.2491 20.3988 79.9241 22.8525C79.6496 23.3548 79.4408 23.8903 79.303 24.4459C78.8925 26.1586 79.532 27.1338 81.2173 27.4476C84.7084 28.099 87.9449 27.3955 90.942 25.5514C94.7346 23.2166 97.5402 19.8949 100.058 16.2986C100.675 15.4202 101.269 14.528 101.874 13.6439C102.116 14.1383 102.104 14.4811 101.995 14.7906C101.142 17.2292 100.284 19.6673 99.3919 22.0912C99.0601 22.9919 99.015 23.8514 99.4498 24.9356C100.138 24.827 100.863 24.8725 101.431 24.5952C103.843 23.4157 106.205 22.1353 108.589 20.9037C109.016 20.6832 109.471 20.5168 109.913 20.3253L110.17 20.5718C109.893 21.1744 109.664 21.8044 109.329 22.3733C108.485 23.8073 107.595 25.2176 106.716 26.6299C106.443 27.0703 106.068 27.4927 106.804 28.0682C108.155 27.5363 109.592 26.9944 111.011 26.4089C113.815 25.2494 116.587 24.0073 119.423 22.9355C120.09 22.6838 120.977 22.8942 121.733 23.0412C122.273 23.146 122.76 23.5072 123.276 23.7438C125.68 24.846 128.259 25.1731 131.122 25.3888C130.829 26.5872 130.655 27.7117 130.278 28.7631C128.755 33.007 126.271 36.6672 123.053 39.7789C120.697 42.0582 118.108 44.0929 114.71 44.6589C113.636 44.8376 112.564 45.0429 111.482 45.1472C106.97 45.581 102.462 46.1081 97.9389 46.3641C91.2739 46.7401 84.597 46.9126 77.9258 47.1814C77.6101 47.1942 77.2982 47.2952 76.8355 47.3834C77.4949 48.587 78.1894 49.3408 79.5467 49.2232C81.8796 49.0217 83.8812 49.9542 85.7822 51.1669C88.3754 52.8261 90.6699 54.9968 93.7054 55.8899C94.956 56.2583 96.2469 56.5607 97.5407 56.6958C99.4237 56.8921 101.325 56.9172 103.22 56.9973C103.504 57.0092 103.791 56.9248 104.263 56.8594C102.075 55.1409 99.8906 54.2203 97.2733 54.2814C96.2246 54.3056 95.0925 54.0093 94.1245 53.5732C92.1419 52.6786 90.2333 51.6144 88.3213 50.57C87.7615 50.2642 87.2158 49.8589 86.9688 49.2023C87.1916 49.0758 87.2864 48.9767 87.3874 48.9701C91.2838 48.7141 95.1793 48.4386 99.0781 48.2258C102.349 48.0471 105.651 48.1362 108.897 47.7517C112.595 47.316 116.471 47.3725 119.703 44.9927C121.09 43.972 122.634 43.1438 123.93 42.0246C127.327 39.0882 129.981 35.5223 131.732 31.4056C132.664 29.2111 133.134 26.8043 133.66 24.4591C133.815 23.7973 133.743 23.3219 133.487 23.0076Z" fill="#424242" />
				<path d="M5.37262 73.6199C5.78601 72.568 6.05671 71.6099 6.53837 70.7727C6.76356 70.3821 7.37274 70.0711 7.85013 69.9976C8.71579 69.8644 9.04006 70.2683 8.78596 71.1586C8.48098 72.2461 8.08859 73.3072 7.61262 74.3315C7.38791 74.8055 6.8029 75.2279 6.24681 74.8529C5.85475 74.5856 5.65469 74.0366 5.37262 73.6199Z" fill="#424242" />
			</g>
			<defs>
				<clipPath id="clip0">
					<rect width="144.7" height="110" fill="white" />
				</clipPath>
			</defs>
		</g>
	</svg>

	<svg width="13" height="18" viewBox="0 0 13 18" fill="none" xmlns="http://www.w3.org/2000/svg">
	<g clip-path="url(#clip0)">
		<path d="M6.5 18.25L6.1 17.8C5.85 17.55 0 10.65 0 6.5C0 2.9 2.9 0 6.5 0C10.1 0 13 2.9 13 6.5C13 10.65 7.15 17.55 6.9 17.85L6.5 18.25ZM6.5 1C3.45 1 1 3.45 1 6.5C1 9.7 5.2 15.1 6.5 16.7C7.8 15.1 12 9.7 12 6.5C12 3.45 9.55 1 6.5 1Z" fill="#7EC0A4" />
		<path d="M6.5 9C5.1 9 4 7.9 4 6.5C4 5.1 5.1 4 6.5 4C7.9 4 9 5.1 9 6.5C9 7.9 7.9 9 6.5 9ZM6.5 5C5.65 5 5 5.65 5 6.5C5 7.35 5.65 8 6.5 8C7.35 8 8 7.35 8 6.5C8 5.65 7.35 5 6.5 5Z" fill="#7EC0A4" />
	</g>
	<defs>
		<clipPath id="clip0">
			<rect width="13" height="18" fill="white" />
		</clipPath>
	</defs>
</svg>







	<svg viewBox="0 0 16 16">
		<g id="chart" class="img">
			<rect x="6" width="4" height="16" />
			<rect x="12" y="4" width="4" height="12" />
			<rect x="0" y="8" width="4" height="8" />
		</g>
	</svg>
</svg>
