<svg xmlns="http://www.w3.org/2000/svg">
	<defs>
		<style>
			.img { display: none }
			.img:target { display: inline }
		</style>
	</defs>

	<svg viewBox="0 0 145 110" fill="none" xmlns="http://www.w3.org/2000/svg">
		<g id="logo-dark" class="img">
			<g clip-path="url(#clip0)">
				<path d="M139.041 93.6819L140.361 95.9868L139.066 98.3073L139.069 98.8122L144.629 98.7776L144.627 98.4178L139.381 98.4505L140.76 95.9844L139.355 93.5354L144.601 93.5027L144.599 93.1429L139.039 93.1775L139.041 93.6819Z" fill="black" />
				<path d="M139.042 102.533C139.05 104.116 140.322 105.392 141.886 105.382C143.45 105.373 144.709 104.081 144.7 102.498C144.691 100.915 143.42 99.6389 141.856 99.6484C140.291 99.6579 139.033 100.95 139.042 102.533ZM144.367 102.5C144.375 103.895 143.261 105.038 141.884 105.047C140.506 105.056 139.381 103.926 139.373 102.531C139.366 101.136 140.48 99.9936 141.857 99.985C143.234 99.9765 144.362 101.105 144.367 102.5Z" fill="black" />
				<path d="M139.113 107.237L142.116 107.219L142.128 109.403L139.125 109.422L139.126 109.782L144.686 109.747L144.684 109.387L142.468 109.401L142.456 107.216L144.673 107.203L144.671 106.843L139.111 106.877L139.113 107.237Z" fill="black" />
				<path d="M139.355 88.7739L139.016 88.7758L139.031 91.6804L144.591 91.6453L144.575 88.7412L144.236 88.7431L144.249 91.2879L142.372 91.2992L142.364 89.6898L142.024 89.6922L142.032 91.3016L139.369 91.3182L139.355 88.7739Z" fill="black" />
				<path d="M135.503 109.771L137.455 109.765L137.392 88.6045L135.44 88.6103L135.503 109.771Z" fill="#EB5757" />
				<path d="M140.595 81.7511L136.31 86.7046L133.422 83.2506L133.436 83.2335L132.307 81.8834C131.516 80.9353 131.538 79.405 132.354 78.4593L132.379 78.4299C133.197 77.4817 134.502 77.4817 135.292 78.4299L136.422 79.78L137.505 78.5275C138.335 77.5685 139.658 77.569 140.459 78.5275L140.636 78.7394C141.333 79.5714 141.314 80.9196 140.595 81.7511Z" fill="#EB5757" />
				<path d="M76.1354 109.4C75.406 109.009 74.8192 108.397 74.459 107.652C74.0798 106.886 73.8901 105.963 73.8901 104.884V88.7719H77.0693V104.985C77.0693 105.592 77.2186 106.057 77.5173 106.38C77.816 106.703 78.2398 106.864 78.7888 106.864C79.3472 106.864 79.7783 106.702 80.0821 106.38C80.3858 106.057 80.5375 105.592 80.5372 104.985V88.7719H83.7168V104.884C83.7168 105.963 83.5216 106.886 83.1313 107.652C82.7638 108.394 82.1759 109.005 81.4479 109.4C80.7156 109.8 79.8292 110 78.7888 110C77.7566 109.999 76.8721 109.799 76.1354 109.4Z" fill="#424242" />
				<path d="M88.1078 109.393C87.339 109.009 86.7062 108.399 86.2945 107.644C85.8754 106.884 85.6658 105.964 85.6658 104.884V93.6709C85.6658 92.592 85.8754 91.6694 86.2945 90.9033C86.7036 90.1471 87.3371 89.5363 88.1078 89.155C88.8979 88.7555 89.8517 88.5556 90.9693 88.5553C92.0868 88.555 93.0405 88.7549 93.8303 89.155C94.6011 89.5363 95.2347 90.1471 95.6441 90.9033C96.0632 91.6694 96.2727 92.592 96.2727 93.6709V104.884C96.2727 105.963 96.0632 106.883 95.6441 107.644C95.2321 108.399 94.5992 109.009 93.8303 109.393C93.0402 109.798 92.0865 110 90.9693 110C89.852 110 88.8982 109.798 88.1078 109.393ZM92.1108 106.619C92.4227 106.451 92.6751 106.191 92.8333 105.874C92.9967 105.551 93.0786 105.163 93.0789 104.711V93.8297C93.0789 93.3768 92.997 92.9891 92.8333 92.6664C92.6762 92.3508 92.4233 92.0929 92.1108 91.9297C91.7926 91.7609 91.412 91.6765 90.9693 91.6765C90.5265 91.6765 90.146 91.7609 89.8277 91.9297C89.515 92.0928 89.2619 92.3507 89.1047 92.6664C88.941 92.9891 88.8592 93.3768 88.8592 93.8297V104.711C88.8592 105.164 88.941 105.552 89.1047 105.874C89.263 106.191 89.5156 106.451 89.8277 106.619C90.1437 106.792 90.5243 106.878 90.9693 106.878C91.4143 106.878 91.7948 106.792 92.1108 106.619Z" fill="#424242" />
				<path d="M98.7003 88.7719H101.879V109.783H98.7003V88.7719ZM101.213 100.275L105.996 88.7719H109.536L101.084 106.158L101.213 100.275ZM102.932 98.4395L105.086 96.2863L110.201 109.783H106.675L102.932 98.4395Z" fill="#424242" />
				<path d="M112.638 109.407C111.882 109.031 111.261 108.431 110.86 107.687C110.449 106.936 110.25 106.021 110.261 104.942V103.858L113.411 103.83V104.87C113.411 105.515 113.587 106.016 113.939 106.373C114.29 106.729 114.793 106.907 115.448 106.907C116.075 106.907 116.559 106.731 116.901 106.38C117.243 106.029 117.414 105.53 117.414 104.884V103.049C117.414 102.596 117.298 102.211 117.067 101.893C116.828 101.568 116.526 101.295 116.179 101.091C115.817 100.874 115.323 100.616 114.697 100.318C114.667 100.308 114.638 100.296 114.611 100.282C114.583 100.268 114.554 100.256 114.524 100.246L114.334 100.159C113.506 99.7546 112.812 99.3501 112.254 98.9453C111.695 98.5404 111.226 97.9913 110.846 97.2979C110.466 96.6042 110.277 95.7371 110.277 94.6967V93.5552C110.277 92.4955 110.477 91.5899 110.876 90.8383C111.265 90.0972 111.879 89.4993 112.631 89.1317C113.401 88.7468 114.331 88.5541 115.42 88.5538C116.489 88.5538 117.4 88.7488 118.151 89.1388C118.89 89.5162 119.489 90.1185 119.863 90.8587C120.253 91.6147 120.453 92.5274 120.463 93.5969V94.7384L117.298 94.7673V93.6836C117.298 93.02 117.135 92.5118 116.807 92.1591C116.48 91.8063 116.017 91.6306 115.42 91.6319C114.774 91.6319 114.283 91.798 113.946 92.1301C113.608 92.4623 113.44 92.9223 113.44 93.5101V94.8688C113.44 95.3312 113.553 95.7262 113.78 96.054C114.004 96.3806 114.297 96.6546 114.638 96.857C114.986 97.064 115.463 97.3121 116.069 97.6013C116.156 97.6399 116.24 97.6808 116.322 97.7241C116.404 97.7672 116.488 97.8132 116.575 97.8611C116.604 97.871 116.637 97.8829 116.676 97.8976C116.712 97.9106 116.746 97.9274 116.777 97.9478C117.596 98.3432 118.256 98.719 118.757 99.0752C119.258 99.4313 119.687 99.9346 120.043 100.585C120.399 101.235 120.577 102.071 120.578 103.092V104.926C120.578 106.005 120.378 106.925 119.978 107.686C119.593 108.432 118.981 109.037 118.229 109.413C117.464 109.803 116.537 109.998 115.447 109.998C114.35 109.998 113.414 109.801 112.638 109.407Z" fill="#424242" />
				<path d="M126.287 88.7719H128.799L133.743 109.783H130.492L127.544 94.538L124.596 109.783H121.344L126.287 88.7719ZM124.61 102.89H130.593V105.852H124.61V102.89Z" fill="#424242" />
				<path d="M44.8754 50.4497C43.9893 51.9591 42.8601 50.9948 41.6858 50.9711L42.1276 52.1975C40.8244 54.1862 39.9611 54.4683 37.9259 53.4604C37.1371 53.0703 36.5345 53.2201 35.8846 53.7572C34.7942 54.6579 34.7714 54.6309 33.8129 54.8143C33.4108 54.0824 33.7763 53.4599 34.1921 52.9323C35.2943 51.5376 36.4449 50.1828 37.5993 48.8279C38.5849 47.6736 39.9516 47.8897 41.1254 48.1832C42.4993 48.5273 43.7485 49.2963 44.8754 50.4497Z" fill="#424242" />
				<path d="M33.9783 47.1179C35.1416 45.8332 35.9125 44.8372 36.8308 44.0043C38.0307 42.9139 39.5041 42.4356 41.1254 42.7907C42.1641 43.0182 43.1696 43.3999 44.525 43.8147C43.9343 44.4461 43.6432 45.0264 43.2038 45.18C41.3847 45.8138 39.5235 46.2888 37.7296 47.0464C36.7744 47.4503 35.5081 47.1179 33.9783 47.1179Z" fill="#424242" />
				<path d="M133.487 23.0076C133.174 23.0033 132.859 22.9971 132.539 22.971C131.935 22.9236 131.354 22.8492 130.78 22.7639C130.296 22.8037 129.798 22.8663 129.351 22.7478C127.476 22.2491 125.682 21.5868 124.062 20.5884C123.978 20.5453 123.895 20.5078 123.811 20.4633C122.83 19.9428 121.956 19.2396 121.238 18.3916C120.972 18.2285 120.683 18.0892 120.416 17.9242C117.612 19.7863 114.99 21.7058 111.804 23.3166C112.841 19.7138 114.944 16.8519 115.666 13.5244C115.037 13.5213 114.41 13.4607 113.792 13.3433C113.56 13.3196 113.333 13.2755 113.104 13.2367C112.712 13.4542 112.361 13.8107 112.043 14.3099C110.842 16.1943 109.048 17.47 107.289 18.7566C106.009 19.6939 104.653 20.5401 102.89 20.9127C102.926 20.3263 102.874 19.8645 102.996 19.4559C103.383 18.1598 103.862 16.8917 104.255 15.597C104.686 14.1748 105.137 12.746 105.435 11.2911C105.663 10.1856 105.367 9.84853 104.226 9.66886C101.934 9.30952 101.295 9.74376 99.9324 11.6926C98.3893 13.8989 97.0339 16.2564 95.3248 18.3233C92.6852 21.5147 89.4786 23.995 85.3295 25.0266C84.1846 25.311 83.1923 25.2499 82.2285 24.3904C83.0876 21.5896 84.0997 18.787 83.8352 15.835C83.5778 12.965 84.195 9.93434 82.6282 7.00226C82.2627 7.40332 82.0408 7.57398 81.9138 7.79821C81.122 9.19527 80.2616 10.5629 79.5908 12.0174C77.6177 16.2963 74.7443 19.8029 70.8579 22.4586C69.6172 23.3072 68.3823 24.2159 66.6528 24.6227C66.8017 23.9239 66.8647 23.4228 67.0164 22.9497C67.6124 21.0881 67.5493 19.2046 67.2312 17.315C67.0122 16.0132 66.7187 14.7247 66.4883 13.4249C66.0067 10.7014 66.0972 8.06464 67.5313 5.57581C67.9229 4.89742 68.1225 4.08393 68.2799 3.306C68.3519 2.9514 68.1097 2.53233 67.9177 1.78331C65.4373 3.66012 63.2073 5.26482 61.082 6.99799C60.2993 7.63703 59.5123 8.48323 59.1639 9.40101C58.0688 12.2819 55.9459 14.4104 54.1212 16.7575C53.7647 17.2164 53.1834 17.4994 52.607 17.9394C52.589 17.6051 52.5477 17.4904 52.5837 17.4089C53.6632 14.9618 54.0505 12.3753 54.2539 9.72907C54.352 8.45289 53.3631 7.86647 52.2628 8.0433C51.4654 8.1713 51.4142 8.87576 51.1407 9.42188C50.2432 11.2124 49.4918 13.103 48.3849 14.7541C47.2779 16.4053 45.8334 17.8507 43.6218 18.0299C42.5874 16.9742 42.6135 15.2329 41.1462 14.5593C40.7077 14.7745 40.3095 15.0035 39.8871 15.1727C38.6469 15.6705 38.1733 15.3913 37.7125 14.1298C37.1038 12.462 37.2323 10.8801 38.0387 9.32706C38.6284 8.18931 38.5824 7.20611 37.6414 6.19825C36.2666 4.72866 35.0961 3.09599 34.8624 1.00158C34.311 0.776873 33.7592 0.543634 33.2472 0.290485C33.1766 0.255878 33.1078 0.218903 33.0396 0.179556C32.9447 0.12409 32.8499 0.0596181 32.7551 -0.00390625C32.4915 0.185719 32.3095 0.481059 32.1862 0.860308C31.056 4.36268 30.0946 7.89918 29.9638 11.6101C29.9031 13.331 29.6836 15.0533 29.7353 16.7689C29.8324 19.9759 30.0358 23.1811 30.27 26.3819C30.4364 28.6536 31.5448 30.6357 32.4858 32.6396C34.1176 36.1187 34.1778 35.2526 31.1584 37.6992C28.5543 39.8088 26.4329 42.1848 25.0903 45.2558C24.5797 46.4239 23.9724 47.6204 22.8147 48.2078C20.7217 49.2706 19.454 51.1043 18.0038 52.8062C16.3114 54.7949 14.9778 57.1618 12.4097 58.2797C11.5704 58.6534 10.7631 59.0952 9.99576 59.6004C7.6197 61.1387 5.35931 62.8828 3.91054 65.3323C2.57318 67.5931 1.59089 70.0649 0.457857 72.4461C-0.0854321 73.5876 -0.0897004 74.7733 0.142122 75.9935C0.574952 78.269 1.91421 79.9538 3.66544 81.3267C4.88192 82.2805 6.3103 81.8956 7.64766 81.6111C8.62378 81.4059 8.95184 81.8842 9.29318 82.6612C9.76725 83.7421 10.2484 84.8717 10.9785 85.7777C12.0589 87.1188 13.0123 87.1695 14.4611 86.2517C15.0878 85.8545 15.6614 85.3738 16.2659 84.9244C16.4906 85.0381 16.6987 85.1296 16.8945 85.2439C19.0392 86.4907 20.9857 86.192 22.9446 84.7077C24.2801 83.6946 25.1064 82.3374 25.9953 81.01C26.5343 80.2041 27.0439 79.411 28.0447 78.6828C28.7084 80.4843 29.3456 82.1075 29.8936 83.7586C30.361 85.1638 30.6995 86.6115 31.1452 88.0252C31.615 89.5166 32.72 89.8712 33.8891 88.8083C34.4973 88.2561 34.96 87.4677 35.281 86.6988C35.5465 86.0612 35.9527 85.7032 36.5316 85.7122C37.5371 85.7293 38.0742 85.1083 38.6905 84.4915C39.3324 83.8497 39.98 82.9229 40.7561 82.765C42.6552 82.3777 43.7366 81.1774 44.7435 79.731C45.0346 79.3134 45.337 78.771 46.0017 78.8009C46.0491 79.0024 46.1254 79.1327 46.0894 79.2129C45.8998 79.631 45.6523 80.0244 45.4783 80.4483C45.2621 80.9759 44.9938 81.513 44.9336 82.0658C44.8066 83.2339 45.7964 83.9369 46.8228 83.3694C47.4457 83.0248 47.9667 82.4498 48.4451 81.8998C49.177 81.0608 49.6355 79.9733 50.8865 79.2072C50.7633 79.7893 50.7391 80.1259 50.6211 80.425C49.782 82.555 48.9111 84.6717 48.0857 86.8069C47.9591 87.1344 48.0165 87.5331 47.9767 88.0579C48.7129 87.8953 49.2567 87.7531 49.8076 87.6578C51.3677 87.3876 53.7926 88.2504 54.3847 89.4668C55.4064 91.566 56.4877 93.6737 57.1699 95.8927C58.2944 99.5497 59.1108 103.301 60.0836 107.006C60.2415 107.606 60.4628 108.214 60.7824 108.742C61.7893 110.411 64.4256 110.325 65.2861 108.559C65.9607 107.175 66.5044 105.721 67.0245 104.27C67.6598 102.496 68.2007 100.689 68.798 98.9016C69.1616 97.8141 69.5641 96.7399 69.9358 95.6548C70.8934 92.8493 71.8098 90.0291 72.8077 87.2378C73.424 85.515 74.0147 83.7136 75.3289 82.3995C76.4666 81.2618 77.1247 79.9396 77.6333 78.4757C77.7665 78.0917 77.9178 77.7148 78.0738 77.3379C78.1766 76.4742 78.3411 75.6019 78.6564 74.788C78.2819 75.1291 77.8876 75.4477 77.4755 75.7422C77.4396 75.7683 77.4004 75.7894 77.3588 75.8048C76.194 76.9392 74.8325 77.822 73.4876 78.7544C71.6922 79.9988 70.1103 81.5282 69.5698 83.8269C69.2996 84.9923 68.9545 86.1391 68.5368 87.2601C66.6329 92.3136 64.9168 97.4197 63.8326 102.723C63.6903 103.416 63.3585 104.069 63.1129 104.742C62.5834 104.268 62.3601 103.818 62.2316 103.341C61.7101 101.407 61.2536 99.4539 60.7023 97.5283C60.1049 95.4424 59.455 93.366 58.7761 91.3033C58.402 90.1656 58.0432 88.9961 57.4629 87.9612C56.1583 85.6354 54.7868 85.0562 52.1888 85.4691C52.0518 85.4909 51.8916 85.3652 51.7622 85.3159C51.7465 85.1548 51.6963 85.0286 51.7299 84.931C53.4428 79.9533 55.1224 74.961 56.9007 70.0051C57.6985 67.7813 57.754 67.6822 55.7743 66.1041C53.9998 67.787 53.7789 70.5034 51.7418 72.3262C51.8399 71.8564 51.8508 71.6269 51.9352 71.4292C52.6504 69.7542 53.3739 68.0844 54.1055 66.4198C54.8237 64.7786 54.453 63.6053 52.8255 62.6273C51.1188 65.4385 49.5132 68.3227 47.6704 71.0467C45.8215 73.7811 44.406 76.8648 41.8251 78.99C41.1567 78.8421 40.61 78.7213 40.0236 78.5904L37.3285 82.0624C35.2345 81.6495 35.2426 81.6538 34.2546 83.259C33.9967 83.6785 33.68 84.0616 33.3344 84.5389C33.0708 84.2886 32.8348 84.1682 32.7722 83.9876C32.3028 82.6384 31.8809 81.2722 31.4187 79.9202C30.9565 78.5681 30.5834 77.1578 29.9533 75.8811C29.027 74.0062 27.3933 73.9806 26.2769 75.711C26.1214 75.9527 25.9924 76.213 25.826 76.4467C24.4621 78.3619 23.1712 80.334 21.7016 82.1658C20.4249 83.7548 19.0619 83.5638 17.9905 81.8235C17.7801 81.4817 17.68 81.065 17.4368 80.754C17.0879 80.3084 16.7115 79.8405 16.2441 79.5442C15.5619 79.1114 15.1105 79.3665 14.8692 80.1818C14.7076 80.7294 14.5473 81.2774 14.4046 81.8292C14.2041 82.6048 14.0121 83.3789 13.0379 83.8506C12.77 83.4766 12.424 83.1571 12.2846 82.7645C12.0177 82.0117 11.8318 81.2238 11.6768 80.4378C11.3824 78.9398 11.1553 78.7725 9.6914 78.5691C8.33792 78.3795 7.08399 78.598 5.97371 79.2057C3.8271 78.0154 2.49495 75.8266 2.98704 73.9555C3.69815 71.2349 4.80322 68.5758 6.52221 66.3928C8.58349 63.775 11.263 61.7432 14.3776 60.3651C15.3068 59.9541 16.3024 59.4402 16.9499 58.6964C18.2682 57.1818 19.4609 55.5624 20.5164 53.8543C21.4281 52.379 22.5075 51.1616 24.1194 50.5558C25.5274 50.0282 26.3508 49.0388 26.8889 47.7114C27.0838 47.2326 27.3293 46.7742 27.5484 46.3044C28.9232 43.3605 31.0044 41.0603 33.7217 39.2802C35.0145 38.4335 36.2135 37.4375 37.4157 36.4605C38.28 35.7579 38.3212 35.3483 37.548 34.6401C35.2554 32.54 34.0873 29.8402 33.1732 26.9489C32.5361 24.9389 32.4621 22.9061 32.4086 20.8397C32.2924 16.1768 32.456 11.5333 33.1586 6.91598C33.2301 6.44761 33.2567 5.98445 33.9986 5.92567C34.1408 6.16696 34.257 6.49454 34.4779 6.71735C35.3938 7.64461 35.3132 8.66101 35.1416 9.88409C34.8941 11.6286 34.8984 13.4424 35.062 15.2016C35.2042 16.7096 36.3154 17.5848 37.7831 17.936C38.1743 18.0308 38.5753 18.1133 38.975 18.1309C40.0554 18.1783 40.7011 18.6296 41.1036 19.7185C41.7976 21.6001 43.1919 22.1049 44.9601 21.1018C46.1927 20.4026 47.2722 19.4336 48.4209 18.5893C48.7442 18.3523 49.0742 18.1233 49.4008 17.8905C49.4553 18.4722 49.3321 18.8386 49.1751 19.1937C48.9921 19.6081 48.7233 19.9925 48.5911 20.4206C48.3142 21.3175 48.6186 21.8636 49.5236 22.5866C50.202 23.1284 50.7562 23.0076 51.3682 22.5088C52.569 21.5356 53.8808 20.6828 54.9901 19.6171C57.6506 17.0571 59.8878 14.1677 61.4428 10.7763C61.8576 9.87223 62.5568 9.12464 63.5761 8.7378C64.008 12.0491 64.3536 15.1808 64.8518 18.2878C65.0566 19.5678 65.1415 20.8036 64.7328 22.0139C64.237 23.4835 63.5889 24.901 63.0797 26.3663C62.8801 26.9423 62.755 27.5988 62.8114 28.1962C62.9095 29.2391 64.1033 29.7772 64.9921 29.2192C67.4668 27.6704 69.9187 26.0852 72.3877 24.526C75.9717 22.2619 78.4459 18.9719 80.7489 15.5188C80.9021 15.2893 81.1377 15.1144 81.6307 14.6152C81.3491 17.7161 81.2491 20.3988 79.9241 22.8525C79.6496 23.3548 79.4408 23.8903 79.303 24.4459C78.8925 26.1586 79.532 27.1338 81.2173 27.4476C84.7084 28.099 87.9449 27.3955 90.942 25.5514C94.7346 23.2166 97.5402 19.8949 100.058 16.2986C100.675 15.4202 101.269 14.528 101.874 13.6439C102.116 14.1383 102.104 14.4811 101.995 14.7906C101.142 17.2292 100.284 19.6673 99.3919 22.0912C99.0601 22.9919 99.015 23.8514 99.4498 24.9356C100.138 24.827 100.863 24.8725 101.431 24.5952C103.843 23.4157 106.205 22.1353 108.589 20.9037C109.016 20.6832 109.471 20.5168 109.913 20.3253L110.17 20.5718C109.893 21.1744 109.664 21.8044 109.329 22.3733C108.485 23.8073 107.595 25.2176 106.716 26.6299C106.443 27.0703 106.068 27.4927 106.804 28.0682C108.155 27.5363 109.592 26.9944 111.011 26.4089C113.815 25.2494 116.587 24.0073 119.423 22.9355C120.09 22.6838 120.977 22.8942 121.733 23.0412C122.273 23.146 122.76 23.5072 123.276 23.7438C125.68 24.846 128.259 25.1731 131.122 25.3888C130.829 26.5872 130.655 27.7117 130.278 28.7631C128.755 33.007 126.271 36.6672 123.053 39.7789C120.697 42.0582 118.108 44.0929 114.71 44.6589C113.636 44.8376 112.564 45.0429 111.482 45.1472C106.97 45.581 102.462 46.1081 97.9389 46.3641C91.2739 46.7401 84.597 46.9126 77.9258 47.1814C77.6101 47.1942 77.2982 47.2952 76.8355 47.3834C77.4949 48.587 78.1894 49.3408 79.5467 49.2232C81.8796 49.0217 83.8812 49.9542 85.7822 51.1669C88.3754 52.8261 90.6699 54.9968 93.7054 55.8899C94.956 56.2583 96.2469 56.5607 97.5407 56.6958C99.4237 56.8921 101.325 56.9172 103.22 56.9973C103.504 57.0092 103.791 56.9248 104.263 56.8594C102.075 55.1409 99.8906 54.2203 97.2733 54.2814C96.2246 54.3056 95.0925 54.0093 94.1245 53.5732C92.1419 52.6786 90.2333 51.6144 88.3213 50.57C87.7615 50.2642 87.2158 49.8589 86.9688 49.2023C87.1916 49.0758 87.2864 48.9767 87.3874 48.9701C91.2838 48.7141 95.1793 48.4386 99.0781 48.2258C102.349 48.0471 105.651 48.1362 108.897 47.7517C112.595 47.316 116.471 47.3725 119.703 44.9927C121.09 43.972 122.634 43.1438 123.93 42.0246C127.327 39.0882 129.981 35.5223 131.732 31.4056C132.664 29.2111 133.134 26.8043 133.66 24.4591C133.815 23.7973 133.743 23.3219 133.487 23.0076Z" fill="#424242" />
				<path d="M5.37262 73.6199C5.78601 72.568 6.05671 71.6099 6.53837 70.7727C6.76356 70.3821 7.37274 70.0711 7.85013 69.9976C8.71579 69.8644 9.04006 70.2683 8.78596 71.1586C8.48098 72.2461 8.08859 73.3072 7.61262 74.3315C7.38791 74.8055 6.8029 75.2279 6.24681 74.8529C5.85475 74.5856 5.65469 74.0366 5.37262 73.6199Z" fill="#424242" />
			</g>
			<defs>
				<clipPath id="clip0">
					<rect width="144.7" height="110" fill="white" />
				</clipPath>
			</defs>
		</g>
	</svg>

	<svg viewBox="0 0 13 18" fill="none" xmlns="http://www.w3.org/2000/svg">
		<g id="location" class="img">
			<g clip-path="url(#clip0)">
				<path d="M6.5 18.25L6.1 17.8C5.85 17.55 0 10.65 0 6.5C0 2.9 2.9 0 6.5 0C10.1 0 13 2.9 13 6.5C13 10.65 7.15 17.55 6.9 17.85L6.5 18.25ZM6.5 1C3.45 1 1 3.45 1 6.5C1 9.7 5.2 15.1 6.5 16.7C7.8 15.1 12 9.7 12 6.5C12 3.45 9.55 1 6.5 1Z" fill="#7EC0A4" />
				<path d="M6.5 9C5.1 9 4 7.9 4 6.5C4 5.1 5.1 4 6.5 4C7.9 4 9 5.1 9 6.5C9 7.9 7.9 9 6.5 9ZM6.5 5C5.65 5 5 5.65 5 6.5C5 7.35 5.65 8 6.5 8C7.35 8 8 7.35 8 6.5C8 5.65 7.35 5 6.5 5Z" fill="#7EC0A4" />
			</g>
			<defs>
				<clipPath id="clip0">
					<rect width="13" height="18" fill="white" />
				</clipPath>
			</defs>
		</g>
	</svg>

	<svg viewBox="0 0 18 18" fill="none" xmlns="http://www.w3.org/2000/svg">
		<g id="phone" class="img">
			<path d="M17.5277 13.8863L13.8844 11.4566C13.4221 11.1508 12.8023 11.2514 12.4605 11.6879L11.3993 13.0524C11.2629 13.2322 11.015 13.2844 10.8177 13.1748L10.6158 13.0635C9.94657 12.6987 9.11391 12.2446 7.43626 10.5663C5.75861 8.88809 5.30358 8.0548 4.93882 7.38683L4.82812 7.18495C4.71701 6.98769 4.76819 6.73871 4.94809 6.60124L6.31167 5.54031C6.74797 5.19846 6.84875 4.57889 6.54325 4.11641L4.11361 0.473146C3.80052 0.00219231 3.17237 -0.139185 2.68767 0.152182L1.16419 1.06734C0.685504 1.34876 0.33431 1.80453 0.184251 2.33914C-0.364352 4.33804 0.0483563 7.78783 5.13021 12.8703C9.17272 16.9125 12.1822 17.9995 14.2507 17.9995C14.7267 18.0016 15.2009 17.9396 15.6605 17.8154C16.1952 17.6655 16.651 17.3143 16.9323 16.8354L17.8484 15.3129C18.1401 14.8281 17.9988 14.1995 17.5277 13.8863ZM17.3315 15.0051L16.4175 16.5286C16.2156 16.8742 15.8877 17.1283 15.5027 17.2377C13.6573 17.7443 10.4334 17.3247 5.55463 12.4459C0.675838 7.56708 0.25624 4.34345 0.762872 2.49785C0.872402 2.11231 1.12683 1.78403 1.47285 1.58177L2.99633 0.667812C3.20664 0.541269 3.47927 0.602607 3.61513 0.806975L4.93495 2.78847L6.0427 4.44992C6.17536 4.65053 6.13177 4.9194 5.94252 5.06784L4.57862 6.12877C4.16356 6.44615 4.04503 7.02041 4.30058 7.47618L4.40888 7.67296C4.79224 8.37605 5.26885 9.25071 7.00889 10.9905C8.74894 12.7302 9.62332 13.2069 10.3261 13.5902L10.5232 13.6988C10.9789 13.9543 11.5532 13.8358 11.8706 13.4207L12.9315 12.0568C13.08 11.8677 13.3487 11.8241 13.5494 11.9566L17.1924 14.3863C17.3969 14.522 17.4582 14.7948 17.3315 15.0051Z" fill="#7EC0A4" />
		</g>
	</svg>

	<svg viewBox="0 0 14 16" fill="none" xmlns="http://www.w3.org/2000/svg">
		<g id="percent" class="img">
			<path d="M3.30254 6.65196C4.83232 6.65196 6.07212 5.41179 6.07212 3.88238C6.07249 2.3526 4.83232 1.11243 3.30254 1.11243C1.77276 1.11243 0.532959 2.3526 0.532959 3.88201C0.534452 5.41104 1.7735 6.6501 3.30254 6.65196ZM3.30254 2.45001C4.09337 2.45001 4.73454 3.09118 4.73454 3.88201C4.73492 4.67321 4.09374 5.31438 3.30254 5.31438C2.51171 5.31438 1.87054 4.67321 1.87054 3.88201C1.87129 3.09155 2.51208 2.45113 3.30254 2.45001Z" fill="#EB5757" />
			<path d="M7.75977 12.2859C7.75977 13.8157 8.99993 15.0555 10.5293 15.0555C12.0591 15.0555 13.2993 13.8157 13.2993 12.2859C13.2993 10.7561 12.0591 9.51596 10.5293 9.51596C9.00031 9.51783 7.76163 10.7569 7.75977 12.2859ZM11.9617 12.2859C11.9617 13.0767 11.3205 13.7179 10.5293 13.7179C9.73851 13.7179 9.09734 13.0767 9.09734 12.2859C9.09734 11.4951 9.73851 10.8539 10.5293 10.8535C11.3202 10.8547 11.9606 11.4951 11.9617 12.2859Z" fill="#EB5757" />
			<path d="M1.90757 15.8083C2.21696 16.0102 2.6316 15.9228 2.83313 15.6134L12.2872 1.11727C12.4182 0.916854 12.4324 0.661953 12.3246 0.448477C12.2163 0.235002 12.0025 0.0954222 11.7636 0.082733C11.5248 0.070044 11.2971 0.185739 11.1669 0.386525L1.71276 14.8827C1.51085 15.1925 1.59818 15.6067 1.90757 15.8083Z" fill="#EB5757" />
		</g>
	</svg>

	<svg viewBox="0 0 20 20" fill="none" xmlns="http://www.w3.org/2000/svg">
		 <g id="search" class="img">
			<path d="M18.6299 18.8804L18.6298 18.8803L13.3201 13.3583C14.6717 11.9853 15.5075 10.1027 15.5075 8.02821C15.5075 3.8362 12.0975 0.426196 7.90553 0.426196C3.71352 0.426196 0.303516 3.8362 0.303516 8.02821C0.303516 12.2202 3.71352 15.6302 7.90553 15.6302C9.72894 15.6302 11.4038 14.9843 12.7147 13.9106L18.0391 19.448C18.1195 19.5321 18.227 19.5738 18.3345 19.5738C18.4369 19.5738 18.5389 19.5357 18.6183 19.4596L18.6184 19.4595C18.7814 19.3026 18.7863 19.0434 18.6299 18.8804ZM7.90553 14.811C4.16541 14.811 1.12276 11.7683 1.12276 8.02821C1.12276 4.28809 4.16541 1.24544 7.90553 1.24544C11.6457 1.24544 14.6883 4.28809 14.6883 8.02821C14.6883 11.7683 11.6453 14.811 7.90553 14.811Z" fill="#424242" stroke="#424242" stroke-width="0.1" />
		</g>
	</svg>

	<svg viewBox="0 0 20 20" fill="none" xmlns="http://www.w3.org/2000/svg">
		 <g id="search-hover" class="img">
			<path d="M18.6299 18.8804L18.6298 18.8803L13.3201 13.3583C14.6717 11.9853 15.5075 10.1027 15.5075 8.02821C15.5075 3.8362 12.0975 0.426196 7.90553 0.426196C3.71352 0.426196 0.303516 3.8362 0.303516 8.02821C0.303516 12.2202 3.71352 15.6302 7.90553 15.6302C9.72894 15.6302 11.4038 14.9843 12.7147 13.9106L18.0391 19.448C18.1195 19.5321 18.227 19.5738 18.3345 19.5738C18.4369 19.5738 18.5389 19.5357 18.6183 19.4596L18.6184 19.4595C18.7814 19.3026 18.7863 19.0434 18.6299 18.8804ZM7.90553 14.811C4.16541 14.811 1.12276 11.7683 1.12276 8.02821C1.12276 4.28809 4.16541 1.24544 7.90553 1.24544C11.6457 1.24544 14.6883 4.28809 14.6883 8.02821C14.6883 11.7683 11.6453 14.811 7.90553 14.811Z" fill="#7EC0A4" stroke="#7EC0A4" stroke-width="0.1" />
		</g>
	</svg>

	<svg viewBox="0 0 20 20" fill="none" xmlns="http://www.w3.org/2000/svg">
		 <g id="search-white" class="img">
			<path d="M18.6299 18.8804L18.6298 18.8803L13.3201 13.3583C14.6717 11.9853 15.5075 10.1027 15.5075 8.02821C15.5075 3.8362 12.0975 0.426196 7.90553 0.426196C3.71352 0.426196 0.303516 3.8362 0.303516 8.02821C0.303516 12.2202 3.71352 15.6302 7.90553 15.6302C9.72894 15.6302 11.4038 14.9843 12.7147 13.9106L18.0391 19.448C18.1195 19.5321 18.227 19.5738 18.3345 19.5738C18.4369 19.5738 18.5389 19.5357 18.6183 19.4596L18.6184 19.4595C18.7814 19.3026 18.7863 19.0434 18.6299 18.8804ZM7.90553 14.811C4.16541 14.811 1.12276 11.7683 1.12276 8.02821C1.12276 4.28809 4.16541 1.24544 7.90553 1.24544C11.6457 1.24544 14.6883 4.28809 14.6883 8.02821C14.6883 11.7683 11.6453 14.811 7.90553 14.811Z" fill="#ffffff" stroke="#ffffff" stroke-width="0.1" />
		</g>
	</svg>

	<svg viewBox="0 0 21 20" fill="none" xmlns="http://www.w3.org/2000/svg">
		<g id="login" class="img">
			<path d="M13.4851 5.625C13.332 7.69023 11.7664 9.375 10.0476 9.375C8.32889 9.375 6.76053 7.69063 6.61014 5.625C6.45389 3.47656 7.97733 1.875 10.0476 1.875C12.118 1.875 13.6414 3.51562 13.4851 5.625Z" stroke="#424242" stroke-linecap="round" stroke-linejoin="round" />
			<path d="M10.0477 11.875C6.64926 11.875 3.20005 13.75 2.56176 17.2891C2.48481 17.7156 2.72622 18.125 3.1727 18.125H16.9227C17.3696 18.125 17.611 17.7156 17.534 17.2891C16.8954 13.75 13.4461 11.875 10.0477 11.875Z" stroke="#424242" stroke-miterlimit="10" />
		</g>
	</svg>

	<svg viewBox="0 0 21 20" fill="none" xmlns="http://www.w3.org/2000/svg">
		<g id="login-hover" class="img">
			<path d="M13.4851 5.625C13.332 7.69023 11.7664 9.375 10.0476 9.375C8.32889 9.375 6.76053 7.69063 6.61014 5.625C6.45389 3.47656 7.97733 1.875 10.0476 1.875C12.118 1.875 13.6414 3.51562 13.4851 5.625Z" stroke="#7EC0A4" stroke-linecap="round" stroke-linejoin="round" />
			<path d="M10.0477 11.875C6.64926 11.875 3.20005 13.75 2.56176 17.2891C2.48481 17.7156 2.72622 18.125 3.1727 18.125H16.9227C17.3696 18.125 17.611 17.7156 17.534 17.2891C16.8954 13.75 13.4461 11.875 10.0477 11.875Z" stroke="#7EC0A4" stroke-miterlimit="10" />
		</g>
	</svg>

	<svg viewBox="0 0 20 13" fill="none" xmlns="http://www.w3.org/2000/svg">
		<g id="butter" class="img">
			<line x1="0.5" y1="0.5" x2="19.5" y2="0.5" stroke="#424242" stroke-linecap="round" stroke-linejoin="round" />
			<line x1="0.5" y1="6.5" x2="19.5" y2="6.5" stroke="#424242" stroke-linecap="round" stroke-linejoin="round" />
			<line x1="0.5" y1="12.5" x2="19.5" y2="12.5" stroke="#424242" stroke-linecap="round" stroke-linejoin="round" />
		</g>
	</svg>

	<svg viewBox="0 0 20 13" fill="none" xmlns="http://www.w3.org/2000/svg">
		<g id="butter-hover" class="img">
			<line x1="0.5" y1="0.5" x2="19.5" y2="0.5" stroke="#7EC0A4" stroke-linecap="round" stroke-linejoin="round" />
			<line x1="0.5" y1="6.5" x2="19.5" y2="6.5" stroke="#7EC0A4" stroke-linecap="round" stroke-linejoin="round" />
			<line x1="0.5" y1="12.5" x2="19.5" y2="12.5" stroke="#7EC0A4" stroke-linecap="round" stroke-linejoin="round" />
		</g>
	</svg>

	<svg viewBox="0 0 21 16" fill="none" xmlns="http://www.w3.org/2000/svg">
		<g id="close" class="img">
			<line x1="3.05476" y1="1" x2="16.4898" y2="14.435" stroke="#424242" stroke-linecap="round" stroke-linejoin="round" />
			<line x1="3" y1="14.2929" x2="16.435" y2="0.85788" stroke="#424242" stroke-linecap="round" stroke-linejoin="round" />
		</g>
	</svg>

	<svg viewBox="0 0 21 16" fill="none" xmlns="http://www.w3.org/2000/svg">
		<g id="close-hover" class="img">
			<line x1="3.05476" y1="1" x2="16.4898" y2="14.435" stroke="#7EC0A4" stroke-linecap="round" stroke-linejoin="round" />
			<line x1="3" y1="14.2929" x2="16.435" y2="0.85788" stroke="#7EC0A4" stroke-linecap="round" stroke-linejoin="round" />
		</g>
	</svg>

	<svg viewBox="0 0 26 16" fill="none" xmlns="http://www.w3.org/2000/svg">
		<g id="arrow" class="img">
			<path opacity="0.2" d="M25.7071 8.70711C26.0976 8.31658 26.0976 7.68342 25.7071 7.29289L19.3431 0.928932C18.9526 0.538408 18.3195 0.538408 17.9289 0.928932C17.5384 1.31946 17.5384 1.95262 17.9289 2.34315L23.5858 8L17.9289 13.6569C17.5384 14.0474 17.5384 14.6805 17.9289 15.0711C18.3195 15.4616 18.9526 15.4616 19.3431 15.0711L25.7071 8.70711ZM0 9H25V7L0 7L0 9Z" fill="#424242" />
		</g>
	</svg>

	<svg viewBox="0 0 26 16" fill="none" xmlns="http://www.w3.org/2000/svg">
		<g id="arrow-hover" class="img">
			<path d="M25.7071 8.70711C26.0976 8.31658 26.0976 7.68342 25.7071 7.29289L19.3431 0.928932C18.9526 0.538408 18.3195 0.538408 17.9289 0.928932C17.5384 1.31946 17.5384 1.95262 17.9289 2.34315L23.5858 8L17.9289 13.6569C17.5384 14.0474 17.5384 14.6805 17.9289 15.0711C18.3195 15.4616 18.9526 15.4616 19.3431 15.0711L25.7071 8.70711ZM0 9H25V7L0 7L0 9Z" fill="#7EC0A4" />
		</g>
	</svg>

	<svg viewBox="0 0 145 110" fill="none" xmlns="http://www.w3.org/2000/svg">
		<g id="logo-white" class="img">
			<g clip-path="url(#clip0)">
				<path d="M139.041 93.6818L140.361 95.9867L139.066 98.3072L139.069 98.8121L144.629 98.7775L144.627 98.4177L139.381 98.4504L140.76 95.9843L139.355 93.5353L144.601 93.5026L144.599 93.1428L139.039 93.1774L139.041 93.6818Z" fill="white" />
				<path d="M139.042 102.533C139.05 104.117 140.322 105.392 141.886 105.382C143.45 105.373 144.709 104.081 144.7 102.498C144.691 100.915 143.42 99.639 141.856 99.6485C140.291 99.658 139.033 100.95 139.042 102.533ZM144.367 102.5C144.375 103.895 143.261 105.038 141.884 105.047C140.506 105.056 139.381 103.926 139.373 102.531C139.366 101.136 140.48 99.9936 141.857 99.9851C143.234 99.9765 144.362 101.105 144.367 102.5Z" fill="white" />
				<path d="M139.113 107.237L142.116 107.219L142.128 109.403L139.125 109.422L139.127 109.781L144.686 109.747L144.685 109.387L142.468 109.401L142.456 107.216L144.673 107.203L144.671 106.843L139.111 106.877L139.113 107.237Z" fill="white" />
				<path d="M139.355 88.7739L139.016 88.7758L139.031 91.6804L144.591 91.6453L144.575 88.7412L144.236 88.7431L144.249 91.2879L142.372 91.2992L142.364 89.6898L142.024 89.6922L142.032 91.3016L139.369 91.3182L139.355 88.7739Z" fill="white" />
				<path d="M135.503 109.771L137.455 109.765L137.392 88.6044L135.44 88.6102L135.503 109.771Z" fill="#EB5757" />
				<path d="M140.595 81.7511L136.31 86.7046L133.422 83.2506L133.436 83.2335L132.307 81.8834C131.516 80.9353 131.538 79.405 132.354 78.4592L132.379 78.4298C133.197 77.4817 134.502 77.4817 135.292 78.4298L136.422 79.78L137.505 78.5275C138.335 77.5685 139.658 77.5689 140.459 78.5275L140.636 78.7394C141.333 79.5714 141.314 80.9196 140.595 81.7511Z" fill="#EB5757" />
				<path d="M76.1354 109.4C75.406 109.009 74.8192 108.397 74.459 107.652C74.0798 106.886 73.8901 105.963 73.8901 104.884V88.772H77.0693V104.985C77.0693 105.592 77.2186 106.057 77.5173 106.38C77.816 106.703 78.2398 106.864 78.7888 106.864C79.3472 106.864 79.7783 106.702 80.0821 106.38C80.3858 106.057 80.5375 105.592 80.5372 104.985V88.772H83.7168V104.884C83.7168 105.963 83.5216 106.886 83.1313 107.652C82.7638 108.394 82.1759 109.005 81.4479 109.4C80.7156 109.8 79.8292 110 78.7888 110C77.7566 109.999 76.8721 109.799 76.1354 109.4Z" fill="white" />
				<path d="M88.1077 109.393C87.339 109.009 86.7062 108.399 86.2944 107.645C85.8753 106.884 85.6658 105.964 85.6658 104.885V93.671C85.6658 92.5921 85.8753 91.6695 86.2944 90.9035C86.7035 90.1472 87.3371 89.5364 88.1077 89.1551C88.8978 88.7556 89.8517 88.5557 90.9692 88.5554C92.0867 88.5551 93.0404 88.755 93.8302 89.1551C94.601 89.5364 95.2347 90.1472 95.644 90.9035C96.0631 91.6695 96.2726 92.5921 96.2726 93.671V104.885C96.2726 105.963 96.0631 106.884 95.644 107.645C95.2321 108.399 94.5991 109.009 93.8302 109.393C93.0401 109.798 92.0864 110 90.9692 110C89.852 110 88.8981 109.798 88.1077 109.393ZM92.1108 106.619C92.4227 106.451 92.6751 106.191 92.8333 105.874C92.9967 105.551 93.0785 105.164 93.0788 104.711V93.8298C93.0788 93.377 92.997 92.9892 92.8333 92.6665C92.6761 92.3509 92.4232 92.0931 92.1108 91.9298C91.7925 91.761 91.412 91.6767 90.9692 91.6767C90.5264 91.6767 90.1459 91.761 89.8276 91.9298C89.5149 92.0929 89.2619 92.3508 89.1047 92.6665C88.941 92.9892 88.8591 93.377 88.8591 93.8298V104.711C88.8591 105.164 88.941 105.552 89.1047 105.874C89.2629 106.191 89.5155 106.451 89.8276 106.619C90.1437 106.792 90.5242 106.878 90.9692 106.878C91.4142 106.878 91.7947 106.792 92.1108 106.619Z" fill="white" />
				<path d="M98.7003 88.772H101.879V109.783H98.7003V88.772ZM101.213 100.275L105.996 88.772H109.536L101.084 106.158L101.213 100.275ZM102.932 98.4395L105.086 96.2864L110.201 109.783H106.675L102.932 98.4395Z" fill="white" />
				<path d="M112.638 109.408C111.882 109.031 111.261 108.431 110.86 107.688C110.45 106.936 110.25 106.021 110.261 104.942V103.859L113.411 103.83V104.87C113.411 105.515 113.587 106.017 113.939 106.373C114.29 106.73 114.793 106.908 115.448 106.907C116.075 106.907 116.559 106.732 116.901 106.38C117.243 106.029 117.414 105.53 117.414 104.884V103.049C117.414 102.596 117.298 102.211 117.067 101.893C116.828 101.568 116.526 101.295 116.179 101.091C115.817 100.874 115.323 100.616 114.697 100.318C114.667 100.308 114.639 100.296 114.611 100.282C114.583 100.268 114.554 100.256 114.524 100.246L114.334 100.159C113.506 99.7548 112.812 99.3503 112.254 98.9454C111.695 98.5406 111.226 97.9914 110.846 97.298C110.466 96.6043 110.277 95.7373 110.277 94.6969V93.5553C110.277 92.4956 110.477 91.59 110.877 90.8385C111.265 90.0974 111.879 89.4995 112.631 89.1318C113.401 88.7469 114.331 88.5543 115.42 88.554C116.489 88.554 117.4 88.749 118.151 89.139C118.89 89.5164 119.489 90.1186 119.864 90.8589C120.254 91.6148 120.453 92.5276 120.463 93.597V94.7386L117.298 94.7675V93.6838C117.298 93.0201 117.135 92.5119 116.807 92.1592C116.48 91.8065 116.017 91.6308 115.42 91.6321C114.774 91.6321 114.283 91.7981 113.946 92.1303C113.608 92.4625 113.44 92.9224 113.44 93.5103V94.869C113.44 95.3313 113.553 95.7264 113.78 96.0541C114.004 96.3808 114.297 96.6548 114.638 96.8572C114.986 97.0642 115.463 97.3123 116.069 97.6014C116.156 97.64 116.24 97.6809 116.322 97.7242C116.404 97.7674 116.488 97.8134 116.575 97.8612C116.604 97.8712 116.637 97.883 116.676 97.8977C116.712 97.9107 116.746 97.9276 116.777 97.948C117.596 98.3434 118.256 98.7191 118.757 99.0753C119.258 99.4315 119.687 99.9348 120.043 100.585C120.399 101.236 120.577 102.071 120.578 103.093V104.926C120.578 106.005 120.378 106.925 119.978 107.686C119.593 108.432 118.981 109.037 118.229 109.413C117.464 109.803 116.537 109.998 115.448 109.998C114.35 109.998 113.414 109.801 112.638 109.408Z" fill="white" />
				<path d="M126.287 88.772H128.799L133.743 109.783H130.492L127.544 94.538L124.596 109.783H121.344L126.287 88.772ZM124.61 102.89H130.593V105.852H124.61V102.89Z" fill="white" />
				<path d="M44.8753 50.4497C43.9893 51.9591 42.86 50.9949 41.6857 50.9712L42.1276 52.1976C40.8243 54.1863 39.9611 54.4683 37.9259 53.4605C37.137 53.0703 36.5345 53.2201 35.8845 53.7572C34.7941 54.658 34.7714 54.6309 33.8128 54.8144C33.4108 54.0825 33.7763 53.46 34.1921 52.9324C35.2943 51.5377 36.4449 50.1828 37.5992 48.828C38.5848 47.6736 39.9516 47.8898 41.1254 48.1832C42.4993 48.5274 43.7484 49.2963 44.8753 50.4497Z" fill="white" />
				<path d="M33.9783 47.1179C35.1416 45.8332 35.9125 44.8372 36.8308 44.0042C38.0307 42.9139 39.5041 42.4355 41.1254 42.7906C42.1641 43.0182 43.1696 43.3998 44.525 43.8146C43.9343 44.4461 43.6432 45.0263 43.2038 45.1799C41.3847 45.8137 39.5235 46.2887 37.7296 47.0463C36.7744 47.4502 35.5081 47.1179 33.9783 47.1179Z" fill="white" />
				<path d="M133.487 23.0076C133.174 23.0033 132.859 22.9971 132.539 22.971C131.935 22.9236 131.354 22.8492 130.78 22.7639C130.296 22.8037 129.798 22.8663 129.351 22.7478C127.476 22.2491 125.682 21.5868 124.062 20.5884C123.978 20.5453 123.895 20.5078 123.811 20.4633C122.83 19.9428 121.956 19.2396 121.238 18.3916C120.972 18.2285 120.683 18.0892 120.416 17.9242C117.612 19.7863 114.99 21.7058 111.804 23.3166C112.841 19.7138 114.944 16.8519 115.666 13.5244C115.037 13.5213 114.41 13.4607 113.792 13.3433C113.56 13.3196 113.333 13.2755 113.104 13.2367C112.712 13.4542 112.361 13.8107 112.043 14.3099C110.842 16.1943 109.048 17.47 107.289 18.7566C106.009 19.6939 104.653 20.5401 102.89 20.9127C102.926 20.3263 102.874 19.8645 102.996 19.4559C103.383 18.1598 103.862 16.8917 104.255 15.597C104.686 14.1748 105.137 12.746 105.435 11.2911C105.663 10.1856 105.367 9.84853 104.226 9.66886C101.934 9.30952 101.295 9.74376 99.9324 11.6926C98.3893 13.8989 97.0339 16.2564 95.3248 18.3233C92.6852 21.5147 89.4786 23.995 85.3295 25.0266C84.1846 25.311 83.1923 25.2499 82.2285 24.3904C83.0876 21.5896 84.0997 18.787 83.8352 15.835C83.5778 12.965 84.195 9.93434 82.6282 7.00226C82.2627 7.40332 82.0408 7.57398 81.9138 7.79821C81.122 9.19527 80.2616 10.5629 79.5908 12.0174C77.6177 16.2963 74.7443 19.8029 70.8579 22.4586C69.6172 23.3072 68.3823 24.2159 66.6528 24.6227C66.8017 23.9239 66.8647 23.4228 67.0164 22.9497C67.6124 21.0881 67.5493 19.2046 67.2312 17.315C67.0122 16.0132 66.7187 14.7247 66.4883 13.4249C66.0067 10.7014 66.0972 8.06464 67.5313 5.57581C67.9229 4.89742 68.1225 4.08393 68.2799 3.306C68.3519 2.9514 68.1097 2.53233 67.9177 1.78331C65.4373 3.66012 63.2073 5.26482 61.082 6.99799C60.2993 7.63703 59.5123 8.48323 59.1639 9.40101C58.0688 12.2819 55.9459 14.4104 54.1212 16.7575C53.7647 17.2164 53.1834 17.4994 52.607 17.9394C52.589 17.6051 52.5477 17.4904 52.5837 17.4089C53.6632 14.9618 54.0505 12.3753 54.2539 9.72907C54.352 8.45289 53.3631 7.86647 52.2628 8.0433C51.4654 8.1713 51.4142 8.87576 51.1407 9.42188C50.2432 11.2124 49.4918 13.103 48.3849 14.7541C47.2779 16.4053 45.8334 17.8507 43.6218 18.0299C42.5874 16.9742 42.6135 15.2329 41.1462 14.5593C40.7077 14.7745 40.3095 15.0035 39.8871 15.1727C38.6469 15.6705 38.1733 15.3913 37.7125 14.1298C37.1038 12.462 37.2323 10.8801 38.0387 9.32706C38.6284 8.18931 38.5824 7.20611 37.6414 6.19825C36.2666 4.72866 35.0961 3.09599 34.8624 1.00158C34.311 0.776873 33.7592 0.543634 33.2472 0.290485C33.1766 0.255878 33.1078 0.218903 33.0396 0.179556C32.9447 0.12409 32.8499 0.0596181 32.7551 -0.00390625C32.4915 0.185719 32.3095 0.481059 32.1862 0.860308C31.056 4.36268 30.0946 7.89918 29.9638 11.6101C29.9031 13.331 29.6836 15.0533 29.7353 16.7689C29.8324 19.9759 30.0358 23.1811 30.27 26.3819C30.4364 28.6536 31.5448 30.6357 32.4858 32.6396C34.1176 36.1187 34.1778 35.2526 31.1584 37.6992C28.5543 39.8088 26.4329 42.1848 25.0903 45.2558C24.5797 46.4239 23.9724 47.6204 22.8147 48.2078C20.7217 49.2706 19.454 51.1043 18.0038 52.8062C16.3114 54.7949 14.9778 57.1618 12.4097 58.2797C11.5704 58.6534 10.7631 59.0952 9.99576 59.6004C7.6197 61.1387 5.35931 62.8828 3.91054 65.3323C2.57318 67.5931 1.59089 70.0649 0.457857 72.4461C-0.0854321 73.5876 -0.0897004 74.7733 0.142122 75.9935C0.574952 78.269 1.91421 79.9538 3.66544 81.3267C4.88192 82.2805 6.3103 81.8956 7.64766 81.6111C8.62378 81.4059 8.95184 81.8842 9.29318 82.6612C9.76725 83.7421 10.2484 84.8717 10.9785 85.7777C12.0589 87.1188 13.0123 87.1695 14.4611 86.2517C15.0878 85.8545 15.6614 85.3738 16.2659 84.9244C16.4906 85.0381 16.6987 85.1296 16.8945 85.2439C19.0392 86.4907 20.9857 86.192 22.9446 84.7077C24.2801 83.6946 25.1064 82.3374 25.9953 81.01C26.5343 80.2041 27.0439 79.411 28.0447 78.6828C28.7084 80.4843 29.3456 82.1075 29.8936 83.7586C30.361 85.1638 30.6995 86.6115 31.1452 88.0252C31.615 89.5166 32.72 89.8712 33.8891 88.8083C34.4973 88.2561 34.96 87.4677 35.281 86.6988C35.5465 86.0612 35.9527 85.7032 36.5316 85.7122C37.5371 85.7293 38.0742 85.1083 38.6905 84.4915C39.3324 83.8497 39.98 82.9229 40.7561 82.765C42.6552 82.3777 43.7366 81.1774 44.7435 79.731C45.0346 79.3134 45.337 78.771 46.0017 78.8009C46.0491 79.0024 46.1254 79.1327 46.0894 79.2129C45.8998 79.631 45.6523 80.0244 45.4783 80.4483C45.2621 80.9759 44.9938 81.513 44.9336 82.0658C44.8066 83.2339 45.7964 83.9369 46.8228 83.3694C47.4457 83.0248 47.9667 82.4498 48.4451 81.8998C49.177 81.0608 49.6355 79.9733 50.8865 79.2072C50.7633 79.7893 50.7391 80.1259 50.6211 80.425C49.782 82.555 48.9111 84.6717 48.0857 86.8069C47.9591 87.1344 48.0165 87.5331 47.9767 88.0579C48.7129 87.8953 49.2567 87.7531 49.8076 87.6578C51.3677 87.3876 53.7926 88.2504 54.3847 89.4668C55.4064 91.566 56.4877 93.6737 57.1699 95.8927C58.2944 99.5497 59.1108 103.301 60.0836 107.006C60.2415 107.606 60.4628 108.214 60.7824 108.742C61.7893 110.411 64.4256 110.325 65.2861 108.559C65.9607 107.175 66.5044 105.721 67.0245 104.27C67.6598 102.496 68.2007 100.689 68.798 98.9016C69.1616 97.8141 69.5641 96.7399 69.9358 95.6548C70.8934 92.8493 71.8098 90.0291 72.8077 87.2378C73.424 85.515 74.0147 83.7136 75.3289 82.3995C76.4666 81.2618 77.1247 79.9396 77.6333 78.4757C77.7665 78.0917 77.9178 77.7148 78.0738 77.3379C78.1766 76.4742 78.3411 75.6019 78.6564 74.788C78.2819 75.1291 77.8876 75.4477 77.4755 75.7422C77.4396 75.7683 77.4004 75.7894 77.3588 75.8048C76.194 76.9392 74.8325 77.822 73.4876 78.7544C71.6922 79.9988 70.1103 81.5282 69.5698 83.8269C69.2996 84.9923 68.9545 86.1391 68.5368 87.2601C66.6329 92.3136 64.9168 97.4197 63.8326 102.723C63.6903 103.416 63.3585 104.069 63.1129 104.742C62.5834 104.268 62.3601 103.818 62.2316 103.341C61.7101 101.407 61.2536 99.4539 60.7023 97.5283C60.1049 95.4424 59.455 93.366 58.7761 91.3033C58.402 90.1656 58.0432 88.9961 57.4629 87.9612C56.1583 85.6354 54.7868 85.0562 52.1888 85.4691C52.0518 85.4909 51.8916 85.3652 51.7622 85.3159C51.7465 85.1548 51.6963 85.0286 51.7299 84.931C53.4428 79.9533 55.1224 74.961 56.9007 70.0051C57.6985 67.7813 57.754 67.6822 55.7743 66.1041C53.9998 67.787 53.7789 70.5034 51.7418 72.3262C51.8399 71.8564 51.8508 71.6269 51.9352 71.4292C52.6504 69.7542 53.3739 68.0844 54.1055 66.4198C54.8237 64.7786 54.453 63.6053 52.8255 62.6273C51.1188 65.4385 49.5132 68.3227 47.6704 71.0467C45.8215 73.7811 44.406 76.8648 41.8251 78.99C41.1567 78.8421 40.61 78.7213 40.0236 78.5904L37.3285 82.0624C35.2345 81.6495 35.2426 81.6538 34.2546 83.259C33.9967 83.6785 33.68 84.0616 33.3344 84.5389C33.0708 84.2886 32.8348 84.1682 32.7722 83.9876C32.3028 82.6384 31.8809 81.2722 31.4187 79.9202C30.9565 78.5681 30.5834 77.1578 29.9533 75.8811C29.027 74.0062 27.3933 73.9806 26.2769 75.711C26.1214 75.9527 25.9924 76.213 25.826 76.4467C24.4621 78.3619 23.1712 80.334 21.7016 82.1658C20.4249 83.7548 19.0619 83.5638 17.9905 81.8235C17.7801 81.4817 17.68 81.065 17.4368 80.754C17.0879 80.3084 16.7115 79.8405 16.2441 79.5442C15.5619 79.1114 15.1105 79.3665 14.8692 80.1818C14.7076 80.7294 14.5473 81.2774 14.4046 81.8292C14.2041 82.6048 14.0121 83.3789 13.0379 83.8506C12.77 83.4766 12.424 83.1571 12.2846 82.7645C12.0177 82.0117 11.8318 81.2238 11.6768 80.4378C11.3824 78.9398 11.1553 78.7725 9.6914 78.5691C8.33792 78.3795 7.08399 78.598 5.97371 79.2057C3.8271 78.0154 2.49495 75.8266 2.98704 73.9555C3.69815 71.2349 4.80322 68.5758 6.52221 66.3928C8.58349 63.775 11.263 61.7432 14.3776 60.3651C15.3068 59.9541 16.3024 59.4402 16.9499 58.6964C18.2682 57.1818 19.4609 55.5624 20.5164 53.8543C21.4281 52.379 22.5075 51.1616 24.1194 50.5558C25.5274 50.0282 26.3508 49.0388 26.8889 47.7114C27.0838 47.2326 27.3293 46.7742 27.5484 46.3044C28.9232 43.3605 31.0044 41.0603 33.7217 39.2802C35.0145 38.4335 36.2135 37.4375 37.4157 36.4605C38.28 35.7579 38.3212 35.3483 37.548 34.6401C35.2554 32.54 34.0873 29.8402 33.1732 26.9489C32.5361 24.9389 32.4621 22.9061 32.4086 20.8397C32.2924 16.1768 32.456 11.5333 33.1586 6.91598C33.2301 6.44761 33.2567 5.98445 33.9986 5.92567C34.1408 6.16696 34.257 6.49454 34.4779 6.71735C35.3938 7.64461 35.3132 8.66101 35.1416 9.88409C34.8941 11.6286 34.8984 13.4424 35.062 15.2016C35.2042 16.7096 36.3154 17.5848 37.7831 17.936C38.1743 18.0308 38.5753 18.1133 38.975 18.1309C40.0554 18.1783 40.7011 18.6296 41.1036 19.7185C41.7976 21.6001 43.1919 22.1049 44.9601 21.1018C46.1927 20.4026 47.2722 19.4336 48.4209 18.5893C48.7442 18.3523 49.0742 18.1233 49.4008 17.8905C49.4553 18.4722 49.3321 18.8386 49.1751 19.1937C48.9921 19.6081 48.7233 19.9925 48.5911 20.4206C48.3142 21.3175 48.6186 21.8636 49.5236 22.5866C50.202 23.1284 50.7562 23.0076 51.3682 22.5088C52.569 21.5356 53.8808 20.6828 54.9901 19.6171C57.6506 17.0571 59.8878 14.1677 61.4428 10.7763C61.8576 9.87223 62.5568 9.12464 63.5761 8.7378C64.008 12.0491 64.3536 15.1808 64.8518 18.2878C65.0566 19.5678 65.1415 20.8036 64.7328 22.0139C64.237 23.4835 63.5889 24.901 63.0797 26.3663C62.8801 26.9423 62.755 27.5988 62.8114 28.1962C62.9095 29.2391 64.1033 29.7772 64.9921 29.2192C67.4668 27.6704 69.9187 26.0852 72.3877 24.526C75.9717 22.2619 78.4459 18.9719 80.7489 15.5188C80.9021 15.2893 81.1377 15.1144 81.6307 14.6152C81.3491 17.7161 81.2491 20.3988 79.9241 22.8525C79.6496 23.3548 79.4408 23.8903 79.303 24.4459C78.8925 26.1586 79.532 27.1338 81.2173 27.4476C84.7084 28.099 87.9449 27.3955 90.942 25.5514C94.7346 23.2166 97.5402 19.8949 100.058 16.2986C100.675 15.4202 101.269 14.528 101.874 13.6439C102.116 14.1383 102.104 14.4811 101.995 14.7906C101.142 17.2292 100.284 19.6673 99.3919 22.0912C99.0601 22.9919 99.015 23.8514 99.4498 24.9356C100.138 24.827 100.863 24.8725 101.431 24.5952C103.843 23.4157 106.205 22.1353 108.589 20.9037C109.016 20.6832 109.471 20.5168 109.913 20.3253L110.17 20.5718C109.893 21.1744 109.664 21.8044 109.329 22.3733C108.485 23.8073 107.595 25.2176 106.716 26.6299C106.443 27.0703 106.068 27.4927 106.804 28.0682C108.155 27.5363 109.592 26.9944 111.011 26.4089C113.815 25.2494 116.587 24.0073 119.423 22.9355C120.09 22.6838 120.977 22.8942 121.733 23.0412C122.273 23.146 122.76 23.5072 123.276 23.7438C125.68 24.846 128.259 25.1731 131.122 25.3888C130.829 26.5872 130.655 27.7117 130.278 28.7631C128.755 33.007 126.271 36.6672 123.053 39.7789C120.697 42.0582 118.108 44.0929 114.71 44.6589C113.636 44.8376 112.564 45.0429 111.482 45.1472C106.97 45.581 102.462 46.1081 97.9389 46.3641C91.2739 46.7401 84.597 46.9126 77.9258 47.1814C77.6101 47.1942 77.2982 47.2952 76.8355 47.3834C77.4949 48.587 78.1894 49.3408 79.5467 49.2232C81.8796 49.0217 83.8812 49.9542 85.7822 51.1669C88.3754 52.8261 90.6699 54.9968 93.7054 55.8899C94.956 56.2583 96.2469 56.5607 97.5407 56.6958C99.4237 56.8921 101.325 56.9172 103.22 56.9973C103.504 57.0092 103.791 56.9248 104.263 56.8594C102.075 55.1409 99.8906 54.2203 97.2733 54.2814C96.2246 54.3056 95.0925 54.0093 94.1245 53.5732C92.1419 52.6786 90.2333 51.6144 88.3213 50.57C87.7615 50.2642 87.2158 49.8589 86.9688 49.2023C87.1916 49.0758 87.2864 48.9767 87.3874 48.9701C91.2838 48.7141 95.1793 48.4386 99.0781 48.2258C102.349 48.0471 105.651 48.1362 108.897 47.7517C112.595 47.316 116.471 47.3725 119.703 44.9927C121.09 43.972 122.634 43.1438 123.93 42.0246C127.327 39.0882 129.981 35.5223 131.732 31.4056C132.664 29.2111 133.134 26.8043 133.66 24.4591C133.815 23.7973 133.743 23.3219 133.487 23.0076Z" fill="white" />
				<path d="M5.37268 73.6198C5.78607 72.5679 6.05677 71.6098 6.53843 70.7726C6.76362 70.382 7.3728 70.071 7.85019 69.9975C8.71585 69.8643 9.04012 70.2682 8.78602 71.1585C8.48104 72.246 8.08866 73.3071 7.61268 74.3314C7.38797 74.8055 6.80296 75.2279 6.24687 74.8529C5.85481 74.5855 5.65475 74.0365 5.37268 73.6198Z" fill="white" />
			</g>
			<defs>
				<clipPath id="clip0">
					<rect width="144.7" height="110" fill="white" />
				</clipPath>
			</defs>
		</g>
	</svg>

	<svg viewBox="0 0 20 20" fill="none" xmlns="http://www.w3.org/2000/svg">
		<g id="vk" class="img">
			<g>
				<g clip-path="url(#clip0)">
					<path d="M19.1115 13.1125C18.6764 12.5912 18.1849 12.1257 17.7096 11.6755C17.5425 11.5172 17.3697 11.3536 17.2033 11.1911C17.2033 11.1911 17.2032 11.1911 17.2032 11.191C16.9794 10.9727 16.8698 10.8177 16.8584 10.7033C16.8471 10.5908 16.924 10.4239 17.1008 10.1771C17.3652 9.80605 17.6471 9.43433 17.9197 9.07487C18.1621 8.75534 18.4126 8.42491 18.6528 8.0926L18.7067 8.01799C19.1752 7.36948 19.6597 6.69889 19.9193 5.8817C19.9935 5.6474 20.0704 5.30068 19.8847 4.9963C19.699 4.69185 19.3545 4.60161 19.1118 4.56028C18.9933 4.53997 18.8808 4.53829 18.7761 4.53829L15.7368 4.5356C15.2113 4.52685 14.8468 4.77591 14.6481 5.27607C14.4891 5.67552 14.3013 6.13845 14.0838 6.5776C13.6676 7.42537 13.1387 8.40182 12.3721 9.21538L12.3381 9.25163C12.2859 9.30733 12.2006 9.39843 12.1568 9.41933C12.0738 9.36714 11.978 9.06866 11.9823 8.91229C11.9824 8.90843 11.9825 8.9046 11.9825 8.90077L11.9798 5.38892C11.9798 5.37107 11.9785 5.35322 11.9762 5.33552C11.908 4.8345 11.7751 4.33224 10.9821 4.17575C10.9567 4.17071 10.9308 4.16821 10.905 4.16821H7.74344C7.14864 4.16821 6.83403 4.4406 6.5818 4.73591C6.50879 4.822 6.31481 5.0506 6.41363 5.33005C6.51364 5.61283 6.81161 5.66927 6.90942 5.68779C7.25395 5.75318 7.43212 5.94791 7.48727 6.32017C7.5963 7.0435 7.60966 7.81729 7.52938 8.75413C7.507 9.00565 7.46536 9.19683 7.39817 9.35581C7.37958 9.39984 7.36325 9.4271 7.35184 9.44316C7.33364 9.43581 7.30532 9.42175 7.2661 9.39491C7.02399 9.22925 6.84153 8.97171 6.66508 8.72272C5.96031 7.72768 5.3675 6.62869 4.85253 5.36248C4.64046 4.84361 4.24179 4.5538 3.73069 4.5463C2.75694 4.53009 1.85635 4.53048 0.978379 4.54755C0.564276 4.55474 0.273884 4.68509 0.115134 4.93505C-0.0438123 5.18548 -0.037992 5.50478 0.132477 5.88424C1.35108 8.59401 2.45756 10.5653 3.72007 12.276C4.60902 13.4804 5.50387 14.3164 6.53617 14.907C7.62079 15.5275 8.844 15.8316 10.2631 15.8316C10.4244 15.8316 10.5886 15.8276 10.755 15.8197C11.6305 15.7798 11.9867 15.4316 12.0256 14.5789C12.0474 14.1282 12.0975 13.7631 12.2715 13.4459C12.3202 13.3572 12.3751 13.2976 12.4184 13.2867C12.4644 13.2752 12.546 13.3034 12.6368 13.3624C12.8027 13.4701 12.9455 13.6162 13.063 13.7444C13.1821 13.8748 13.3024 14.0094 13.4188 14.1396C13.6666 14.4168 13.9228 14.7035 14.1912 14.977C14.7984 15.5959 15.4983 15.8797 16.2724 15.8203L19.0539 15.8215C19.054 15.8215 19.054 15.8215 19.054 15.8215C19.0629 15.8215 19.0717 15.8213 19.0805 15.8207C19.4013 15.7993 19.6787 15.6217 19.8416 15.3333C20.0378 14.9859 20.0348 14.5459 19.8335 14.1559C19.6235 13.7504 19.3511 13.4014 19.1115 13.1125ZM19.1478 14.9415C19.1095 15.0094 19.0622 15.0218 19.0377 15.0248L16.2569 15.0235C16.2568 15.0235 16.2567 15.0235 16.2566 15.0235C16.2456 15.0235 16.2346 15.0239 16.2238 15.0249C15.6759 15.0705 15.2102 14.8779 14.7599 14.4189C14.5045 14.1587 14.2546 13.8791 14.0129 13.6087C13.8951 13.477 13.7734 13.3407 13.651 13.2068C13.4993 13.0411 13.3117 12.8506 13.0708 12.6941C12.71 12.46 12.411 12.467 12.2238 12.5142C12.0385 12.5609 11.7751 12.6941 11.573 13.063C11.3111 13.5403 11.2533 14.0552 11.2298 14.5417C11.2162 14.8392 11.1659 14.9178 11.1449 14.9377C11.1174 14.9639 11.0253 15.0099 10.7183 15.024C9.24263 15.0933 8.00427 14.8291 6.93188 14.2155C5.99898 13.6818 5.18211 12.9151 4.3612 11.8029C3.13366 10.1397 2.05358 8.21358 0.859238 5.55771C0.815957 5.4615 0.802597 5.40146 0.79873 5.36931C0.829199 5.35931 0.88873 5.34615 0.993106 5.34423C1.86217 5.3274 2.75335 5.32693 3.71831 5.34302C3.85042 5.34498 4.00085 5.38462 4.11476 5.66334C4.65281 6.98635 5.27433 8.13772 6.01496 9.18335C6.2116 9.46089 6.45637 9.80636 6.8161 10.0525C7.14559 10.2781 7.41297 10.2673 7.5793 10.2186C7.74571 10.1698 7.97665 10.0343 8.1322 9.66597C8.23255 9.42859 8.29321 9.16128 8.32325 8.82354C8.40907 7.82147 8.39384 6.98834 8.2754 6.20252C8.19192 5.63951 7.90122 5.23279 7.44329 5.02509C7.52462 4.98275 7.61626 4.96509 7.74352 4.96509H10.8637C11.0393 5.00447 11.074 5.05072 11.086 5.06654C11.1365 5.13376 11.1654 5.29279 11.1831 5.41705L11.1857 8.89651C11.1787 9.23007 11.3408 9.96984 11.8928 10.1727C11.8973 10.1744 11.9019 10.1759 11.9064 10.1774C12.4089 10.3416 12.7413 9.98691 12.9198 9.79632L12.9516 9.76249C13.7912 8.87128 14.3567 7.82995 14.7984 6.93014C15.0287 6.46549 15.2237 5.98486 15.3886 5.57056C15.4711 5.36279 15.5461 5.32857 15.7253 5.33236C15.7277 5.33244 15.7302 5.33244 15.7327 5.33244L18.7758 5.33513C18.8466 5.33513 18.9205 5.33595 18.9778 5.34576C19.1228 5.37044 19.1825 5.40052 19.2022 5.41298C19.2042 5.43607 19.2038 5.50248 19.1599 5.64107C18.9392 6.33596 18.5126 6.92635 18.061 7.55143L18.007 7.62616C17.7724 7.95085 17.5246 8.27753 17.285 8.5935C17.0089 8.95761 16.7234 9.33405 16.4527 9.71398C15.8741 10.5214 15.9249 11.0571 16.6471 11.7615C16.8177 11.9281 16.9927 12.0938 17.1619 12.2541C17.6416 12.7085 18.0948 13.1377 18.4992 13.6223C18.7109 13.8775 18.9509 14.184 19.1258 14.5218C19.2171 14.6987 19.1947 14.8585 19.1478 14.9415Z" fill="white" />
				</g>
			</g>
			<defs>
				<clipPath id="clip0">
					<rect width="20" height="20" fill="white" />
				</clipPath>
			</defs>
		</g>
	</svg>

	<svg viewBox="0 0 21 20" fill="none" xmlns="http://www.w3.org/2000/svg">
		<g id="fb" class="img">
			<g>
				<g clip-path="url(#clip0)">
					<path d="M13.0208 4.34695H14.8866C15.2863 4.34695 15.6116 4.0293 15.6116 3.63883V0.71043C15.6116 0.319961 15.2863 0.00230469 14.8866 0.00230469H12.3244C12.2999 0.00128906 12.2572 0 12.1974 0C11.714 0 10.0329 0.093164 8.69919 1.29156C7.24342 2.59988 7.38272 4.16488 7.44398 4.55074V6.45855H5.58949C5.18976 6.45855 4.8645 6.77621 4.8645 7.16668V10.3162C4.8645 10.7068 5.18972 11.0245 5.58949 11.0245H7.33668V19.2919C7.33668 19.6823 7.6619 20 8.06167 20H11.7157C12.1154 20 12.4407 19.6823 12.4407 19.2919V11.0653H14.5103C14.8788 11.0653 15.1884 10.7956 15.2305 10.4381L15.6068 7.24777C15.6304 7.04734 15.5652 6.84602 15.4277 6.69543C15.2903 6.54492 15.0931 6.45859 14.8866 6.45859H12.4409V4.85715C12.4408 4.52625 12.5332 4.34695 13.0208 4.34695ZM12.0329 7.25543H14.7847L14.4293 10.2685H12.0328C11.8076 10.2685 11.6249 10.4468 11.6249 10.6669V19.2032H8.15241V10.626C8.15241 10.406 7.96977 10.2276 7.74453 10.2276H5.68023V7.25535H7.85187C8.07711 7.25535 8.25975 7.07699 8.25975 6.85695V4.51836C8.25975 4.49551 8.25775 4.47266 8.25375 4.45012C8.21076 4.20891 8.05707 2.95148 9.25157 1.87797C10.368 0.874805 11.7887 0.796836 12.1975 0.796836C12.2548 0.796836 12.2889 0.79832 12.2951 0.798633C12.3018 0.798945 12.3086 0.799102 12.3153 0.799102H14.7959V3.5502H13.0208C12.1468 3.5502 11.625 4.03879 11.625 4.85715V6.85699C11.625 7.07707 11.8077 7.25543 12.0329 7.25543Z" fill="white" />
				</g>
			</g>
			<defs>
				<clipPath id="clip0">
					<rect width="20.4762" height="20" fill="white" />
				</clipPath>
			</defs>
		</g>
	</svg>

	<svg viewBox="0 0 21 20" fill="none" xmlns="http://www.w3.org/2000/svg">
		<g id="ig" class="img">
			<g>
				<g clip-path="url(#clip0)">
					<path d="M14.5118 0H6.44063C3.16563 0 0.501221 2.66437 0.501221 5.93941V14.0606C0.501221 17.3356 3.16563 20 6.44063 20H14.5118C17.7868 20 20.4512 17.3356 20.4512 14.0606V5.93941C20.4512 2.66437 17.7868 0 14.5118 0ZM19.6544 14.0606C19.6544 16.8962 17.3475 19.2032 14.5118 19.2032H6.44063C3.60497 19.2032 1.29806 16.8962 1.29806 14.0606V5.93941C1.29806 3.10375 3.60497 0.796836 6.44063 0.796836H14.5118C17.3475 0.796836 19.6544 3.10375 19.6544 5.93941V14.0606Z" fill="white" />
					<path d="M10.4762 4.85083C7.63687 4.85083 5.3269 7.16079 5.3269 10.0001C5.3269 12.8395 7.63683 15.1494 10.4762 15.1494C13.3155 15.1494 15.6254 12.8395 15.6254 10.0001C15.6254 7.16079 13.3155 4.85083 10.4762 4.85083ZM10.4762 14.3525C8.07624 14.3525 6.12374 12.4 6.12374 10.0001C6.12374 7.60017 8.07624 5.64767 10.4762 5.64767C12.8761 5.64767 14.8286 7.60017 14.8286 10.0001C14.8286 12.4 12.8761 14.3525 10.4762 14.3525Z" fill="white" />
					<path d="M15.3389 3.90015C14.6567 3.90015 14.1017 4.45515 14.1017 5.13737C14.1017 5.8196 14.6567 6.37456 15.3389 6.37456C16.0211 6.37456 16.5761 5.8196 16.5761 5.13737C16.5761 4.45515 16.0211 3.90015 15.3389 3.90015ZM15.3389 5.57773C15.0961 5.57773 14.8985 5.38019 14.8985 5.13737C14.8985 4.89452 15.0961 4.69698 15.3389 4.69698C15.5817 4.69698 15.7793 4.89456 15.7793 5.13737C15.7793 5.38019 15.5818 5.57773 15.3389 5.57773Z" fill="white" />
				</g>
			</g>
			<defs>
				<clipPath id="clip0">
					<rect x="0.476196" width="20" height="20" fill="white" />
				</clipPath>
			</defs>
		</g>
	</svg>

	<svg viewBox="0 0 50 30" fill="none" xmlns="http://www.w3.org/2000/svg">
		<g id="master-card" class="img">	
			<g>
				<path d="M50 15C50 23.2308 43.3077 30 35 30C26.7692 30 20 23.2308 20 15C20 6.76923 26.6923 0 34.9231 0C43.3077 0 50 6.76923 50 15Z" fill="#F9B50B" />
				<path d="M29.9231 15.0769C29.9231 14 29.7692 12.9231 29.6154 11.9231H20.3846C20.4615 11.3846 20.6154 10.9231 20.7692 10.3077H29C28.8462 9.76923 28.6154 9.23077 28.3846 8.69231H21.3846C21.6154 8.15385 21.9231 7.69231 22.2308 7.07692H27.5385C27.2308 6.53846 26.8462 6 26.3846 5.46154H23.4615C23.9231 4.92308 24.3846 4.46154 25 3.92308C22.3846 1.46154 18.8462 0 14.9231 0C6.76923 0.230769 0 6.76923 0 15C0 23.2308 6.69231 30 15 30C18.9231 30 22.3846 28.4615 25.0769 26.0769C25.6154 25.6154 26.0769 25.0769 26.6154 24.4615H23.5385C23.1538 24 22.7692 23.4615 22.4615 22.9231H27.6923C28 22.4615 28.3077 21.9231 28.5385 21.3077H21.5385C21.3077 20.8462 21.0769 20.3077 20.9231 19.6923H29.1538C29.6154 18.3077 29.9231 16.7692 29.9231 15.0769Z" fill="#C8191C" />
				<path d="M20.3077 18.8461L20.5385 17.4615C20.4615 17.4615 20.3077 17.5384 20.1538 17.5384C19.6154 17.5384 19.5385 17.2307 19.6154 17.0768L20.0769 14.3076H20.9231L21.1538 12.7691H20.3846L20.5385 11.8461H18.9231C18.9231 11.8461 18 17.0768 18 17.6922C18 18.6153 18.5385 19.0768 19.3077 19.0768C19.7692 19.0768 20.1538 18.923 20.3077 18.8461Z" fill="white" />
				<path d="M20.8462 16.3078C20.8462 18.5385 22.3847 19.077 23.6154 19.077C24.7693 19.077 25.3077 18.8462 25.3077 18.8462L25.6154 17.3078C25.6154 17.3078 24.7693 17.6924 23.9231 17.6924C22.1539 17.6924 22.4616 16.3847 22.4616 16.3847H25.6923C25.6923 16.3847 25.9231 15.3847 25.9231 14.9231C25.9231 13.9231 25.3847 12.6155 23.6154 12.6155C22.077 12.5385 20.8462 14.3078 20.8462 16.3078ZM23.6154 14.0001C24.4616 14.0001 24.3077 15.0001 24.3077 15.077H22.5385C22.6154 15.0001 22.7693 14.0001 23.6154 14.0001Z" fill="white" />
				<path d="M33.6922 18.8461L33.9999 17.0768C33.9999 17.0768 33.2307 17.4615 32.6153 17.4615C31.5384 17.4615 30.9999 16.6153 30.9999 15.6153C30.9999 13.6922 31.923 12.6922 33.0768 12.6922C33.8461 12.6922 34.5384 13.1538 34.5384 13.1538L34.7692 11.4615C34.7692 11.4615 33.8461 11.0768 32.923 11.0768C31.0768 11.0768 29.3076 12.6922 29.3076 15.6922C29.3076 17.6922 30.2307 18.9999 32.1538 18.9999C32.8461 19.0768 33.6922 18.8461 33.6922 18.8461Z" fill="white" />
				<path d="M11.6152 12.5385C10.5383 12.5385 9.69216 12.8461 9.69216 12.8461L9.46139 14.2308C9.46139 14.2308 10.1537 13.9231 11.2306 13.9231C11.7691 13.9231 12.2306 14 12.2306 14.4615C12.2306 14.7692 12.1537 14.8461 12.1537 14.8461H11.4614C10.0768 14.8461 8.61523 15.3846 8.61523 17.2308C8.61523 18.6923 9.53831 19 10.1537 19C11.2306 19 11.7691 18.3077 11.846 18.3077L11.7691 18.9231H13.0768L13.6922 14.5385C13.6922 12.6154 12.1537 12.5385 11.6152 12.5385ZM11.9229 16.0769C11.9229 16.3077 11.7691 17.6154 10.846 17.6154C10.3845 17.6154 10.2306 17.2308 10.2306 17C10.2306 16.6154 10.4614 16.0769 11.6922 16.0769C11.846 16.0769 11.9229 16.0769 11.9229 16.0769Z" fill="white" />
				<path d="M15.2307 19C15.6153 19 17.6153 19.0769 17.6153 16.9231C17.6153 14.9231 15.6922 15.3077 15.6922 14.5385C15.6922 14.1539 15.9999 14 16.5384 14C16.7692 14 17.6153 14.0769 17.6153 14.0769L17.8461 12.6154C17.8461 12.6154 17.3076 12.4615 16.3076 12.4615C15.1538 12.4615 13.923 12.9231 13.923 14.5385C13.923 16.3846 15.923 16.2308 15.923 16.9231C15.923 17.3846 15.3845 17.4615 14.9999 17.4615C14.3076 17.4615 13.5384 17.2308 13.5384 17.2308L13.3076 18.6923C13.4615 18.8462 13.923 19 15.2307 19Z" fill="white" />
				<path d="M46.9232 11.3077L46.6155 13.4616C46.6155 13.4616 46.0002 12.6924 45.0771 12.6924C43.6155 12.6924 42.3848 14.4616 42.3848 16.5385C42.3848 17.8462 43.0002 19.1539 44.3848 19.1539C45.3078 19.1539 45.9232 18.5385 45.9232 18.5385L45.8463 19.077H47.4617L48.6155 11.4616L46.9232 11.3077ZM46.154 15.4616C46.154 16.3077 45.7694 17.4616 44.8463 17.4616C44.3078 17.4616 44.0002 17 44.0002 16.1539C44.0002 14.8462 44.5386 14.077 45.3078 14.077C45.8463 14.1539 46.154 14.5385 46.154 15.4616Z" fill="white" />
				<path d="M2.92321 18.9231L3.84627 13.2308L4.00012 18.9231H5.07703L7.15392 13.2308L6.30778 18.9231H8.00006L9.30774 11.3077H6.69239L5.07703 16L5.0001 11.3077H2.69244L1.38477 18.9231H2.92321Z" fill="white" />
				<path d="M27.5385 18.923C28.0001 16.3076 28.077 14.1538 29.2308 14.5384C29.3847 13.5384 29.6154 13.0769 29.7693 12.6923H29.4616C28.7693 12.6923 28.1539 13.6153 28.1539 13.6153L28.3077 12.7692H26.7693L25.7693 18.923H27.5385Z" fill="white" />
				<path d="M37.3845 12.5385C36.3076 12.5385 35.4614 12.8461 35.4614 12.8461L35.2307 14.2308C35.2307 14.2308 35.923 13.9231 36.9999 13.9231C37.5384 13.9231 37.9999 14 37.9999 14.4615C37.9999 14.7692 37.923 14.8461 37.923 14.8461H37.2307C35.8461 14.8461 34.3845 15.3846 34.3845 17.2308C34.3845 18.6923 35.3076 19 35.923 19C36.9999 19 37.5384 18.3077 37.6153 18.3077L37.5384 18.9231H38.9999L39.6153 14.5385C39.6153 12.6154 37.923 12.5385 37.3845 12.5385ZM37.7691 16.0769C37.7691 16.3077 37.6153 17.6154 36.6922 17.6154C36.2307 17.6154 36.0768 17.2308 36.0768 17C36.0768 16.6154 36.3076 16.0769 37.5384 16.0769C37.6922 16.0769 37.6922 16.0769 37.7691 16.0769Z" fill="white" />
				<path d="M40.8461 18.923C41.3077 16.3076 41.3846 14.1538 42.5384 14.5384C42.6923 13.5384 42.9231 13.0769 43.0769 12.6923H42.7692C42.0769 12.6923 41.4615 13.6153 41.4615 13.6153L41.6154 12.7692H40.0769L39.0769 18.923H40.8461Z" fill="white" />
			</g>
		</g>
	</svg>

	<svg viewBox="0 0 66 20" fill="none" xmlns="http://www.w3.org/2000/svg">
		<g id="visa" class="img">
			<path d="M60.762 0.285767H56.6667C55.4286 0.285767 54.4762 0.666719 53.9048 1.90481L46.0952 19.7143H51.6191C51.6191 19.7143 52.5714 17.3334 52.7619 16.762C53.3334 16.762 58.762 16.762 59.5239 16.762C59.7143 17.4286 60.1905 19.6191 60.1905 19.6191H65.1429L60.762 0.285767ZM54.2857 12.762C54.7619 11.6191 56.381 7.33339 56.381 7.33339C56.381 7.42862 56.8572 6.19053 57.0477 5.52386L57.4286 7.23815C57.4286 7.23815 58.4762 11.9048 58.6667 12.8572H54.2857V12.762Z" fill="#858886" />
			<path d="M46.4761 13.3333C46.4761 17.3333 42.8571 20 37.238 20C34.8571 20 32.5713 19.5238 31.3333 18.9524L32.0952 14.5714L32.7618 14.8571C34.4761 15.619 35.619 15.9048 37.7142 15.9048C39.238 15.9048 40.8571 15.3333 40.8571 14C40.8571 13.1429 40.1904 12.5714 38.0952 11.619C36.0952 10.6667 33.4285 9.14286 33.4285 6.38095C33.4285 2.57143 37.1428 0 42.3809 0C44.3809 0 46.0952 0.380952 47.1428 0.857143L46.3809 5.04762L45.9999 4.66667C45.0475 4.28571 43.8094 3.90476 41.9999 3.90476C39.9999 4 39.0475 4.85714 39.0475 5.61905C39.0475 6.47619 40.1904 7.14286 41.9999 8C45.0475 9.42857 46.4761 11.0476 46.4761 13.3333Z" fill="#858886" />
			<path d="M0 0.476167L0.0952381 0.0952148H8.28572C9.42857 0.0952148 10.2857 0.476167 10.5714 1.71426L12.381 10.2857C10.5714 5.71426 6.38095 1.99998 0 0.476167Z" fill="white" />
			<path d="M23.9047 0.285668L15.619 19.619H9.99994L5.23804 3.42853C8.66661 5.619 11.5238 9.04757 12.5714 11.4285L13.1428 13.4285L18.2857 0.19043H23.9047V0.285668Z" fill="#858886" />
			<path d="M26.0953 0.19043H31.3334L28.0001 19.619H22.762L26.0953 0.19043Z" fill="#858886" />
		</g>
	</svg>

	<svg viewBox="0 0 70 20" fill="none" xmlns="http://www.w3.org/2000/svg">
		<g id="mir" class="img">
			<g style="mix-blend-mode:luminosity">
				<path d="M62.0781 0H48.7878C49.562 4.3871 53.8201 8.51614 58.4653 8.51614H69.0459C69.175 8.12904 69.1749 7.48387 69.1749 7.09677C69.1749 3.22581 65.9491 0 62.0781 0Z" fill="url(#paint0_linear)" />
				<path d="M49.9495 9.29028V19.9999H56.4011V14.3225H62.0785C65.1753 14.3225 67.885 12.129 68.7882 9.29028H49.9495Z" fill="#4FAD50" />
				<path d="M27.2395 0V19.871H32.917C32.917 19.871 34.3363 19.871 35.1105 18.4516C38.9814 10.8387 40.1427 8.51614 40.1427 8.51614H40.9169V19.871H47.3685V0H41.6911C41.6911 0 40.2718 0.12904 39.4976 1.41936C36.2718 8.00001 34.4653 11.3548 34.4653 11.3548H33.6911V0H27.2395Z" fill="#4FAD50" />
				<path d="M0.142822 20.0001V0.12915H6.59444C6.59444 0.12915 8.4009 0.129146 9.43316 2.96786C12.0138 10.4517 12.2719 11.484 12.2719 11.484C12.2719 11.484 12.788 9.67753 15.1106 2.96786C16.1428 0.129146 17.9493 0.12915 17.9493 0.12915H24.4009V20.0001H17.9493V9.29045H17.1751L13.5622 20.0001H10.7235L7.1106 9.29045H6.33639V20.0001H0.142822Z" fill="#4FAD50" />
			</g>
			<defs>
				<linearGradient id="paint0_linear" x1="48.7649" y1="4.3191" x2="69.1292" y2="4.3191" gradientUnits="userSpaceOnUse">
					<stop stop-color="#27B1E6" />
					<stop offset="1" stop-color="#148ACA" />
				</linearGradient>
			</defs>
		</g>
	</svg>

	<svg viewBox="0 0 103 25" fill="none" xmlns="http://www.w3.org/2000/svg">
		<g id="paypal" class="img">
			<path d="M38.8888 10.7143C38.6243 12.6984 37.037 12.6984 35.5819 12.6984H34.7883L35.4497 8.86241C35.4497 8.59786 35.7142 8.46559 35.9788 8.46559H36.3756C37.4338 8.46559 38.3597 8.46559 38.8888 8.99469C38.8888 9.52379 38.8888 10.0529 38.8888 10.7143ZM38.2274 5.42328H32.5396C32.1428 5.42328 31.8783 5.68783 31.746 6.08465L29.4973 20.6348C29.4973 20.8994 29.6296 21.1639 30.0264 21.1639H32.6719C33.0687 21.1639 33.3333 20.8994 33.4655 20.5026L34.1269 16.5343C34.1269 16.1375 34.5238 15.873 34.9206 15.873H36.7724C40.4761 15.873 42.5925 14.0211 43.2538 10.4497C43.5184 8.86241 43.2538 7.67194 42.5925 6.74602C41.5343 5.95238 40.0793 5.42328 38.2274 5.42328Z" fill="#EAEAEA" />
			<path d="M51.3224 16.005C51.0579 17.5923 49.8674 18.6505 48.2801 18.6505C47.4865 18.6505 46.8251 18.3859 46.4283 17.8568C46.0315 17.3277 45.8992 16.6664 46.0314 16.005C46.296 14.4177 47.4865 13.3595 49.0738 13.3595C49.8674 13.3595 50.5288 13.624 50.9256 14.1531C51.1902 14.55 51.4547 15.2113 51.3224 16.005ZM55.0261 10.714H52.3806C52.1161 10.714 51.9838 10.8463 51.8515 11.1108L51.7193 11.9045L51.587 11.6399C51.0579 10.8463 49.7351 10.4495 48.4124 10.4495C45.3701 10.4495 42.8569 12.6981 42.3278 15.8727C42.0632 17.46 42.46 18.915 43.386 19.9732C44.1796 20.8991 45.3701 21.296 46.8251 21.296C49.206 21.296 50.5288 19.7087 50.5288 19.7087L50.3965 20.5023C50.3965 20.7669 50.5288 21.0314 50.9256 21.0314H53.3065C53.7034 21.0314 53.9679 20.7669 54.1002 20.37L55.5552 11.1108C55.5552 10.9786 55.4229 10.714 55.0261 10.714Z" fill="#EAEAEA" />
			<path d="M69.444 10.7144H66.6663C66.4017 10.7144 66.1372 10.8466 66.0049 11.1112L62.3012 16.6667L60.7139 11.3757C60.5816 10.9789 60.3171 10.8466 59.9203 10.8466H57.2748C57.0102 10.8466 56.7457 11.1112 56.878 11.508L59.9203 20.2381L57.1425 24.2063C56.8779 24.4709 57.1425 25 57.5393 25H60.3171C60.5817 25 60.8462 24.8677 60.9785 24.6032L69.9731 11.508C70.1054 11.1112 69.8409 10.7144 69.444 10.7144Z" fill="#EAEAEA" />
			<path d="M79.1 10.7143C78.8354 12.6984 77.2481 12.6984 75.7931 12.6984H74.9995L75.6608 8.86241C75.6608 8.59786 75.9254 8.46559 76.19 8.46559H76.5868C77.645 8.46559 78.5709 8.46559 79.1 8.99469C79.2323 9.52379 79.2323 10.0529 79.1 10.7143ZM78.4386 5.42328H72.7508C72.354 5.42328 72.0895 5.68783 71.9572 6.08465L69.7085 20.6348C69.7085 20.8994 69.8408 21.1639 70.2376 21.1639H73.1476C73.4122 21.1639 73.6767 21.0317 73.6767 20.6348L74.3381 16.5343C74.3381 16.1375 74.7349 15.873 75.1318 15.873H76.9836C80.6873 15.873 82.8037 14.0211 83.4651 10.4497C83.7296 8.86241 83.4651 7.67194 82.8037 6.74602C81.8778 5.95238 80.4227 5.42328 78.4386 5.42328Z" fill="#2199D6" />
			<path d="M91.6662 16.005C91.4016 17.5923 90.2112 18.6505 88.6239 18.6505C87.8302 18.6505 87.1689 18.3859 86.772 17.8568C86.3752 17.3277 86.2429 16.6664 86.3752 16.005C86.6397 14.4177 87.8302 13.3595 89.4175 13.3595C90.2112 13.3595 90.8725 13.624 91.2694 14.1531C91.5339 14.55 91.7984 15.2113 91.6662 16.005ZM95.3699 10.714H92.7244C92.4598 10.714 92.3275 10.8463 92.1953 11.1108L92.063 11.9045L91.9307 11.6399C91.4016 10.8463 90.0789 10.4495 88.7562 10.4495C85.7138 10.4495 83.2006 12.6981 82.6715 15.8727C82.407 17.46 82.8038 18.915 83.7297 19.9732C84.5233 20.8991 85.7138 21.296 87.1688 21.296C89.5498 21.296 90.8725 19.7087 90.8725 19.7087L90.7403 20.5023C90.7403 20.7669 90.8725 21.0314 91.2694 21.0314H93.6503C94.0471 21.0314 94.3117 20.7669 94.4439 20.37L95.899 11.1108C95.899 10.9786 95.6344 10.714 95.3699 10.714Z" fill="#2199D6" />
			<path d="M98.5443 5.8201L96.1633 20.6348C96.1633 20.8994 96.2956 21.1639 96.6925 21.1639H99.0734C99.4702 21.1639 99.7348 20.8994 99.867 20.5026L102.116 5.95238C102.116 5.68783 101.983 5.42328 101.587 5.42328H98.9411C98.8088 5.42328 98.6766 5.68783 98.5443 5.8201Z" fill="#2199D6" />
			<path d="M5.95242 23.9418L6.34922 21.164H5.42331H0.793701L3.9683 0.926035C3.9683 0.926035 3.96829 0.793762 4.10056 0.793762H4.23284H12.037C14.5502 0.793762 16.4021 1.32286 17.328 2.38106C17.7248 2.91015 17.9894 3.43925 18.1217 3.96835C18.2539 4.62972 18.2539 5.29109 18.1217 6.21701V6.74611L18.5185 7.01066C18.9153 7.14294 19.1799 7.40749 19.4444 7.67203C19.8412 8.06886 20.1058 8.59796 20.1058 9.25933C20.2381 9.9207 20.238 10.7143 19.9735 11.6403C19.7089 12.6985 19.4444 13.4921 19.0476 14.2858C18.6508 14.9471 18.1216 15.4762 17.5925 16.0053C17.0635 16.4021 16.2698 16.6667 15.6084 16.9312C14.8148 17.0635 14.0211 17.1958 13.0952 17.1958H12.4339C12.037 17.1958 11.6402 17.3281 11.2434 17.5926C10.9788 17.8572 10.7143 18.254 10.582 18.6508V18.9154L9.78837 23.8095V23.9418V24.0741C9.78837 24.0741 9.78836 24.0741 9.65608 24.0741H5.95242V23.9418Z" fill="#263577" />
			<path d="M19.0475 6.21667C19.0475 6.34895 19.0475 6.48123 18.9152 6.6135C17.857 11.9045 14.4179 13.624 9.92058 13.624H7.6719C7.1428 13.624 6.61372 14.0209 6.61372 14.55L5.42324 21.9573L5.15869 24.0737C5.15869 24.4705 5.42323 24.7351 5.68778 24.7351H9.7883C10.3174 24.7351 10.7142 24.3383 10.7142 23.9415V23.6769L11.5079 18.915V18.6505C11.6401 18.1214 12.037 17.8568 12.4338 17.8568H13.0952C17.0634 17.8568 20.1057 16.2695 20.8993 11.6399C21.2962 9.65581 21.0316 8.06852 20.1057 7.01032C19.8412 6.74578 19.4443 6.48122 19.0475 6.21667Z" fill="#2199D6" />
			<path d="M17.9894 5.8201C17.8571 5.8201 17.7248 5.68783 17.4603 5.68783C17.328 5.68783 17.0634 5.55555 16.9312 5.55555C16.2698 5.42328 15.6084 5.42328 14.947 5.42328H8.86243C8.73016 5.42328 8.59788 5.42328 8.4656 5.55555C8.20105 5.68783 7.93651 5.95237 7.93651 6.21692L6.61377 14.4179V14.6825C6.74604 14.1534 7.14285 13.7566 7.67195 13.7566H9.92063C14.418 13.7566 17.8571 11.9047 18.9153 6.74602C18.9153 6.61375 18.9153 6.48148 19.0476 6.3492C18.783 6.21693 18.5185 6.08465 18.2539 5.95238C18.1216 5.8201 17.9894 5.8201 17.9894 5.8201Z" fill="#C2C2C2" />
			<path d="M7.93647 6.21689C7.93647 5.95235 8.20101 5.6878 8.46556 5.55552C8.59783 5.55552 8.73011 5.42325 8.86238 5.42325H14.947C15.6084 5.42325 16.402 5.42325 16.9311 5.55552C17.0634 5.55552 17.3279 5.55553 17.4602 5.6878C17.5925 5.6878 17.7248 5.82007 17.9893 5.82007C18.1216 5.82007 18.1216 5.82008 18.2539 5.95235C18.5184 6.08462 18.783 6.2169 19.0475 6.34917C19.3121 4.36506 19.0475 3.04231 17.9893 1.85184C16.7988 0.529095 14.6824 0 12.037 0H4.23278C3.70368 0 3.17458 0.396819 3.17458 0.925917L0 21.2962C0 21.693 0.264549 22.0898 0.661372 22.0898H5.42324L6.61372 14.4179L7.93647 6.21689Z" fill="#EAEAEA" />
		</g>
	</svg>

	<svg viewBox="0 0 33 30" fill="none" xmlns="http://www.w3.org/2000/svg">
		<g id="yandex" class="img">
			<path d="M32.0113 12.2153C31.8443 11.2133 30.9258 10.5454 29.6734 10.5454C29.2559 10.5454 28.9219 10.5454 28.5044 10.5454C27.753 10.4619 27.586 10.7124 27.586 11.2969C27.586 14.2192 27.586 17.0581 27.586 19.9805C27.586 21.4834 26.083 23.0698 24.3296 23.4038C18.8189 24.6562 13.3081 25.8252 7.79736 27.0776C7.21288 27.2446 6.54493 27.2446 5.87696 27.2446C5.62647 27.2446 5.20899 27.0776 5.12549 26.8271C5.042 26.6601 5.29248 26.3262 5.45948 26.1592C5.70996 25.9922 6.04395 25.8252 6.37794 25.6582C7.37989 25.3242 8.46533 24.9902 9.46728 24.6562C13.5586 23.3203 17.6499 21.9844 21.7412 20.5649C23.5782 19.9804 24.5801 18.728 24.5801 17.1416C24.6636 12.1318 24.5801 7.03854 24.5801 2.02877C24.5801 1.19381 24.1626 0.52584 23.2442 0.191855C22.1587 -0.225626 21.1567 0.108354 20.2383 0.525835C14.3936 3.28121 8.63232 6.03659 2.78759 8.79197C1.11766 9.62693 0.115723 10.7959 0.115723 12.4658C0.115723 17.2251 0.115723 21.9844 0.115723 26.7437C0.115723 26.9941 0.115702 27.2446 0.199198 27.4116C0.783672 28.9981 2.28662 30 4.29053 30C8.38185 30 12.4731 30 16.5645 30C20.6558 30 24.6636 30 28.7549 30C29.6734 30 30.4248 29.833 31.0928 29.2485C31.9278 28.5806 31.9278 27.6621 31.9278 26.8271C31.9278 22.1514 31.9278 17.5591 31.9278 12.8833C32.0947 12.7998 32.0948 12.4658 32.0113 12.2153ZM14.978 10.7124C15.3955 9.62693 16.314 8.95896 17.6499 8.79197C18.5684 8.70847 19.3198 9.20945 19.4868 10.0444C19.6538 11.2969 18.1509 12.7998 16.5645 12.7998C15.312 12.7998 14.5606 11.8813 14.978 10.7124Z" fill="#E47418" />
		</g>
	</svg>

	<svg viewBox="0 0 30 30" fill="none" xmlns="http://www.w3.org/2000/svg">
		<g id="qiwi" class="img">
			<path d="M23.1294 18.8633C23.6276 19.0768 23.8412 19.7886 23.8412 20.1445C23.9124 20.714 23.77 20.9987 23.5564 20.9987C23.3429 20.9987 23.0582 20.7852 22.7734 20.2869C22.4887 19.7886 22.3463 19.2903 22.4887 19.0056C22.7023 18.8633 22.9158 18.7921 23.1294 18.8633Z" fill="#F28A1A" />
			<path d="M20.2108 21.07C20.4955 21.07 20.8514 21.2124 21.2073 21.4971C21.7768 21.9954 21.9903 22.5648 21.7056 22.9919C21.5632 23.2055 21.2073 23.3478 20.9226 23.3478C20.5667 23.3478 20.2108 23.2055 19.9972 22.9919C19.4278 22.4937 19.2854 21.7818 19.6413 21.3547C19.7125 21.2124 19.926 21.07 20.2108 21.07Z" fill="#F28A1A" />
			<path d="M13.4484 26.6933C6.04547 26.6933 0.0661621 20.714 0.0661621 13.3823C0.0661621 6.05049 6.04547 0 13.4484 0C20.8514 0 26.8307 5.97931 26.8307 13.3823C26.8307 15.8736 26.1189 18.2226 24.9799 20.2157C24.9088 20.2869 24.8376 20.2869 24.8376 20.1446C24.3393 16.8702 22.3462 15.0906 19.4989 14.5212C19.2142 14.45 19.2142 14.3076 19.5701 14.3076C20.4955 14.2364 21.7056 14.2364 22.4174 14.3788C22.4886 14.0229 22.4886 13.667 22.4886 13.3823C22.4886 8.54187 18.5024 4.55566 13.662 4.55566C8.82158 4.55566 4.83537 8.54187 4.83537 13.3823C4.83537 18.2226 8.82158 22.2089 13.662 22.2089H14.0891C13.9467 21.4258 13.8755 20.6428 13.9467 19.7887C13.9467 19.2192 14.0891 19.148 14.3026 19.5751C15.5127 21.7106 17.2923 23.5613 20.709 24.3443C23.4851 24.985 26.2612 25.6968 29.3221 29.4694C29.6068 29.8254 29.1797 30.1813 28.895 29.8965C25.8341 27.1916 23.058 26.2662 20.4955 26.2662C17.2923 26.3374 15.3703 26.6933 13.4484 26.6933Z" fill="#F28A1A" />
		</g>
	</svg>

	<svg viewBox="0 0 8 16" fill="none" xmlns="http://www.w3.org/2000/svg">
		<g id="up-arrow" class="img">
			<path d="M4.35355 0.646445C4.15829 0.451183 3.84171 0.451183 3.64645 0.646445L0.464466 3.82843C0.269204 4.02369 0.269204 4.34027 0.464466 4.53553C0.659728 4.73079 0.976311 4.73079 1.17157 4.53553L4 1.70711L6.82843 4.53553C7.02369 4.73079 7.34027 4.73079 7.53553 4.53553C7.7308 4.34027 7.7308 4.02369 7.53553 3.82843L4.35355 0.646445ZM4.5 16L4.5 0.999999H3.5L3.5 16H4.5Z" fill="white" />
		</g>
	</svg>

	<svg viewBox="0 0 16 16" fill="none" xmlns="http://www.w3.org/2000/svg">
		<g id="close-popup" class="img">
			<line x1="1.00716" y1="1" x2="14.4422" y2="14.435" stroke="white" stroke-linecap="round" stroke-linejoin="round" />
			<line x1="0.952393" y1="14.2929" x2="14.3874" y2="0.857865" stroke="white" stroke-linecap="round" stroke-linejoin="round" />
		</g>
	</svg>

	<svg viewBox="0 0 100 96" fill="none" xmlns="http://www.w3.org/2000/svg">
		<g id="success" class="img">
			<path d="M48.75 91.1837C36.875 91.1837 25.9375 86.4996 17.5 78.3805C9.0625 70.2614 4.375 59.3319 4.375 47.7778C4.375 36.2237 9.0625 25.2941 17.5 17.175C25.9375 9.05592 36.875 4.37182 48.75 4.37182C54.375 4.37182 59.6875 5.30864 64.6875 7.49455L66.5625 3.435C60.9375 1.24909 55 0 48.75 0C35.625 0 23.4375 4.99637 14.375 14.0523C5 23.1082 0 34.9746 0 47.7778C0 60.581 5 72.4474 14.375 81.5033C23.4375 90.5592 35.9375 95.5556 48.75 95.5556C61.875 95.5556 74.0625 90.5592 83.125 81.5033C92.1875 72.4474 97.5 60.581 97.5 47.7778V45.5919H93.125V47.7778C93.125 59.3319 88.4375 70.2614 80 78.3805C71.5625 86.8119 60.625 91.1837 48.75 91.1837Z" fill="#EB5757" />
			<path d="M49.0623 59.332L99.9998 9.68059L96.8748 6.55786L48.7498 54.0234L37.8123 43.4061L34.6873 46.5288L49.0623 59.332Z" fill="#EB5757" />
		</g>
	</svg>





	<svg viewBox="0 0 16 16">
		<g id="chart" class="img">
			<rect x="6" width="4" height="16" />
			<rect x="12" y="4" width="4" height="12" />
			<rect x="0" y="8" width="4" height="8" />
		</g>
	</svg>
</svg>
