<svg width="18" height="20" viewBox="0 0 18 20" fill="none" xmlns="http://www.w3.org/2000/svg">
<path d="M0.88554 17.0173L0.885734 17.0177C0.989983 17.2015 1.18533 17.315 1.39617 17.315H16.4378C16.6486 17.315 16.844 17.2016 16.9483 17.0176L16.9485 17.0173C17.0515 16.8346 17.0495 16.6086 16.9402 16.4276C16.9401 16.4275 16.9401 16.4275 16.9401 16.4275L15.5803 14.1623C14.971 13.146 14.6487 11.9827 14.6487 10.7972V8.8125C14.6487 5.65253 12.077 3.08084 8.91701 3.08084C5.75705 3.08084 3.18536 5.65253 3.18536 8.8125V10.7972C3.18536 11.9827 2.863 13.146 2.25368 14.1623L0.893902 16.4275C0.893855 16.4276 0.893808 16.4276 0.893761 16.4277C0.784555 16.6087 0.782471 16.8347 0.88554 17.0173ZM15.4031 16.1433H2.43081L3.25801 14.7647C3.97716 13.5666 4.35701 12.1949 4.35701 10.7972V8.8125C4.35701 6.29781 6.40232 4.2525 8.91701 4.2525C11.4317 4.2525 13.477 6.29781 13.477 8.8125V10.7972C13.477 12.1949 13.8569 13.5666 14.5752 14.7646L14.5752 14.7647L15.4031 16.1433Z" fill="#7EC0A4" stroke="#7EC0A4" stroke-width="0.38"/>
<path d="M8.91734 0.31C7.93918 0.31 7.14398 1.10519 7.14398 2.08334V3.66669C7.14398 3.9901 7.40641 4.2525 7.72983 4.2525C8.05327 4.2525 8.31568 3.99009 8.31568 3.66665V2.08334C8.31568 1.75128 8.58527 1.48169 8.91734 1.48169C9.2494 1.48169 9.51899 1.75128 9.51899 2.08334V3.66669C9.51899 3.9901 9.78142 4.2525 10.1048 4.2525C10.4283 4.2525 10.6907 3.99009 10.6907 3.66665V2.08334C10.6907 1.10519 9.89549 0.31 8.91734 0.31Z" fill="#7EC0A4" stroke="#7EC0A4" stroke-width="0.38"/>
<path d="M10.7948 16.433L10.7948 16.433L10.7943 16.432C10.629 16.1531 10.2722 16.0629 9.99405 16.2223L9.99404 16.2223L9.99249 16.2232C9.71286 16.387 9.61883 16.7465 9.78303 17.0258C9.86834 17.1708 9.91593 17.3472 9.91593 17.5208C9.91593 18.0706 9.46822 18.5183 8.91844 18.5183C8.36866 18.5183 7.92094 18.0706 7.92094 17.5208C7.92094 17.3472 7.96854 17.1708 8.05384 17.0258L8.05385 17.0258L8.05432 17.0249C8.2168 16.7455 8.12344 16.3873 7.84466 16.2234L7.84467 16.2234L7.84226 16.222C7.56333 16.0634 7.20697 16.1525 7.04229 16.4326L7.04229 16.4326L7.04205 16.433C6.84994 16.7615 6.74848 17.1374 6.74848 17.5208V17.5209C6.74852 18.7175 7.721 19.69 8.91766 19.69C10.1144 19.69 11.0867 18.7175 11.0884 17.5211V17.5208C11.0884 17.1374 10.9869 16.7615 10.7948 16.433Z" fill="#7EC0A4" stroke="#7EC0A4" stroke-width="0.38"/>
</svg>
