<svg width="653" height="572" viewBox="0 0 653 572" fill="none" xmlns="http://www.w3.org/2000/svg">
<g opacity="0.4">
<g clip-path="url(#clip0)">
<path d="M468.266 388.974L468.266 388.974C461.174 383.51 454.514 377.502 447.869 371.444C447.377 370.996 446.886 370.547 446.395 370.099C440.245 364.488 434.082 358.864 427.595 353.642L427.594 353.641C424.746 351.352 421.836 349.138 418.929 346.926C418.432 346.548 417.935 346.17 417.438 345.791C414.035 343.197 410.649 340.588 407.368 337.836C384.526 318.53 368.358 292.623 352.474 267.141L352.355 266.949L352.132 266.912C318.278 261.262 281.014 250.554 250.311 235.273L250.311 235.273C248.952 234.598 247.585 233.913 246.208 233.222C237.919 229.066 229.314 224.75 220.567 221.802C210.36 218.361 199.905 216.761 189.454 219.452C188.636 219.651 187.645 219.597 186.804 219.287C186.175 219.054 185.671 218.696 185.366 218.232C191.286 217.047 197.196 215.884 203.132 214.717C204.91 214.367 206.69 214.017 208.473 213.665L208.511 212.693C186.445 206.539 166.758 192.074 154.371 172.79C153.568 171.54 153.03 169.736 153.069 168.256C153.088 167.517 153.249 166.91 153.539 166.493C153.769 166.164 154.096 165.927 154.572 165.84C161.741 178.747 173.188 189.175 186.71 195.124C189.47 196.344 196.013 199.779 202.454 203.355C208.904 206.936 215.185 210.623 217.445 212.345L217.748 211.948L217.445 212.345C240.325 229.786 268.71 237.933 296.284 245.688L296.285 245.688C299.631 246.627 303.704 247.963 308.161 249.436C308.475 249.54 308.791 249.644 309.108 249.749C313.295 251.134 317.787 252.619 322.292 253.991C331.964 256.935 341.779 259.381 348.83 259.152L348.833 259.152C349.444 259.128 349.964 258.943 350.207 258.456C350.419 258.029 350.319 257.534 350.219 257.176C350.164 256.979 350.095 256.778 350.028 256.59L350.007 256.529C349.947 256.359 349.891 256.2 349.843 256.044C349.729 255.674 349.705 255.445 349.741 255.313L349.744 255.303C349.96 254.433 350.487 253.777 351.325 253.463C352.183 253.142 353.445 253.152 355.163 253.805L355.164 253.805C359.161 255.312 362.275 258.175 364.941 261.646C367.321 264.746 369.319 268.296 371.268 271.757C371.505 272.178 371.741 272.598 371.977 273.015C383.011 292.618 397.633 310.159 414.923 324.506C429.837 336.911 443.671 350.156 457.6 363.494C462.936 368.603 468.286 373.726 473.716 378.82L473.717 378.82C478.827 383.602 485.364 389.515 492.253 394.886C499.136 400.253 506.399 405.1 512.962 407.727L514.253 408.244L513.587 407.024C508.19 397.132 505.761 388.924 503.985 381.213C503.515 379.176 503.091 377.168 502.668 375.169C501.494 369.615 500.335 364.133 498.277 358.307L497.805 358.474L498.277 358.307C496.467 353.19 494.977 346.49 493.336 339.108C493.13 338.183 492.922 337.247 492.71 336.302C490.816 327.837 488.661 318.68 485.58 310.199C485.225 309.22 485.317 308.424 485.629 307.817C485.946 307.2 486.515 306.73 487.19 306.463C488.562 305.921 490.12 306.274 490.716 307.57C490.774 307.778 490.867 307.972 491.019 308.122C491.191 308.294 491.399 308.37 491.601 308.385C491.788 308.399 491.964 308.361 492.102 308.32C492.241 308.279 492.379 308.223 492.49 308.178L492.492 308.177C492.613 308.127 492.704 308.09 492.785 308.066C492.787 308.065 492.789 308.065 492.791 308.064C492.794 308.077 492.796 308.091 492.798 308.107C495.143 327.375 499.69 345.041 504.085 362.117C505.299 366.834 506.501 371.505 507.642 376.153L507.643 376.155L507.651 376.188C510.239 386.56 512.927 397.334 519.256 406.11L519.257 406.111C523.858 412.463 530.098 417.436 536.228 422.24C549.171 432.434 562.11 442.637 575.052 452.843C591.085 465.486 607.124 478.134 623.181 490.774C622.131 492.204 621.308 493.661 620.505 495.081L620.488 495.11C619.687 496.527 618.905 497.908 617.926 499.238L578.537 465.108L578.21 465.486L578.537 465.108L577.934 464.586C564.981 453.368 551.963 442.093 537.73 432.4C527.972 425.724 517.704 419.818 507.458 413.925C505.845 412.997 504.233 412.07 502.623 411.14C490.778 404.297 479.069 397.307 468.266 388.974Z" stroke="#7FB36E"/>
<path d="M410.727 342.94C412.36 342.708 414.032 342.392 415.606 342.745C417.222 343.117 418.705 344.348 418.875 346.005C413.776 347.478 408.529 348.374 403.263 348.75C399.841 348.991 396.369 349.005 393.219 350.337C390.211 351.581 387.83 353.922 385.509 356.241C384.19 357.583 382.771 359.033 382.429 360.919C382.156 362.427 382.549 363.93 383.002 365.41C383.991 368.865 384.981 372.32 385.97 375.775C385.012 375.751 384.013 375.707 383.055 375.683C381.66 371.433 380.284 367.141 379.961 362.661C379.681 358.2 380.576 353.505 383.413 350.042C375.578 345.946 366.028 347.908 357.333 346.279C354.506 345.768 351.766 344.837 348.905 345.076C346.314 345.284 343.453 346.542 340.916 345.499C343.212 339.396 346.016 339.846 351.917 340.775C358.445 341.783 364.968 342.688 371.503 343.342C384.53 344.631 397.747 344.935 410.727 342.94Z" stroke="#6ACB6C" stroke-width="0.5" stroke-miterlimit="10" stroke-linecap="round"/>
<path d="M120.48 176.976C113.668 176.146 107.327 173.029 101.251 169.778C94.8366 166.373 88.4751 162.737 83.0642 157.899C81.0179 156.108 79.0863 154.064 78.0111 151.59C76.8935 149.097 76.732 146.066 78.095 143.724C78.7191 142.68 79.6396 141.769 80.0097 140.61C80.7921 138.312 79.3631 135.831 79.6224 133.45C79.7725 131.988 80.5728 130.666 81.4386 129.425C86.2515 122.826 94.6283 119.059 102.766 119.774C103.413 119.811 104.143 119.886 104.669 119.511C105.337 119.048 105.446 118.128 105.498 117.336C105.714 114.373 105.929 111.411 106.187 108.468C106.355 106.402 106.518 104.232 107.783 102.559C108.592 101.445 109.789 100.711 110.945 99.9573C113.218 98.5353 115.552 97.09 118.169 96.4863C121.362 95.7347 124.596 97.0409 127.651 96.482C130.83 95.8766 134.168 94.5785 137.338 93.7654C139.252 93.2522 141.188 92.8004 143.142 92.764C144.93 92.755 146.649 93.1231 148.373 93.5951C159.767 96.697 169.819 103.222 179.564 109.864C182.407 111.809 185.292 113.774 187.579 116.387C189.495 118.578 190.947 121.12 192.215 123.732C193.642 126.67 194.864 129.721 195.407 132.923C196.383 138.667 194.941 144.798 191.55 149.489C188.14 154.222 182.823 157.534 177.057 158.45C174.762 158.792 173.143 159.896 171.543 161.52C167.163 165.918 161.476 168.808 155.93 171.608C150.527 174.32 146.556 179.055 140.472 178.757C134.415 178.625 128.86 179.075 120.48 176.976Z" stroke="#6ACB6C" stroke-width="0.5" stroke-miterlimit="10" stroke-linecap="round"/>
<path d="M161.946 170.703C166.549 167.731 172.206 161.972 184.845 157.682C187.738 156.693 185.366 155.061 183.222 154.502C178.142 152.77 175.527 157.097 174.762 152.468C179.324 150.04 182.911 145.591 183.033 140.24C183.083 137.305 182.114 134.369 180.297 132.071C181.107 133.099 178.352 141.238 175.059 145.259C169.11 152.569 163.916 153.234 162.702 150.392C158.993 141.783 154.47 131.022 146.355 125.626C147.017 126.078 147.389 130.223 147.46 130.969C147.649 132.584 148.039 134.545 147.539 136.104C146.905 137.96 144.752 136.631 143.27 135.962C139.459 134.242 135.371 132.346 131.303 130.97C127.805 129.799 123.26 128.462 119.561 128.526C119.873 128.514 130.241 136.711 134.123 140.758C139.652 146.466 148.397 154.645 149.525 161.069C149.895 163.072 148.762 168.067 146.736 168.377C142.643 168.977 141.024 169.063 137.076 168.097C133.506 167.2 127 165.692 122.656 164.7C116.885 163.371 109.395 160.654 109.516 162.646C109.42 164.438 117.601 168.334 121.404 169.846C124.087 170.904 126.785 171.816 129.578 172.515C130.628 172.785 137.905 174.845 138.622 174.047C136.766 176.014 135.97 177.439 132.776 178.191C131.189 178.546 128.413 178.823 123.601 178.079C129.654 182.85 140.561 182.061 147.726 181.317C155.038 180.588 155.619 174.783 161.946 170.703Z" stroke="#6ACB6C" stroke-width="0.5" stroke-miterlimit="10" stroke-linecap="round" stroke-linejoin="round"/>
<path d="M80.1543 138.483C81.5165 141.902 83.7284 146.827 86.664 149.019" stroke="#6ACB6C" stroke-width="0.5" stroke-miterlimit="10" stroke-linecap="round"/>
<path d="M154.04 216.343C145.44 213.941 136.23 213.456 127.584 215.673C118.938 217.891 110.941 222.849 105.61 230.03C105.059 230.801 104.511 231.676 104.671 232.564C104.858 233.617 105.883 234.283 106.358 235.263C106.969 236.507 106.469 238.066 105.618 239.161C104.81 240.275 103.658 241.132 102.765 242.208C98.9506 246.708 100.029 253.467 101.77 259.097C106.081 272.923 113.991 286.794 127.198 292.652C128.019 295.011 128.176 298.957 129.016 301.274C129.628 303.08 130.282 304.905 131.444 306.398C132.431 307.711 133.718 308.699 135.062 309.561C140.767 313.41 147.532 315.698 154.389 316.09C162.227 316.568 170.012 314.676 177.489 312.339C181.885 310.957 186.333 309.344 189.79 306.314C192.744 303.721 194.812 300.269 197.377 297.296C200.455 293.637 204.327 290.591 208.609 288.444C211.382 287.043 214.355 285.988 216.711 284.043C218.584 282.491 219.978 280.418 221.269 278.349C223.474 274.704 225.337 270.802 225.876 266.558C226.873 259.155 223.685 251.648 218.826 246.039C213.944 240.368 207.523 236.298 201.077 232.624C196.78 230.175 192.406 227.895 187.975 225.742C184.263 223.914 180.452 222.194 176.462 221.21C168.648 219.213 161.759 218.552 154.04 216.343Z" stroke="#6ACB6C" stroke-width="0.5" stroke-miterlimit="10" stroke-linecap="round"/>
<path d="M172.559 213.482C169.617 213.225 166.503 213.349 163.876 214.765C161.269 216.138 159.133 218.386 156.212 219.21C153.888 219.844 151.437 219.401 149.041 219.289C143.311 218.997 137.551 220.58 132.768 223.724C137.995 227.052 144.77 226.948 150.13 229.978C153.703 231.999 156.853 235.409 160.906 235.351C163.671 235.324 166.119 233.625 168.211 231.815C170.302 230.005 172.173 227.892 174.661 226.669C173.419 229.423 173.565 232.599 174.265 235.567C174.922 238.515 176.156 241.315 176.936 244.217C178.585 250.163 178.571 256.632 176.451 262.458C179.287 261.596 182.06 260.196 183.923 257.875C185.843 255.427 186.546 252.174 186.526 249.055C186.507 245.936 185.926 242.818 185.553 239.692C185.467 239.092 185.461 238.427 185.837 237.933C186.63 236.966 188.121 237.842 189.007 238.701C196.305 246.023 200.544 254.361 205.246 263.367C205.685 260.25 204.888 256.933 203.796 254.044C201.4 247.608 196.841 242.237 194.241 235.913C192.19 230.857 193.429 224.838 190.89 220.072C187.923 214.449 176.19 213.795 172.559 213.482Z" stroke="#6ACB6C" stroke-width="0.5" stroke-miterlimit="10" stroke-linecap="round" stroke-linejoin="round"/>
<path d="M126.925 292.58C130.161 293.428 133.473 294.107 136.82 294.597" stroke="#6ACB6C" stroke-width="0.5" stroke-miterlimit="10" stroke-linecap="round"/>
<path d="M317.226 248.12C318.133 249.498 319.082 250.896 319.375 252.506C319.667 254.117 319.222 256.007 317.778 256.834C314.354 252.79 311.351 248.375 308.859 243.732C307.263 240.718 305.786 237.552 303.281 235.198C300.907 233.005 297.801 231.756 294.741 230.63C292.947 229.974 291.069 229.279 289.236 229.727C287.753 230.077 286.525 231.104 285.378 232.065C282.642 234.4 279.906 236.735 277.128 239.051C276.761 238.171 276.412 237.249 276.003 236.35C279.294 233.348 282.666 230.28 286.575 228.169C290.527 226.077 295.203 224.975 299.532 226.112C300.056 217.272 294.337 209.388 292.208 200.778C291.517 198.018 291.194 195.119 289.846 192.573C288.59 190.273 286.263 188.202 286.175 185.46C292.687 185.034 293.398 187.751 295.02 193.531C296.789 199.888 298.682 206.198 300.759 212.439C304.936 224.981 310.054 237.132 317.226 248.12Z" stroke="#6ACB6C" stroke-width="0.5" stroke-miterlimit="10" stroke-linecap="round"/>
<path d="M321.971 172.548C329.639 169.788 335.177 162.598 337.403 154.73C339.629 146.861 338.881 138.467 336.861 130.518C335.676 125.802 334.015 121.126 331.378 117.03C328.209 112.081 323.685 108.101 318.816 104.885C315.315 102.591 311.407 100.521 309.064 97.0161C306.567 93.2885 306.236 88.6007 304.737 84.3548C302.413 77.6458 296.846 72.0231 290.066 69.881C283.285 67.7389 275.402 69.281 270.035 73.9467C268.588 75.2317 267.296 76.7394 265.499 77.56C262.987 78.7212 260.098 78.2333 257.33 78.1567C249.104 77.8612 240.593 81.9244 236.636 89.1132C233.746 94.3872 233.431 100.619 232.669 106.599C232.526 107.707 232.364 108.857 231.608 109.74C231.091 110.323 230.357 110.706 229.643 111.046C225.33 112.924 220.075 113.612 217.378 117.443C215.765 119.775 215.511 122.822 215.622 125.626C216.345 140.74 226.457 154.023 238.584 163.065C250.712 172.108 264.953 177.821 278.314 184.921C283.901 187.901 290.611 185.117 296.601 183.026C302.59 180.936 308.231 177.923 314.317 176.182C317.899 175.249 318.549 173.808 321.971 172.548Z" stroke="#6ACB6C" stroke-width="0.5" stroke-miterlimit="10" stroke-linecap="round"/>
<path d="M306.497 184.024C310.306 182.021 314.022 179.772 317.233 176.835C325.339 169.377 324.558 156.99 328.568 147.428C329.405 145.46 330.411 143.568 330.975 141.528C331.539 139.488 331.656 137.195 330.667 135.321C331.297 136.523 328.824 140.761 328.2 141.806C325.539 146.571 321.057 149.954 317.861 154.325C314.508 158.931 311.775 163.97 309.508 169.219C307.375 174.171 305.263 179.643 300.605 182.284C303.435 174.433 305.285 167.058 304.264 158.591C302.763 162.707 300.82 166.674 298.472 170.408C297.691 171.688 296.483 173.233 294.934 173.503C294.377 173.609 293.704 173.407 293.433 172.877C293.252 172.489 293.339 172.069 293.384 171.631C293.77 169.306 294.01 166.967 293.774 164.668C293.192 159.408 289.835 156.567 287.582 152.185C282.103 141.4 293.404 127.99 286.519 117.948C283.506 121.687 283.651 127.464 282.106 132.019C280.243 137.501 277.857 142.901 276.899 148.639C274.831 161.014 280.823 172.132 287.558 182.056C287.029 181.307 282.497 180.282 281.307 179.643C279.074 178.38 277.017 176.84 275.078 175.149C271.417 171.967 265.931 176.783 262.27 173.601C260.848 172.348 253.365 166.115 252.047 168.019C250.953 171.911 259.078 176.495 262.432 179.794C267.019 184.311 276.918 184.852 282.742 187.532C285.814 188.969 289.043 188.59 292.454 188.6C296.011 188.624 298.826 187.243 302.092 186.218C303.859 185.69 304.826 184.902 306.497 184.024Z" stroke="#6ACB6C" stroke-width="0.5" stroke-miterlimit="10" stroke-linecap="round" stroke-linejoin="round"/>
<path d="M268.696 75.3314C265.619 77.9712 263.162 81.0439 261.564 84.8102" stroke="#6ACB6C" stroke-width="0.5" stroke-miterlimit="10" stroke-linecap="round"/>
<path d="M314.973 421.398C311.54 432.393 316.863 444.993 326.174 451.694C328.87 453.625 331.843 455.17 335.109 455.726C340.614 456.629 346.338 454.674 351.813 455.87C357.433 457.081 361.72 461.361 366.147 464.991C374.852 472.131 385.336 477.474 396.57 478.669C407.805 479.864 419.736 476.579 427.699 468.648C433.341 463.035 433.943 451.987 438.703 445.619C444.865 437.385 456.602 433.401 456.591 423.147C456.582 415.035 450.82 408.151 444.586 402.992C433.554 393.781 419.999 387.562 405.866 385.11C397.072 383.589 388.128 383.53 379.211 383.637C366.407 383.774 356.053 385.935 345.374 392.997C334.103 400.353 319.348 407.411 314.973 421.398Z" stroke="#6ACB6C" stroke-width="0.5" stroke-miterlimit="10" stroke-linecap="round"/>
<path d="M348.231 393.215C351.836 393.924 355.439 392.491 358.94 391.623C362.502 390.732 366.697 390.585 369.276 393.228C372.225 396.292 371.3 401.28 372.337 405.42C374.213 412.895 382.603 417.344 384.314 424.848C387.75 419.718 387.84 412.517 384.516 407.346C383.361 405.499 381.781 403.919 380.707 402.007C377.671 396.761 378.983 389.449 383.549 385.544C386.648 391.327 391.639 396.079 397.595 398.919C403.212 401.607 410.04 402.853 413.652 407.95C410.474 398.051 400.381 392.069 395.486 382.925C405.261 386.112 415.016 389.342 424.791 392.529C423.915 391.42 422.921 390.461 421.846 389.568C412.844 381.732 396.68 371.582 384.004 373.919C378.72 374.899 373.657 378.326 368.925 380.678C361.89 384.183 353.588 387.219 348.231 393.215Z" stroke="#6ACB6C" stroke-width="0.5" stroke-miterlimit="10" stroke-linecap="round" stroke-linejoin="round"/>
<path d="M441.329 442.623C438.163 445.12 434.098 446.447 430.061 446.359" stroke="#6ACB6C" stroke-width="0.5" stroke-miterlimit="10" stroke-linecap="round"/>
<path d="M442.429 292.23C433.629 285.301 426.58 275.848 423.926 265.013C421.272 254.178 423.406 241.882 430.725 233.457C438.063 224.989 450.7 221.156 461.097 225.338C463.906 226.453 466.468 228.119 469.316 229.149C470.624 229.638 472.052 229.976 473.435 229.733C475.419 229.405 476.961 227.908 478.534 226.68C486.976 219.832 498.618 217.641 509.331 219.314C520.063 220.945 530.019 226.101 538.78 232.553C545.313 237.388 551.604 243.439 553.374 251.377C554.311 255.625 553.884 260.072 553.099 264.409C552.432 268.034 551.556 271.668 549.515 274.724C547.649 277.503 544.909 279.734 543.594 282.761C541.159 288.495 544.339 295.794 540.949 301.046C537.755 305.979 530.799 306.257 524.963 306.427C508.845 306.905 493.536 309.43 477.358 307.33C464.692 305.694 452.473 300.129 442.429 292.23Z" stroke="#6ACB6C" stroke-width="0.5" stroke-miterlimit="10" stroke-linecap="round"/>
<path d="M497.611 313.614C502.79 312.076 507.432 309.02 512.708 307.832C515.079 307.321 517.547 307.16 519.868 306.423C525.166 304.734 529.276 299.807 529.95 294.247C521.499 303.487 506.586 306.038 495.581 300.154C499.556 298.123 503.546 295.946 506.687 292.826C509.89 289.682 512.174 285.409 511.894 280.948C509.699 281.182 508.239 283.174 506.936 284.932C501.82 291.751 494.689 297.049 486.652 299.949C491.008 293.348 494.211 286.023 495.988 278.36C493.781 277.262 489.385 285.987 488.465 283.735C487.544 281.484 489.469 273.378 489.186 270.956C488.534 265.511 486.001 261.41 482.997 259.596C485.329 273.855 476.771 288.3 479.372 302.528C473.049 300.388 472.659 302.609 454.538 283.468C455.165 285.128 458.113 292.373 457.933 294.128C453.75 288.263 438.161 272.661 437.319 277.125C437.119 280.503 442.722 288.079 446.326 292.969C454.722 304.407 469.414 308.896 483.059 312.656C485.54 313.369 487.375 313.482 489.921 313.714C493.071 313.962 494.568 314.485 497.611 313.614Z" stroke="#6ACB6C" stroke-width="0.5" stroke-miterlimit="10" stroke-linecap="round" stroke-linejoin="round"/>
<path d="M468.996 228.954C475.173 231.079 478.99 233.464 484.746 236.52" stroke="#6ACB6C" stroke-width="0.5" stroke-miterlimit="10" stroke-linecap="round"/>
<path d="M283.53 346.731C278.38 343.234 273.513 338.997 270.427 333.525C265.684 325.062 265.687 314.099 270.055 305.209C274.382 296.3 282.789 289.641 292.122 286.918C297.921 285.251 303.942 285.011 309.861 284.316C323.108 282.747 336.052 278.798 349.303 277.333C362.553 275.868 376.75 277.277 387.298 285.301C397.785 293.348 402.936 309.491 395.783 321.051C393.006 325.509 388.64 329.199 387.407 334.303C386.908 336.424 386.995 338.604 386.789 340.755C385.715 350.928 376.666 359.797 366.652 360.53C358.635 372.873 344.742 381.748 330.356 381.324C320.904 381.036 311.625 376.186 305.957 368.529C303.298 364.932 302.952 358.81 300.441 355.79C297.19 351.926 287.933 349.737 283.53 346.731Z" stroke="#6ACB6C" stroke-width="0.5" stroke-miterlimit="10" stroke-linecap="round"/>
</g>
</g>
<defs>
<clipPath id="clip0">
<rect x="138.266" width="644.459" height="336.139" transform="rotate(24.2887 138.266 0)" fill="white"/>
</clipPath>
</defs>
</svg>
