<svg width="560" height="284" viewBox="0 0 560 284" fill="none" xmlns="http://www.w3.org/2000/svg">
<g opacity="0.2">
<path d="M275.39 185.579C281.01 200.852 295.573 213.992 309.965 221.586C337.132 235.963 370.473 241.423 400.918 236.987" fill="#D1EBE1"/>
<path d="M275.39 185.579C281.01 200.852 295.573 213.992 309.965 221.586C337.132 235.963 370.473 241.423 400.918 236.987" stroke="#575756" stroke-width="0.5" stroke-miterlimit="10" stroke-linecap="round"/>
<path d="M-28.9355 250.34C61.2507 192.405 173.111 183.873 276.752 156.654C336.962 140.869 395.383 118.301 450.652 89.6326" stroke="#575756" stroke-width="0.5" stroke-miterlimit="10" stroke-linecap="round"/>
<path d="M358.806 159.043C358.976 159.171 359.189 159.257 359.359 159.385C385.674 157.721 412.585 164.803 435.664 177.559C458.743 190.315 479.182 207.294 499.45 224.145C447.501 224.444 392.743 199.274 359.359 159.385" fill="#D1EBE1"/>
<path d="M358.806 159.043C358.976 159.171 359.189 159.257 359.359 159.385C385.674 157.721 412.585 164.803 435.664 177.559C458.743 190.315 479.182 207.294 499.45 224.145C447.501 224.444 392.742 199.274 359.359 159.385" stroke="#575756" stroke-width="0.5" stroke-miterlimit="10" stroke-linecap="round"/>
<path d="M324.826 143.728C336.621 147.653 348.033 152.772 358.763 159.043L324.826 143.728Z" fill="#D1EBE1"/>
<path d="M324.826 143.728C336.621 147.653 348.033 152.772 358.763 159.043" stroke="#575756" stroke-width="0.5" stroke-miterlimit="10" stroke-linecap="round"/>
<path d="M359.7 159.513C381.501 171.97 408.455 185.067 431.406 195.349C453.889 205.417 477.734 212.499 499.45 224.188" fill="#D1EBE1"/>
<path d="M359.7 159.513C381.501 171.97 408.455 185.067 431.406 195.349C453.889 205.417 477.734 212.499 499.45 224.188" stroke="#575756" stroke-width="0.5" stroke-miterlimit="10" stroke-linecap="round"/>
<path d="M368.173 163.95C371.58 162.115 375.71 159.982 379.585 159.683L368.173 163.95Z" fill="#D1EBE1"/>
<path d="M368.173 163.95C371.58 162.115 375.71 159.982 379.585 159.683" stroke="#575756" stroke-width="0.5" stroke-miterlimit="10" stroke-linecap="round"/>
<path d="M376.519 168.728C382.31 165.571 388.74 163.224 395.255 162.414L376.519 168.728Z" fill="#D1EBE1"/>
<path d="M376.519 168.728C382.31 165.571 388.74 163.224 395.255 162.414" stroke="#575756" stroke-width="0.5" stroke-miterlimit="10" stroke-linecap="round"/>
<path d="M384.865 172.823C391.423 169.581 398.193 167.106 405.134 164.803L384.865 172.823Z" fill="#D1EBE1"/>
<path d="M384.865 172.823C391.423 169.581 398.193 167.106 405.134 164.803" stroke="#575756" stroke-width="0.5" stroke-miterlimit="10" stroke-linecap="round"/>
<path d="M392.402 176.577C398.746 173.25 405.645 169.922 412.33 167.277L392.402 176.577Z" fill="#D1EBE1"/>
<path d="M392.402 176.577C398.746 173.25 405.645 169.922 412.33 167.277" stroke="#575756" stroke-width="0.5" stroke-miterlimit="10" stroke-linecap="round"/>
<path d="M400.705 180.716C404.154 178.327 407.816 177.047 411.563 175.042C414.416 173.549 417.61 171.543 420.633 170.52" fill="#D1EBE1"/>
<path d="M400.705 180.716C404.154 178.327 407.816 177.047 411.563 175.042C414.416 173.549 417.61 171.543 420.633 170.52" stroke="#575756" stroke-width="0.5" stroke-miterlimit="10" stroke-linecap="round"/>
<path d="M408.199 184.043C415.225 180.204 421.698 177.217 429.277 174.615L408.199 184.043Z" fill="#D1EBE1"/>
<path d="M408.199 184.043C415.225 180.204 421.698 177.217 429.277 174.615" stroke="#575756" stroke-width="0.5" stroke-miterlimit="10" stroke-linecap="round"/>
<path d="M414.629 187.243C422.847 185.963 429.958 180.673 438.091 179.137L414.629 187.243Z" fill="#D1EBE1"/>
<path d="M414.629 187.243C422.847 185.963 429.958 180.673 438.091 179.137" stroke="#575756" stroke-width="0.5" stroke-miterlimit="10" stroke-linecap="round"/>
<path d="M422.421 191.04C429.064 189.205 435.664 187.371 442.264 185.579C443.925 185.11 445.287 184.769 446.948 184.299" fill="#D1EBE1"/>
<path d="M422.421 191.04C429.064 189.205 435.664 187.371 442.264 185.579C443.925 185.11 445.287 184.769 446.948 184.299" stroke="#575756" stroke-width="0.5" stroke-miterlimit="10" stroke-linecap="round"/>
<path d="M432.3 195.562C433.62 195.221 434.94 194.879 436.218 194.538C442.732 192.832 448.225 191.424 454.74 189.76" fill="#D1EBE1"/>
<path d="M432.3 195.562C433.62 195.221 434.94 194.879 436.218 194.538C442.732 192.832 448.225 191.424 454.74 189.76" stroke="#575756" stroke-width="0.5" stroke-miterlimit="10" stroke-linecap="round"/>
<path d="M442.222 199.913C448.694 198.548 456.486 196.543 463.001 195.349L442.222 199.913Z" fill="#D1EBE1"/>
<path d="M442.222 199.913C448.694 198.548 456.486 196.543 463.001 195.349" stroke="#575756" stroke-width="0.5" stroke-miterlimit="10" stroke-linecap="round"/>
<path d="M455.507 205.033C460.361 203.796 466.493 201.705 471.517 201.62L455.507 205.033Z" fill="#D1EBE1"/>
<path d="M455.507 205.033C460.361 203.796 466.493 201.705 471.517 201.62" stroke="#575756" stroke-width="0.5" stroke-miterlimit="10" stroke-linecap="round"/>
<path d="M465.641 209.256C468.835 208.403 473.817 206.569 477.053 205.929L465.641 209.256Z" fill="#D1EBE1"/>
<path d="M465.641 209.256C468.835 208.403 473.817 206.569 477.053 205.929" stroke="#575756" stroke-width="0.5" stroke-miterlimit="10" stroke-linecap="round"/>
<path d="M483.057 210.664C480.587 211.048 477.649 211.731 475.264 212.456C475.733 213.395 476.116 214.632 476.584 215.57C477.904 218.215 478.799 220.306 480.119 222.908" fill="#D1EBE1"/>
<path d="M483.057 210.664C480.587 211.048 477.649 211.731 475.264 212.456C475.733 213.395 476.116 214.632 476.584 215.57C477.904 218.215 478.799 220.306 480.119 222.908" stroke="#575756" stroke-width="0.5" stroke-miterlimit="10" stroke-linecap="round"/>
<path d="M485.143 217.362C485.952 219.709 486.889 221.586 488.038 223.719L485.143 217.362Z" fill="#D1EBE1"/>
<path d="M485.143 217.362C485.952 219.709 486.889 221.586 488.038 223.719" stroke="#575756" stroke-width="0.5" stroke-miterlimit="10" stroke-linecap="round"/>
<path d="M465.641 209.256C466.706 212.2 467.685 215.186 468.536 218.215C468.835 219.282 469.175 220.391 469.814 221.33" fill="#D1EBE1"/>
<path d="M465.641 209.256C466.706 212.2 467.685 215.186 468.536 218.215C468.835 219.282 469.175 220.391 469.814 221.33" stroke="#575756" stroke-width="0.5" stroke-miterlimit="10" stroke-linecap="round"/>
<path d="M455.336 205.374C456.273 210.195 457.295 214.461 458.743 219.154L455.336 205.374Z" fill="#D1EBE1"/>
<path d="M455.336 205.374C456.273 210.195 457.295 214.461 458.743 219.154" stroke="#575756" stroke-width="0.5" stroke-miterlimit="10" stroke-linecap="round"/>
<path d="M442.264 200.511C442.647 202.431 442.775 202.175 443.073 203.412C443.84 206.995 444.819 209.427 445.841 211.944C446.437 213.437 447.118 214.888 447.757 216.338" fill="#D1EBE1"/>
<path d="M442.264 200.511C442.647 202.431 442.775 202.175 443.073 203.412C443.84 206.995 444.819 209.427 445.841 211.944C446.437 213.437 447.118 214.888 447.757 216.338" stroke="#575756" stroke-width="0.5" stroke-miterlimit="10" stroke-linecap="round"/>
<path d="M432.513 195.818C433.578 201.748 435.366 207.507 437.793 213.011L432.513 195.818Z" fill="#D1EBE1"/>
<path d="M432.513 195.818C433.578 201.748 435.366 207.507 437.793 213.011" stroke="#575756" stroke-width="0.5" stroke-miterlimit="10" stroke-linecap="round"/>
<path d="M422.464 191.381C422.762 196.5 424.423 199.871 425.785 204.35C426.254 205.843 426.594 207.379 427.148 208.83" fill="#D1EBE1"/>
<path d="M422.464 191.381C422.762 196.5 424.423 199.871 425.785 204.35C426.254 205.843 426.594 207.379 427.148 208.83" stroke="#575756" stroke-width="0.5" stroke-miterlimit="10" stroke-linecap="round"/>
<path d="M414.161 187.456C415.225 193.471 416.886 199.402 419.057 205.118L414.161 187.456Z" fill="#D1EBE1"/>
<path d="M414.161 187.456C415.225 193.471 416.886 199.402 419.057 205.118" stroke="#575756" stroke-width="0.5" stroke-miterlimit="10" stroke-linecap="round"/>
<path d="M407.731 184.299C407.603 188.054 408.625 191.765 409.605 195.391C410.158 197.439 410.754 199.188 411.308 201.236" fill="#D1EBE1"/>
<path d="M407.731 184.299C407.603 188.054 408.625 191.765 409.605 195.391C410.158 197.439 410.754 199.188 411.308 201.236" stroke="#575756" stroke-width="0.5" stroke-miterlimit="10" stroke-linecap="round"/>
<path d="M400.705 180.716C400.322 181.228 400.365 181.953 400.407 182.635C400.961 187.627 401.727 191.722 403.303 196.543" fill="#D1EBE1"/>
<path d="M400.705 180.716C400.322 181.228 400.365 181.953 400.407 182.635C400.961 187.627 401.727 191.722 403.303 196.543" stroke="#575756" stroke-width="0.5" stroke-miterlimit="10" stroke-linecap="round"/>
<path d="M392.274 176.791C392.104 177.516 392.061 177.857 392.232 178.582C392.785 181.441 393.381 184.299 393.935 187.157C394.233 188.608 394.744 190.272 395.255 191.466" fill="#D1EBE1"/>
<path d="M392.274 176.791C392.104 177.516 392.061 177.857 392.232 178.582C392.785 181.441 393.381 184.299 393.935 187.157C394.233 188.608 394.744 190.272 395.255 191.466" stroke="#575756" stroke-width="0.5" stroke-miterlimit="10" stroke-linecap="round"/>
<path d="M384.737 173.165C384.908 174.828 385.121 175.938 385.291 177.559C385.632 180.673 386.398 183.617 387.377 185.835" fill="#D1EBE1"/>
<path d="M384.737 173.165C384.908 174.828 385.121 175.938 385.291 177.559C385.632 180.673 386.398 183.617 387.377 185.835" stroke="#575756" stroke-width="0.5" stroke-miterlimit="10" stroke-linecap="round"/>
<path d="M376.519 168.728C376.562 169.197 376.732 169.282 376.775 169.752C377.03 172.226 377.456 175.938 378.308 178.455" fill="#D1EBE1"/>
<path d="M376.519 168.728C376.562 169.197 376.732 169.282 376.775 169.752C377.03 172.226 377.456 175.938 378.308 178.455" stroke="#575756" stroke-width="0.5" stroke-miterlimit="10" stroke-linecap="round"/>
<path d="M367.918 164.035C368.472 166.637 369.621 168.77 370.813 171.586L367.918 164.035Z" fill="#D1EBE1"/>
<path d="M367.918 164.035C368.472 166.637 369.621 168.77 370.813 171.586" stroke="#575756" stroke-width="0.5" stroke-miterlimit="10" stroke-linecap="round"/>
<path d="M270.663 182.891C271.046 182.977 271.43 183.062 271.813 183.147C279.179 184.598 286.801 184.086 294.296 184.129C335.94 184.513 376.988 204.564 403.004 237.157C356.762 231.569 312.307 206.142 271.813 183.105" fill="#D1EBE1"/>
<path d="M270.663 182.891C271.046 182.977 271.43 183.062 271.813 183.147C279.179 184.598 286.801 184.086 294.296 184.129C335.94 184.513 376.988 204.564 403.004 237.157C356.762 231.569 312.307 206.142 271.813 183.105" stroke="#575756" stroke-width="0.5" stroke-miterlimit="10" stroke-linecap="round"/>
<path d="M239.026 165.699C248.777 172.866 258.911 180.246 270.663 182.891L239.026 165.699Z" fill="#D1EBE1"/>
<path d="M239.026 165.699C248.777 172.866 258.911 180.246 270.663 182.891" stroke="#575756" stroke-width="0.5" stroke-miterlimit="10" stroke-linecap="round"/>
<path d="M368.088 110.622C368.216 110.494 368.301 110.366 368.429 110.238C374.518 102.986 382.523 97.653 389.975 91.8083C419.185 68.9416 441.114 36.8598 451.887 1.32251C437.708 3.49826 426.339 9.04431 415.694 18.6859C391.337 40.7847 377.2 78.4978 368.429 110.238" fill="#D1EBE1"/>
<path d="M368.088 110.622C368.216 110.494 368.301 110.366 368.429 110.238C374.518 102.986 382.523 97.653 389.975 91.8083C419.185 68.9416 441.114 36.8598 451.887 1.32251C437.708 3.49826 426.339 9.04431 415.694 18.6859C391.337 40.7847 377.2 78.4978 368.429 110.238" stroke="#575756" stroke-width="0.5" stroke-miterlimit="10" stroke-linecap="round"/>
<path d="M355.995 130.972C359.359 124.274 363.362 116.424 368.131 110.622L355.995 130.972Z" fill="#D1EBE1"/>
<path d="M355.995 130.972C359.359 124.274 363.362 116.424 368.131 110.622" stroke="#575756" stroke-width="0.5" stroke-miterlimit="10" stroke-linecap="round"/>
<path d="M451.887 1.32251C421.059 25.3411 382.566 73.7624 368.429 110.238L451.887 1.32251Z" fill="#D1EBE1"/>
<path d="M451.887 1.32251C421.059 25.3411 382.566 73.7624 368.429 110.238" stroke="#575756" stroke-width="0.5" stroke-miterlimit="10" stroke-linecap="round"/>
<path d="M374.007 98.0796C377.797 97.9516 380.948 97.269 384.439 95.8612L374.007 98.0796Z" fill="#D1EBE1"/>
<path d="M374.007 98.0796C377.797 97.9516 380.948 97.269 384.439 95.8612" stroke="#575756" stroke-width="0.5" stroke-miterlimit="10" stroke-linecap="round"/>
<path d="M377.584 90.8697C380.096 90.571 382.608 90.2724 385.121 89.9738C387.846 89.6325 391.891 89.1205 394.446 88.1393" fill="#D1EBE1"/>
<path d="M377.584 90.8697C380.096 90.571 382.608 90.2724 385.121 89.9738C387.846 89.6325 391.891 89.1205 394.446 88.1393" stroke="#575756" stroke-width="0.5" stroke-miterlimit="10" stroke-linecap="round"/>
<path d="M382.395 82.1241C388.91 81.7828 397.256 80.5883 403.728 79.6924L382.395 82.1241Z" fill="#D1EBE1"/>
<path d="M382.395 82.1241C388.91 81.7828 397.256 80.5883 403.728 79.6924" stroke="#575756" stroke-width="0.5" stroke-miterlimit="10" stroke-linecap="round"/>
<path d="M387.505 74.1463C391.678 73.933 395.51 73.4637 399.683 73.2077C403.558 72.9944 408.199 72.3545 411.861 71.2026" fill="#D1EBE1"/>
<path d="M387.505 74.1463C391.678 73.933 395.51 73.4637 399.683 73.2077C403.558 72.9944 408.199 72.3545 411.861 71.2026" stroke="#575756" stroke-width="0.5" stroke-miterlimit="10" stroke-linecap="round"/>
<path d="M393.594 65.1447C401.897 64.59 410.243 64.0354 418.546 63.4382L393.594 65.1447Z" fill="#D1EBE1"/>
<path d="M393.594 65.1447C401.897 64.59 410.243 64.0354 418.546 63.4382" stroke="#575756" stroke-width="0.5" stroke-miterlimit="10" stroke-linecap="round"/>
<path d="M399.087 57.3802C402.451 57.6788 405.857 57.3802 409.221 57.0816C414.374 56.6123 419.526 56.143 424.678 55.6737" fill="#D1EBE1"/>
<path d="M399.087 57.3802C402.451 57.6788 405.857 57.3802 409.221 57.0816C414.374 56.6123 419.526 56.143 424.678 55.6737" stroke="#575756" stroke-width="0.5" stroke-miterlimit="10" stroke-linecap="round"/>
<path d="M404.835 49.8718C413.309 48.6773 421.868 47.824 430.426 47.3121L404.835 49.8718Z" fill="#D1EBE1"/>
<path d="M404.835 49.8718C413.309 48.6773 421.868 47.824 430.426 47.3121" stroke="#575756" stroke-width="0.5" stroke-miterlimit="10" stroke-linecap="round"/>
<path d="M411.861 41.126C419.952 40.2728 427.574 39.4622 435.664 38.6089L411.861 41.126Z" fill="#D1EBE1"/>
<path d="M411.861 41.126C419.952 40.2728 427.574 39.4622 435.664 38.6089" stroke="#575756" stroke-width="0.5" stroke-miterlimit="10" stroke-linecap="round"/>
<path d="M418.802 33.0204C425.828 32.5511 432.513 32.0818 439.539 31.3139L418.802 33.0204Z" fill="#D1EBE1"/>
<path d="M418.802 33.0204C425.828 32.5511 432.513 32.0818 439.539 31.3139" stroke="#575756" stroke-width="0.5" stroke-miterlimit="10" stroke-linecap="round"/>
<path d="M425.53 25.8105C428.085 25.5972 430.129 25.1706 432.683 24.7439C436.345 24.104 440.05 23.4214 443.712 22.7815" fill="#D1EBE1"/>
<path d="M425.53 25.8105C428.085 25.5972 430.129 25.1706 432.683 24.7439C436.345 24.104 440.05 23.4214 443.712 22.7815" stroke="#575756" stroke-width="0.5" stroke-miterlimit="10" stroke-linecap="round"/>
<path d="M434.429 17.0221C439.198 16.1262 442.69 15.1876 447.246 14.7183L434.429 17.0221Z" fill="#D1EBE1"/>
<path d="M434.429 17.0221C439.198 16.1262 442.69 15.1876 447.246 14.7183" stroke="#575756" stroke-width="0.5" stroke-miterlimit="10" stroke-linecap="round"/>
<path d="M449.673 7.59387C447.289 7.6792 444.776 8.14848 442.562 9.04437C442.519 7.12459 443.201 4.86351 443.797 3.02905" fill="#D1EBE1"/>
<path d="M449.673 7.59387C447.289 7.6792 444.776 8.14848 442.562 9.04437C442.519 7.12459 443.201 4.86351 443.797 3.02905" stroke="#575756" stroke-width="0.5" stroke-miterlimit="10" stroke-linecap="round"/>
<path d="M433.961 16.6809C433.194 13.4386 433.492 9.81231 433.705 6.48468L433.961 16.6809Z" fill="#D1EBE1"/>
<path d="M433.961 16.6809C433.194 13.4386 433.492 9.81231 433.705 6.48468" stroke="#575756" stroke-width="0.5" stroke-miterlimit="10" stroke-linecap="round"/>
<path d="M425.061 25.8531C425.019 25.4691 425.061 24.3599 425.061 23.976C424.721 19.5818 424.423 15.0596 425.956 10.9641" fill="#D1EBE1"/>
<path d="M425.061 25.8531C425.019 25.4691 425.061 24.3599 425.061 23.976C424.721 19.5818 424.423 15.0596 425.956 10.9641" stroke="#575756" stroke-width="0.5" stroke-miterlimit="10" stroke-linecap="round"/>
<path d="M418.461 33.3616C417.056 28.1996 416.886 22.0136 418.121 16.8515L418.461 33.3616Z" fill="#D1EBE1"/>
<path d="M418.461 33.3616C417.056 28.1996 416.886 22.0136 418.121 16.8515" stroke="#575756" stroke-width="0.5" stroke-miterlimit="10" stroke-linecap="round"/>
<path d="M411.393 41.126C409.945 36.9451 409.477 32.5083 409.477 28.0715C409.477 27.1329 409.519 26.365 409.69 25.0425" fill="#D1EBE1"/>
<path d="M411.393 41.126C409.945 36.9451 409.477 32.5083 409.477 28.0715C409.477 27.1329 409.519 26.365 409.69 25.0425" stroke="#575756" stroke-width="0.5" stroke-miterlimit="10" stroke-linecap="round"/>
<path d="M404.324 50.3837C403.601 44.411 403.09 38.3957 403.175 32.3377L404.324 50.3837Z" fill="#D1EBE1"/>
<path d="M404.324 50.3837C403.601 44.411 403.09 38.3957 403.175 32.3377" stroke="#575756" stroke-width="0.5" stroke-miterlimit="10" stroke-linecap="round"/>
<path d="M399.087 57.3802C397.895 56.6549 397.341 54.6925 396.958 53.37C395.979 50.213 395.766 46.672 395.936 43.3871" fill="#D1EBE1"/>
<path d="M399.087 57.3802C397.895 56.6549 397.341 54.6925 396.958 53.37C395.979 50.213 395.766 46.672 395.936 43.3871" stroke="#575756" stroke-width="0.5" stroke-miterlimit="10" stroke-linecap="round"/>
<path d="M393.594 65.1447C391.678 61.8597 390.443 56.1857 390.613 52.3461L393.594 65.1447Z" fill="#D1EBE1"/>
<path d="M393.594 65.1447C391.678 61.8597 390.443 56.1857 390.613 52.3461" stroke="#575756" stroke-width="0.5" stroke-miterlimit="10" stroke-linecap="round"/>
<path d="M387.164 73.8904C385.844 70.8614 384.482 67.6191 384.524 64.3341L387.164 73.8904Z" fill="#D1EBE1"/>
<path d="M387.164 73.8904C385.844 70.8614 384.482 67.6191 384.524 64.3341" stroke="#575756" stroke-width="0.5" stroke-miterlimit="10" stroke-linecap="round"/>
<path d="M382.012 81.5695C381.544 81.1855 381.203 79.6497 381.118 79.0524C380.692 76.7487 380.777 75.2982 380.99 72.9944" fill="#D1EBE1"/>
<path d="M382.012 81.5695C381.544 81.1855 381.203 79.6497 381.118 79.0524C380.692 76.7487 380.777 75.2982 380.99 72.9944" stroke="#575756" stroke-width="0.5" stroke-miterlimit="10" stroke-linecap="round"/>
<path d="M377.584 90.8698C376.647 89.2913 375.71 87.4995 376.008 85.665L377.584 90.8698Z" fill="#D1EBE1"/>
<path d="M377.584 90.8698C376.647 89.2913 375.71 87.4995 376.008 85.665" stroke="#575756" stroke-width="0.5" stroke-miterlimit="10" stroke-linecap="round"/>
<path d="M208.027 157.593C214.371 151.194 219.524 144.538 223.569 137.286C241.708 104.778 242.262 65.4007 238.813 28.2849C225.187 43.4725 217.82 61.4758 212.498 81.1856C209.347 92.7896 206.707 104.607 205.77 116.595C204.833 129.223 206.281 143.728 208.282 156.228" fill="#D1EBE1"/>
<path d="M208.027 157.593C214.371 151.194 219.524 144.538 223.569 137.286C241.708 104.778 242.262 65.4007 238.813 28.2849C225.187 43.4725 217.82 61.4758 212.498 81.1856C209.347 92.7896 206.707 104.607 205.77 116.595C204.833 129.223 206.281 143.728 208.282 156.228" stroke="#575756" stroke-width="0.5" stroke-miterlimit="10" stroke-linecap="round"/>
<path d="M183.543 177.644C193.166 170.946 201.256 164.419 207.984 157.636L183.543 177.644Z" fill="#D1EBE1"/>
<path d="M183.543 177.644C193.166 170.946 201.256 164.419 207.984 157.636" stroke="#575756" stroke-width="0.5" stroke-miterlimit="10" stroke-linecap="round"/>
<path d="M238.77 28.3275C236.513 34.9401 230.808 63.8649 228.551 70.5201C217.948 101.749 205.642 124.317 208.325 157.209" fill="#D1EBE1"/>
<path d="M238.77 28.3275C236.513 34.9401 230.808 63.8649 228.551 70.5201C217.948 101.749 205.642 124.317 208.325 157.209" stroke="#575756" stroke-width="0.5" stroke-miterlimit="10" stroke-linecap="round"/>
<path d="M208.197 152.858C215.521 144.496 219.268 140.614 225.613 133.233L208.197 152.858Z" fill="#D1EBE1"/>
<path d="M208.197 152.858C215.521 144.496 219.268 140.614 225.613 133.233" stroke="#575756" stroke-width="0.5" stroke-miterlimit="10" stroke-linecap="round"/>
<path d="M208.24 145.477C215.223 137.158 223.526 128.284 231.148 120.605L208.24 145.477Z" fill="#D1EBE1"/>
<path d="M208.24 145.477C215.223 137.158 223.526 128.284 231.148 120.605" stroke="#575756" stroke-width="0.5" stroke-miterlimit="10" stroke-linecap="round"/>
<path d="M208.836 136.049C217.48 126.791 226.124 117.534 234.768 108.276L208.836 136.049Z" fill="#D1EBE1"/>
<path d="M208.836 136.049C217.48 126.791 226.124 117.534 234.768 108.276" stroke="#575756" stroke-width="0.5" stroke-miterlimit="10" stroke-linecap="round"/>
<path d="M210.113 127.175C215.521 118.899 224.208 113.438 230.808 106.1C232.937 103.754 235.364 101.279 237.237 98.7196" fill="#D1EBE1"/>
<path d="M210.113 127.175C215.521 118.899 224.208 113.438 230.808 106.1C232.937 103.754 235.364 101.279 237.237 98.7196" stroke="#575756" stroke-width="0.5" stroke-miterlimit="10" stroke-linecap="round"/>
<path d="M213.264 114.803C222.121 107.295 229.7 100.639 238.174 92.6616L213.264 114.803Z" fill="#D1EBE1"/>
<path d="M213.264 114.803C222.121 107.295 229.7 100.639 238.174 92.6616" stroke="#575756" stroke-width="0.5" stroke-miterlimit="10" stroke-linecap="round"/>
<path d="M215.479 106.74C223.271 99.8714 231.319 93.0882 238.898 85.7504L215.479 106.74Z" fill="#D1EBE1"/>
<path d="M215.479 106.74C223.271 99.8714 231.319 93.0882 238.898 85.7504" stroke="#575756" stroke-width="0.5" stroke-miterlimit="10" stroke-linecap="round"/>
<path d="M218.715 98.0797C220.248 97.0131 233.15 82.7641 239.494 77.5593L218.715 98.0797Z" fill="#D1EBE1"/>
<path d="M218.715 98.0797C220.248 97.0131 233.15 82.7641 239.494 77.5593" stroke="#575756" stroke-width="0.5" stroke-miterlimit="10" stroke-linecap="round"/>
<path d="M223.441 85.5798C229.232 80.2897 234.214 75.7675 240.048 70.4775L223.441 85.5798Z" fill="#D1EBE1"/>
<path d="M223.441 85.5798C229.232 80.2897 234.214 75.7675 240.048 70.4775" stroke="#575756" stroke-width="0.5" stroke-miterlimit="10" stroke-linecap="round"/>
<path d="M227.657 74.061C232.468 69.8375 236.045 66.7659 240.261 61.9877L227.657 74.061Z" fill="#D1EBE1"/>
<path d="M227.657 74.061C232.468 69.8375 236.045 66.7659 240.261 61.9877" stroke="#575756" stroke-width="0.5" stroke-miterlimit="10" stroke-linecap="round"/>
<path d="M229.913 65.102C233.32 62.2864 237.195 58.8307 240.388 55.7591L229.913 65.102Z" fill="#D1EBE1"/>
<path d="M229.913 65.102C233.32 62.2864 237.195 58.8307 240.388 55.7591" stroke="#575756" stroke-width="0.5" stroke-miterlimit="10" stroke-linecap="round"/>
<path d="M232.213 56.655C234.682 53.2421 237.621 49.3598 240.09 45.9469L232.213 56.655Z" fill="#D1EBE1"/>
<path d="M232.213 56.655C234.682 53.2421 237.621 49.3598 240.09 45.9469" stroke="#575756" stroke-width="0.5" stroke-miterlimit="10" stroke-linecap="round"/>
<path d="M229.871 39.9741C230.254 41.254 230.68 41.8086 231.404 42.8751C232.042 43.8137 233.661 45.0509 234.768 45.2642C236.428 43.4724 238.089 41.6806 239.707 39.8888" fill="#D1EBE1"/>
<path d="M229.871 39.9741C230.254 41.254 230.68 41.8086 231.404 42.8751C232.042 43.8137 233.661 45.0509 234.768 45.2642C236.428 43.4724 238.089 41.6806 239.707 39.8888" stroke="#575756" stroke-width="0.5" stroke-miterlimit="10" stroke-linecap="round"/>
<path d="M225.017 48.1652C226.337 51.4928 228.977 54.3085 232.255 55.759L225.017 48.1652Z" fill="#D1EBE1"/>
<path d="M225.017 48.1652C226.337 51.4928 228.977 54.3085 232.255 55.759" stroke="#575756" stroke-width="0.5" stroke-miterlimit="10" stroke-linecap="round"/>
<path d="M221.014 56.527C222.547 58.4042 223.952 59.7267 225.613 61.4758C227.06 62.969 228.679 64.1635 229.871 65.1021" fill="#D1EBE1"/>
<path d="M221.014 56.527C222.547 58.4042 223.952 59.7267 225.613 61.4758C227.06 62.969 228.679 64.1635 229.871 65.1021" stroke="#575756" stroke-width="0.5" stroke-miterlimit="10" stroke-linecap="round"/>
<path d="M217.608 66.0405C219.396 68.2589 221.44 70.264 223.654 72.0132C224.761 72.9091 225.911 73.7197 227.273 74.1463" fill="#D1EBE1"/>
<path d="M217.608 66.0405C219.396 68.2589 221.44 70.264 223.654 72.0132C224.761 72.9091 225.911 73.7197 227.273 74.1463" stroke="#575756" stroke-width="0.5" stroke-miterlimit="10" stroke-linecap="round"/>
<path d="M214.073 76.0234C215.606 78.9671 217.778 80.7162 220.035 83.1053C220.886 84.0012 221.738 84.8971 222.59 85.793" fill="#D1EBE1"/>
<path d="M214.073 76.0234C215.606 78.9671 217.778 80.7162 220.035 83.1053C220.886 84.0012 221.738 84.8971 222.59 85.793" stroke="#575756" stroke-width="0.5" stroke-miterlimit="10" stroke-linecap="round"/>
<path d="M210.837 87.9261C213.179 90.9978 215.777 94.2401 218.8 97.8237L210.837 87.9261Z" fill="#D1EBE1"/>
<path d="M210.837 87.9261C213.179 90.9978 215.777 94.2401 218.8 97.8237" stroke="#575756" stroke-width="0.5" stroke-miterlimit="10" stroke-linecap="round"/>
<path d="M208.58 97.4823C209.091 98.2502 210.667 100.426 211.306 101.066C212.966 102.815 213.903 103.839 215.904 105.204" fill="#D1EBE1"/>
<path d="M208.58 97.4823C209.091 98.2502 210.667 100.426 211.306 101.066C212.966 102.815 213.903 103.839 215.904 105.204" stroke="#575756" stroke-width="0.5" stroke-miterlimit="10" stroke-linecap="round"/>
<path d="M206.622 109.214C207.771 112.03 209.56 113.779 212.2 115.23L206.622 109.214Z" fill="#D1EBE1"/>
<path d="M206.622 109.214C207.771 112.03 209.56 113.779 212.2 115.23" stroke="#575756" stroke-width="0.5" stroke-miterlimit="10" stroke-linecap="round"/>
<path d="M205.727 121.203C206.92 123.165 208.453 124.871 210.326 126.194L205.727 121.203Z" fill="#D1EBE1"/>
<path d="M205.727 121.203C206.92 123.165 208.453 124.871 210.326 126.194" stroke="#575756" stroke-width="0.5" stroke-miterlimit="10" stroke-linecap="round"/>
<path d="M205.515 130.716C206.707 132.593 207.473 133.233 208.751 135.067L205.515 130.716Z" fill="#D1EBE1"/>
<path d="M205.515 130.716C206.707 132.593 207.473 133.233 208.751 135.067" stroke="#575756" stroke-width="0.5" stroke-miterlimit="10" stroke-linecap="round"/>
<path d="M95.656 197.951C108.856 189.76 121.715 178.113 132.744 164.845L95.656 197.951Z" fill="#D1EBE1"/>
<path d="M95.656 197.951C108.856 189.76 121.715 178.113 132.744 164.845" stroke="#575756" stroke-width="0.5" stroke-miterlimit="10" stroke-linecap="round"/>
<path d="M143.858 186.134C204.024 191.893 269.216 222.908 308.007 269.367C284.247 270.007 260.316 259.427 240.729 245.946C221.142 232.464 198.616 213.096 184.82 193.727" fill="#D1EBE1"/>
<path d="M143.858 186.134C204.024 191.893 269.216 222.908 308.007 269.367C284.247 270.007 260.316 259.427 240.729 245.946C221.142 232.464 198.616 213.096 184.82 193.727" stroke="#575756" stroke-width="0.5" stroke-miterlimit="10" stroke-linecap="round"/>
<path d="M185.672 194.325C223.654 214.29 257.123 243.343 308.007 269.367L185.672 194.325Z" fill="#D1EBE1"/>
<path d="M185.672 194.325C223.654 214.29 257.123 243.343 308.007 269.367" stroke="#575756" stroke-width="0.5" stroke-miterlimit="10" stroke-linecap="round"/>
<path d="M199 201.492C202.278 201.62 205.728 201.577 209.006 201.662L199 201.492Z" fill="#D1EBE1"/>
<path d="M199 201.492C202.278 201.62 205.728 201.577 209.006 201.662" stroke="#575756" stroke-width="0.5" stroke-miterlimit="10" stroke-linecap="round"/>
<path d="M208.069 206.953C208.623 206.91 209.177 206.91 209.73 206.867C213.349 206.697 216.969 206.526 220.631 206.355" fill="#D1EBE1"/>
<path d="M208.069 206.953C208.623 206.91 209.177 206.91 209.73 206.867C213.349 206.697 216.969 206.526 220.631 206.355" stroke="#575756" stroke-width="0.5" stroke-miterlimit="10" stroke-linecap="round"/>
<path d="M216.415 212.115C221.312 211.731 226.209 211.432 231.148 211.219L216.415 212.115Z" fill="#D1EBE1"/>
<path d="M216.415 212.115C221.312 211.731 226.209 211.432 231.148 211.219" stroke="#575756" stroke-width="0.5" stroke-miterlimit="10" stroke-linecap="round"/>
<path d="M223.1 216.807C228.38 216.807 233.916 216.21 239.068 215.144L223.1 216.807Z" fill="#D1EBE1"/>
<path d="M223.1 216.807C228.38 216.807 233.916 216.21 239.068 215.144" stroke="#575756" stroke-width="0.5" stroke-miterlimit="10" stroke-linecap="round"/>
<path d="M230.552 221.884C233.916 221.799 237.28 221.415 240.644 221.33C243.539 221.244 246.988 221.031 249.926 220.988" fill="#D1EBE1"/>
<path d="M230.552 221.884C233.916 221.799 237.28 221.415 240.644 221.33C243.539 221.244 246.988 221.031 249.926 220.988" stroke="#575756" stroke-width="0.5" stroke-miterlimit="10" stroke-linecap="round"/>
<path d="M238.898 227.132C244.987 226.321 251.119 225.937 257.293 225.937L238.898 227.132Z" fill="#D1EBE1"/>
<path d="M238.898 227.132C244.987 226.321 251.119 225.937 257.293 225.937" stroke="#575756" stroke-width="0.5" stroke-miterlimit="10" stroke-linecap="round"/>
<path d="M247.499 232.336C251.97 231.782 256.484 231.526 260.997 231.654C262.36 231.697 264.446 231.654 266.022 231.355" fill="#D1EBE1"/>
<path d="M247.499 232.336C251.97 231.782 256.484 231.526 260.997 231.654C262.36 231.697 264.446 231.654 266.022 231.355" stroke="#575756" stroke-width="0.5" stroke-miterlimit="10" stroke-linecap="round"/>
<path d="M253.163 236.56C259.89 236.347 266.618 236.432 273.303 236.816L253.163 236.56Z" fill="#D1EBE1"/>
<path d="M253.163 236.56C259.89 236.347 266.618 236.432 273.303 236.816" stroke="#575756" stroke-width="0.5" stroke-miterlimit="10" stroke-linecap="round"/>
<path d="M259.507 241.082C263.425 241.082 267.896 240.357 271.813 240.399C273.899 240.399 276.412 240.229 278.456 240.613" fill="#D1EBE1"/>
<path d="M259.507 241.082C263.425 241.082 267.896 240.357 271.813 240.399C273.899 240.399 276.412 240.229 278.456 240.613" stroke="#575756" stroke-width="0.5" stroke-miterlimit="10" stroke-linecap="round"/>
<path d="M266.959 245.519C267.896 245.348 268.875 245.391 269.812 245.434C275.134 245.69 279.35 245.818 284.672 246.074" fill="#D1EBE1"/>
<path d="M266.959 245.519C267.896 245.348 268.875 245.391 269.812 245.434C275.134 245.69 279.35 245.818 284.672 246.074" stroke="#575756" stroke-width="0.5" stroke-miterlimit="10" stroke-linecap="round"/>
<path d="M275.177 250.852C280.244 250.98 285.183 251.662 290.25 251.278L275.177 250.852Z" fill="#D1EBE1"/>
<path d="M275.177 250.852C280.244 250.98 285.183 251.662 290.25 251.278" stroke="#575756" stroke-width="0.5" stroke-miterlimit="10" stroke-linecap="round"/>
<path d="M282.714 255.118C286.844 255.459 291.102 255.502 295.232 255.971L282.714 255.118Z" fill="#D1EBE1"/>
<path d="M282.714 255.118C286.844 255.459 291.102 255.502 295.232 255.971" stroke="#575756" stroke-width="0.5" stroke-miterlimit="10" stroke-linecap="round"/>
<path d="M299.405 259.981C296.34 259.853 293.7 260.493 290.676 259.981C290.847 262.285 291.613 263.65 292.55 265.783C292.933 266.679 293.189 267.021 293.7 268.556" fill="#D1EBE1"/>
<path d="M299.405 259.981C296.34 259.853 293.7 260.493 290.676 259.981C290.847 262.285 291.613 263.65 292.55 265.783C292.933 266.679 293.189 267.021 293.7 268.556" stroke="#575756" stroke-width="0.5" stroke-miterlimit="10" stroke-linecap="round"/>
<path d="M282.501 255.502C282.714 259.384 283.778 262.84 285.268 266.423L282.501 255.502Z" fill="#D1EBE1"/>
<path d="M282.501 255.502C282.714 259.384 283.778 262.84 285.268 266.423" stroke="#575756" stroke-width="0.5" stroke-miterlimit="10" stroke-linecap="round"/>
<path d="M275.177 250.852C275.901 254.094 276.497 257.336 276.923 260.621C277.093 261.944 277.263 263.309 277.774 264.546" fill="#D1EBE1"/>
<path d="M275.177 250.852C275.901 254.094 276.497 257.336 276.923 260.621C277.093 261.944 277.263 263.309 277.774 264.546" stroke="#575756" stroke-width="0.5" stroke-miterlimit="10" stroke-linecap="round"/>
<path d="M266.959 245.903C266.448 250.724 267.044 255.545 267.725 260.323L266.959 245.903Z" fill="#D1EBE1"/>
<path d="M266.959 245.903C266.448 250.724 267.044 255.545 267.725 260.323" stroke="#575756" stroke-width="0.5" stroke-miterlimit="10" stroke-linecap="round"/>
<path d="M259.379 241.338C260.061 247.268 260.827 252.132 261.508 258.062L259.379 241.338Z" fill="#D1EBE1"/>
<path d="M259.379 241.338C260.061 247.268 260.827 252.132 261.508 258.062" stroke="#575756" stroke-width="0.5" stroke-miterlimit="10" stroke-linecap="round"/>
<path d="M252.95 236.645C252.396 242.49 253.333 248.292 254.312 254.051L252.95 236.645Z" fill="#D1EBE1"/>
<path d="M252.95 236.645C252.396 242.49 253.333 248.292 254.312 254.051" stroke="#575756" stroke-width="0.5" stroke-miterlimit="10" stroke-linecap="round"/>
<path d="M246.988 232.422C246.776 235.024 246.605 237.584 246.69 240.186C246.818 243.301 247.372 246.841 247.201 249.956" fill="#D1EBE1"/>
<path d="M246.988 232.422C246.776 235.024 246.605 237.584 246.69 240.186C246.818 243.301 247.372 246.841 247.201 249.956" stroke="#575756" stroke-width="0.5" stroke-miterlimit="10" stroke-linecap="round"/>
<path d="M238.685 227.772C238.131 230.289 238.217 232.848 238.302 235.408C238.43 238.736 238.642 241.167 238.77 244.538" fill="#D1EBE1"/>
<path d="M238.685 227.772C238.131 230.289 238.217 232.848 238.302 235.408C238.43 238.736 238.642 241.167 238.77 244.538" stroke="#575756" stroke-width="0.5" stroke-miterlimit="10" stroke-linecap="round"/>
<path d="M230.382 222.268C229.317 227.729 229.147 232.507 229.956 238.01L230.382 222.268Z" fill="#D1EBE1"/>
<path d="M230.382 222.268C229.317 227.729 229.147 232.507 229.956 238.01" stroke="#575756" stroke-width="0.5" stroke-miterlimit="10" stroke-linecap="round"/>
<path d="M223.1 216.808C222.802 220.818 222.632 224.828 222.547 228.838C222.504 230.289 222.632 230.673 222.717 232.209" fill="#D1EBE1"/>
<path d="M223.1 216.808C222.802 220.818 222.632 224.828 222.547 228.838C222.504 230.289 222.632 230.673 222.717 232.209" stroke="#575756" stroke-width="0.5" stroke-miterlimit="10" stroke-linecap="round"/>
<path d="M215.947 212.157C215.436 216.765 215.266 221.586 215.308 226.236L215.947 212.157Z" fill="#D1EBE1"/>
<path d="M215.947 212.157C215.436 216.765 215.266 221.586 215.308 226.236" stroke="#575756" stroke-width="0.5" stroke-miterlimit="10" stroke-linecap="round"/>
<path d="M207.899 206.995C207.857 210.408 207.686 210.323 207.644 213.736C207.644 214.888 207.559 218.471 207.984 219.538" fill="#D1EBE1"/>
<path d="M207.899 206.995C207.857 210.408 207.686 210.323 207.644 213.736C207.644 214.888 207.559 218.471 207.984 219.538" stroke="#575756" stroke-width="0.5" stroke-miterlimit="10" stroke-linecap="round"/>
<path d="M199 201.492C198.617 204.777 198.446 206.91 198.957 210.195L199 201.492Z" fill="#D1EBE1"/>
<path d="M199 201.492C198.617 204.777 198.446 206.91 198.957 210.195" stroke="#575756" stroke-width="0.5" stroke-miterlimit="10" stroke-linecap="round"/>
<path d="M95.3153 222.14C97.9553 228.284 102.426 233.488 107.238 238.096C120.012 250.212 135.767 258.83 152.246 265.101C171.833 272.524 210.198 281.099 231.106 281.867" fill="#D1EBE1"/>
<path d="M95.3153 222.14C97.9553 228.284 102.426 233.488 107.238 238.096C120.012 250.212 135.767 258.83 152.246 265.101C171.833 272.524 210.198 281.099 231.106 281.867" stroke="#575756" stroke-width="0.5" stroke-miterlimit="10" stroke-linecap="round"/>
<path d="M67.3823 206.569C119.884 236.56 174.345 261.091 231.148 281.824C224.633 272.268 214.073 263.01 204.109 257.123C173.707 239.077 130.359 226.876 95.3579 222.14" fill="#D1EBE1"/>
<path d="M67.3823 206.569C119.884 236.56 174.345 261.091 231.148 281.824C224.633 272.268 214.073 263.01 204.109 257.123C173.707 239.077 130.359 226.876 95.3579 222.14" stroke="#575756" stroke-width="0.5" stroke-miterlimit="10" stroke-linecap="round"/>
<path d="M111.453 230.033C115.03 228.07 116.819 226.662 120.183 226.534L111.453 230.033Z" fill="#D1EBE1"/>
<path d="M111.453 230.033C115.03 228.07 116.819 226.662 120.183 226.534" stroke="#575756" stroke-width="0.5" stroke-miterlimit="10" stroke-linecap="round"/>
<path d="M119.799 233.958C124.1 231.867 128.741 230.417 133.468 229.649L119.799 233.958Z" fill="#D1EBE1"/>
<path d="M119.799 233.958C124.1 231.867 128.741 230.417 133.468 229.649" stroke="#575756" stroke-width="0.5" stroke-miterlimit="10" stroke-linecap="round"/>
<path d="M128.614 238.437C133.085 236.859 134.106 235.707 138.748 234.598C140.494 234.171 143.815 233.233 146.285 233.275" fill="#D1EBE1"/>
<path d="M128.614 238.437C133.085 236.859 134.106 235.707 138.748 234.598C140.494 234.171 143.815 233.233 146.285 233.275" stroke="#575756" stroke-width="0.5" stroke-miterlimit="10" stroke-linecap="round"/>
<path d="M140.153 243.94C142.793 242.789 145.39 241.679 148.116 240.784C152.629 239.29 157.058 238.266 161.827 238.181" fill="#D1EBE1"/>
<path d="M140.153 243.94C142.793 242.789 145.39 241.679 148.116 240.784C152.629 239.29 157.058 238.266 161.827 238.181" stroke="#575756" stroke-width="0.5" stroke-miterlimit="10" stroke-linecap="round"/>
<path d="M149.947 248.463C156.972 245.007 164.68 242.917 172.472 242.234L149.947 248.463Z" fill="#D1EBE1"/>
<path d="M149.947 248.463C156.972 245.007 164.68 242.917 172.472 242.234" stroke="#575756" stroke-width="0.5" stroke-miterlimit="10" stroke-linecap="round"/>
<path d="M160.081 252.942C166.894 249.7 174.984 246.927 182.436 246.031L160.081 252.942Z" fill="#D1EBE1"/>
<path d="M160.081 252.942C166.894 249.7 174.984 246.927 182.436 246.031" stroke="#575756" stroke-width="0.5" stroke-miterlimit="10" stroke-linecap="round"/>
<path d="M167.788 256.526C170.258 255.673 172.77 254.777 175.24 253.923C180.222 252.174 185.246 250.425 190.526 250.041" fill="#D1EBE1"/>
<path d="M167.788 256.526C170.258 255.673 172.77 254.777 175.24 253.923C180.222 252.174 185.246 250.425 190.526 250.041" stroke="#575756" stroke-width="0.5" stroke-miterlimit="10" stroke-linecap="round"/>
<path d="M176.943 260.024C183.628 256.739 189.93 254.734 197.254 253.241L176.943 260.024Z" fill="#D1EBE1"/>
<path d="M176.943 260.024C183.628 256.739 189.93 254.734 197.254 253.241" stroke="#575756" stroke-width="0.5" stroke-miterlimit="10" stroke-linecap="round"/>
<path d="M184.522 263.736C192.102 261.645 198.02 259.512 205.77 258.36L184.522 263.736Z" fill="#D1EBE1"/>
<path d="M184.522 263.736C192.102 261.645 198.02 259.512 205.77 258.36" stroke="#575756" stroke-width="0.5" stroke-miterlimit="10" stroke-linecap="round"/>
<path d="M195.465 267.874C198.702 266.594 201.299 265.57 204.62 264.461C208.027 263.352 208.325 263.821 211.859 262.498" fill="#D1EBE1"/>
<path d="M195.465 267.874C198.702 266.594 201.299 265.57 204.62 264.461C208.027 263.352 208.325 263.821 211.859 262.498" stroke="#575756" stroke-width="0.5" stroke-miterlimit="10" stroke-linecap="round"/>
<path d="M202.662 270.945C207.516 268.855 212.796 267.788 218.076 267.831L202.662 270.945Z" fill="#D1EBE1"/>
<path d="M202.662 270.945C207.516 268.855 212.796 267.788 218.076 267.831" stroke="#575756" stroke-width="0.5" stroke-miterlimit="10" stroke-linecap="round"/>
<path d="M211.561 274.06C214.968 273.292 220.418 272.78 223.867 273.164L211.561 274.06Z" fill="#D1EBE1"/>
<path d="M211.561 274.06C214.968 273.292 220.418 272.78 223.867 273.164" stroke="#575756" stroke-width="0.5" stroke-miterlimit="10" stroke-linecap="round"/>
<path d="M111.411 230.374C111.326 231.099 111.454 231.057 111.454 231.782C111.454 232.934 111.581 234.128 111.709 235.28C111.837 236.517 111.965 237.755 112.135 238.992C112.263 240.186 112.433 241.807 112.774 242.917" fill="#D1EBE1"/>
<path d="M111.411 230.374C111.326 231.099 111.454 231.057 111.454 231.782C111.454 232.934 111.581 234.128 111.709 235.28C111.837 236.517 111.965 237.755 112.135 238.992C112.263 240.186 112.433 241.807 112.774 242.917" stroke="#575756" stroke-width="0.5" stroke-miterlimit="10" stroke-linecap="round"/>
<path d="M119.374 234.427C119.416 236.645 119.629 238.437 119.672 240.698C119.714 242.021 120.012 243.599 120.268 244.879C120.608 246.628 121.034 247.993 121.801 249.572" fill="#D1EBE1"/>
<path d="M119.374 234.427C119.416 236.645 119.629 238.437 119.672 240.698C119.714 242.021 120.012 243.599 120.268 244.879C120.608 246.628 121.034 247.993 121.801 249.572" stroke="#575756" stroke-width="0.5" stroke-miterlimit="10" stroke-linecap="round"/>
<path d="M128.699 238.565C128.997 244.708 130.487 250.809 133.127 256.398L128.699 238.565Z" fill="#D1EBE1"/>
<path d="M128.699 238.565C128.997 244.708 130.487 250.809 133.127 256.398" stroke="#575756" stroke-width="0.5" stroke-miterlimit="10" stroke-linecap="round"/>
<path d="M139.94 243.898C141.217 250.425 142.58 257.166 146.37 262.584L139.94 243.898Z" fill="#D1EBE1"/>
<path d="M139.94 243.898C141.217 250.425 142.58 257.166 146.37 262.584" stroke="#575756" stroke-width="0.5" stroke-miterlimit="10" stroke-linecap="round"/>
<path d="M149.989 248.889C150.926 255.246 153.183 260.835 156.334 266.423L149.989 248.889Z" fill="#D1EBE1"/>
<path d="M149.989 248.889C150.926 255.246 153.183 260.835 156.334 266.423" stroke="#575756" stroke-width="0.5" stroke-miterlimit="10" stroke-linecap="round"/>
<path d="M160.294 253.582C161.997 259.725 164.467 264.76 167.873 270.178L160.294 253.582Z" fill="#D1EBE1"/>
<path d="M160.294 253.582C161.997 259.725 164.467 264.76 167.873 270.178" stroke="#575756" stroke-width="0.5" stroke-miterlimit="10" stroke-linecap="round"/>
<path d="M168.043 256.739C169.278 262.37 172.387 267.618 175.836 272.183L168.043 256.739Z" fill="#D1EBE1"/>
<path d="M168.043 256.739C169.278 262.37 172.387 267.618 175.836 272.183" stroke="#575756" stroke-width="0.5" stroke-miterlimit="10" stroke-linecap="round"/>
<path d="M177.028 260.835C179.242 265.997 181.754 269.794 184.948 274.444L177.028 260.835Z" fill="#D1EBE1"/>
<path d="M177.028 260.835C179.242 265.997 181.754 269.794 184.948 274.444" stroke="#575756" stroke-width="0.5" stroke-miterlimit="10" stroke-linecap="round"/>
<path d="M185.331 264.034C186.055 266.338 187.035 267.959 188.269 270.007C189.589 272.183 191.463 273.975 192.613 276.236" fill="#D1EBE1"/>
<path d="M185.331 264.034C186.055 266.338 187.035 267.959 188.269 270.007C189.589 272.183 191.463 273.975 192.613 276.236" stroke="#575756" stroke-width="0.5" stroke-miterlimit="10" stroke-linecap="round"/>
<path d="M195.465 267.874C196.189 271.031 197.594 274.06 199.511 276.662C199.809 277.089 200.107 277.473 200.447 277.857" fill="#D1EBE1"/>
<path d="M195.465 267.874C196.189 271.031 197.594 274.06 199.511 276.662C199.809 277.089 200.107 277.473 200.447 277.857" stroke="#575756" stroke-width="0.5" stroke-miterlimit="10" stroke-linecap="round"/>
<path d="M203.002 270.86C203.3 271.799 203.598 272.737 203.897 273.719C204.45 275.468 205.046 277.302 206.409 278.582" fill="#D1EBE1"/>
<path d="M203.002 270.86C203.3 271.799 203.598 272.737 203.897 273.719C204.45 275.468 205.046 277.302 206.409 278.582" stroke="#575756" stroke-width="0.5" stroke-miterlimit="10" stroke-linecap="round"/>
<path d="M211.561 274.06C211.859 276.15 212.711 278.07 213.69 279.947L211.561 274.06Z" fill="#D1EBE1"/>
<path d="M211.561 274.06C211.859 276.15 212.711 278.07 213.69 279.947" stroke="#575756" stroke-width="0.5" stroke-miterlimit="10" stroke-linecap="round"/>
<path d="M344.967 21.3309C364.128 64.5901 333.214 114.547 294.551 133.361L344.967 21.3309Z" fill="#D1EBE1"/>
<path d="M344.967 21.3309C364.128 64.5901 333.214 114.547 294.551 133.361" stroke="#575756" stroke-width="0.5" stroke-miterlimit="10" stroke-linecap="round"/>
<path d="M290.25 139.419C315.416 104.564 333.938 62.7129 344.2 21.6722C330.532 29.8207 315.756 47.44 306.516 67.1071C297.276 86.7742 294.551 115.656 290.591 138.95" fill="#D1EBE1"/>
<path d="M290.25 139.419C315.416 104.564 333.938 62.7129 344.2 21.6722C330.532 29.8207 315.756 47.44 306.516 67.1071C297.276 86.7742 294.551 115.656 290.591 138.95" stroke="#575756" stroke-width="0.5" stroke-miterlimit="10" stroke-linecap="round"/>
<path d="M276.752 156.654C281.436 151.151 285.95 145.349 290.25 139.419L276.752 156.654Z" fill="#D1EBE1"/>
<path d="M276.752 156.654C281.436 151.151 285.95 145.349 290.25 139.419" stroke="#575756" stroke-width="0.5" stroke-miterlimit="10" stroke-linecap="round"/>
<path d="M299.874 125.511C304.898 123.549 309.88 121.586 314.905 119.667L299.874 125.511Z" fill="#D1EBE1"/>
<path d="M299.874 125.511C304.898 123.549 309.88 121.586 314.905 119.667" stroke="#575756" stroke-width="0.5" stroke-miterlimit="10" stroke-linecap="round"/>
<path d="M305.878 116.04C310.519 114.59 315.118 113.139 319.759 111.731C321.377 111.219 322.953 110.75 324.613 110.537" fill="#D1EBE1"/>
<path d="M305.878 116.04C310.519 114.59 315.118 113.139 319.759 111.731C321.377 111.219 322.953 110.75 324.613 110.537" stroke="#575756" stroke-width="0.5" stroke-miterlimit="10" stroke-linecap="round"/>
<path d="M309.54 109.47C317.247 107.508 324.571 104.436 331.894 101.322L309.54 109.47Z" fill="#D1EBE1"/>
<path d="M309.54 109.47C317.247 107.508 324.571 104.436 331.894 101.322" stroke="#575756" stroke-width="0.5" stroke-miterlimit="10" stroke-linecap="round"/>
<path d="M314.053 101.877C322.058 99.4875 329.936 96.6291 337.6 93.3015L314.053 101.877Z" fill="#D1EBE1"/>
<path d="M314.053 101.877C322.058 99.4875 329.936 96.6291 337.6 93.3015" stroke="#575756" stroke-width="0.5" stroke-miterlimit="10" stroke-linecap="round"/>
<path d="M317.076 95.3067C324.869 92.8323 332.661 90.4432 340.496 88.0968L317.076 95.3067Z" fill="#D1EBE1"/>
<path d="M317.076 95.3067C324.869 92.8323 332.661 90.4432 340.496 88.0968" stroke="#575756" stroke-width="0.5" stroke-miterlimit="10" stroke-linecap="round"/>
<path d="M320.653 87.7981C328.616 85.537 336.451 82.9346 344.2 79.991L320.653 87.7981Z" fill="#D1EBE1"/>
<path d="M320.653 87.7981C328.616 85.537 336.451 82.9346 344.2 79.991" stroke="#575756" stroke-width="0.5" stroke-miterlimit="10" stroke-linecap="round"/>
<path d="M324.06 79.5644C328.573 77.9433 333.087 76.3221 337.558 74.701C341.007 73.4638 343.86 72.2692 347.181 70.6907" fill="#D1EBE1"/>
<path d="M324.06 79.5644C328.573 77.9433 333.087 76.3221 337.558 74.701C341.007 73.4638 343.86 72.2692 347.181 70.6907" stroke="#575756" stroke-width="0.5" stroke-miterlimit="10" stroke-linecap="round"/>
<path d="M327.636 71.8853C331.298 70.0082 335.003 68.1311 338.665 66.254C342.497 64.2915 346.329 62.3717 349.991 60.1107" fill="#D1EBE1"/>
<path d="M327.636 71.8853C331.298 70.0082 335.003 68.1311 338.665 66.254C342.497 64.2915 346.329 62.3717 349.991 60.1107" stroke="#575756" stroke-width="0.5" stroke-miterlimit="10" stroke-linecap="round"/>
<path d="M331.937 61.6891C336.365 59.3427 340.794 56.9963 345.265 54.6499C347.096 53.6687 348.884 52.7301 350.63 51.5782" fill="#D1EBE1"/>
<path d="M331.937 61.6891C336.365 59.3427 340.794 56.9963 345.265 54.6499C347.096 53.6687 348.884 52.7301 350.63 51.5782" stroke="#575756" stroke-width="0.5" stroke-miterlimit="10" stroke-linecap="round"/>
<path d="M334.62 52.6447C339.602 50.469 344.413 47.8239 348.842 44.7096C349.48 44.283 349.523 43.899 350.162 43.4724" fill="#D1EBE1"/>
<path d="M334.62 52.6447C339.602 50.469 344.413 47.8239 348.842 44.7096C349.48 44.283 349.523 43.899 350.162 43.4724" stroke="#575756" stroke-width="0.5" stroke-miterlimit="10" stroke-linecap="round"/>
<path d="M337.515 45.1789C341.092 42.0646 345.393 39.1635 349.608 36.9451L337.515 45.1789Z" fill="#D1EBE1"/>
<path d="M337.515 45.1789C341.092 42.0646 345.393 39.1635 349.608 36.9451" stroke="#575756" stroke-width="0.5" stroke-miterlimit="10" stroke-linecap="round"/>
<path d="M339.857 37.4571C342.114 34.6841 344.967 31.8257 347.692 29.4793L339.857 37.4571Z" fill="#D1EBE1"/>
<path d="M339.857 37.4571C342.114 34.6841 344.967 31.8257 347.692 29.4793" stroke="#575756" stroke-width="0.5" stroke-miterlimit="10" stroke-linecap="round"/>
<path d="M339.857 37.4571C338.665 34.3428 337.217 30.5886 336.025 27.4742L339.857 37.4571Z" fill="#D1EBE1"/>
<path d="M339.857 37.4571C338.665 34.3428 337.217 30.5886 336.025 27.4742" stroke="#575756" stroke-width="0.5" stroke-miterlimit="10" stroke-linecap="round"/>
<path d="M337.089 45.0935C334.662 41.4673 332.193 37.2437 329.978 33.4895L337.089 45.0935Z" fill="#D1EBE1"/>
<path d="M337.089 45.0935C334.662 41.4673 332.193 37.2437 329.978 33.4895" stroke="#575756" stroke-width="0.5" stroke-miterlimit="10" stroke-linecap="round"/>
<path d="M334.492 52.3461C331.128 47.7813 328.105 42.9178 325.55 37.8411L334.492 52.3461Z" fill="#D1EBE1"/>
<path d="M334.492 52.3461C331.128 47.7813 328.105 42.9178 325.55 37.8411" stroke="#575756" stroke-width="0.5" stroke-miterlimit="10" stroke-linecap="round"/>
<path d="M331.639 61.4757C329.084 58.9586 326.785 56.2283 324.741 53.3273C322.952 50.8102 321.377 48.1652 319.802 45.4775" fill="#D1EBE1"/>
<path d="M331.639 61.4757C329.084 58.9586 326.785 56.2283 324.741 53.3273C322.952 50.8102 321.377 48.1652 319.802 45.4775" stroke="#575756" stroke-width="0.5" stroke-miterlimit="10" stroke-linecap="round"/>
<path d="M327.253 71.6293C325.805 70.0508 324.4 68.4723 322.952 66.8511C321.334 65.0167 319.674 63.2249 318.183 61.2624C316.523 59.0867 315.075 56.7403 313.84 54.2659" fill="#D1EBE1"/>
<path d="M327.253 71.6293C325.805 70.0508 324.4 68.4723 322.952 66.8511C321.334 65.0167 319.674 63.2249 318.183 61.2624C316.523 59.0867 315.075 56.7403 313.84 54.2659" stroke="#575756" stroke-width="0.5" stroke-miterlimit="10" stroke-linecap="round"/>
<path d="M324.272 79.4364C322.314 77.0473 320.398 74.7009 318.439 72.3118C317.247 70.8613 316.054 69.3681 314.99 67.7897C313.67 65.8272 312.605 63.7794 311.541 61.689C311.2 61.0064 310.86 60.3238 310.476 59.6412" fill="#D1EBE1"/>
<path d="M324.272 79.4364C322.314 77.0473 320.398 74.7009 318.439 72.3118C317.247 70.8613 316.054 69.3681 314.99 67.7897C313.67 65.8272 312.605 63.7794 311.541 61.689C311.2 61.0064 310.86 60.3238 310.476 59.6412" stroke="#575756" stroke-width="0.5" stroke-miterlimit="10" stroke-linecap="round"/>
<path d="M305.239 70.7334C306.389 73.9757 308.177 75.3835 310.221 77.8153C313.201 81.3562 316.352 84.8545 320.185 87.4568" fill="#D1EBE1"/>
<path d="M305.239 70.7334C306.389 73.9757 308.177 75.3835 310.221 77.8153C313.201 81.3562 316.352 84.8545 320.185 87.4568" stroke="#575756" stroke-width="0.5" stroke-miterlimit="10" stroke-linecap="round"/>
<path d="M316.65 95.1359C313.372 93.1735 310.561 90.4858 307.836 87.7554C305.324 85.2384 302.769 82.508 302.045 79.0098" fill="#D1EBE1"/>
<path d="M316.65 95.1359C313.372 93.1735 310.561 90.4858 307.836 87.7554C305.324 85.2384 302.769 82.508 302.045 79.0098" stroke="#575756" stroke-width="0.5" stroke-miterlimit="10" stroke-linecap="round"/>
<path d="M313.883 101.877C308.603 97.5678 303.237 93.1309 299.788 87.2863L313.883 101.877Z" fill="#D1EBE1"/>
<path d="M313.883 101.877C308.603 97.5678 303.237 93.1309 299.788 87.2863" stroke="#575756" stroke-width="0.5" stroke-miterlimit="10" stroke-linecap="round"/>
<path d="M309.327 109.257C308.007 107.977 306.687 106.655 305.367 105.375C302.301 102.346 299.235 99.1037 297.83 95.0508" fill="#D1EBE1"/>
<path d="M309.327 109.257C308.007 107.977 306.687 106.655 305.367 105.375C302.301 102.346 299.235 99.1037 297.83 95.0508" stroke="#575756" stroke-width="0.5" stroke-miterlimit="10" stroke-linecap="round"/>
<path d="M305.622 115.528C301.79 112.585 298.469 108.958 295.828 104.906L305.622 115.528Z" fill="#D1EBE1"/>
<path d="M305.622 115.528C301.79 112.585 298.469 108.958 295.828 104.906" stroke="#575756" stroke-width="0.5" stroke-miterlimit="10" stroke-linecap="round"/>
<path d="M299.49 124.658C298.852 123.89 298.213 123.122 297.617 122.312C296.127 120.306 295.105 117.96 294.125 115.656" fill="#D1EBE1"/>
<path d="M299.49 124.658C298.852 123.89 298.213 123.122 297.617 122.312C296.127 120.306 295.105 117.96 294.125 115.656" stroke="#575756" stroke-width="0.5" stroke-miterlimit="10" stroke-linecap="round"/>
<path d="M420.59 118.045C437.793 108.745 458.402 111.347 475.775 117.96C489.827 123.335 503.623 130.673 516.057 139.547C529.001 148.805 543.692 163.224 556.423 172.695" fill="#D1EBE1"/>
<path d="M420.59 118.045C437.793 108.745 458.402 111.347 475.775 117.96C489.827 123.335 503.623 130.673 516.057 139.547C529.001 148.805 543.692 163.224 556.423 172.695" stroke="#575756" stroke-width="0.5" stroke-miterlimit="10" stroke-linecap="round"/>
<path d="M417.354 117.832C437.708 119.283 457.891 124.53 477.053 131.91C504.858 142.619 530.747 157.721 556.466 172.738C511.586 175.426 447.033 152.516 418.206 117.917" fill="#D1EBE1"/>
<path d="M417.354 117.832C437.708 119.283 457.891 124.53 477.053 131.91C504.858 142.619 530.747 157.721 556.466 172.738C511.586 175.426 447.033 152.516 418.206 117.917" stroke="#575756" stroke-width="0.5" stroke-miterlimit="10" stroke-linecap="round"/>
<path d="M389.549 118.344C398.789 117.278 408.072 117.15 417.312 117.832L389.549 118.344Z" fill="#D1EBE1"/>
<path d="M389.549 118.344C398.789 117.278 408.072 117.15 417.312 117.832" stroke="#575756" stroke-width="0.5" stroke-miterlimit="10" stroke-linecap="round"/>
<path d="M434.599 119.794C440.774 117.064 447.587 114.376 454.101 112.457L434.599 119.794Z" fill="#D1EBE1"/>
<path d="M434.599 119.794C440.774 117.064 447.587 114.376 454.101 112.457" stroke="#575756" stroke-width="0.5" stroke-miterlimit="10" stroke-linecap="round"/>
<path d="M445.202 121.8C451.717 118.557 459.254 116.766 466.28 114.846L445.202 121.8Z" fill="#D1EBE1"/>
<path d="M445.202 121.8C451.717 118.557 459.254 116.766 466.28 114.846" stroke="#575756" stroke-width="0.5" stroke-miterlimit="10" stroke-linecap="round"/>
<path d="M456.443 124.658C462.873 121.629 469.686 119.496 476.669 118.344L456.443 124.658Z" fill="#D1EBE1"/>
<path d="M456.443 124.658C462.873 121.629 469.686 119.496 476.669 118.344" stroke="#575756" stroke-width="0.5" stroke-miterlimit="10" stroke-linecap="round"/>
<path d="M465.598 127.602C467.642 127.218 469.942 126.407 472.028 126.023C476.925 125.084 481.694 123.549 486.633 122.61" fill="#D1EBE1"/>
<path d="M465.598 127.602C467.642 127.218 469.942 126.407 472.028 126.023C476.925 125.084 481.694 123.549 486.633 122.61" stroke="#575756" stroke-width="0.5" stroke-miterlimit="10" stroke-linecap="round"/>
<path d="M476.584 131.271C483.397 130.076 489.358 126.663 496.214 127.431L476.584 131.271Z" fill="#D1EBE1"/>
<path d="M476.584 131.271C483.397 130.076 489.358 126.663 496.214 127.431" stroke="#575756" stroke-width="0.5" stroke-miterlimit="10" stroke-linecap="round"/>
<path d="M486.761 135.665C493.233 134.3 499.833 132.892 506.476 133.404L486.761 135.665Z" fill="#D1EBE1"/>
<path d="M486.761 135.665C493.233 134.3 499.833 132.892 506.476 133.404" stroke="#575756" stroke-width="0.5" stroke-miterlimit="10" stroke-linecap="round"/>
<path d="M498.556 140.699C504.177 138.864 509.031 138.267 514.907 138.95L498.556 140.699Z" fill="#D1EBE1"/>
<path d="M498.556 140.699C504.177 138.864 509.031 138.267 514.907 138.95" stroke="#575756" stroke-width="0.5" stroke-miterlimit="10" stroke-linecap="round"/>
<path d="M507.2 145.306C512.267 145.264 517.377 144.453 522.401 144.41L507.2 145.306Z" fill="#D1EBE1"/>
<path d="M507.2 145.306C512.267 145.264 517.377 144.453 522.401 144.41" stroke="#575756" stroke-width="0.5" stroke-miterlimit="10" stroke-linecap="round"/>
<path d="M517.334 150.468C520.911 150.34 525.041 149.786 528.618 149.658L517.334 150.468Z" fill="#D1EBE1"/>
<path d="M517.334 150.468C520.911 150.34 525.041 149.786 528.618 149.658" stroke="#575756" stroke-width="0.5" stroke-miterlimit="10" stroke-linecap="round"/>
<path d="M526.872 155.716C529.725 155.673 533.089 155.161 535.857 155.759L526.872 155.716Z" fill="#D1EBE1"/>
<path d="M526.872 155.716C529.725 155.673 533.089 155.161 535.857 155.759" stroke="#575756" stroke-width="0.5" stroke-miterlimit="10" stroke-linecap="round"/>
<path d="M534.877 160.067C536.623 159.939 538.71 159.811 540.498 159.811L534.877 160.067Z" fill="#D1EBE1"/>
<path d="M534.877 160.067C536.623 159.939 538.71 159.811 540.498 159.811" stroke="#575756" stroke-width="0.5" stroke-miterlimit="10" stroke-linecap="round"/>
<path d="M434.429 120.093C434.855 123.378 435.749 126.578 436.686 129.777C437.665 132.977 438.9 136.134 441.242 138.523" fill="#D1EBE1"/>
<path d="M434.429 120.093C434.855 123.378 435.749 126.578 436.686 129.777C437.665 132.977 438.9 136.134 441.242 138.523" stroke="#575756" stroke-width="0.5" stroke-miterlimit="10" stroke-linecap="round"/>
<path d="M446.182 121.458C446.692 124.701 447.161 127.943 447.672 131.185C448.353 135.75 449.332 140.955 451.547 145.008" fill="#D1EBE1"/>
<path d="M446.182 121.458C446.692 124.701 447.161 127.943 447.672 131.185C448.353 135.75 449.332 140.955 451.547 145.008" stroke="#575756" stroke-width="0.5" stroke-miterlimit="10" stroke-linecap="round"/>
<path d="M456.358 125.298C456.912 129.436 457.593 132.764 458.36 136.859C458.956 139.888 459.594 142.917 460.914 145.69C461.894 147.781 463.682 150.127 465.045 152.047" fill="#D1EBE1"/>
<path d="M456.358 125.298C456.912 129.436 457.593 132.764 458.36 136.859C458.956 139.888 459.594 142.917 460.914 145.69C461.894 147.781 463.682 150.127 465.045 152.047" stroke="#575756" stroke-width="0.5" stroke-miterlimit="10" stroke-linecap="round"/>
<path d="M465.598 127.602C467.302 135.835 469.942 143.899 473.518 151.492C474.498 153.583 475.775 156.441 477.649 157.721" fill="#D1EBE1"/>
<path d="M465.598 127.602C467.302 135.835 469.942 143.899 473.518 151.492C474.498 153.583 475.775 156.441 477.649 157.721" stroke="#575756" stroke-width="0.5" stroke-miterlimit="10" stroke-linecap="round"/>
<path d="M476.542 131.398C478.075 142.064 481.864 152.388 487.527 161.518L476.542 131.398Z" fill="#D1EBE1"/>
<path d="M476.542 131.398C478.075 142.064 481.864 152.388 487.527 161.518" stroke="#575756" stroke-width="0.5" stroke-miterlimit="10" stroke-linecap="round"/>
<path d="M486.761 135.665C488.038 139.163 489.869 143.216 491.147 146.671C493.489 153.071 495.873 159.555 499.706 165.187" fill="#D1EBE1"/>
<path d="M486.761 135.665C488.038 139.163 489.869 143.216 491.147 146.671C493.489 153.071 495.873 159.555 499.706 165.187" stroke="#575756" stroke-width="0.5" stroke-miterlimit="10" stroke-linecap="round"/>
<path d="M498.726 141.467C500.004 148.677 503.24 154.137 506.518 160.665C507.711 163.054 508.903 165.443 510.138 167.832" fill="#D1EBE1"/>
<path d="M498.726 141.467C500.004 148.677 503.24 154.137 506.518 160.665C507.711 163.054 508.903 165.443 510.138 167.832" stroke="#575756" stroke-width="0.5" stroke-miterlimit="10" stroke-linecap="round"/>
<path d="M507.2 145.306C509.797 153.967 514.141 161.859 518.569 169.752L507.2 145.306Z" fill="#D1EBE1"/>
<path d="M507.2 145.306C509.797 153.967 514.141 161.859 518.569 169.752" stroke="#575756" stroke-width="0.5" stroke-miterlimit="10" stroke-linecap="round"/>
<path d="M517.334 150.468C519.889 157.465 522.912 164.333 526.404 170.903L517.334 150.468Z" fill="#D1EBE1"/>
<path d="M517.334 150.468C519.889 157.465 522.912 164.333 526.404 170.903" stroke="#575756" stroke-width="0.5" stroke-miterlimit="10" stroke-linecap="round"/>
<path d="M527.128 156.014C528.49 161.688 530.449 166.595 533.174 171.757L527.128 156.014Z" fill="#D1EBE1"/>
<path d="M527.128 156.014C528.49 161.688 530.449 166.595 533.174 171.757" stroke="#575756" stroke-width="0.5" stroke-miterlimit="10" stroke-linecap="round"/>
<path d="M534.92 160.451C535.388 162.627 536.368 164.717 537.262 166.765C538.156 168.813 539.859 171.415 541.648 172.781" fill="#D1EBE1"/>
<path d="M534.92 160.451C535.388 162.627 536.368 164.717 537.262 166.765C538.156 168.813 539.859 171.415 541.648 172.781" stroke="#575756" stroke-width="0.5" stroke-miterlimit="10" stroke-linecap="round"/>
<path d="M542.159 164.547C543.99 166.978 546.076 170.946 548.333 172.908L542.159 164.547Z" fill="#D1EBE1"/>
<path d="M542.159 164.547C543.99 166.978 546.076 170.946 548.333 172.908" stroke="#575756" stroke-width="0.5" stroke-miterlimit="10" stroke-linecap="round"/>
<path d="M132.744 164.888C144.667 150.554 154.503 134.812 160.592 117.022C170.428 88.3527 178.816 52.1755 177.454 21.7149C172.089 26.1091 166.425 30.3753 161.273 35.0254C128.827 64.3341 119.757 146.714 141.43 153.455" fill="#D1EBE1"/>
<path d="M132.744 164.888C144.667 150.554 154.503 134.812 160.592 117.022C170.428 88.3527 178.816 52.1755 177.454 21.7149C172.089 26.1091 166.425 30.3753 161.273 35.0254C128.827 64.3341 119.757 146.714 141.43 153.455" stroke="#575756" stroke-width="0.5" stroke-miterlimit="10" stroke-linecap="round"/>
<path d="M177.198 22.4401C160.166 53.9672 142.41 117.619 141.43 153.455L177.198 22.4401Z" fill="#D1EBE1"/>
<path d="M177.198 22.4401C160.166 53.9672 142.41 117.619 141.43 153.455" stroke="#575756" stroke-width="0.5" stroke-miterlimit="10" stroke-linecap="round"/>
<path d="M142.878 139.334C146.966 136.902 150.883 134.257 154.673 131.399L142.878 139.334Z" fill="#D1EBE1"/>
<path d="M142.878 139.334C146.966 136.902 150.883 134.257 154.673 131.399" stroke="#575756" stroke-width="0.5" stroke-miterlimit="10" stroke-linecap="round"/>
<path d="M144.198 129.82C149.606 126.962 155.78 122.354 160.166 118.045L144.198 129.82Z" fill="#D1EBE1"/>
<path d="M144.198 129.82C149.606 126.962 155.78 122.354 160.166 118.045" stroke="#575756" stroke-width="0.5" stroke-miterlimit="10" stroke-linecap="round"/>
<path d="M145.518 119.112C152.076 116.424 158.165 112.627 163.445 107.935L145.518 119.112Z" fill="#D1EBE1"/>
<path d="M145.518 119.112C152.076 116.424 158.165 112.627 163.445 107.935" stroke="#575756" stroke-width="0.5" stroke-miterlimit="10" stroke-linecap="round"/>
<path d="M147.307 112.329C153.651 108.148 159.911 103.882 166.085 99.4447L147.307 112.329Z" fill="#D1EBE1"/>
<path d="M147.307 112.329C153.651 108.148 159.911 103.882 166.085 99.4447" stroke="#575756" stroke-width="0.5" stroke-miterlimit="10" stroke-linecap="round"/>
<path d="M149.393 102.559C151.65 101.834 153.609 100.554 155.567 99.1888C160.038 96.1172 164.382 92.8322 168.597 89.3766" fill="#D1EBE1"/>
<path d="M149.393 102.559C151.65 101.834 153.609 100.554 155.567 99.1888C160.038 96.1172 164.382 92.8322 168.597 89.3766" stroke="#575756" stroke-width="0.5" stroke-miterlimit="10" stroke-linecap="round"/>
<path d="M151.692 93.1735C158.505 89.2486 164.978 84.8117 171.024 79.8203L151.692 93.1735Z" fill="#D1EBE1"/>
<path d="M151.692 93.1735C158.505 89.2486 164.978 84.8117 171.024 79.8203" stroke="#575756" stroke-width="0.5" stroke-miterlimit="10" stroke-linecap="round"/>
<path d="M154.12 84.0866C161.103 79.2658 168.427 76.4074 173.366 69.4962L154.12 84.0866Z" fill="#D1EBE1"/>
<path d="M154.12 84.0866C161.103 79.2658 168.427 76.4074 173.366 69.4962" stroke="#575756" stroke-width="0.5" stroke-miterlimit="10" stroke-linecap="round"/>
<path d="M156.376 76.0235C163.062 71.1174 168.938 66.1686 174.516 60.0253L156.376 76.0235Z" fill="#D1EBE1"/>
<path d="M156.376 76.0235C163.062 71.1174 168.938 66.1686 174.516 60.0253" stroke="#575756" stroke-width="0.5" stroke-miterlimit="10" stroke-linecap="round"/>
<path d="M158.931 66.2966C165.148 63.0116 170.769 58.6601 175.538 53.498L158.931 66.2966Z" fill="#D1EBE1"/>
<path d="M158.931 66.2966C165.148 63.0116 170.769 58.6601 175.538 53.498" stroke="#575756" stroke-width="0.5" stroke-miterlimit="10" stroke-linecap="round"/>
<path d="M162.04 58.1909C167.532 54.01 171.705 49.7012 176.517 44.7524L162.04 58.1909Z" fill="#D1EBE1"/>
<path d="M162.04 58.1909C167.532 54.01 171.705 49.7012 176.517 44.7524" stroke="#575756" stroke-width="0.5" stroke-miterlimit="10" stroke-linecap="round"/>
<path d="M165.191 48.8478C169.747 45.7761 173.409 42.1925 177.369 38.3956L165.191 48.8478Z" fill="#D1EBE1"/>
<path d="M165.191 48.8478C169.747 45.7761 173.409 42.1925 177.369 38.3956" stroke="#575756" stroke-width="0.5" stroke-miterlimit="10" stroke-linecap="round"/>
<path d="M168.767 40.1022C172.387 37.1159 174.175 34.8122 177.071 31.1432L168.767 40.1022Z" fill="#D1EBE1"/>
<path d="M168.767 40.1022C172.387 37.1159 174.175 34.8122 177.071 31.1432" stroke="#575756" stroke-width="0.5" stroke-miterlimit="10" stroke-linecap="round"/>
<path d="M142.325 138.992C140.068 138.566 137.981 137.585 135.98 136.518C133.766 135.323 132.148 134.556 130.146 132.977" fill="#D1EBE1"/>
<path d="M142.325 138.992C140.068 138.566 137.981 137.585 135.98 136.518C133.766 135.323 132.148 134.556 130.146 132.977" stroke="#575756" stroke-width="0.5" stroke-miterlimit="10" stroke-linecap="round"/>
<path d="M143.687 129.393C143.56 129.607 143.219 129.521 143.006 129.393C138.194 126.919 133.979 123.378 129.849 119.88" fill="#D1EBE1"/>
<path d="M143.687 129.393C143.56 129.607 143.219 129.521 143.006 129.393C138.194 126.919 133.979 123.378 129.849 119.88" stroke="#575756" stroke-width="0.5" stroke-miterlimit="10" stroke-linecap="round"/>
<path d="M145.774 118.472C143.304 118.045 141.175 116.552 139.216 115.016C137.385 113.608 135.597 112.115 133.809 110.622C132.872 109.854 131.935 109.044 130.998 108.276" fill="#D1EBE1"/>
<path d="M145.774 118.472C143.304 118.045 141.175 116.552 139.216 115.016C137.385 113.608 135.597 112.115 133.809 110.622C132.872 109.854 131.935 109.044 130.998 108.276" stroke="#575756" stroke-width="0.5" stroke-miterlimit="10" stroke-linecap="round"/>
<path d="M146.966 111.859C146.2 112.371 145.22 111.646 144.624 111.006C140.281 106.356 136.193 101.45 132.403 96.3732" fill="#D1EBE1"/>
<path d="M146.966 111.859C146.2 112.371 145.22 111.646 144.624 111.006C140.281 106.356 136.193 101.45 132.403 96.3732" stroke="#575756" stroke-width="0.5" stroke-miterlimit="10" stroke-linecap="round"/>
<path d="M149.052 102.218C142.452 99.2316 137.726 93.1309 134.107 86.8596L149.052 102.218Z" fill="#D1EBE1"/>
<path d="M149.052 102.218C142.452 99.2316 137.726 93.1309 134.107 86.8596" stroke="#575756" stroke-width="0.5" stroke-miterlimit="10" stroke-linecap="round"/>
<path d="M151.096 94.0267C150.032 92.8749 148.371 90.7844 147.307 89.6326C145.476 87.6274 143.602 85.6223 141.984 83.4039C140.153 80.9722 138.62 78.2845 137.428 75.5115" fill="#D1EBE1"/>
<path d="M151.096 94.0267C150.032 92.8749 148.371 90.7844 147.307 89.6326C145.476 87.6274 143.602 85.6223 141.984 83.4039C140.153 80.9722 138.62 78.2845 137.428 75.5115" stroke="#575756" stroke-width="0.5" stroke-miterlimit="10" stroke-linecap="round"/>
<path d="M153.268 84.2145C147.86 78.9244 144.241 72.5678 140.579 65.9552L153.268 84.2145Z" fill="#D1EBE1"/>
<path d="M153.268 84.2145C147.86 78.9244 144.241 72.5678 140.579 65.9552" stroke="#575756" stroke-width="0.5" stroke-miterlimit="10" stroke-linecap="round"/>
<path d="M155.567 76.2794C151.437 70.3494 147.903 64.6327 144.369 58.3188L155.567 76.2794Z" fill="#D1EBE1"/>
<path d="M155.567 76.2794C151.437 70.3494 147.903 64.6327 144.369 58.3188" stroke="#575756" stroke-width="0.5" stroke-miterlimit="10" stroke-linecap="round"/>
<path d="M158.591 65.6566C155.354 60.1532 152.374 55.2471 149.18 49.701L158.591 65.6566Z" fill="#D1EBE1"/>
<path d="M158.591 65.6566C155.354 60.1532 152.374 55.2471 149.18 49.701" stroke="#575756" stroke-width="0.5" stroke-miterlimit="10" stroke-linecap="round"/>
<path d="M161.571 57.2949C160.677 56.3563 159.996 55.2045 159.357 54.0526C157.228 50.1704 155.567 46.9707 153.736 42.9605" fill="#D1EBE1"/>
<path d="M161.571 57.2949C160.677 56.3563 159.996 55.2045 159.357 54.0526C157.228 50.1704 155.567 46.9707 153.736 42.9605" stroke="#575756" stroke-width="0.5" stroke-miterlimit="10" stroke-linecap="round"/>
<path d="M164.594 48.4639C163.956 47.3974 163.445 46.2882 162.934 45.179C161.614 42.4059 160.422 40.2302 159.102 37.4572" fill="#D1EBE1"/>
<path d="M164.594 48.4639C163.956 47.3974 163.445 46.2882 162.934 45.179C161.614 42.4059 160.422 40.2302 159.102 37.4572" stroke="#575756" stroke-width="0.5" stroke-miterlimit="10" stroke-linecap="round"/>
<path d="M168.682 39.8888C167.703 38.9503 166.851 37.2865 166.298 36.0066C165.616 34.4281 165.191 33.8735 164.424 32.1244" fill="#D1EBE1"/>
<path d="M168.682 39.8888C167.703 38.9503 166.851 37.2865 166.298 36.0066C165.616 34.4281 165.191 33.8735 164.424 32.1244" stroke="#575756" stroke-width="0.5" stroke-miterlimit="10" stroke-linecap="round"/>
<path d="M102.98 43.0884C63.5075 71.2026 27.5693 131.654 37.5332 179.094L102.98 43.0884Z" fill="#D1EBE1"/>
<path d="M102.98 43.0884C63.5075 71.2026 27.5693 131.654 37.5332 179.094" stroke="#575756" stroke-width="0.5" stroke-miterlimit="10" stroke-linecap="round"/>
<path d="M37.0222 181.228C47.6248 130.844 70.4482 82.0387 102.98 43.0884C100.425 46.1601 100.808 66.1685 96.678 85.9636C88.7154 124.189 67.8507 156.484 37.448 179.862" fill="#D1EBE1"/>
<path d="M37.0222 181.228C47.6248 130.844 70.4482 82.0387 102.98 43.0884C100.425 46.1601 100.808 66.1685 96.678 85.9636C88.7153 124.189 67.8507 156.484 37.448 179.862" stroke="#575756" stroke-width="0.5" stroke-miterlimit="10" stroke-linecap="round"/>
<path d="M31.4016 219.069C32.4661 206.441 34.3822 193.813 37.0222 181.27L31.4016 219.069Z" fill="#D1EBE1"/>
<path d="M31.4016 219.069C32.4661 206.441 34.3822 193.813 37.0222 181.27" stroke="#575756" stroke-width="0.5" stroke-miterlimit="10" stroke-linecap="round"/>
<path d="M40.8545 166.168C48.0507 164.888 54.9062 161.262 61.123 157.422L40.8545 166.168Z" fill="#D1EBE1"/>
<path d="M40.8545 166.168C48.0507 164.888 54.9062 161.262 61.123 157.422" stroke="#575756" stroke-width="0.5" stroke-miterlimit="10" stroke-linecap="round"/>
<path d="M43.5797 155.46C48.0081 154.393 52.4365 153.284 56.7371 151.706C61.1229 150.084 65.0404 147.781 68.8726 145.093C70.1927 144.154 71.5127 143.216 72.8752 142.277" fill="#D1EBE1"/>
<path d="M43.5797 155.46C48.0081 154.393 52.4365 153.284 56.7371 151.706C61.1229 150.084 65.0404 147.781 68.8726 145.093C70.1927 144.154 71.5127 143.216 72.8752 142.277" stroke="#575756" stroke-width="0.5" stroke-miterlimit="10" stroke-linecap="round"/>
<path d="M46.9435 145.221C58.781 140.955 69.8946 135.835 80.7953 129.479L46.9435 145.221Z" fill="#D1EBE1"/>
<path d="M46.9435 145.221C58.781 140.955 69.8946 135.835 80.7953 129.479" stroke="#575756" stroke-width="0.5" stroke-miterlimit="10" stroke-linecap="round"/>
<path d="M51.0739 134.086C64.5295 129.351 77.7721 124.658 87.8212 114.547L51.0739 134.086Z" fill="#D1EBE1"/>
<path d="M51.0739 134.086C64.5295 129.351 77.7721 124.658 87.8212 114.547" stroke="#575756" stroke-width="0.5" stroke-miterlimit="10" stroke-linecap="round"/>
<path d="M54.9487 123.506C67.4249 118.813 78.1127 114.163 91.0147 104.948L54.9487 123.506Z" fill="#D1EBE1"/>
<path d="M54.9487 123.506C67.4249 118.813 78.1127 114.163 91.0147 104.948" stroke="#575756" stroke-width="0.5" stroke-miterlimit="10" stroke-linecap="round"/>
<path d="M60.2714 111.987C73.1308 107.892 85.2663 100.127 95.358 91.1257L60.2714 111.987Z" fill="#D1EBE1"/>
<path d="M60.2714 111.987C73.1308 107.892 85.2663 100.127 95.358 91.1257" stroke="#575756" stroke-width="0.5" stroke-miterlimit="10" stroke-linecap="round"/>
<path d="M65.4662 100.767C78.0701 96.757 89.5669 88.2673 98.1257 78.1991L65.4662 100.767Z" fill="#D1EBE1"/>
<path d="M65.4662 100.767C78.0701 96.757 89.5669 88.2673 98.1257 78.1991" stroke="#575756" stroke-width="0.5" stroke-miterlimit="10" stroke-linecap="round"/>
<path d="M72.4921 87.6701C82.2005 83.3612 92.6328 75.6394 99.318 67.363L72.4921 87.6701Z" fill="#D1EBE1"/>
<path d="M72.4921 87.6701C82.2005 83.3612 92.6328 75.6394 99.318 67.363" stroke="#575756" stroke-width="0.5" stroke-miterlimit="10" stroke-linecap="round"/>
<path d="M79.9437 74.6582C87.3528 70.9466 94.0806 65.7845 100.042 60.0251L79.9437 74.6582Z" fill="#D1EBE1"/>
<path d="M79.9437 74.6582C87.3528 70.9466 94.0806 65.7845 100.042 60.0251" stroke="#575756" stroke-width="0.5" stroke-miterlimit="10" stroke-linecap="round"/>
<path d="M88.4598 62.2436C93.3992 59.9825 97.1463 56.9108 100.766 52.858L88.4598 62.2436Z" fill="#D1EBE1"/>
<path d="M88.4598 62.2436C93.3992 59.9825 97.1463 56.9108 100.766 52.858" stroke="#575756" stroke-width="0.5" stroke-miterlimit="10" stroke-linecap="round"/>
<path d="M40.3435 165.955C38.5551 162.755 37.1925 159.342 36.2557 155.844L40.3435 165.955Z" fill="#D1EBE1"/>
<path d="M40.3435 165.955C38.5551 162.755 37.1925 159.342 36.2557 155.844" stroke="#575756" stroke-width="0.5" stroke-miterlimit="10" stroke-linecap="round"/>
<path d="M43.6223 154.905C42.6855 154.265 42.2171 153.156 41.7487 152.132C40.4713 149.06 39.1513 145.946 37.8738 142.875" fill="#D1EBE1"/>
<path d="M43.6223 154.905C42.6855 154.265 42.2171 153.156 41.7487 152.132C40.4713 149.06 39.1513 145.946 37.8738 142.875" stroke="#575756" stroke-width="0.5" stroke-miterlimit="10" stroke-linecap="round"/>
<path d="M46.7732 144.453C44.6442 140.016 42.5151 135.579 40.7267 130.972L46.7732 144.453Z" fill="#D1EBE1"/>
<path d="M46.7732 144.453C44.6442 140.016 42.5151 135.579 40.7267 130.972" stroke="#575756" stroke-width="0.5" stroke-miterlimit="10" stroke-linecap="round"/>
<path d="M50.5203 133.66C49.3706 132.721 48.6042 131.398 47.8377 130.119C46.3048 127.516 44.8997 124.871 43.5797 122.183" fill="#D1EBE1"/>
<path d="M50.5203 133.66C49.3706 132.721 48.6042 131.398 47.8377 130.119C46.3048 127.516 44.8997 124.871 43.5797 122.183" stroke="#575756" stroke-width="0.5" stroke-miterlimit="10" stroke-linecap="round"/>
<path d="M54.6507 122.695C52.5642 118.387 50.6907 113.907 49.1152 109.385L54.6507 122.695Z" fill="#D1EBE1"/>
<path d="M54.6507 122.695C52.5642 118.387 50.6907 113.907 49.1152 109.385" stroke="#575756" stroke-width="0.5" stroke-miterlimit="10" stroke-linecap="round"/>
<path d="M59.8881 111.561C57.8017 107.636 55.8429 103.668 54.012 99.6154L59.8881 111.561Z" fill="#D1EBE1"/>
<path d="M59.8881 111.561C57.8017 107.636 55.8429 103.668 54.012 99.6154" stroke="#575756" stroke-width="0.5" stroke-miterlimit="10" stroke-linecap="round"/>
<path d="M65.083 100.597C63.6353 96.6292 61.7617 93.0456 60.3566 89.078L65.083 100.597Z" fill="#D1EBE1"/>
<path d="M65.083 100.597C63.6353 96.6292 61.7617 93.0456 60.3566 89.078" stroke="#575756" stroke-width="0.5" stroke-miterlimit="10" stroke-linecap="round"/>
<path d="M72.194 87.0728C71.2998 85.8783 70.6185 84.5131 70.0224 83.1053C69.256 81.4414 68.6172 79.735 68.0211 77.9858" fill="#D1EBE1"/>
<path d="M72.194 87.0728C71.2998 85.8783 70.6185 84.5131 70.0224 83.1053C69.256 81.4414 68.6172 79.735 68.0211 77.9858" stroke="#575756" stroke-width="0.5" stroke-miterlimit="10" stroke-linecap="round"/>
<path d="M79.9437 74.6582C79.2198 71.9279 78.2405 69.5388 77.3037 66.3392L79.9437 74.6582Z" fill="#D1EBE1"/>
<path d="M79.9437 74.6582C79.2198 71.9279 78.2405 69.5388 77.3037 66.3392" stroke="#575756" stroke-width="0.5" stroke-miterlimit="10" stroke-linecap="round"/>
<path d="M88.2044 62.1156C87.4379 60.3665 87.0973 58.916 86.3308 57.2095L88.2044 62.1156Z" fill="#D1EBE1"/>
<path d="M88.2044 62.1156C87.4379 60.3665 87.0973 58.916 86.3308 57.2095" stroke="#575756" stroke-width="0.5" stroke-miterlimit="10" stroke-linecap="round"/>
<path d="M282.075 188.608C283.438 187.968 285.609 186.902 286.801 186.518C289.314 185.792 290.889 184.896 293.401 184.129" fill="#D1EBE1"/>
<path d="M282.075 188.608C283.438 187.968 285.609 186.902 286.801 186.518C289.314 185.792 290.889 184.896 293.401 184.129" stroke="#575756" stroke-width="0.5" stroke-miterlimit="10" stroke-linecap="round"/>
<path d="M290.038 193.002C295.871 189.803 302.088 185.835 308.731 185.067L290.038 193.002Z" fill="#D1EBE1"/>
<path d="M290.038 193.002C295.871 189.803 302.088 185.835 308.731 185.067" stroke="#575756" stroke-width="0.5" stroke-miterlimit="10" stroke-linecap="round"/>
<path d="M297.745 197.396C301.109 195.775 304.6 193.13 307.879 191.296C311.115 189.419 315.586 187.03 319.333 186.859" fill="#D1EBE1"/>
<path d="M297.745 197.396C301.109 195.775 304.6 193.13 307.879 191.296C311.115 189.419 315.586 187.03 319.333 186.859" stroke="#575756" stroke-width="0.5" stroke-miterlimit="10" stroke-linecap="round"/>
<path d="M304.472 200.98C313.457 196.714 322.697 193.045 332.15 190.016L304.472 200.98Z" fill="#D1EBE1"/>
<path d="M304.472 200.98C313.457 196.714 322.697 193.045 332.15 190.016" stroke="#575756" stroke-width="0.5" stroke-miterlimit="10" stroke-linecap="round"/>
<path d="M312.989 205.587C322.484 200.639 332.789 196.927 342.923 193.514L312.989 205.587Z" fill="#D1EBE1"/>
<path d="M312.989 205.587C322.484 200.639 332.789 196.927 342.923 193.514" stroke="#575756" stroke-width="0.5" stroke-miterlimit="10" stroke-linecap="round"/>
<path d="M321.973 210.238C332.15 205.758 342.369 201.364 352.929 197.866L321.973 210.238Z" fill="#D1EBE1"/>
<path d="M321.973 210.238C332.15 205.758 342.369 201.364 352.929 197.866" stroke="#575756" stroke-width="0.5" stroke-miterlimit="10" stroke-linecap="round"/>
<path d="M331.809 214.76C342.114 210.451 352.674 206.654 363.362 203.412L331.809 214.76Z" fill="#D1EBE1"/>
<path d="M331.809 214.76C342.114 210.451 352.674 206.654 363.362 203.412" stroke="#575756" stroke-width="0.5" stroke-miterlimit="10" stroke-linecap="round"/>
<path d="M340.325 218.599C347.82 216.168 355.271 213.565 362.808 211.134C365.661 210.195 368.557 209.256 371.409 208.318" fill="#D1EBE1"/>
<path d="M340.325 218.599C347.82 216.168 355.271 213.565 362.808 211.134C365.661 210.195 368.557 209.256 371.409 208.318" stroke="#575756" stroke-width="0.5" stroke-miterlimit="10" stroke-linecap="round"/>
<path d="M349.055 222.311C359.146 219.239 369.323 216.509 379.585 214.12L349.055 222.311Z" fill="#D1EBE1"/>
<path d="M349.055 222.311C359.146 219.239 369.323 216.509 379.585 214.12" stroke="#575756" stroke-width="0.5" stroke-miterlimit="10" stroke-linecap="round"/>
<path d="M358.763 226.108C367.109 222.567 376.477 222.098 384.908 218.727L358.763 226.108Z" fill="#D1EBE1"/>
<path d="M358.763 226.108C367.109 222.567 376.477 222.098 384.908 218.727" stroke="#575756" stroke-width="0.5" stroke-miterlimit="10" stroke-linecap="round"/>
<path d="M368.003 229.307C373.837 227.601 379.755 226.321 385.717 225.084C387.292 224.743 388.868 224.401 390.443 224.06" fill="#D1EBE1"/>
<path d="M368.003 229.307C373.837 227.601 379.755 226.321 385.717 225.084C387.292 224.743 388.868 224.401 390.443 224.06" stroke="#575756" stroke-width="0.5" stroke-miterlimit="10" stroke-linecap="round"/>
<path d="M380.139 232.678C385.972 232.208 391.465 230.587 397.299 230.63L380.139 232.678Z" fill="#D1EBE1"/>
<path d="M380.139 232.678C385.972 232.208 391.465 230.587 397.299 230.63" stroke="#575756" stroke-width="0.5" stroke-miterlimit="10" stroke-linecap="round"/>
<path d="M281.947 189.077C281.564 190.315 282.16 192.021 282.373 193.344C282.927 196.586 283.778 198.463 284.885 201.535" fill="#D1EBE1"/>
<path d="M281.947 189.077C281.564 190.315 282.16 192.021 282.373 193.344C282.927 196.586 283.778 198.463 284.885 201.535" stroke="#575756" stroke-width="0.5" stroke-miterlimit="10" stroke-linecap="round"/>
<path d="M290.038 193.13C289.782 199.785 292.72 206.142 295.871 212.029L290.038 193.13Z" fill="#D1EBE1"/>
<path d="M290.038 193.13C289.782 199.785 292.72 206.142 295.871 212.029" stroke="#575756" stroke-width="0.5" stroke-miterlimit="10" stroke-linecap="round"/>
<path d="M297.745 197.396C297.872 204.436 299.916 211.262 303.195 217.49L297.745 197.396Z" fill="#D1EBE1"/>
<path d="M297.745 197.396C297.872 204.436 299.916 211.262 303.195 217.49" stroke="#575756" stroke-width="0.5" stroke-miterlimit="10" stroke-linecap="round"/>
<path d="M304.217 201.151C305.281 204.777 306.346 208.36 307.368 211.987C308.432 215.613 309.497 219.282 311.626 222.396" fill="#D1EBE1"/>
<path d="M304.217 201.151C305.281 204.777 306.346 208.36 307.368 211.987C308.432 215.613 309.497 219.282 311.626 222.396" stroke="#575756" stroke-width="0.5" stroke-miterlimit="10" stroke-linecap="round"/>
<path d="M312.691 205.588C313.925 210.238 315.16 214.888 316.352 219.538C316.821 221.372 317.928 223.506 318.822 225.639" fill="#D1EBE1"/>
<path d="M312.691 205.588C313.925 210.238 315.16 214.888 316.352 219.538C316.821 221.372 317.928 223.506 318.822 225.639" stroke="#575756" stroke-width="0.5" stroke-miterlimit="10" stroke-linecap="round"/>
<path d="M321.931 210.579C324.017 217.618 326.359 223.591 329.553 230.161L321.931 210.579Z" fill="#D1EBE1"/>
<path d="M321.931 210.579C324.017 217.618 326.359 223.591 329.553 230.161" stroke="#575756" stroke-width="0.5" stroke-miterlimit="10" stroke-linecap="round"/>
<path d="M331.511 214.93C332.022 215.528 333.172 220.562 333.683 221.927C335.088 225.767 336.153 228.966 337.813 232.72" fill="#D1EBE1"/>
<path d="M331.511 214.93C332.022 215.528 333.172 220.562 333.683 221.927C335.088 225.767 336.153 228.966 337.813 232.72" stroke="#575756" stroke-width="0.5" stroke-miterlimit="10" stroke-linecap="round"/>
<path d="M340.325 219.239C341.049 224.999 343.689 229.606 346.287 234.811L340.325 219.239Z" fill="#D1EBE1"/>
<path d="M340.325 219.239C341.049 224.999 343.689 229.606 346.287 234.811" stroke="#575756" stroke-width="0.5" stroke-miterlimit="10" stroke-linecap="round"/>
<path d="M349.055 222.311C350.204 227.686 352.376 232.166 355.612 236.603L349.055 222.311Z" fill="#D1EBE1"/>
<path d="M349.055 222.311C350.204 227.686 352.376 232.166 355.612 236.603" stroke="#575756" stroke-width="0.5" stroke-miterlimit="10" stroke-linecap="round"/>
<path d="M359.189 226.534C360.764 230.587 362.084 234.342 364.98 237.584L359.189 226.534Z" fill="#D1EBE1"/>
<path d="M359.189 226.534C360.764 230.587 362.084 234.342 364.98 237.584" stroke="#575756" stroke-width="0.5" stroke-miterlimit="10" stroke-linecap="round"/>
<path d="M368.301 229.691C369.238 232.678 370.558 234.939 371.921 237.755L368.301 229.691Z" fill="#D1EBE1"/>
<path d="M368.301 229.691C369.238 232.678 370.558 234.939 371.921 237.755" stroke="#575756" stroke-width="0.5" stroke-miterlimit="10" stroke-linecap="round"/>
<path d="M380.139 232.678C381.246 234.512 382.353 236.304 383.503 238.138L380.139 232.678Z" fill="#D1EBE1"/>
<path d="M380.139 232.678C381.246 234.512 382.353 236.304 383.503 238.138" stroke="#575756" stroke-width="0.5" stroke-miterlimit="10" stroke-linecap="round"/>
</g>
</svg>
